<?xml version="1.0" encoding="UTF-8" standalone="no"?>
<svg
   width="514.01733pt"
   height="399.63684pt"
   version="1.1"
   viewBox="0 0 514.01733 399.63684"
   id="svg3185"
   sodipodi:docname="noun-porcupine-puffer-fish-1312022.svg"
   inkscape:version="1.1.1 (c3084ef, 2021-09-22)"
   xmlns:inkscape="http://www.inkscape.org/namespaces/inkscape"
   xmlns:sodipodi="http://sodipodi.sourceforge.net/DTD/sodipodi-0.dtd"
   xmlns="http://www.w3.org/2000/svg"
   xmlns:svg="http://www.w3.org/2000/svg">
  <sodipodi:namedview
     id="namedview3187"
     pagecolor="#ffffff"
     bordercolor="#999999"
     borderopacity="1"
     inkscape:pageshadow="0"
     inkscape:pageopacity="0"
     inkscape:pagecheckerboard="0"
     inkscape:document-units="pt"
     showgrid="false"
     fit-margin-top="0"
     fit-margin-left="0"
     fit-margin-right="0"
     fit-margin-bottom="0"
     inkscape:zoom="0.79821429"
     inkscape:cx="-48.85906"
     inkscape:cy="366.44295"
     inkscape:window-width="1671"
     inkscape:window-height="969"
     inkscape:window-x="0"
     inkscape:window-y="23"
     inkscape:window-maximized="0"
     inkscape:current-layer="g3183" />
  <defs
     id="defs3059">
    <symbol
       id="h"
       overflow="visible">
      <path
         d="m 18.766,-1.125 c -0.96875,0.5 -1.9805,0.875 -3.0312,1.125 -1.043,0.25781 -2.1367,0.39062 -3.2812,0.39062 -3.3984,0 -6.0898,-0.94531 -8.0781,-2.8438 -1.9922,-1.9062 -2.9844,-4.4844 -2.9844,-7.7344 0,-3.2578 0.99219,-5.8359 2.9844,-7.7344 1.9883,-1.9062 4.6797,-2.8594 8.0781,-2.8594 1.1445,0 2.2383,0.13281 3.2812,0.39062 1.0508,0.25 2.0625,0.625 3.0312,1.125 v 4.2188 c -0.98047,-0.65625 -1.9453,-1.1406 -2.8906,-1.4531 -0.94922,-0.3125 -1.9492,-0.46875 -3,-0.46875 -1.875,0 -3.3516,0.60547 -4.4219,1.8125 -1.0742,1.1992 -1.6094,2.8555 -1.6094,4.9688 0,2.1055 0.53516,3.7617 1.6094,4.9688 1.0703,1.1992 2.5469,1.7969 4.4219,1.7969 1.0508,0 2.0508,-0.14844 3,-0.45312 0.94531,-0.3125 1.9102,-0.80078 2.8906,-1.4688 z"
         id="path2996" />
    </symbol>
    <symbol
       id="d"
       overflow="visible">
      <path
         d="m 13.734,-11.141 c -0.4375,-0.19531 -0.87109,-0.34375 -1.2969,-0.4375 -0.41797,-0.10156 -0.83984,-0.15625 -1.2656,-0.15625 -1.2617,0 -2.2305,0.40625 -2.9062,1.2188 -0.67969,0.80469 -1.0156,1.9531 -1.0156,3.4531 v 7.0625 H 2.3591 v -15.312 h 4.8906 v 2.5156 c 0.625,-1 1.3438,-1.7266 2.1562,-2.1875 0.82031,-0.46875 1.8008,-0.70312 2.9375,-0.70312 0.16406,0 0.34375,0.01172 0.53125,0.03125 0.19531,0.01172 0.47656,0.03906 0.84375,0.07813 z"
         id="path2999" />
    </symbol>
    <symbol
       id="a"
       overflow="visible">
      <path
         d="m 17.641,-7.7031 v 1.4062 H 6.188 c 0.125,1.1484 0.53906,2.0078 1.25,2.5781 0.70703,0.57422 1.7031,0.85938 2.9844,0.85938 1.0312,0 2.082,-0.14844 3.1562,-0.45312 1.082,-0.3125 2.1914,-0.77344 3.3281,-1.3906 v 3.7656 c -1.1562,0.4375 -2.3125,0.76562 -3.4688,0.98438 -1.1562,0.22656 -2.3125,0.34375 -3.4688,0.34375 -2.7734,0 -4.9297,-0.70312 -6.4688,-2.1094 -1.5312,-1.4062 -2.2969,-3.3789 -2.2969,-5.9219 0,-2.5 0.75391,-4.4609 2.2656,-5.8906 1.5078,-1.4375 3.582,-2.1562 6.2188,-2.1562 2.4062,0 4.332,0.73047 5.7812,2.1875 1.4453,1.4492 2.1719,3.3828 2.1719,5.7969 z m -5.0312,-1.625 c 0,-0.92578 -0.27344,-1.6719 -0.8125,-2.2344 -0.54297,-0.57031 -1.25,-0.85938 -2.125,-0.85938 -0.94922,0 -1.7188,0.26562 -2.3125,0.79688 -0.5937,0.53126 -0.96484,1.2969 -1.1094,2.2969 z"
         id="path3002" />
    </symbol>
    <symbol
       id="c"
       overflow="visible">
      <path
         d="m 9.2188,-6.8906 c -1.0234,0 -1.793,0.17188 -2.3125,0.51562 -0.51172,0.34375 -0.76562,0.85547 -0.76562,1.5312 0,0.625 0.20703,1.1172 0.625,1.4688 0.41406,0.34375 0.98828,0.51562 1.7188,0.51562 0.92578,0 1.7031,-0.32812 2.3281,-0.98438 0.63281,-0.66406 0.95312,-1.4922 0.95312,-2.4844 v -0.5625 z m 7.4688,-1.8438 V 0 h -4.9219 v -2.2656 c -0.65625,0.92969 -1.3984,1.6055 -2.2188,2.0312 -0.82422,0.41406 -1.8242,0.625 -3,0.625 -1.5859,0 -2.8711,-0.45703 -3.8594,-1.375 -0.99219,-0.92578 -1.4844,-2.1289 -1.4844,-3.6094 0,-1.7891 0.61328,-3.1016 1.8438,-3.9375 1.2383,-0.84375 3.1797,-1.2656 5.8281,-1.2656 h 2.8906 v -0.39062 c 0,-0.76953 -0.30859,-1.332 -0.92188,-1.6875 -0.61719,-0.36328 -1.5703,-0.54688 -2.8594,-0.54688 -1.0547,0 -2.0312,0.10547 -2.9375,0.3125 -0.89844,0.21094 -1.7305,0.52344 -2.5,0.9375 v -3.7344 c 1.0391,-0.25 2.0859,-0.44141 3.1406,-0.57812 1.0625,-0.13281 2.125,-0.20312 3.1875,-0.20312 2.7578,0 4.75,0.54688 5.9688,1.6406 1.2266,1.0859 1.8438,2.8555 1.8438,5.3125 z"
         id="path3005" />
    </symbol>
    <symbol
       id="b"
       overflow="visible">
      <path
         d="m 7.7031,-19.656 v 4.3438 H 12.75 v 3.5 H 7.7031 v 6.5 c 0,0.71094 0.14062,1.1875 0.42188,1.4375 0.28126,0.25 0.83594,0.375 1.6719,0.375 h 2.5156 v 3.5 h -4.1875 c -1.9375,0 -3.3125,-0.39844 -4.125,-1.2031 -0.80469,-0.8125 -1.2031,-2.1797 -1.2031,-4.1094 v -6.5 h -2.4219 v -3.5 h 2.4219 v -4.3438 z"
         id="path3008" />
    </symbol>
    <symbol
       id="l"
       overflow="visible">
      <path
         d="m 12.766,-13.078 v -8.2031 h 4.9219 V -10e-5 H 12.766 v -2.2188 c -0.66797,0.90625 -1.4062,1.5703 -2.2188,1.9844 -0.8126,0.4141 -1.7578,0.625 -2.8281,0.625 -1.8867,0 -3.4336,-0.75 -4.6406,-2.25 -1.2109,-1.5 -1.8125,-3.4258 -1.8125,-5.7812 0,-2.3633 0.60156,-4.2969 1.8125,-5.7969 1.207,-1.5 2.7539,-2.25 4.6406,-2.25 1.0625,0 2,0.21484 2.8125,0.64062 0.82031,0.42969 1.5664,1.0859 2.2344,1.9688 z m -3.2188,9.9219 c 1.0391,0 1.8359,-0.37891 2.3906,-1.1406 0.55078,-0.76953 0.82812,-1.8828 0.82812,-3.3438 0,-1.457 -0.27734,-2.5664 -0.82812,-3.3281 -0.55469,-0.76953 -1.3516,-1.1562 -2.3906,-1.1562 -1.043,0 -1.8398,0.38672 -2.3906,1.1562 -0.55469,0.76172 -0.82812,1.8711 -0.82812,3.3281 0,1.4609 0.27344,2.5742 0.82812,3.3438 0.55078,0.76172 1.3477,1.1406 2.3906,1.1406 z"
         id="path3011" />
    </symbol>
    <symbol
       id="k"
       overflow="visible">
      <path
         d="m 10.5,-3.1562 c 1.0508,0 1.8516,-0.37891 2.4062,-1.1406 0.55078,-0.76953 0.82812,-1.8828 0.82812,-3.3438 0,-1.457 -0.27734,-2.5664 -0.82812,-3.3281 -0.55469,-0.76953 -1.3555,-1.1562 -2.4062,-1.1562 -1.0547,0 -1.8594,0.38672 -2.4219,1.1562 -0.55469,0.77344 -0.82812,1.8828 -0.82812,3.3281 0,1.4492 0.27344,2.5586 0.82812,3.3281 0.5625,0.77344 1.3672,1.1562 2.4219,1.1562 z m -3.25,-9.9219 c 0.67578,-0.88281 1.4219,-1.5391 2.2344,-1.9688 0.82031,-0.42578 1.7656,-0.64062 2.8281,-0.64062 1.8945,0 3.4453,0.75 4.6562,2.25 1.207,1.5 1.8125,3.4336 1.8125,5.7969 0,2.3555 -0.60547,4.2812 -1.8125,5.7812 -1.2109,1.5 -2.7617,2.25 -4.6562,2.25 -1.0625,0 -2.0078,-0.21094 -2.8281,-0.625 C 8.6719,-0.6602 7.9258,-1.32032 7.25,-2.21882 V -2e-5 H 2.3594 v -21.281 H 7.25 Z"
         id="path3014" />
    </symbol>
    <symbol
       id="j"
       overflow="visible">
      <path
         d="m 0.34375,-15.312 h 4.8906 l 4.125,10.391 3.5,-10.391 h 4.8906 l -6.4375,16.766 c -0.64844,1.6953 -1.4023,2.8828 -2.2656,3.5625 -0.86719,0.6875 -2,1.0312 -3.4062,1.0312 H 2.79685 V 2.8289 h 1.5312 c 0.83203,0 1.4375,-0.13672 1.8125,-0.40625 C 6.52336,2.16093 6.82024,1.69218 7.03117,1.01645 L 7.17179,0.59457 Z"
         id="path3017" />
    </symbol>
    <symbol
       id="i"
       overflow="visible">
      <path
         d="m 0.14062,-20.406 h 18.812 v 3.9688 h -6.7656 V 8e-4 h -5.2656 v -16.438 h -6.7812 z"
         id="path3020" />
    </symbol>
    <symbol
       id="u"
       overflow="visible">
      <path
         d="M 2.3594,-15.312 H 7.25 V 0 H 2.3594 Z m 0,-5.9688 H 7.25 v 4 H 2.3594 Z"
         id="path3023" />
    </symbol>
    <symbol
       id="f"
       overflow="visible">
      <path
         d="M 17.75,-9.3281 V 0 h -4.9219 v -7.1406 c 0,-1.3203 -0.03125,-2.2344 -0.09375,-2.7344 -0.0625,-0.5 -0.16797,-0.86719 -0.3125,-1.1094 -0.1875,-0.3125 -0.44922,-0.55469 -0.78125,-0.73438 -0.32422,-0.17578 -0.69531,-0.26562 -1.1094,-0.26562 -1.0234,0 -1.8242,0.39844 -2.4062,1.1875 -0.58594,0.78125 -0.875,1.8711 -0.875,3.2656 V -1e-4 H 2.3594 v -15.312 H 7.25 v 2.2344 c 0.73828,-0.88281 1.5195,-1.5391 2.3438,-1.9688 0.83203,-0.42578 1.75,-0.64062 2.75,-0.64062 1.7695,0 3.1133,0.54688 4.0312,1.6406 0.91406,1.0859 1.375,2.6562 1.375,4.7188 z"
         id="path3026" />
    </symbol>
    <symbol
       id="g"
       overflow="visible">
      <path
         d="M 17.75,-9.3281 V 0 h -4.9219 v -7.1094 c 0,-1.3438 -0.03125,-2.2656 -0.09375,-2.7656 -0.0625,-0.5 -0.16797,-0.86719 -0.3125,-1.1094 -0.1875,-0.3125 -0.44922,-0.55469 -0.78125,-0.73438 -0.32422,-0.17578 -0.69531,-0.26562 -1.1094,-0.26562 -1.0234,0 -1.8242,0.39844 -2.4062,1.1875 -0.58594,0.78125 -0.875,1.8711 -0.875,3.2656 V -1e-4 H 2.3594 v -21.281 H 7.25 v 8.2031 c 0.73828,-0.88281 1.5195,-1.5391 2.3438,-1.9688 0.83203,-0.42578 1.75,-0.64062 2.75,-0.64062 1.7695,0 3.1133,0.54688 4.0312,1.6406 0.91406,1.0859 1.375,2.6562 1.375,4.7188 z"
         id="path3029" />
    </symbol>
    <symbol
       id="t"
       overflow="visible">
      <path
         d="m 12.766,-2.5938 c -0.66797,0.88672 -1.4062,1.543 -2.2188,1.9688 C 9.7347,-0.20703 8.7894,0 7.7191,0 5.8519,0 4.3129,-0.73438 3.0941,-2.2031 1.8753,-3.6797 1.266,-5.5547 1.266,-7.8281 c 0,-2.2891 0.60938,-4.1641 1.8281,-5.625 1.2188,-1.4688 2.7578,-2.2031 4.625,-2.2031 1.0703,0 2.0156,0.21484 2.8281,0.64062 0.8125,0.41797 1.5508,1.0742 2.2188,1.9688 v -2.2656 h 4.9219 v 13.766 c 0,2.457 -0.77734,4.3359 -2.3281,5.6406 -1.5547,1.3008 -3.8086,1.9531 -6.7656,1.9531 -0.94922,0 -1.8711,-0.074219 -2.7656,-0.21875 C 4.93016,5.68013 4.0317,5.45748 3.1255,5.15669 v -3.8125 c 0.86328,0.48828 1.7031,0.85156 2.5156,1.0938 0.82031,0.23828 1.6484,0.35938 2.4844,0.35938 1.6016,0 2.7734,-0.35156 3.5156,-1.0469 0.75,-0.69922 1.125,-1.7969 1.125,-3.2969 z M 9.5472,-12.125 c -1.0117,0 -1.8047,0.375 -2.375,1.125 -0.5625,0.74219 -0.84375,1.7969 -0.84375,3.1719 0,1.3984 0.26953,2.4609 0.8125,3.1875 0.55078,0.71875 1.3516,1.0781 2.4062,1.0781 1.0195,0 1.8125,-0.36719 2.375,-1.1094 0.5625,-0.75 0.84375,-1.8008 0.84375,-3.1562 0,-1.375 -0.28125,-2.4297 -0.84375,-3.1719 -0.5625,-0.75 -1.3555,-1.125 -2.375,-1.125 z"
         id="path3032" />
    </symbol>
    <symbol
       id="s"
       overflow="visible">
      <path
         d="m 12.422,-21.281 v 3.2188 H 9.7189 c -0.6875,0 -1.1719,0.125 -1.4531,0.375 -0.27344,0.25 -0.40625,0.6875 -0.40625,1.3125 v 1.0625 h 4.1875 v 3.5 H 7.85955 V -2e-4 h -4.8906 v -11.812 h -2.4375 v -3.5 h 2.4375 v -1.0625 c 0,-1.6641 0.46094,-2.8984 1.3906,-3.7031 0.92578,-0.80078 2.3672,-1.2031 4.3281,-1.2031 z"
         id="path3035" />
    </symbol>
    <symbol
       id="e"
       overflow="visible">
      <path
         d="m 9.6406,-12.188 c -1.0859,0 -1.9141,0.39062 -2.4844,1.1719 -0.57422,0.78125 -0.85938,1.9062 -0.85938,3.375 0,1.4688 0.28516,2.5938 0.85938,3.375 0.57031,0.77344 1.3984,1.1562 2.4844,1.1562 1.0625,0 1.875,-0.38281 2.4375,-1.1562 0.57031,-0.78125 0.85938,-1.9062 0.85938,-3.375 0,-1.4688 -0.28906,-2.5938 -0.85938,-3.375 -0.5625,-0.78125 -1.375,-1.1719 -2.4375,-1.1719 z m 0,-3.5 c 2.6328,0 4.6914,0.71484 6.1719,2.1406 1.4766,1.418 2.2188,3.3867 2.2188,5.9062 0,2.5117 -0.74219,4.4805 -2.2188,5.9062 C 14.332,-0.317 12.2734,0.39 9.6406,0.39 6.9922,0.39 4.9258,-0.31703 3.4375,-1.735 1.9453,-3.1608 1.2031,-5.1295 1.2031,-7.6412 c 0,-2.5195 0.74219,-4.4883 2.2344,-5.9062 1.4883,-1.4258 3.5547,-2.1406 6.2031,-2.1406 z"
         id="path3038" />
    </symbol>
    <symbol
       id="r"
       overflow="visible">
      <path
         d="m 16.547,-12.766 c 0.61328,-0.94531 1.3477,-1.6719 2.2031,-2.1719 0.85156,-0.5 1.7891,-0.75 2.8125,-0.75 1.7578,0 3.0977,0.54688 4.0156,1.6406 0.92578,1.0859 1.3906,2.6562 1.3906,4.7188 V -4e-4 h -4.9219 v -7.9844 -0.35938 c 0.0078,-0.13281 0.01563,-0.32031 0.01563,-0.5625 0,-1.082 -0.16406,-1.8633 -0.48438,-2.3438 -0.3125,-0.48828 -0.82422,-0.73438 -1.5312,-0.73438 -0.92969,0 -1.6484,0.38672 -2.1562,1.1562 -0.51172,0.76172 -0.77344,1.8672 -0.78125,3.3125 v 7.5156 h -4.9219 v -7.9844 c 0,-1.6953 -0.14844,-2.7852 -0.4375,-3.2656 -0.29297,-0.48828 -0.8125,-0.73438 -1.5625,-0.73438 -0.9375,0 -1.6641,0.38672 -2.1719,1.1562 -0.51172,0.76172 -0.76562,1.8594 -0.76562,3.2969 v 7.5312 h -4.9219 v -15.312 h 4.9219 v 2.2344 c 0.60156,-0.86328 1.2891,-1.5156 2.0625,-1.9531 0.78125,-0.4375 1.6406,-0.65625 2.5781,-0.65625 1.0625,0 2,0.25781 2.8125,0.76562 0.8125,0.51172 1.4258,1.2305 1.8438,2.1562 z"
         id="path3041" />
    </symbol>
    <symbol
       id="q"
       overflow="visible">
      <path
         d="m 2.5781,-20.406 h 5.875 l 7.4219,14 v -14 h 4.9844 V 0 h -5.875 L 7.5625,-14 V 0 H 2.5781 Z"
         id="path3044" />
    </symbol>
    <symbol
       id="p"
       overflow="visible">
      <path
         d="m 2.1875,-5.9688 v -9.3438 h 4.9219 v 1.5312 c 0,0.83594 -0.00781,1.875 -0.015625,3.125 -0.011719,1.25 -0.015625,2.0859 -0.015625,2.5 0,1.2422 0.03125,2.1328 0.09375,2.6719 0.070313,0.54297 0.17969,0.93359 0.32812,1.1719 0.20703,0.32422 0.47266,0.57422 0.79688,0.75 0.32031,0.16797 0.69141,0.25 1.1094,0.25 1.0195,0 1.8203,-0.39062 2.4062,-1.1719 0.58203,-0.78125 0.875,-1.8672 0.875,-3.2656 v -7.5625 h 4.8906 V -6e-4 H 12.6875 V -2.2194 C 11.94531,-1.32096 11.1641,-0.6608 10.3437,-0.235 9.51948,0.17906 8.6093,0.39 7.6093,0.39 5.8476,0.39 4.5038,-0.14906 3.5781,-1.235 2.64841,-2.317 2.1875,-3.8952 2.1875,-5.9694 Z"
         id="path3047" />
    </symbol>
    <symbol
       id="o"
       overflow="visible">
      <path
         d="m 2.5781,-20.406 h 8.7344 c 2.5938,0 4.582,0.57812 5.9688,1.7344 1.3945,1.1484 2.0938,2.7891 2.0938,4.9219 0,2.1367 -0.69922,3.7812 -2.0938,4.9375 -1.3867,1.1562 -3.375,1.7344 -5.9688,1.7344 H 7.8281 V 3e-4 h -5.25 z m 5.25,3.8125 v 5.7031 H 10.75 c 1.0195,0 1.8047,-0.25 2.3594,-0.75 0.5625,-0.5 0.84375,-1.2031 0.84375,-2.1094 0,-0.91406 -0.28125,-1.6172 -0.84375,-2.1094 -0.55469,-0.48828 -1.3398,-0.73438 -2.3594,-0.73438 z"
         id="path3050" />
    </symbol>
    <symbol
       id="n"
       overflow="visible">
      <path
         d="M 2.3594,-15.312 H 7.25 v 15.031 c 0,2.0508 -0.49609,3.6172 -1.4844,4.7031 -0.98047,1.082 -2.4062,1.625 -4.2812,1.625 H -0.9375 V 2.8283 h 0.85938 c 0.92578,0 1.5625,-0.21094 1.9062,-0.625 0.35156,-0.41797 0.53125,-1.2461 0.53125,-2.4844 z m 0,-5.9688 H 7.25 v 4 H 2.3594 Z"
         id="path3053" />
    </symbol>
    <symbol
       id="m"
       overflow="visible">
      <path
         d="m 14.719,-14.828 v 3.9844 c -0.65625,-0.45703 -1.3242,-0.79688 -2,-1.0156 -0.66797,-0.21875 -1.3594,-0.32812 -2.0781,-0.32812 -1.3672,0 -2.4336,0.40234 -3.2031,1.2031 -0.76172,0.79297 -1.1406,1.9062 -1.1406,3.3438 0,1.4297 0.37891,2.543 1.1406,3.3438 0.76953,0.79297 1.8359,1.1875 3.2031,1.1875 0.75781,0 1.4844,-0.10938 2.1719,-0.32812 0.6875,-0.22656 1.3203,-0.56641 1.9062,-1.0156 v 4 c -0.76172,0.28125 -1.5391,0.48828 -2.3281,0.625 -0.78125,0.14453 -1.5742,0.21875 -2.375,0.21875 -2.7617,0 -4.9219,-0.70703 -6.4844,-2.125 -1.5547,-1.4141 -2.3281,-3.3828 -2.3281,-5.9062 0,-2.5312 0.77344,-4.5039 2.3281,-5.9219 1.5625,-1.4141 3.7227,-2.125 6.4844,-2.125 0.80078,0 1.5938,0.07422 2.375,0.21875 0.78125,0.13672 1.5547,0.35156 2.3281,0.64062 z"
         id="path3056" />
    </symbol>
  </defs>
  <g
     id="g3183"
     transform="translate(-105.17277,-86.884017)">
    <path
       d="m 362.96,376.71 c -5.418,0 -10.715,-0.50781 -16.711,-1.8008 -8.957,-1.9297 -16.848,-5.8906 -32.578,-13.785 -21.023,-10.555 -24.914,-15.418 -24.555,-20.262 0.42578,-5.7031 6.9609,-8.9844 8.2695,-9.5859 h 0.004 c 8.875,-4.0664 16.41,1.0273 25.125,6.9297 7.2344,4.8984 15.434,10.449 26.664,12.832 11.234,2.3828 20.344,0.52344 29.152,-1.2695 10.906,-2.2188 21.215,-4.3242 32.688,2.7461 2.4219,1.4961 8.875,5.4648 8.1367,10.699 -1.0234,7.1797 -13.93,9.2734 -32.047,11.453 -9.5664,1.1484 -16.969,2.043 -24.148,2.043 z m -63.242,-40.344 c -1.8633,0.85547 -4.8711,2.9492 -5.0156,4.9141 -0.0937,1.1758 1.8203,4.9688 21.426,14.812 15.355,7.7109 23.035,11.566 31.297,13.344 13.004,2.7969 22.793,1.6211 39.016,-0.33203 6.5938,-0.78906 26.676,-3.2031 27.168,-6.6758 0.0117,-0.0586 0.16016,-1.6367 -5.5273,-5.1445 -9.5859,-5.9102 -17.992,-4.1953 -28.629,-2.0273 -8.9453,1.8164 -19.074,3.8828 -31.434,1.2617 -12.309,-2.6133 -21.367,-8.7461 -28.645,-13.676 -8.7031,-5.8906 -13.887,-9.0977 -19.656,-6.4766 z"
       id="path3061" />
    <path
       d="m 178.14,281.46 c 0.0547,0.39062 0.11328,0.78516 0.16797,1.2305 0.0547,-0.22266 0.16797,-0.39062 0.22266,-0.61719 l 0.50391,-1.3984 c -0.28125,0.28125 -0.61719,0.50391 -0.89453,0.78516 z"
       id="path3063" />
    <path
       d="m 241.98,269.7 c 0,14.074 -10.855,25.48 -24.25,25.48 -13.391,0 -24.246,-11.406 -24.246,-25.48 0,-14.07 10.855,-25.48 24.246,-25.48 13.395,0 24.25,11.41 24.25,25.48"
       id="path3065" />
    <path
       d="m 529.82,330.57 c 0,14.055 -10.922,25.48 -24.246,25.48 -13.383,0 -24.25,-11.426 -24.25,-25.48 0,-14.055 10.863,-25.48 24.25,-25.48 13.324,0 24.246,11.426 24.246,25.48 z"
       id="path3067" />
    <path
       d="m 298.31,206.86 c 0,0.33594 0,0.61719 -0.0547,0.95312 -0.16797,-0.0547 -0.33594,-0.0547 -0.44922,-0.0547 0.11328,-0.28125 0.27734,-0.61719 0.50391,-0.89844 z"
       id="path3069" />
    <path
       d="m 265.59,432.41 c -0.65234,0 -1.2539,-0.11328 -1.793,-0.33594 -4.9609,-2.0703 -5.8555,-13.227 -1.9648,-24.363 0.25781,-0.72656 1.0664,-1.1133 1.7891,-0.85938 0.72656,0.25391 1.1094,1.0547 0.85938,1.7812 -3.8008,10.855 -2.2812,19.738 0.39453,20.852 2.3086,0.97266 9.7852,-3.332 15.164,-14.672 0.33203,-0.69922 1.1602,-0.99219 1.8633,-0.66797 0.69531,0.33203 0.99609,1.168 0.66016,1.8633 -4.9727,10.492 -12.238,16.402 -16.973,16.402 z"
       id="path3071" />
    <path
       d="m 325.68,440.41 h -0.0508 c -5.7695,-0.0898 -8.5898,-18.113 -9.3203,-23.633 -0.0977,-0.76562 0.4375,-1.4727 1.207,-1.5703 0.75391,-0.125 1.4648,0.4375 1.5703,1.207 1.4531,11.062 4.5938,21.168 6.5859,21.199 h 0.004 c 1.2617,0 4.125,-5.0273 6.5586,-16.246 0.16406,-0.75781 0.91797,-1.2344 1.6641,-1.0703 0.75391,0.16016 1.2344,0.90625 1.0703,1.6641 -2.6484,12.238 -5.7773,18.449 -9.2891,18.449 z"
       id="path3073" />
    <path
       d="m 379,458.7 c -0.20703,0 -0.41016,-0.0156 -0.61328,-0.0469 -5.3555,-0.83202 -8.7266,-12.60199 -7.6875,-26.793 0.0547,-0.76953 0.58984,-1.3828 1.5,-1.2969 0.76953,0.0586 1.3516,0.72656 1.2891,1.5 -1.0117,13.883 2.4766,23.383 5.3281,23.824 2.7305,0.38281 8.6914,-6.94529 12.172,-19.949 0.19531,-0.74219 0.98438,-1.1641 1.7109,-0.98827 0.75,0.20312 1.1914,0.96875 0.98828,1.71879 -3.4258,12.805 -9.6328,22.031 -14.688,22.031 z"
       id="path3075" />
    <path
       d="m 461.85,448.44 c -10.391,0 -29.191,-12.41 -33.5,-15.355 -0.64062,-0.4375 -0.80469,-1.3086 -0.36719,-1.9453 0.43359,-0.63672 1.3086,-0.79688 1.9414,-0.36719 11.297,7.7109 30.805,18.305 35.094,13.922 2.4844,-2.5547 -0.0937,-11.336 -6.7227,-22.914 -0.38281,-0.67188 -0.15234,-1.5273 0.51953,-1.9102 0.66797,-0.38672 1.5273,-0.15625 1.9102,0.51953 5.3828,9.3945 10.844,21.578 6.3008,26.254 -1.2305,1.2656 -3.0195,1.7969 -5.1758,1.7969 z"
       id="path3077" />
    <path
       d="m 226.49,396.11 c -4.3984,0 -7.7773,-1.3398 -9.3906,-3.7422 -3.3516,-4.9844 0.90234,-13.887 6.6055,-20.496 0.50781,-0.58594 1.3906,-0.65234 1.9727,-0.14844 0.58594,0.50391 0.65234,1.3906 0.14844,1.9727 -5.7383,6.6523 -8.4922,14.004 -6.4102,17.105 2.5273,3.7383 13.453,4.0156 25.539,-4.0039 0.65234,-0.41797 1.5156,-0.25391 1.9414,0.39453 0.42578,0.64453 0.25,1.5117 -0.38672,1.9414 -7.293,4.8359 -14.469,6.9766 -20.02,6.9766 z"
       id="path3079" />
    <path
       d="m 310.61,237.37 c -0.17969,0 -0.35938,-0.0312 -0.53125,-0.10547 -0.71484,-0.29297 -1.0625,-1.1094 -0.76562,-1.8281 2.6953,-6.5469 3.3906,-11.48 1.8164,-12.879 -2.1992,-1.9414 -10.461,0.94922 -22.066,10.172 -0.60156,0.48438 -1.4805,0.38281 -1.9648,-0.22266 -0.48047,-0.60547 -0.38281,-1.4883 0.22266,-1.9688 4.5781,-3.6406 19.957,-15.145 25.664,-10.074 2.6797,2.3789 2.3125,7.7773 -1.082,16.039 -0.21875,0.53906 -0.73828,0.86719 -1.293,0.86719 z"
       id="path3081" />
    <path
       d="m 362.65,250.79 c -0.75,0 -1.3711,-0.59375 -1.3984,-1.3516 -0.38281,-10.949 -3.5,-18.574 -6.2344,-21.027 -0.58594,-0.52734 -1.1445,-0.82812 -1.5352,-0.76172 -1.832,0.13281 -5.0898,5.5625 -6.4375,15.422 -0.10938,0.76172 -0.73438,1.3086 -1.582,1.1992 -0.76563,-0.10547 -1.3008,-0.80859 -1.1992,-1.5742 1.1797,-8.6445 4.4297,-17.512 9.0195,-17.84 0.85156,-0.0469 2.1328,0.15234 3.6055,1.4727 3.9883,3.5781 6.7969,12.609 7.1641,23.012 0.0273,0.77344 -0.57812,1.4219 -1.3516,1.4492 H 362.65 Z"
       id="path3083" />
    <path
       d="m 463.97,272.02 c -0.42188,0 -0.84375,-0.19141 -1.1172,-0.55469 -11.062,-14.602 -20.891,-23.273 -24.391,-21.539 -0.67188,0.32812 -3.8828,2.8125 -1.1094,19.301 0.13281,0.76172 -0.38281,1.4844 -1.1445,1.6133 -0.79688,0.125 -1.4883,-0.38672 -1.6133,-1.1484 -2.1641,-12.859 -1.2812,-20.355 2.6289,-22.281 6.6016,-3.2305 18.781,10.387 27.859,22.363 0.46484,0.61328 0.34375,1.4922 -0.26953,1.9609 -0.25,0.19531 -0.54688,0.28516 -0.84375,0.28516 z"
       id="path3085" />
    <path
       d="m 371.33,390.73 c -4.2109,0 -8.1055,-0.1875 -11.605,-0.35156 -6.6836,-0.31641 -11.961,-0.57031 -18.926,-2.1875 -6.1797,-1.4297 -22.379,-6.3555 -39.348,-21.121 -12.523,-10.895 -29.668,-25.816 -25.523,-39.773 2.4844,-8.3438 12.125,-13.668 20.027,-15.086 7.6797,-1.3828 12.875,1.1133 21.523,5.2344 3.6211,1.7266 7.7227,3.6797 12.891,5.7891 5.2266,2.1328 21.141,8.6211 38.883,11.043 10.832,1.4805 18.293,0.89453 24.285,0.42187 7.8359,-0.60547 13.469,-1.0508 21.492,3.0195 9.8711,5.0078 20.086,14.828 19.172,24.551 -1.1875,12.73 -20.262,19.594 -30.512,23.277 -11.785,4.2383 -22.875,5.1836 -32.359,5.1836 z m -71.324,-77.5 c -1.2188,0 -2.4727,0.11328 -3.8008,0.35156 -7.4961,1.3438 -16.621,6.3281 -18.934,14.105 -3.8945,13.094 12.863,27.672 25.098,38.32 16.73,14.562 32.672,19.41 38.746,20.816 6.8398,1.5898 12.062,1.8359 18.676,2.1484 11.262,0.54688 26.664,1.2812 43.426,-4.75 9.957,-3.582 28.488,-10.25 29.598,-22.094 0.97266,-10.441 -11.621,-19.719 -18.418,-23.172 -7.6719,-3.8984 -13.148,-3.4688 -20.75,-2.8711 -6.0703,0.46875 -13.621,1.0586 -24.582,-0.43359 -17.922,-2.4453 -33.957,-8.9844 -39.223,-11.133 -5.207,-2.125 -9.3281,-4.0859 -12.965,-5.8203 -6.8477,-3.2578 -11.484,-5.4688 -16.871,-5.4688 z"
       id="path3087" />
    <path
       d="m 612.98,266.05 c -2.2422,-5.8242 -5.207,-11.254 -8.8477,-16.125 -10.191,-13.496 -32.312,-31.082 -51.52,-24.305 -8.0078,2.8008 -12.32,9.1836 -20.215,20.777 -6.5508,9.6328 -11.93,20.047 -15.848,31.078 -2.6328,-2.7422 -5.4336,-5.375 -8.5117,-7.8945 -2.1875,-10.25 -16.188,-28.844 -23.973,-33.098 -2.1836,-1.2305 -4.1445,-1.457 -5.7109,-0.72656 -1.9023,0.89453 -3.0781,3.1367 -3.582,6.1055 -1.7383,-7.1133 -7.0547,-14.953 -12.824,-21.84 0.11328,-0.22266 0.11328,-0.44922 0.11328,-0.72656 -0.33594,-6.1602 -2.9141,-16.855 -8.2891,-19.207 -2.6328,-1.0625 -6.2148,-0.28125 -9.4102,2.1289 -7.3906,-6.3281 -15.68,-11.312 -24.695,-15.062 12.992,-37.359 10.527,-70.23 -6.3828,-83.895 -7.3906,-5.9922 -17.809,-8.0078 -38.473,-11.984 -23.406,-4.5352 -35.168,-6.832 -40.375,-0.50391 -7.0547,8.3984 2.8555,29.68 30.352,64.848 -6.6641,3.9219 -12.32,9.5742 -14.281,17.137 -0.72656,2.8555 -0.89453,5.7695 -0.67188,8.625 -5.4883,1.0078 -10.75,2.3516 -15.734,3.918 -0.0547,0 -0.0547,-0.0547 -0.0547,-0.0547 -2.2383,-2.6328 -4.6484,-4.1992 -6.832,-4.5352 -5.3203,-0.67188 -10.023,5.7695 -12.488,12.488 v 0.0547 c -7.6719,4.1445 -13.496,8.8477 -16.406,13.609 0,0.33594 0,0.61719 -0.0547,0.95312 -0.16797,-0.0547 -0.33594,-0.0547 -0.44922,-0.0547 0.11328,-0.28125 0.28125,-0.61719 0.50391,-0.89453 0.16797,-2.1289 -0.22266,-3.9219 -1.1211,-5.2656 -1.7344,-2.6875 -5.3203,-4.1445 -10.695,-4.3125 -12.434,-0.39062 -32.199,5.9375 -39.535,14.84 h -0.0547 c -9.0156,2.7422 -17.473,6.7773 -25.258,11.984 -6.4961,0.61719 -12.77,2.6328 -18.48,5.8789 -1.1758,-6.2148 -2.9141,-12.32 -5.207,-18.145 -4.2031,-10.586 -8.9648,-22.57 -21.23,-30.355 -3.6406,-2.3516 -13.383,-8.5664 -24.359,-6.3281 -6.7773,1.3984 -15.398,6.4414 -28.055,33.602 -11.258,24.137 -20.945,44.969 -18.871,74.312 1.1211,15.344 2.6328,36.289 18.367,46.816 5.543,3.6953 14.617,7.168 22.902,7.168 3.8633,0 7.5586,-0.78516 10.641,-2.5742 0.39062,-0.28125 1.0078,-0.67188 1.7344,-1.1758 1.793,-1.1758 4.7031,-3.0234 8.9609,-5.4883 0.95312,-0.55859 1.9023,-1.0625 2.8008,-1.5664 0,3.4727 0.16797,6.9453 0.44922,10.414 -2.8008,1.2891 -5.375,3.3047 -5.9375,6.0469 -0.95313,5.0977 5.6016,9.7422 8.625,11.59 0,0.16797 0.0547,0.33594 0.11328,0.55859 5.0977,21.336 16.574,40.375 34.047,56.672 -3.6406,4.4258 -5.0977,9.7422 -3.5273,13.215 1.9609,4.3125 8.5664,5.8242 15.289,5.8242 4.0312,0 8.0625,-0.55859 11.145,-1.3438 15.512,9.9688 33.992,18.48 55.047,25.367 -0.78516,6.3828 -0.22266,13.273 3.5273,15.902 1.1211,0.78516 2.5742,1.1211 4.1992,1.1211 5.4883,0 13.328,-4.0859 19.656,-9.2383 h 0.0547 c 19.32,4.7031 34.719,6.6641 40.824,7.4492 l 3.4141,0.39062 c 6.4961,0.83984 13.777,1.7344 21.559,2.4648 2.0156,5.1523 6.2148,13.719 12.207,13.832 h 0.11328 c 4.9297,0 10.137,-6.1055 12.77,-12.656 h 1.0625 c 20.945,0 39.145,-2.8008 55.441,-8.5664 5.7109,5.375 12.711,10.082 18.086,10.082 1.1211,0 2.1836,-0.22266 3.1367,-0.67188 5.7109,-2.6328 8.0078,-13.887 7.0547,-23.688 l 0.50391,-0.39062 c 6.2227,-4.2617 12.047,-9.3008 17.422,-14.957 4.8164,-5.0977 9.2969,-10.695 13.215,-16.688 h 0.0547 c 5.9922,-2.5195 26.879,-11.535 25.535,-20.609 -0.61328,-4.1445 -5.4844,-7.1094 -10.75,-8.6797 1.793,-4.8711 3.25,-9.8008 4.4258,-14.727 4.3125,-0.44922 8.7344,-0.67187 13.105,-0.67187 10.809,0.0547 17.023,1.5664 22.008,2.8008 3.0781,0.78516 5.7109,1.457 8.457,1.457 0.89453,0 1.8477,-0.0547 2.8008,-0.22266 7.168,-1.1758 13.887,-7 19.543,-16.801 12.875,-22.348 19.203,-64.18 7.4453,-95.484 z M 452.15,203.948 c 1.793,0.78516 4.0312,5.207 5.0977,10.695 -3.6992,-3.9766 -7.1719,-7.3906 -9.6328,-9.6328 1.8477,-1.1211 3.6406,-1.3984 4.5352,-1.0625 z M 338.75,94.298 c 3.0781,-3.6953 15.793,-1.2305 35.055,2.4648 19.711,3.8086 29.625,5.7695 35.953,10.863 15.012,12.094 16.859,42.559 4.6484,77.559 -2.9688,-1.0625 -5.9922,-1.9609 -9.1289,-2.6875 1.5156,-3.3047 2.7461,-6.7773 3.5859,-10.191 v -0.0547 c 0.33594,-0.95312 0.67188,-1.9023 0.95312,-2.8555 1.1758,-3.9219 1.625,-7.9531 2.2969,-11.93 1.457,-8.0078 2.8555,-16.016 4.0859,-24.078 0,-0.11328 -0.0547,-0.16797 -0.16797,-0.22266 -0.10938,-0.0586 -0.22266,0.0508 -0.28125,0.16406 -2.4062,7.7266 -4.7031,15.512 -6.8867,23.352 -0.0547,0.28125 -0.16797,0.50391 -0.22266,0.78516 -0.50391,-1.1211 -1.1758,-2.1289 -1.9609,-3.0234 -2.2969,-2.6328 -6.0469,-4.3672 -10.641,-5.0977 0.55859,-2.0703 0.83984,-4.1445 1.0625,-6.2734 0.28125,-2.8555 -0.22266,-5.7109 -0.44922,-8.625 -0.39062,-5.7695 -0.89453,-11.48 -1.5117,-17.25 -0.0547,-0.11328 -0.11328,-0.16797 -0.22266,-0.16797 -0.10938,-0.0508 -0.22266,0.0625 -0.22266,0.17188 -0.55859,5.7695 -1.0625,11.535 -1.3984,17.305 -0.22266,2.8555 -0.67187,5.7109 -0.39062,8.625 0.22266,1.9609 0.50391,3.9219 1.0625,5.9375 -3.1914,-0.39062 -6.6641,-0.33594 -10.414,0.22266 -0.16797,-2.4648 -0.72656,-4.7617 -1.3984,-7 -0.83984,-2.6328 -2.3516,-5.0391 -3.6406,-7.5039 -2.5234,-4.9297 -5.1562,-9.8555 -7.8438,-14.73 -0.0547,-0.11328 -0.16797,-0.11328 -0.28125,-0.11328 -0.10937,0.0586 -0.16797,0.17188 -0.10937,0.28125 1.625,5.3203 3.3047,10.641 5.1523,15.902 0.83984,2.6328 1.5117,5.375 2.8555,7.8398 1.0625,1.9023 2.2383,3.8086 3.75,5.543 -1.2305,0.17188 -2.4648,0.45312 -3.6953,0.73047 -2.7422,0.67188 -5.6562,1.625 -8.457,2.8008 -36.008,-45.918 -32.984,-56.503998 -31.137,-58.741998 z m 17.195,79.855 c 2.5195,-10.023 13.887,-16.129 23.688,-18.48 9.9102,-2.3516 19.488,-1.3438 22.848,2.5195 5.543,6.2734 -2.1836,24.305 -9.1289,34.551 -2.2969,3.3594 -4.8711,7.168 -7.8945,9.9141 1.1758,-2.6328 1.8477,-5.3203 2.4648,-7.9531 0.67188,-3.1914 0.61719,-6.4961 0.83984,-9.7422 0.44531,-6.4961 0.78125,-12.992 1.0078,-19.488 l -0.39062,-0.0547 c -1.457,6.3281 -2.7461,12.711 -3.9766,19.098 -0.61719,3.1914 -1.5117,6.3828 -1.625,9.6328 -0.16797,3.1328 -0.11328,6.2695 0.55859,9.5156 -2.0703,1.7344 -4.3672,2.8555 -6.832,2.9688 -4.4805,0.22266 -10.078,-3.0234 -14.672,-8.6797 -5.9922,-7.3945 -8.7383,-16.746 -6.8867,-23.801 z m -29.289,10.695 c 0.72656,0.11328 1.793,0.67188 3.0781,1.9023 -3.1914,1.1211 -6.1602,2.2969 -9.0156,3.5859 2.0156,-3.582 4.4258,-5.6016 5.9375,-5.4883 z m 24.246,2.0156 c 1.5117,5.6016 4.4805,10.809 7.6172,14.672 5.543,6.832 12.266,10.695 18.535,10.695 h 0.72656 c 9.2969,-0.44922 15.344,-9.2969 20.16,-16.352 1.5117,-2.2383 3.25,-5.0977 4.8711,-8.2305 15.289,3.5273 28.785,10.473 40.152,20.664 14.391,13.16 27.383,29.398 26.77,38.527 -12.152,-5.207 -26.039,-9.8555 -42.895,-14.281 -0.33594,-0.11328 -0.67188,-0.16797 -1.0078,-0.28125 -4.6484,-7.7266 -13.328,-17.863 -19.656,-16.016 -3.418,1.0664 -5.7695,5.4922 -6.9453,9.9688 -1.5664,-1.3984 -3.2461,-2.0703 -4.9297,-1.9609 -0.83984,0.0547 -1.6797,0.33594 -2.4648,0.78516 l 0.17188,-0.78125 c -5.1523,-1.1211 -10.359,-2.1836 -15.512,-3.25 l -5.3203,-1.1211 c -5.8789,-1.2305 -11.703,-2.4648 -17.359,-3.582 -0.61719,-3.418 -1.9023,-6.1602 -3.75,-7.7852 -5.0391,-4.2578 -15.23,-1.793 -23.742,2.6875 -0.0547,-0.0547 -0.16797,-0.0547 -0.22266,-0.0547 -8.2305,-1.3438 -15.398,-2.2969 -21.953,-2.9102 6.1562,-7.7852 23.516,-16.969 46.754,-21.395 z m 68.824,43.848 c -5.4883,-1.3984 -10.75,-2.6328 -16.297,-3.8633 1.1758,-3.9766 2.9688,-6.2148 3.9766,-6.5508 2.1875,-0.67188 7.5625,3.6406 12.32,10.414 z m -70.445,-15.344 c -4.9297,-0.89453 -10.191,-1.9023 -15.566,-2.9102 5.9922,-2.1836 11.367,-2.5742 13.609,-0.72656 0.78125,0.72656 1.4531,2.0117 1.957,3.6367 z m -146.55,21.562 c 7,-4.8711 15.062,-7.4492 23.352,-7.4492 23.574,0 42.785,20.383 42.785,45.414 0,24.977 -19.207,45.359 -42.785,45.359 -10.414,0 -20.496,-4.0312 -28.281,-11.426 -7.3359,-6.7773 -12.207,-16.129 -13.887,-26.32 -0.39062,-2.5742 -0.61719,-5.0977 -0.61719,-7.6172 0.004,-15.395 7.2812,-29.562 19.434,-37.961 z m -31.863,106.85 c 0.0547,-0.22266 0.44922,-0.61719 1.0625,-1.0625 0.11328,1.1211 0.22266,2.1836 0.44922,3.2461 -1.0078,-1.0078 -1.5117,-1.793 -1.5117,-2.1836 z m 3.418,-47.043 c -0.39063,1.625 -0.72656,3.25 -1.0078,4.8711 -0.61719,2.8555 -1.0625,5.7695 -1.3984,8.6797 -0.17188,1.2344 -0.33984,2.5234 -0.39453,3.7539 -0.16797,1.1211 -0.22266,2.1836 -0.28125,3.3047 -0.0547,0.78516 -0.11328,1.625 -0.16797,2.4102 -1.793,0.95312 -3.75,2.0156 -5.7695,3.1914 -4.4219,2.5195 -7.3906,4.4805 -9.1836,5.7109 -0.72656,0.44922 -1.2305,0.78516 -1.625,1.0078 -6.4414,3.8633 -19.711,0.78516 -27.496,-4.4258 -13.496,-9.0156 -14.84,-27.609 -15.902,-42.559 -2.0156,-27.887 7.4492,-48.102 18.367,-71.566 13.16,-28.223 21.055,-29.848 24.078,-30.465 8.7344,-1.793 17.082,3.582 20.273,5.6016 10.695,6.7773 14.895,17.414 18.984,27.664 2.4648,6.2734 4.3125,12.77 5.3203,19.434 -4.0859,3.0234 -7.6719,6.7188 -10.641,10.863 -1.6797,-2.9141 -3.6406,-5.6016 -5.6562,-8.2305 -2.6328,-3.4727 -5.8789,-6.4961 -8.9023,-9.6328 -5.9922,-6.3281 -12.098,-12.602 -18.312,-18.816 l -0.28125,0.28125 c 5.2656,7 10.586,13.887 16.07,20.719 2.6875,3.4727 5.207,7.0547 8.2891,10.191 2.4062,2.4062 4.9297,4.8164 7.7266,7 -5.543,8.3984 -8.6797,18.535 -8.6797,29.176 0,1.5664 0.0547,3.1367 0.22266,4.7031 -3.4727,1.0625 -6.7773,2.4648 -10.023,3.9219 -4.0312,1.9023 -7.7266,4.4258 -11.594,6.7188 -7.6719,4.5938 -15.289,9.2969 -22.848,14.055 l 0.23047,0.39062 c 8.1211,-3.75 16.238,-7.5586 24.25,-11.48 4.0312,-1.9023 8.1758,-3.6406 11.984,-5.9922 2.8008,-1.793 5.6016,-3.6406 8.2305,-5.7695 0.28125,-0.28125 0.61719,-0.50391 0.89453,-0.78516 l -0.50391,1.4023 c -0.0547,0.22656 -0.16797,0.39453 -0.22266,0.61719 -1.1211,3.1914 -2.0742,6.4414 -2.9141,9.6875 -0.44531,1.457 -0.78125,2.9141 -1.1172,4.3672 z m 117.77,170.3 c -1.5117,-1.0078 -2.4648,-5.1523 -1.9023,-11.145 5.6562,1.8477 11.648,3.5859 18.145,5.207 -7.1133,5.1562 -14.113,7.4492 -16.242,5.9375 z m 99.625,13.891 c -1.0078,-0.0586 -3.5273,-2.3555 -5.9922,-7.7305 4.5352,0.28125 8.7344,0.44922 12.711,0.50391 -2.2969,4.4805 -5.4297,7.2266 -6.7188,7.2266 z m 88.703,-9.9688 c -2.2969,1.0078 -8.1211,-1.2305 -15.062,-7.3359 7.0547,-2.6875 13.777,-6.0469 19.938,-10.023 0.39062,8.5664 -2.0195,16.016 -4.875,17.359 z m 48.555,-80.418 c -0.11328,0.16797 -0.11328,0.28125 -0.16797,0.44922 -0.33594,1.5117 0.61719,2.9688 2.1289,3.3047 6.4961,1.3984 9.4062,4.0312 9.5195,4.8711 0.28125,1.9609 -7.3359,8.793 -22.848,14.895 -0.55859,0.22266 -1.0625,0.61719 -1.3438,1.0625 0,0.0547 -0.0547,0.11328 -0.0547,0.11328 -3.9219,5.9922 -8.3438,11.594 -13.105,16.633 -5.4336,5.7109 -11.367,10.75 -17.695,14.953 l -1.1758,0.89453 c -7.4492,4.9258 -15.398,8.8477 -24.191,12.039 -16.688,5.9922 -35.336,8.7344 -57.457,8.457 h -0.0586 c -6.3828,-0.0547 -12.992,-0.33594 -20.887,-0.95312 h -0.16797 c -8.2305,-0.67188 -16.07,-1.6797 -22.902,-2.5742 l -3.6953,-0.44922 c -5.8242,-0.72656 -21.223,-2.7422 -40.488,-7.3906 -9.1836,-2.2383 -17.305,-4.5352 -24.977,-7.0547 -21.621,-6.9453 -40.492,-15.625 -56.172,-25.816 -0.0547,-0.0547 -0.11328,-0.0547 -0.11328,-0.0547 -0.67187,-0.50781 -1.5117,-0.61719 -2.3516,-0.39453 -8.9609,2.7422 -19.938,1.2891 -21,-1.1211 -0.55859,-1.1758 0.50391,-5.4336 4.3125,-8.9609 1.1211,-1.0625 1.1758,-2.8555 0.11328,-3.9766 -0.0547,-0.0547 -0.11328,-0.11328 -0.16797,-0.16797 -0.11328,-0.0547 -0.16797,-0.11328 -0.28125,-0.22266 -17.582,-15.902 -29.062,-34.551 -34.16,-55.441 l -0.16797,-0.61719 c -0.0547,-0.16797 -0.0547,-0.28125 -0.11328,-0.44922 0,-0.16797 -0.0547,-0.39062 -0.0547,-0.67187 -1.0078,-4.1445 -1.6797,-8.625 -2.1289,-13.328 -0.0547,-0.11328 -0.0547,-0.22266 -0.0547,-0.33594 0.0547,-0.16797 0,-0.39062 -0.0547,-0.55859 -0.39063,-4.9297 -0.55859,-9.8008 -0.44922,-14.504 l 0.0547,-1.625 c 0.0547,-1.7344 0.16797,-3.4727 0.33594,-5.207 0.0547,-1.2891 0.16797,-2.6328 0.33594,-3.9219 0.33594,-3.25 0.83984,-6.5508 1.5117,-9.8008 0.22266,-1.1758 0.44922,-2.3516 0.72656,-3.5859 0.44922,-1.9609 0.89453,-3.8633 1.3984,-5.7695 0.0625,-0.0469 0.0625,-0.0469 0.0625,-0.10156 0.11328,0.28125 0.22266,0.55859 0.33594,0.83984 0.22266,0.67188 0.50391,1.2891 0.78516,1.9609 0.11328,0.28125 0.22266,0.55859 0.39062,0.83984 0.39062,0.95312 0.83984,1.9023 1.3438,2.8008 0.61719,1.1758 1.2891,2.2969 2.0156,3.4141 0.11328,0.28125 0.33594,0.55859 0.50391,0.83984 0.61719,1.0078 1.2891,1.9609 2.0156,2.8555 0.55859,0.72656 1.1211,1.457 1.793,2.1836 0.50391,0.67188 1.1211,1.3438 1.7344,1.9609 0.67188,0.72656 1.3984,1.457 2.1289,2.1289 8.8477,8.2891 20.215,12.879 32.086,12.879 26.656,0 48.383,-22.848 48.383,-50.961 0,-25.93 -18.535,-47.434 -42.336,-50.566 5.375,-2.9141 10.863,-5.2656 16.742,-7 h 0.0547 c 0.11328,0 0.22266,0 0.33594,-0.0547 0.55859,-0.16797 1.1211,-0.50391 1.5117,-1.0078 5.543,-7.6719 24.191,-13.719 35.504,-13.383 3.8633,0.11328 5.7109,1.0078 6.2148,1.7344 0.28125,0.44922 0.61719,2.0156 -0.22266,4.9844 -0.44922,1.5117 0.39063,3.0234 1.9023,3.4727 0.16797,0.0547 0.39062,0.11328 0.61719,0.11328 h 0.11328 c 8.6797,0.44922 18.312,1.5664 30.352,3.5273 8.9609,1.457 18.258,3.2461 26.152,4.8711 6.1055,1.1758 12.32,2.4648 18.648,3.8086 l 5.2656,1.0625 c 4.1992,0.89453 8.3984,1.793 12.602,2.6875 -1.9023,2.9141 -3.3594,6.7773 -4.2578,10.527 -0.16406,0.78516 0.28516,1.5117 1.0117,1.6797 0.78516,0.22266 1.5117,-0.28125 1.6797,-1.0078 1.1211,-4.4805 2.7422,-8.2305 4.4805,-10.586 1.2305,-1.6797 2.4648,-2.6328 3.6406,-2.6875 h 0.11328 c 1.1758,0 2.6328,0.89453 4.1445,2.6875 v 0.0547 c 0.0547,0.0547 0.11328,0.11328 0.11328,0.16797 0.0547,0.0547 0.0547,0.0547 0.11328,0.11328 0.16797,0.11328 0.33594,0.33594 0.44922,0.50391 2.5195,3.4141 4.9297,9.3516 5.9375,17.527 0.0547,0.72656 0.67187,1.2305 1.3438,1.2305 h 0.16797 c 0.78516,-0.11328 1.3438,-0.78516 1.2305,-1.5664 -0.67188,-5.8789 -2.2383,-11.145 -4.2578,-15.176 6.9453,1.625 14.055,3.3594 21.559,5.3203 21.168,5.6016 37.52,11.426 51.465,18.367 v -0.0547 c 0.55859,0.33594 1.1758,0.44922 1.8477,0.28125 1.5117,-0.33594 2.4648,-1.8477 2.1289,-3.3594 -1.3984,-6.1602 -0.72656,-10.695 -0.0547,-12.152 4.8711,1.5664 20.777,21.223 21.953,30.465 0.11328,0.72656 0.50391,1.3438 1.0078,1.793 6.6641,5.4883 12.266,11.426 16.855,17.863 -6.9453,-4.0859 -14.895,-6.3828 -23.406,-6.3828 -26.656,0 -48.328,22.902 -48.328,51.016 0,28.113 21.672,51.016 48.328,51.016 15.734,0 29.68,-7.9531 38.527,-20.16 -1.4648,8.0078 -3.7031,16.016 -6.7812,23.91 z m -31.754,-9.3516 c -23.574,0 -42.727,-20.383 -42.727,-45.418 0,-25.031 19.152,-45.414 42.727,-45.414 23.633,0 42.785,20.383 42.785,45.414 0,25.035 -19.152,45.418 -42.785,45.418 z m 103.49,-22.457 c -4.7617,8.2891 -10.137,13.16 -15.566,14.055 -2.7422,0.44922 -5.2656,-0.16797 -9.0156,-1.1211 -4.9844,-1.2305 -11.871,-2.9141 -23.297,-2.9688 -3.9766,0 -7.9531,0.16797 -11.93,0.50391 1.1211,-5.6562 1.8477,-11.312 2.1289,-16.969 v -0.0547 c 1.6797,-5.1523 2.5742,-10.695 2.5742,-16.41 0,-12.938 -4.5938,-24.75 -12.098,-33.711 -3.3047,-7.168 -7.5039,-13.719 -12.656,-19.77 3.8633,-11.648 9.3516,-22.68 16.238,-32.762 7.6719,-11.312 11.199,-16.465 17.414,-18.648 16.297,-5.7109 36.344,10.695 45.191,22.398 3.3594,4.4805 6.0469,9.4062 8.0625,14.727 11.039,29.355 4.9375,69.957 -7.0469,90.73 z"
       id="path3089" />
    <path
       d="m 135.11,253.66 c 6.7539,1.4062 13.469,2.9219 20.156,4.5508 3.3555,0.77734 6.7773,1.3203 9.9883,2.5742 3.2031,1.2695 6.3633,2.6953 9.3203,4.7891 l -0.12109,0.40234 c -3.6211,0.10547 -7.0391,-0.45312 -10.41,-1.168 -3.3672,-0.73047 -6.5195,-2.1719 -9.7422,-3.3789 -6.4688,-2.3438 -12.902,-4.7969 -19.305,-7.3633 z"
       id="path3091" />
    <path
       d="m 560.34,253.99 c -4.7461,6.5938 -9.582,13.113 -14.508,19.559 -2.4336,3.25 -4.6797,6.6523 -7.4961,9.5781 -2.8281,2.9141 -5.7812,5.7266 -9.2656,8.0898 l -0.32031,-0.26953 c 1.7266,-3.8398 3.9883,-7.2344 6.3711,-10.523 2.3945,-3.2773 5.3594,-6.082 8.1406,-9.0352 5.4961,-5.9648 11.086,-11.855 16.762,-17.668 z"
       id="path3093" />
    <path
       d="m 587.98,299.57 c -6.75,3.4023 -13.543,6.6953 -20.383,9.8828 -3.4023,1.6289 -6.7188,3.4844 -10.309,4.6484 -3.5977,1.1523 -7.2578,2.1523 -11.18,2.5078 l -0.16016,-0.39062 c 3.0586,-2.4844 6.375,-4.3203 9.7578,-6.0117 3.3867,-1.6758 7.0508,-2.6602 10.625,-3.8711 7.1211,-2.4961 14.285,-4.8789 21.492,-7.1562 z"
       id="path3095" />
    <path
       d="m 594.67,348.8 c -8.2383,-1.0859 -16.449,-2.2891 -24.641,-3.6055 -4.1016,-0.61719 -8.2539,-1 -12.254,-2.1094 -3.9961,-1.125 -7.9648,-2.4062 -11.785,-4.3711 l 0.0859,-0.41016 c 4.2891,-0.28125 8.4375,0.11328 12.555,0.67187 4.1133,0.57031 8.0742,1.8711 12.086,2.9336 8.0391,2.0469 16.051,4.207 24.043,6.4844 z"
       id="path3097" />
    <path
       d="m 298.31,206.86 c 0,0.33594 0,0.61719 -0.0547,0.95312 -0.16797,-0.0547 -0.33594,-0.0547 -0.44922,-0.0547 0.11328,-0.28125 0.27734,-0.61719 0.50391,-0.89844 z"
       id="path3099" />
    <path
       d="m 369.23,178.16 c 1.8867,4.5156 3.6602,9.0586 5.3203,13.637 0.87109,2.2773 1.9727,4.4922 2.3555,6.9023 0.37109,2.418 0.58594,4.875 0.13281,7.5234 l -0.40625,0.11328 c -1.7578,-2.0312 -2.8438,-4.25 -3.7734,-6.5078 -0.91406,-2.2656 -1.1172,-4.7305 -1.5469,-7.1289 -0.94141,-4.7773 -1.7734,-9.5859 -2.4883,-14.426 z"
       id="path3101" />
    <path
       d="m 412.8,455.97 c 4.5039,0 4.5117,-7 0,-7 -4.5039,0 -4.5117,7 0,7 z"
       id="path3103" />
    <path
       d="m 429.14,217.13 c 4.5039,0 4.5117,-7 0,-7 -4.5039,0 -4.5117,7 0,7 z"
       id="path3105" />
    <path
       d="m 239.18,411.68 c 4.5039,0 4.5117,-7 0,-7 -4.5039,0 -4.5117,7 0,7 z"
       id="path3107" />
    <path
       d="m 286.01,221.85 c 4.5039,0 4.5117,-7 0,-7 -4.5039,0 -4.5117,7 0,7 z"
       id="path3109" />
  </g>
</svg>
