<?xml version="1.0" encoding="UTF-8" standalone="no"?>
<svg
   width="544.14972pt"
   height="342.01126pt"
   version="1.1"
   viewBox="0 0 544.14972 342.01126"
   id="svg1167"
   sodipodi:docname="noun-dolphin-2326721.svg"
   inkscape:version="1.1.2 (b8e25be8, 2022-02-05)"
   xmlns:inkscape="http://www.inkscape.org/namespaces/inkscape"
   xmlns:sodipodi="http://sodipodi.sourceforge.net/DTD/sodipodi-0.dtd"
   xmlns="http://www.w3.org/2000/svg"
   xmlns:svg="http://www.w3.org/2000/svg">
  <sodipodi:namedview
     id="namedview1169"
     pagecolor="#ffffff"
     bordercolor="#999999"
     borderopacity="1"
     inkscape:pageshadow="0"
     inkscape:pageopacity="0"
     inkscape:pagecheckerboard="0"
     inkscape:document-units="pt"
     showgrid="false"
     inkscape:zoom="0.69964286"
     inkscape:cx="362.32772"
     inkscape:cy="320.878"
     inkscape:window-width="1312"
     inkscape:window-height="855"
     inkscape:window-x="0"
     inkscape:window-y="23"
     inkscape:window-maximized="0"
     inkscape:current-layer="g1165" />
  <defs
     id="defs887">
    <symbol
       id="u"
       overflow="visible">
      <path
         d="m 18.766,-1.125 c -0.96875,0.5 -1.9805,0.875 -3.0312,1.125 -1.043,0.25781 -2.1367,0.39062 -3.2812,0.39062 -3.3984,0 -6.0898,-0.94531 -8.0781,-2.8438 -1.9922,-1.9062 -2.9844,-4.4844 -2.9844,-7.7344 0,-3.2578 0.99219,-5.8359 2.9844,-7.7344 1.9883,-1.9062 4.6797,-2.8594 8.0781,-2.8594 1.1445,0 2.2383,0.13281 3.2812,0.39062 1.0508,0.25 2.0625,0.625 3.0312,1.125 v 4.2188 c -0.98047,-0.65625 -1.9453,-1.1406 -2.8906,-1.4531 -0.94922,-0.3125 -1.9492,-0.46875 -3,-0.46875 -1.875,0 -3.3516,0.60547 -4.4219,1.8125 -1.0742,1.1992 -1.6094,2.8555 -1.6094,4.9688 0,2.1055 0.53516,3.7617 1.6094,4.9688 1.0703,1.1992 2.5469,1.7969 4.4219,1.7969 1.0508,0 2.0508,-0.14844 3,-0.45312 0.94531,-0.3125 1.9102,-0.80078 2.8906,-1.4688 z"
         id="path824" />
    </symbol>
    <symbol
       id="c"
       overflow="visible">
      <path
         d="m 13.734,-11.141 c -0.4375,-0.19531 -0.87109,-0.34375 -1.2969,-0.4375 -0.41797,-0.10156 -0.83984,-0.15625 -1.2656,-0.15625 -1.2617,0 -2.2305,0.40625 -2.9062,1.2188 -0.67969,0.80469 -1.0156,1.9531 -1.0156,3.4531 v 7.0625 H 2.3591 v -15.312 h 4.8906 v 2.5156 c 0.625,-1 1.3438,-1.7266 2.1562,-2.1875 0.82031,-0.46875 1.8008,-0.70312 2.9375,-0.70312 0.16406,0 0.34375,0.01172 0.53125,0.03125 0.19531,0.01172 0.47656,0.03906 0.84375,0.07813 z"
         id="path827" />
    </symbol>
    <symbol
       id="b"
       overflow="visible">
      <path
         d="m 17.641,-7.7031 v 1.4062 H 6.188 c 0.125,1.1484 0.53906,2.0078 1.25,2.5781 0.70703,0.57422 1.7031,0.85938 2.9844,0.85938 1.0312,0 2.082,-0.14844 3.1562,-0.45312 1.082,-0.3125 2.1914,-0.77344 3.3281,-1.3906 v 3.7656 c -1.1562,0.4375 -2.3125,0.76562 -3.4688,0.98438 -1.1562,0.22656 -2.3125,0.34375 -3.4688,0.34375 -2.7734,0 -4.9297,-0.70312 -6.4688,-2.1094 -1.5312,-1.4062 -2.2969,-3.3789 -2.2969,-5.9219 0,-2.5 0.75391,-4.4609 2.2656,-5.8906 1.5078,-1.4375 3.582,-2.1562 6.2188,-2.1562 2.4062,0 4.332,0.73047 5.7812,2.1875 1.4453,1.4492 2.1719,3.3828 2.1719,5.7969 z m -5.0312,-1.625 c 0,-0.92578 -0.27344,-1.6719 -0.8125,-2.2344 -0.54297,-0.57031 -1.25,-0.85938 -2.125,-0.85938 -0.94922,0 -1.7188,0.26562 -2.3125,0.79688 -0.5937,0.53126 -0.96484,1.2969 -1.1094,2.2969 z"
         id="path830" />
    </symbol>
    <symbol
       id="a"
       overflow="visible">
      <path
         d="m 9.2188,-6.8906 c -1.0234,0 -1.793,0.17188 -2.3125,0.51562 -0.51172,0.34375 -0.76562,0.85547 -0.76562,1.5312 0,0.625 0.20703,1.1172 0.625,1.4688 0.41406,0.34375 0.98828,0.51562 1.7188,0.51562 0.92578,0 1.7031,-0.32812 2.3281,-0.98438 0.63281,-0.66406 0.95312,-1.4922 0.95312,-2.4844 v -0.5625 z m 7.4688,-1.8438 V 0 h -4.9219 v -2.2656 c -0.65625,0.92969 -1.3984,1.6055 -2.2188,2.0312 -0.82422,0.41406 -1.8242,0.625 -3,0.625 -1.5859,0 -2.8711,-0.45703 -3.8594,-1.375 -0.99219,-0.92578 -1.4844,-2.1289 -1.4844,-3.6094 0,-1.7891 0.61328,-3.1016 1.8438,-3.9375 1.2383,-0.84375 3.1797,-1.2656 5.8281,-1.2656 h 2.8906 v -0.39062 c 0,-0.76953 -0.30859,-1.332 -0.92188,-1.6875 -0.61719,-0.36328 -1.5703,-0.54688 -2.8594,-0.54688 -1.0547,0 -2.0312,0.10547 -2.9375,0.3125 -0.89844,0.21094 -1.7305,0.52344 -2.5,0.9375 v -3.7344 c 1.0391,-0.25 2.0859,-0.44141 3.1406,-0.57812 1.0625,-0.13281 2.125,-0.20312 3.1875,-0.20312 2.7578,0 4.75,0.54688 5.9688,1.6406 1.2266,1.0859 1.8438,2.8555 1.8438,5.3125 z"
         id="path833" />
    </symbol>
    <symbol
       id="d"
       overflow="visible">
      <path
         d="m 7.7031,-19.656 v 4.3438 H 12.75 v 3.5 H 7.7031 v 6.5 c 0,0.71094 0.14062,1.1875 0.42188,1.4375 0.28126,0.25 0.83594,0.375 1.6719,0.375 h 2.5156 v 3.5 h -4.1875 c -1.9375,0 -3.3125,-0.39844 -4.125,-1.2031 -0.80469,-0.8125 -1.2031,-2.1797 -1.2031,-4.1094 v -6.5 h -2.4219 v -3.5 h 2.4219 v -4.3438 z"
         id="path836" />
    </symbol>
    <symbol
       id="l"
       overflow="visible">
      <path
         d="m 12.766,-13.078 v -8.2031 h 4.9219 V -10e-5 H 12.766 v -2.2188 c -0.66797,0.90625 -1.4062,1.5703 -2.2188,1.9844 -0.8126,0.4141 -1.7578,0.625 -2.8281,0.625 -1.8867,0 -3.4336,-0.75 -4.6406,-2.25 -1.2109,-1.5 -1.8125,-3.4258 -1.8125,-5.7812 0,-2.3633 0.60156,-4.2969 1.8125,-5.7969 1.207,-1.5 2.7539,-2.25 4.6406,-2.25 1.0625,0 2,0.21484 2.8125,0.64062 0.82031,0.42969 1.5664,1.0859 2.2344,1.9688 z m -3.2188,9.9219 c 1.0391,0 1.8359,-0.37891 2.3906,-1.1406 0.55078,-0.76953 0.82812,-1.8828 0.82812,-3.3438 0,-1.457 -0.27734,-2.5664 -0.82812,-3.3281 -0.55469,-0.76953 -1.3516,-1.1562 -2.3906,-1.1562 -1.043,0 -1.8398,0.38672 -2.3906,1.1562 -0.55469,0.76172 -0.82812,1.8711 -0.82812,3.3281 0,1.4609 0.27344,2.5742 0.82812,3.3438 0.55078,0.76172 1.3477,1.1406 2.3906,1.1406 z"
         id="path839" />
    </symbol>
    <symbol
       id="k"
       overflow="visible">
      <path
         d="m 10.5,-3.1562 c 1.0508,0 1.8516,-0.37891 2.4062,-1.1406 0.55078,-0.76953 0.82812,-1.8828 0.82812,-3.3438 0,-1.457 -0.27734,-2.5664 -0.82812,-3.3281 -0.55469,-0.76953 -1.3555,-1.1562 -2.4062,-1.1562 -1.0547,0 -1.8594,0.38672 -2.4219,1.1562 -0.55469,0.77344 -0.82812,1.8828 -0.82812,3.3281 0,1.4492 0.27344,2.5586 0.82812,3.3281 0.5625,0.77344 1.3672,1.1562 2.4219,1.1562 z m -3.25,-9.9219 c 0.67578,-0.88281 1.4219,-1.5391 2.2344,-1.9688 0.82031,-0.42578 1.7656,-0.64062 2.8281,-0.64062 1.8945,0 3.4453,0.75 4.6562,2.25 1.207,1.5 1.8125,3.4336 1.8125,5.7969 0,2.3555 -0.60547,4.2812 -1.8125,5.7812 -1.2109,1.5 -2.7617,2.25 -4.6562,2.25 -1.0625,0 -2.0078,-0.21094 -2.8281,-0.625 C 8.6719,-0.6602 7.9258,-1.32032 7.25,-2.21882 V -2e-5 H 2.3594 v -21.281 H 7.25 Z"
         id="path842" />
    </symbol>
    <symbol
       id="f"
       overflow="visible">
      <path
         d="m 0.34375,-15.312 h 4.8906 l 4.125,10.391 3.5,-10.391 h 4.8906 l -6.4375,16.766 c -0.64844,1.6953 -1.4023,2.8828 -2.2656,3.5625 -0.86719,0.6875 -2,1.0312 -3.4062,1.0312 H 2.79685 V 2.8289 h 1.5312 c 0.83203,0 1.4375,-0.13672 1.8125,-0.40625 C 6.52336,2.16093 6.82024,1.69218 7.03117,1.01645 L 7.17179,0.59457 Z"
         id="path845" />
    </symbol>
    <symbol
       id="j"
       overflow="visible">
      <path
         d="m 2.5781,-20.406 h 6.6875 l 4.6562,10.922 4.6719,-10.922 h 6.6875 V 0 H 20.2968 V -14.938 L 15.5937,-3.922 H 12.2656 L 7.5625,-14.938 V 0 H 2.5781 Z"
         id="path848" />
    </symbol>
    <symbol
       id="t"
       overflow="visible">
      <path
         d="M 2.3594,-15.312 H 7.25 V 0 H 2.3594 Z m 0,-5.9688 H 7.25 v 4 H 2.3594 Z"
         id="path851" />
    </symbol>
    <symbol
       id="s"
       overflow="visible">
      <path
         d="m 1.5781,-20.406 h 17.156 v 3.1719 l -10.953,13.25 h 11.266 V 3e-4 H 1.2661 v -3.1875 l 10.938,-13.25 H 1.5791 Z"
         id="path854" />
    </symbol>
    <symbol
       id="i"
       overflow="visible">
      <path
         d="m 16.547,-12.766 c 0.61328,-0.94531 1.3477,-1.6719 2.2031,-2.1719 0.85156,-0.5 1.7891,-0.75 2.8125,-0.75 1.7578,0 3.0977,0.54688 4.0156,1.6406 0.92578,1.0859 1.3906,2.6562 1.3906,4.7188 V -4e-4 h -4.9219 v -7.9844 -0.35938 c 0.0078,-0.13281 0.01563,-0.32031 0.01563,-0.5625 0,-1.082 -0.16406,-1.8633 -0.48438,-2.3438 -0.3125,-0.48828 -0.82422,-0.73438 -1.5312,-0.73438 -0.92969,0 -1.6484,0.38672 -2.1562,1.1562 -0.51172,0.76172 -0.77344,1.8672 -0.78125,3.3125 v 7.5156 h -4.9219 v -7.9844 c 0,-1.6953 -0.14844,-2.7852 -0.4375,-3.2656 -0.29297,-0.48828 -0.8125,-0.73438 -1.5625,-0.73438 -0.9375,0 -1.6641,0.38672 -2.1719,1.1562 -0.51172,0.76172 -0.76562,1.8594 -0.76562,3.2969 v 7.5312 h -4.9219 v -15.312 h 4.9219 v 2.2344 c 0.60156,-0.86328 1.2891,-1.5156 2.0625,-1.9531 0.78125,-0.4375 1.6406,-0.65625 2.5781,-0.65625 1.0625,0 2,0.25781 2.8125,0.76562 0.8125,0.51172 1.4258,1.2305 1.8438,2.1562 z"
         id="path857" />
    </symbol>
    <symbol
       id="h"
       overflow="visible">
      <path
         d="m 14.719,-14.828 v 3.9844 c -0.65625,-0.45703 -1.3242,-0.79688 -2,-1.0156 -0.66797,-0.21875 -1.3594,-0.32812 -2.0781,-0.32812 -1.3672,0 -2.4336,0.40234 -3.2031,1.2031 -0.76172,0.79297 -1.1406,1.9062 -1.1406,3.3438 0,1.4297 0.37891,2.543 1.1406,3.3438 0.76953,0.79297 1.8359,1.1875 3.2031,1.1875 0.75781,0 1.4844,-0.10938 2.1719,-0.32812 0.6875,-0.22656 1.3203,-0.56641 1.9062,-1.0156 v 4 c -0.76172,0.28125 -1.5391,0.48828 -2.3281,0.625 -0.78125,0.14453 -1.5742,0.21875 -2.375,0.21875 -2.7617,0 -4.9219,-0.70703 -6.4844,-2.125 -1.5547,-1.4141 -2.3281,-3.3828 -2.3281,-5.9062 0,-2.5312 0.77344,-4.5039 2.3281,-5.9219 1.5625,-1.4141 3.7227,-2.125 6.4844,-2.125 0.80078,0 1.5938,0.07422 2.375,0.21875 0.78125,0.13672 1.5547,0.35156 2.3281,0.64062 z"
         id="path860" />
    </symbol>
    <symbol
       id="g"
       overflow="visible">
      <path
         d="M 17.75,-9.3281 V 0 h -4.9219 v -7.1094 c 0,-1.3438 -0.03125,-2.2656 -0.09375,-2.7656 -0.0625,-0.5 -0.16797,-0.86719 -0.3125,-1.1094 -0.1875,-0.3125 -0.44922,-0.55469 -0.78125,-0.73438 -0.32422,-0.17578 -0.69531,-0.26562 -1.1094,-0.26562 -1.0234,0 -1.8242,0.39844 -2.4062,1.1875 -0.58594,0.78125 -0.875,1.8711 -0.875,3.2656 V -1e-4 H 2.3594 v -21.281 H 7.25 v 8.2031 c 0.73828,-0.88281 1.5195,-1.5391 2.3438,-1.9688 0.83203,-0.42578 1.75,-0.64062 2.75,-0.64062 1.7695,0 3.1133,0.54688 4.0312,1.6406 0.91406,1.0859 1.375,2.6562 1.375,4.7188 z"
         id="path863" />
    </symbol>
    <symbol
       id="r"
       overflow="visible">
      <path
         d="m 12.422,-21.281 v 3.2188 H 9.7189 c -0.6875,0 -1.1719,0.125 -1.4531,0.375 -0.27344,0.25 -0.40625,0.6875 -0.40625,1.3125 v 1.0625 h 4.1875 v 3.5 H 7.85955 V -2e-4 h -4.8906 v -11.812 h -2.4375 v -3.5 h 2.4375 v -1.0625 c 0,-1.6641 0.46094,-2.8984 1.3906,-3.7031 0.92578,-0.80078 2.3672,-1.2031 4.3281,-1.2031 z"
         id="path866" />
    </symbol>
    <symbol
       id="e"
       overflow="visible">
      <path
         d="m 9.6406,-12.188 c -1.0859,0 -1.9141,0.39062 -2.4844,1.1719 -0.57422,0.78125 -0.85938,1.9062 -0.85938,3.375 0,1.4688 0.28516,2.5938 0.85938,3.375 0.57031,0.77344 1.3984,1.1562 2.4844,1.1562 1.0625,0 1.875,-0.38281 2.4375,-1.1562 0.57031,-0.78125 0.85938,-1.9062 0.85938,-3.375 0,-1.4688 -0.28906,-2.5938 -0.85938,-3.375 -0.5625,-0.78125 -1.375,-1.1719 -2.4375,-1.1719 z m 0,-3.5 c 2.6328,0 4.6914,0.71484 6.1719,2.1406 1.4766,1.418 2.2188,3.3867 2.2188,5.9062 0,2.5117 -0.74219,4.4805 -2.2188,5.9062 C 14.332,-0.317 12.2734,0.39 9.6406,0.39 6.9922,0.39 4.9258,-0.31703 3.4375,-1.735 1.9453,-3.1608 1.2031,-5.1295 1.2031,-7.6412 c 0,-2.5195 0.74219,-4.4883 2.2344,-5.9062 1.4883,-1.4258 3.5547,-2.1406 6.2031,-2.1406 z"
         id="path869" />
    </symbol>
    <symbol
       id="q"
       overflow="visible">
      <path
         d="m 2.5781,-20.406 h 5.875 l 7.4219,14 v -14 h 4.9844 V 0 h -5.875 L 7.5625,-14 V 0 H 2.5781 Z"
         id="path872" />
    </symbol>
    <symbol
       id="p"
       overflow="visible">
      <path
         d="m 2.1875,-5.9688 v -9.3438 h 4.9219 v 1.5312 c 0,0.83594 -0.00781,1.875 -0.015625,3.125 -0.011719,1.25 -0.015625,2.0859 -0.015625,2.5 0,1.2422 0.03125,2.1328 0.09375,2.6719 0.070313,0.54297 0.17969,0.93359 0.32812,1.1719 0.20703,0.32422 0.47266,0.57422 0.79688,0.75 0.32031,0.16797 0.69141,0.25 1.1094,0.25 1.0195,0 1.8203,-0.39062 2.4062,-1.1719 0.58203,-0.78125 0.875,-1.8672 0.875,-3.2656 v -7.5625 h 4.8906 V -6e-4 H 12.6875 V -2.2194 C 11.94531,-1.32096 11.1641,-0.6608 10.3437,-0.235 9.51948,0.17906 8.6093,0.39 7.6093,0.39 5.8476,0.39 4.5038,-0.14906 3.5781,-1.235 2.64841,-2.317 2.1875,-3.8952 2.1875,-5.9694 Z"
         id="path875" />
    </symbol>
    <symbol
       id="o"
       overflow="visible">
      <path
         d="M 17.75,-9.3281 V 0 h -4.9219 v -7.1406 c 0,-1.3203 -0.03125,-2.2344 -0.09375,-2.7344 -0.0625,-0.5 -0.16797,-0.86719 -0.3125,-1.1094 -0.1875,-0.3125 -0.44922,-0.55469 -0.78125,-0.73438 -0.32422,-0.17578 -0.69531,-0.26562 -1.1094,-0.26562 -1.0234,0 -1.8242,0.39844 -2.4062,1.1875 -0.58594,0.78125 -0.875,1.8711 -0.875,3.2656 V -1e-4 H 2.3594 v -15.312 H 7.25 v 2.2344 c 0.73828,-0.88281 1.5195,-1.5391 2.3438,-1.9688 0.83203,-0.42578 1.75,-0.64062 2.75,-0.64062 1.7695,0 3.1133,0.54688 4.0312,1.6406 0.91406,1.0859 1.375,2.6562 1.375,4.7188 z"
         id="path878" />
    </symbol>
    <symbol
       id="n"
       overflow="visible">
      <path
         d="m 2.5781,-20.406 h 8.7344 c 2.5938,0 4.582,0.57812 5.9688,1.7344 1.3945,1.1484 2.0938,2.7891 2.0938,4.9219 0,2.1367 -0.69922,3.7812 -2.0938,4.9375 -1.3867,1.1562 -3.375,1.7344 -5.9688,1.7344 H 7.8281 V 3e-4 h -5.25 z m 5.25,3.8125 v 5.7031 H 10.75 c 1.0195,0 1.8047,-0.25 2.3594,-0.75 0.5625,-0.5 0.84375,-1.2031 0.84375,-2.1094 0,-0.91406 -0.28125,-1.6172 -0.84375,-2.1094 -0.55469,-0.48828 -1.3398,-0.73438 -2.3594,-0.73438 z"
         id="path881" />
    </symbol>
    <symbol
       id="m"
       overflow="visible">
      <path
         d="M 2.3594,-15.312 H 7.25 v 15.031 c 0,2.0508 -0.49609,3.6172 -1.4844,4.7031 -0.98047,1.082 -2.4062,1.625 -4.2812,1.625 H -0.9375 V 2.8283 h 0.85938 c 0.92578,0 1.5625,-0.21094 1.9062,-0.625 0.35156,-0.41797 0.53125,-1.2461 0.53125,-2.4844 z m 0,-5.9688 H 7.25 v 4 H 2.3594 Z"
         id="path884" />
    </symbol>
  </defs>
  <g
     id="g1165"
     transform="translate(-77.894505,-108.9959)">
    <path
       d="m 277.79,295.27 c 2.4961,2.8555 5.6094,5.1055 9.1016,6.582 3.1914,1.832 6.6133,3.2773 9.9727,4.8047 v 0.004 c 6.1133,3 12.711,4.8789 19.488,5.5469 2.0625,0 3.9961,1.0078 5.1836,2.6953 1.1836,1.6914 1.4727,3.8516 0.76953,5.793 -0.46094,2.0234 -1.3125,3.9414 -2.5078,5.6367 -5.7227,7.7891 -13.414,13.91 -22.285,17.738 -5.8555,2.0391 -11.824,3.75 -17.871,5.1289 -1.3125,0.22656 -2.6484,0.26562 -3.9727,0.12109 -5.0234,0.0195 -10.055,-0.11719 -15.074,0.0781 -8.6133,0.41016 -17.203,-1.1562 -25.117,-4.5781 -4.5469,-2.4609 -8.8086,-5.418 -12.711,-8.8125 -2.3477,-1.7383 -4.5078,-3.7344 -6.8633,-5.7031 v 0.004 c -0.69922,0.26953 -1.3672,0.61328 -1.9961,1.0273 -10.605,8.082 -22.301,14.621 -34.742,19.43 -11.887,4.9648 -24.148,8.9883 -36.664,12.031 -4.4883,0.90625 -9.0664,1.2734 -13.645,1.1016 -9.3164,0.15234 -18.641,0.0469 -27.961,0.0391 l 0.004,-0.004 c -0.59375,-0.0156 -1.183604,-0.0625 -1.773404,-0.14453 -6.5078,0.0937 -12.07,-4.668 -12.984,-11.113 -1.2266,-0.47656 -2.4258,-1.0234 -3.5898,-1.6367 -2.0938,-0.98047 -3.668,-2.8086 -4.3242,-5.0234 -0.65625,-2.2148 -0.33594,-4.6055 0.88672,-6.5703 2.6836,-5.3086 6.5898,-9.9062 11.398,-13.414 12.137004,-9.1523 21.621004,-21.363 27.484004,-35.391 1.7227,-4.3906 2.957,-8.9609 3.6875,-13.625 2.0977,-13.031 6.4023,-25.613 12.73,-37.199 1.4297,-2.5859 2.707,-5.2617 3.9688,-7.9375 6.0703,-11.883 13.793,-22.848 22.938,-32.562 8.7422,-9.6875 18.957,-17.93 30.273,-24.43 3.2305,-2.0625 6.1328,-4.6055 8.6016,-7.5352 2.8242,-3.2383 5.3594,-6.7188 7.5742,-10.402 5.707,-8.1133 12.27,-15.594 19.57,-22.309 6.2695,-6.2969 13.281,-11.805 20.883,-16.406 6.6719,-4.1641 14.062,-7.0469 21.793,-8.5 2.4414,-0.48438 5.0039,-0.33594 7.4805,-0.68359 3.8281,-0.44531 7.457,1.8086 8.7617,5.4336 1.6133,3.0156 0.91797,6.7461 -1.6641,8.9844 -3.0469,3.2305 -6.3086,6.2578 -9.7539,9.0547 -3.9922,3.3008 -7.4609,7.1914 -10.285,11.535 -0.86328,1.3789 -1.4609,2.9102 -1.7539,4.5078 -1.0312,4.9609 1.1602,7.7266 6.1797,8.8789 7.1562,1.2031 14.438,1.4688 21.66,0.79688 7.2539,-0.22266 14.516,-0.80469 21.754,-0.58594 10.914,0.33203 21.84,0.94141 32.707,2.0039 l 0.004,0.004 c 4.9453,0.84766 9.8242,2.0352 14.605,3.5547 10.93,2.6641 21.508,6.5977 31.516,11.727 11.453,5.5547 22.023,12.762 31.379,21.391 5.7578,5.5 12.086,10.406 17.824,15.93 4.5664,4.3906 8.4883,9.4453 12.953,13.949 h 0.004 c 3.1875,3.8242 5.9961,7.9492 8.3828,12.32 4.6719,6.9844 9.293,14.035 13.422,21.348 4.207,7.457 7.8477,15.234 11.633,22.922 2.6172,5.3086 5.0898,10.688 7.5703,16.062 v 0.004 c 2.2344,3.4727 4.9453,6.6133 8.0586,9.3281 3.375,3.8359 8.5664,5.5391 13.559,4.4453 5.2852,-0.62109 10.582,-1.1562 15.852,-1.8906 h -0.004 c 11.43,-1.6172 23.023,-1.7109 34.473,-0.27344 7.1719,0.91016 14.387,1.543 21.531,2.6445 9.7578,2.0938 18.777,6.7617 26.125,13.516 2.4492,2.1484 4.6289,4.5859 6.4961,7.2539 1.1172,1.2383 1.6719,2.8828 1.5391,4.543 -0.13281,1.6602 -0.94141,3.1914 -2.2422,4.2383 -1.9141,1.8359 -4.1836,3.2695 -6.6641,4.2148 -8.4062,2.8398 -16.855,5.6719 -25.465,7.7656 l -0.004,-0.004 c -5.0859,0.98828 -10.258,1.4453 -15.438,1.3633 -7.6719,0.21875 -15.395,-0.38281 -23.023,0.23828 -8.0469,-0.22656 -15.961,2.0469 -22.66,6.5078 -2.8516,2.3594 -4.9258,5.5195 -5.9531,9.0742 -1.8633,6.5625 -2.4688,13.422 -1.7852,20.211 0.0586,7.9961 -1.1914,15.949 -3.7031,23.539 -4.0156,11.496 -10.363,22.031 -18.648,30.953 -2.9648,4.3867 -8.8047,5.7578 -13.414,3.1445 -2.7852,-1.7656 -4.8281,-4.4883 -5.7461,-7.6523 -2.1094,-5.8359 -4.3594,-11.664 -5.875,-17.664 -2.5664,-9.25 -4.5664,-18.652 -5.9766,-28.148 -1.4336,-11.219 0.0742,-22.621 4.3789,-33.082 2.5078,-6.1406 4.3008,-12.578 6.3516,-18.902 l 0.004,0.004 c 1.2266,-4.6953 -0.29687,-9.6797 -3.9414,-12.887 -3.7812,-4.2852 -8.1953,-8.0117 -12.016,-12.266 -4.1641,-4.6016 -9.3594,-8.1523 -15.16,-10.359 -2.9375,-1.3789 -5.7461,-3.0234 -8.3828,-4.9102 -3.1211,-1.9727 -6.0625,-4.2539 -9.2773,-6.0508 -5,-2.793 -10.109,-5.4062 -15.273,-7.8906 -11.047,-4.6562 -22.727,-7.6328 -34.652,-8.8359 -5.4336,-0.6875 -10.91,-0.97266 -16.383,-0.84766 -7.6758,-0.0156 -15.375,-0.004 -23.023,0.56641 -12.121,0.46094 -24.172,2.0469 -36,4.7422 -8.4375,2.3047 -16.578,5.582 -24.262,9.7695 z M 189.489,180.4 c -2.7227,1.7461 -5.5312,3.375 -8.1562,5.2578 -10.301,7.5117 -19.402,16.551 -26.988,26.801 -9.1992,12.516 -16.844,26.105 -22.762,40.465 -3.1172,7.3672 -5.2969,15.098 -6.4766,23.008 -0.28125,3.2344 -0.83594,6.4375 -1.6602,9.5742 -3.9258,11.699 -10.336,22.41 -18.797,31.395 -4.9414,5.2695 -10.727,9.7461 -15.75,14.945 -2.6953,2.9141 -4.9961,6.1758 -6.8398,9.6914 -0.77734,1.0508 -1.0547,2.3867 -0.76172,3.6602 0.29688,1.2695 1.1367,2.3477 2.2969,2.9453 4.9062,3.4062 10.887,4.9062 16.82,4.2148 5.4961,-1.1445 10.934,-2.582 16.277,-4.3008 7.0742,-2.3086 13.324,-6.625 17.984,-12.422 1.0195,-1.1797 1.9648,-2.418 2.9609,-3.6484 0.66797,0.44141 1.0898,1.1758 1.1328,1.9766 0.043,0.80078 -0.29688,1.5742 -0.91016,2.0898 -1.4844,1.8438 -3.0703,3.6016 -4.7539,5.2617 -8.0078,7.1289 -17.953,11.723 -28.574,13.191 -4.5469,0.63281 -9.1289,0.96875 -13.719,1.0117 2.3086,3.2891 6.125,5.1875 10.145,5.0469 11.531,0.22656 23.066,0.44531 34.598,0.33594 3.5352,-0.24609 7.0391,-0.84766 10.453,-1.8047 2.4531,-0.53906 4.8203,-1.4453 7.2461,-2.1172 h -0.004 c 17.305,-4.7109 33.887,-11.77 49.281,-20.969 3.75,-2.2617 7.1055,-5.1758 10.867,-7.957 l -0.004,-0.004 c -0.76563,-0.64844 -1.4844,-1.3477 -2.1523,-2.0977 -2.3516,-3.1367 -6.0781,-5.7773 -5.6445,-10.152 l 0.004,0.004 c 0.16406,-4.125 1.1523,-8.1719 2.9062,-11.906 3.7617,-6.9258 9.1289,-12.852 15.648,-17.281 10.582,-7.2383 24.043,-8.832 36.023,-4.2578 4.8516,1.6758 9.4844,3.9766 13.824,5.8281 h -0.004 c 1.7031,-1.4375 3.5469,-2.6992 5.5,-3.7656 8.4492,-3.5234 16.992,-6.832 25.516,-10.176 h 0.004 c 0.85156,-0.25781 1.7266,-0.4375 2.6094,-0.52734 11.816,-2.0312 23.766,-3.1797 35.75,-3.4336 14.352,-0.46094 28.715,0.55469 42.859,3.0273 3.6289,0.74219 7.1914,1.7773 10.656,3.0859 2.0508,0.85547 4.043,1.8438 5.9648,2.9531 -1.5898,1.7773 -2.8047,0.97266 -3.9922,0.56641 -2.2344,-0.76172 -4.4219,-1.7148 -6.7031,-2.2891 -10.766,-2.7031 -21.793,-4.2344 -32.887,-4.5625 -8.2617,-0.25 -16.543,0.0547 -24.812,0.28125 h 0.004 c -4.5898,0.0898 -9.168,0.41797 -13.723,0.97656 -5.4531,0.53125 -10.855,1.5078 -16.152,2.918 -7.3477,2.2266 -14.477,5.207 -21.625,8.0508 h -0.004 c -1.9961,0.98047 -3.9062,2.1289 -5.7109,3.4258 l 0.41797,1.1484 c 2.1484,-0.0234 4.2852,-0.26953 6.3828,-0.73438 5.1992,-1.6953 10.262,-3.8164 15.43,-5.6094 l 0.004,0.004 c 2.7344,-1.1406 5.6055,-1.9219 8.543,-2.3242 16.66,-1.1758 33.176,-4.4766 50,-3.3398 7.0586,0.47656 14.172,0.26953 21.215,0.86719 v -0.004 c 16.391,1.7422 32.273,6.6914 46.746,14.57 3.6719,1.8828 7.1523,4.1602 10.66,6.3516 7.3867,4.6172 14.73,9.2969 21.906,13.832 1.4648,-0.99609 1.8555,-3.6016 3.6992,-1.7422 1.4492,1.4609 -0.29688,2.2305 -1.2461,3.0742 -0.14844,0.13281 -0.0625,0.51953 -0.10938,1.0547 l 3.2891,3.0156 h 0.004 c 1.6016,-1.5117 3.7344,-2.332 5.9414,-2.293 l -1.7461,6.0469 3.5156,3.6055 2.7344,-2.6797 1.043,0.46875 -0.49219,6 -0.004,0.004 c 2.7891,2.582 4.3125,6.2539 4.1641,10.055 -0.20703,2.7969 -0.62109,5.5742 -1.2422,8.3086 -0.87109,3.5195 -2.1133,6.9492 -3.0195,9.8516 1.5117,0.58984 2.7695,1.0117 3.9414,1.6094 l -0.004,-0.004 c 0.14062,0.52344 0.0508,1.082 -0.24219,1.5391 -1.3164,1.332 -2.6445,0.85938 -3.9023,-0.21875 v -0.004 c -0.23047,-0.13281 -0.47656,-0.23047 -0.73828,-0.28906 -0.5,0.91797 -1.0156,1.8125 -1.4766,2.7383 h 0.004 c -0.082,0.27734 -0.12109,0.57031 -0.10547,0.85938 3.25,2.9336 3.7578,3.5508 3.2539,4.7969 h -0.004 c -0.93359,2.2109 -3.168,3.5938 -5.5664,3.4375 3.9297,0.99219 5.9922,2.9805 5.5156,5.6445 -0.14453,1.0156 -0.70312,1.9297 -1.5391,2.5273 -2.043,0.78516 -4.1367,1.4297 -6.2695,1.9297 l -0.1875,6.0352 4.7578,0.0391 c -0.15234,1.3867 0.12891,2.9297 -0.48438,3.4805 -1.1758,0.70703 -2.4688,1.1992 -3.8203,1.4414 -0.043,0.43359 -0.0586,0.86719 -0.043,1.3008 1.7891,16.199 6.1094,32.02 12.797,46.879 0.53516,1.2188 1.25,2.3477 2.1211,3.3555 0.83984,1.3516 2.2227,2.2773 3.793,2.543 1.5703,0.26562 3.1797,-0.15625 4.418,-1.1562 1.7812,-1.0352 3.3672,-2.375 4.6836,-3.9609 2.5742,-3.2266 4.6016,-6.9062 7.2852,-10.027 6.4922,-8.5039 10.664,-18.543 12.109,-29.141 0.58984,-4.2422 0.83203,-8.5234 0.73047,-12.805 0.23828,-5.8125 0.42578,-11.625 0.63281,-17.41 -0.89844,0.68359 -1.8633,1.2812 -2.875,1.7852 -0.80469,0.44531 -1.8008,0.375 -2.5352,-0.18359 -0.73047,-0.55859 -1.0703,-1.4961 -0.85547,-2.3906 0.33984,-1.375 1.1602,-2.5781 2.3086,-3.4023 0.57422,-0.39453 2.0977,0.35938 3.0586,0.85156 0.65234,0.33203 1.0781,1.1094 1.9062,2.0156 l 2.7344,-8.8867 -0.125,0.17187 c 2.7031,-1.7812 5.3672,-3.6367 8.1289,-5.3203 1.4453,-1.0273 3.0664,-1.7852 4.7852,-2.2344 5.375,-1.0352 10.805,-1.7656 16.266,-2.1836 7.8281,-0.44141 15.699,-0.0977 23.531,-0.51172 6.8203,0.12891 13.633,-0.64453 20.254,-2.293 6.7383,-2.1875 13.461,-4.418 20.172,-6.6953 2.418,-0.59375 4.3672,-2.3867 5.1602,-4.75 -0.83203,0.68359 -1.457,1.2812 -2.1641,1.7578 v 0.004 c -0.61719,0.55078 -1.4336,0.82422 -2.2617,0.76172 -0.82813,-0.0664 -1.5898,-0.46484 -2.1172,-1.1055 -0.625,-1.2695 -0.57812,-2.7656 0.125,-3.9961 1.4609,-1.3906 3.1133,-2.5625 4.9062,-3.4805 -2.8125,-2.3867 -5.4844,-4.9219 -8.4219,-7.0898 -6.043,-4.7812 -13.047,-8.207 -20.531,-10.031 -10.895,-2.0664 -21.926,-3.3125 -33.008,-3.7227 -9.3125,-0.45703 -18.648,0.17187 -27.816,1.8672 -5.6992,0.875 -11.449,1.3398 -17.211,1.3867 -3.9375,0.16016 -7.6875,-1.6797 -9.9727,-4.8906 -1.0469,-1.3984 -2.6133,-2.3984 -3.7852,-3.7188 -1.6641,-1.6562 -3.1211,-3.5039 -4.3477,-5.5078 -3.7695,-7.1914 -7.2773,-14.523 -10.914,-21.785 -2.25,-4.4883 -4.6602,-8.8945 -6.8164,-13.422 h -0.004 c -6.1133,-12.645 -13.742,-24.5 -22.719,-35.305 -1.8711,-2.2852 -3.5859,-4.7305 -5.6602,-6.8164 -4.7539,-4.7773 -9.7109,-9.3516 -14.539,-14.059 -3.6992,-3.6055 -7.2422,-7.3789 -11.02,-10.902 -2.5781,-2.4062 -5.5039,-4.4414 -8.1602,-6.7734 v -0.004 c -7.8945,-6.9258 -16.828,-12.574 -26.473,-16.738 -9.1211,-4.2227 -18.645,-7.5195 -28.426,-9.8398 -4.1758,-0.89062 -8.2305,-2.5391 -12.438,-3.0586 -7.0312,-0.86328 -14.133,-1.1992 -21.219,-1.5664 -13.305,-0.6875 -26.609,-0.49609 -39.926,0.0195 -5.4648,0.21094 -10.934,-0.26562 -16.277,-1.4258 -3.1719,-0.46094 -5.9102,-2.4531 -7.3359,-5.3203 -1.4219,-2.8711 -1.3516,-6.2539 0.19922,-9.0586 0.84766,-2.5312 2.1445,-4.8867 3.8242,-6.957 3.4766,-3.7969 7.4336,-7.1523 11.184,-10.699 2.4648,-2.332 5.0195,-4.582 7.3359,-7.0586 1.4648,-1.3906 1.7812,-3.6055 0.76953,-5.3516 -1.0508,-1.7266 -2.3359,-3.4492 -4.9219,-3.1133 -2.1875,0.28516 -4.4375,0.12109 -6.6133,0.45703 -11.367,2.0508 -22.062,6.8398 -31.164,13.953 2.4336,0.98047 3.8398,2.5547 2.8906,4.8828 -0.59766,0.98047 -1.5703,1.6719 -2.6914,1.9062 -3.0117,0.67969 -2.3789,-2.6562 -3.9961,-4.3008 l -4.6641,5.3438 0.11719,-0.16797 c -0.98438,0.60938 -1.9141,1.2969 -2.7773,2.0586 -2.9805,3.0742 -6.0078,6.1211 -8.7695,9.3867 -3.418,4.043 -6.6992,8.2109 -9.8438,12.469 l -0.004,0.004 c -3.5898,5.7539 -7.9453,10.992 -12.949,15.574 -2.8633,2.25 -5.7852,4.4258 -8.6797,6.6367 z m 92.363,165.71 c 5.1055,-1.707 9.957,-3.0547 14.59,-4.9414 8.5664,-3.4531 15.953,-9.3164 21.258,-16.879 3.625,-5.1094 2.2305,-8.0195 -3.9766,-9.2227 -3.6016,-0.69922 -7.1406,-1.7188 -10.703,-2.6055 -8.3164,-2.5938 -16.207,-6.3945 -23.422,-11.273 -5.2734,-3.1172 -9.7656,-7.5195 -15.219,-10.582 v 0.004 c -4.9102,-3.293 -10.688,-5.0469 -16.602,-5.0391 -0.73828,0.0469 -1.4805,0.0937 -2.2188,0.0742 l 0.004,0.004 c -11.574,-0.60938 -22.75,4.3125 -30.113,13.262 -3.5352,4.5039 -5.8789,9.8281 -6.8086,15.48 -0.17578,1.3008 0.10156,2.6211 0.78906,3.7383 1.1211,2.0703 2.5469,3.9609 4.2266,5.6133 5.4844,4.918 11.414,9.3555 16.723,14.445 5.3242,4.543 12.035,7.1484 19.031,7.3945 6.168,0.46484 12.359,0.60156 18.543,0.42188 4.6992,0.0586 9.3984,0.0742 13.898,0.10547 z"
       id="path889" />
    <path
       d="m 275.38,281.58 c 0.16797,-1.9375 1.4922,-3.582 3.3477,-4.1602 5.4844,-2.5547 10.879,-5.332 16.496,-7.5586 10.652,-4.4922 21.988,-7.1445 33.527,-7.8438 4.7539,-0.49609 9.5586,0.0742 14.066,1.6719 -1.6992,0.51172 -2.5586,1.0547 -3.3359,0.96094 -17.094,-2.0508 -32.773,3.0586 -48.168,9.5195 -3.9375,1.6523 -7.7148,3.6797 -11.578,5.5078 -1.2266,0.58203 -2.4844,1.0898 -4.3555,1.9023 z"
       id="path891" />
    <path
       d="m 205.12,327.86 c -0.61719,0.65625 -1.1094,1.6016 -1.8711,1.9297 h 0.004 c -6.3086,3.2344 -12.328,7 -18,11.246 -7.3125,4.4766 -15.082,8.1641 -23.176,10.992 -1.457,0.5 -3.0391,0.50781 -4.5039,0.0234 0.43359,-0.39844 0.80078,-0.96875 1.3125,-1.1719 11.902,-4.5117 23.121,-10.648 33.336,-18.238 2.3906,-1.7422 4.9453,-3.2422 7.6289,-4.4766 1.5547,-0.57812 3.1641,-0.99219 4.8047,-1.2344 z"
       id="path893" />
    <path
       d="m 166.43,220.89 c -2.6562,0.47656 -4.0781,-0.6875 -3.9531,-3.2383 v 0.004 c 1.0898,-5.5938 4.9648,-10.242 10.27,-12.316 2.8594,-0.57422 4.2344,0.58203 4.1523,3.4883 -0.52344,2.7578 -1.7656,5.3242 -3.6055,7.4453 -1.8398,2.1172 -4.207,3.7109 -6.8633,4.6172 z"
       id="path895" />
    <path
       d="m 165.36,300.85 c -0.41406,2.9844 -1.3125,5.8867 -2.6562,8.5859 -2.1445,2.8164 -4.9062,5.1016 -8.0703,6.6836 -4.8359,2.3945 -7.8516,-0.19141 -6.9414,-5.5352 v -0.004 c 1.0781,-5.6523 5.0234,-10.336 10.41,-12.363 1.3594,-0.45703 2.8398,-0.44141 4.1914,0.0469 1.0586,0.33594 1.8516,1.5117 3.0664,2.5859 z m -14.609,12.547 c 5.1953,-0.23438 9.7344,-3.5898 11.473,-8.4922 0.51562,-1.6094 -0.3125,-3.3438 -1.8867,-3.9609 -6.9805,2.6055 -9.9375,6.4609 -9.5859,12.453 z"
       id="path897" />
    <path
       d="m 125.35,302.32 c 1.293,1.4766 2.0586,2.2461 2.7031,3.1055 0.6875,1.1406 1.8242,1.9375 3.1289,2.1953 1.3086,0.25781 2.6602,-0.0469 3.7305,-0.83984 2.1289,-1.3008 2.8086,-4.0742 1.5234,-6.2109 -0.85156,-1.2734 -1.1094,-2.8516 -0.71094,-4.332 3.5742,1.4766 5.4609,5.4141 4.3633,9.125 -1.7305,4.0078 -6.0078,6.2812 -10.301,5.4688 -4.2031,-0.96094 -5.3125,-2.707 -4.4375,-8.5117 z"
       id="path899" />
    <path
       d="m 488.71,325.61 c 0.49219,1.0312 0.54688,2.2188 0.14844,3.293 -0.39844,1.0703 -1.2109,1.9375 -2.2578,2.3984 -1.4297,0.86328 -2.7773,1.8867 -4.4062,0.79297 -1.5547,-0.98047 -2.2266,-2.9102 -1.6133,-4.6445 0.35547,-1.3125 4.0586,-4.3281 5.3125,-3.8711 1.0547,0.50391 2.0078,1.1914 2.8164,2.0312 z"
       id="path901" />
    <path
       d="m 478.72,432.24 c 0.30469,-1.5859 0.74609,-3.1445 1.3242,-4.6562 0.33203,-0.91016 1.0195,-1.6484 1.9102,-2.0391 0.88672,-0.39062 1.8945,-0.40234 2.793,-0.0312 1.8203,1.082 2.7422,3.2109 2.2812,5.2773 -0.55078,1.7852 -3.2422,4.0586 -5.0156,3.6992 -1.168,-0.23438 -2.1406,-1.4219 -3.293,-2.25 z"
       id="path903" />
    <path
       d="m 224.06,169.53 c -2.0781,0.44531 -4.1484,-0.78516 -4.7422,-2.8281 -0.24219,-2.4062 1.3594,-4.6094 3.7188,-5.1328 2.2148,-0.0859 4.25,1.1953 5.1289,3.2266 0.0977,1.1758 -0.28516,2.3398 -1.0586,3.2305 -0.76953,0.89062 -1.8711,1.4336 -3.0469,1.5039 z"
       id="path905" />
    <path
       d="m 482.05,349.61 c -0.0547,-1.5742 0.84766,-3.0195 2.2852,-3.6602 1.43754,-0.6407 3.1172,-0.34766 4.2539,0.74219 1.1328,1.0898 1.4922,2.7578 0.91016,4.2188 -0.58594,1.4609 -1.9961,2.4219 -3.5703,2.4297 -2.3594,0.22656 -3.6836,-1.0469 -3.8789,-3.7305 z"
       id="path907" />
    <path
       d="m 594.99,345.59 c -0.92578,0.25391 -1.9102,0.12891 -2.7383,-0.34766 -0.83203,-0.47266 -1.4375,-1.2617 -1.6875,-2.1836 0.10156,-2.5586 1.9102,-4.7266 4.4102,-5.2773 2.2344,0.26953 4.0234,1.9922 4.375,4.2188 0.12109,1.5 -1.9688,3.2227 -4.3594,3.5898 z"
       id="path909" />
    <path
       d="m 483.29,416.45 c 0.42969,2.0586 -1.8984,4.7461 -4.4414,5.1289 -0.80469,0.12891 -1.625,-0.0781 -2.2734,-0.57422 -0.64453,-0.49219 -1.0625,-1.2305 -1.1484,-2.0391 -0.51562,-2.3711 0.67578,-4.7852 2.875,-5.8125 2.2656,-0.36328 4.4336,1.0703 4.9883,3.2969 z"
       id="path911" />
    <path
       d="m 273.19,115.19 c 1.0078,-0.27734 2.0898,-0.0898 2.9492,0.50781 0.85938,0.59766 1.4062,1.5469 1.4961,2.5898 0.31641,2.1367 -1.2383,3.8594 -3.9453,4.3867 v -0.004 c -1.0977,0.16406 -2.2148,-0.14062 -3.082,-0.83984 -0.86328,-0.69922 -1.3945,-1.7266 -1.4648,-2.8359 -0.20312,-1.8789 1.3984,-3.3828 4.0469,-3.8047 z"
       id="path913" />
    <path
       d="m 601.26,328.52 c 1.4844,0.23437 2.0625,0.28516 2.6172,0.42187 2.7578,0.69531 4.2305,2.1953 3.8672,3.9102 h 0.004 c -0.90625,2.75 -3.6992,4.4102 -6.5469,3.8984 -0.84375,-0.44141 -1.4141,-1.2695 -1.5156,-2.2148 0.38672,-2.0391 0.91406,-4.0508 1.5742,-6.0156 z"
       id="path915" />
    <path
       d="m 503.87,397.41 c -1.8164,0.21875 -3.4922,-1.0039 -3.8438,-2.8008 0.22266,-2.2266 1.6914,-4.1328 3.7891,-4.918 2.0977,0.25391 3.8398,1.7383 4.4219,3.7695 0.39453,1.9609 -1.3633,3.5508 -4.3672,3.9492 z"
       id="path917" />
    <path
       d="m 559.92,351.26 c -0.67578,0.17578 -1.3945,0.0508 -1.9688,-0.34375 -0.5743,-0.39453 -0.94922,-1.0156 -1.0312,-1.707 -0.33984,-2.4219 1.1953,-4.707 3.5625,-5.3086 2.125,-0.33203 4.168,0.96484 4.7734,3.0312 0.17578,1.6758 -2.4375,3.918 -5.3359,4.3281 z"
       id="path919" />
    <path
       d="m 491.5,374.79 c -2.4141,0.34766 -3.9453,-0.64062 -4.2227,-2.7188 -0.22266,-2.1211 1.1484,-4.0859 3.2227,-4.6016 2.2539,-0.0859 4.25,1.4609 4.7266,3.668 -0.16406,1.9727 -1.75,3.5273 -3.7266,3.6523 z"
       id="path921" />
    <path
       d="m 243.76,146.23 c -2.9141,0.35547 -6.3906,-3.9219 -5.6367,-6 0.0508,-0.13672 0.0977,-0.36328 0.18359,-0.37891 1.2578,-0.45703 2.5938,-0.67578 3.9336,-0.64453 2.625,0.56641 4.1172,2.3438 3.5586,4.0938 l 0.004,0.004 c -0.51172,1.082 -1.2031,2.0703 -2.043,2.9258 z"
       id="path923" />
    <path
       d="m 577.42,336.09 c 1.1484,1.1445 2.1797,2.3984 3.082,3.7422 0.41797,0.62109 0.55469,1.3867 0.38281,2.1133 -0.17188,0.73047 -0.64062,1.3516 -1.293,1.7188 -1.3867,0.62891 -2.9062,0.89453 -4.4258,0.78125 -0.41016,-0.0273 -1.2188,-2.0391 -0.94141,-2.8242 0.89453,-1.9336 1.9648,-3.7852 3.1953,-5.5312 z"
       id="path925" />
    <path
       d="m 255.68,121.06 c 2.0156,3.7969 1.4727,6.2734 -1.6719,7.625 -0.63281,0.40625 -1.4375,0.44922 -2.1133,0.11328 -0.67578,-0.33203 -1.1289,-0.99609 -1.1914,-1.75 -0.82422,-3.3281 0.84766,-5.3398 4.9766,-5.9883 z"
       id="path927" />
    <path
       d="m 552.01,326.85 c -0.33594,-2.1992 0.60938,-3.9102 2.2969,-4.1641 1.5234,-0.22656 3.707,2.0469 3.9648,4.125 0.22266,1.6836 -0.87109,3.2578 -2.5273,3.6367 -1.8281,0.23438 -3.375,-1.2578 -3.7344,-3.5977 z"
       id="path929" />
    <path
       d="m 485.39,387.94 c 2.1016,0.0391 3.9414,1.4297 4.5469,3.4492 0.12891,1.6914 -1.1094,3.1836 -2.7969,3.3711 -1.9922,0.17578 -3.7852,-1.1953 -4.1406,-3.1641 -0.17188,-0.80078 -0.0156,-1.6367 0.43359,-2.3242 0.44921,-0.6875 1.1523,-1.1641 1.957,-1.332 z"
       id="path931" />
    <path
       d="m 489.03,412.63 c 3.5352,0.76562 3.9023,3.0742 4.293,5.1562 0.25781,1.3711 -1.7539,2.9531 -3.2852,2.8125 -0.67578,0.008 -1.3242,-0.29297 -1.7539,-0.81641 -0.43359,-0.52344 -0.60547,-1.2148 -0.47266,-1.8789 0.30859,-1.7773 0.71484,-3.5391 1.2188,-5.2734 z"
       id="path933" />
    <path
       d="m 578.04,319.6 c 1.0352,0.50781 1.6719,0.62891 1.9961,1.0117 h 0.004 c 1.3008,1.2812 1.6016,3.2695 0.73828,4.8789 -0.54688,1.4492 -2.1016,2.25 -3.5977,1.8555 -1.8164,-0.55469 -1.8789,-2.1328 -1.2969,-3.6094 h 0.004 c 0.64063,-1.418 1.3633,-2.7969 2.1523,-4.1367 z"
       id="path935" />
    <path
       d="m 488.38,446.07 c -0.88281,0.35938 -1.8789,0.28125 -2.6953,-0.20703 -0.82031,-0.48828 -1.3594,-1.332 -1.4609,-2.2773 -0.34375,-1.6367 0.61719,-3.2695 2.2148,-3.7617 1.375,-0.17188 3.7812,1.6992 3.5977,3.2656 -0.33203,1.1016 -0.89453,2.1211 -1.6562,2.9805 z"
       id="path937" />
    <path
       d="m 213.25,163.29 c 1.5898,3.6055 1.3164,5.1289 -0.95703,6.0742 -0.63281,0.40234 -1.4219,0.48047 -2.125,0.20703 -0.69922,-0.27344 -1.2305,-0.86328 -1.4258,-1.5898 -0.71875,-2.4023 0.71484,-3.9805 4.5078,-4.6914 z"
       id="path939" />
    <path
       d="m 481.09,379.21 c 1.6641,0.043 3.0781,1.2227 3.4219,2.8516 0.0508,1.8438 -1.2969,2.5078 -2.7734,2.8477 l -0.004,-0.004 c -0.62891,0.25391 -1.3398,0.18359 -1.9102,-0.1875 -0.57031,-0.36719 -0.92578,-0.98828 -0.95703,-1.6641 -0.25,-1.5859 0.97656,-3.6836 2.2227,-3.8438 z"
       id="path941" />
    <path
       d="m 573.42,319.12 c -0.95312,1.3867 -2.0781,2.6445 -3.3516,3.7461 -0.94531,0.60156 -2.6367,-1.2578 -2.6758,-2.7266 -0.0703,-0.80469 0.21484,-1.6016 0.78516,-2.1797 0.56641,-0.57422 1.3594,-0.87109 2.168,-0.80859 0.90625,0.14453 1.6914,1.0469 3.0742,1.9688 z"
       id="path943" />
    <path
       d="m 509.79,410.04 c -1.3672,1.1758 -2.8516,2.2031 -4.4297,3.0703 -1.332,0.52344 -2.1875,-0.4375 -2.3164,-1.875 -0.15625,-1.7383 1.1055,-3.5156 2.7227,-3.3125 1.4375,0.50391 2.793,1.2188 4.0234,2.1172 z"
       id="path945" />
    <path
       d="m 255.5,143.42 c -0.79688,-4.6836 -0.79688,-4.6836 2.6641,-6.832 v 0.004 c 0.75391,0.30859 1.3398,0.92578 1.6133,1.6914 0.27344,0.76953 0.21094,1.6133 -0.17578,2.332 -0.61719,1.1328 -2.3398,1.668 -4.1016,2.8047 z"
       id="path947" />
    <path
       d="m 264.25,117.82 c 0.39844,0.57812 0.91406,1.0039 0.99219,1.5 v -0.004 c 0.44531,1.7812 -0.625,3.5859 -2.3984,4.043 -0.67578,0.0391 -1.3242,-0.26172 -1.7344,-0.79688 -0.72266,-1.5391 -0.0898,-3.3711 1.4297,-4.1367 0.54297,-0.27344 1.1172,-0.47656 1.7109,-0.60547 z"
       id="path949" />
    <path
       d="m 585.95,334.01 c -0.18359,-2.8281 0.51172,-4.1797 2.3164,-3.9102 h 0.004 c 1.0508,0.21875 1.9375,0.93359 2.375,1.918 0.33203,1.5664 -1.7188,2.3711 -4.6953,1.9922 z"
       id="path951" />
    <path
       d="m 476.4,320.5 c -0.56641,-2.0039 -1.5469,-3.7891 0.82422,-4.793 0.55078,-0.27734 1.2031,-0.26172 1.7344,0.043 0.53516,0.30469 0.88281,0.85547 0.92578,1.4688 0.3125,2.1836 -0.94141,3.207 -3.4844,3.2812 z"
       id="path953" />
    <path
       d="m 211.83,181.99 c -1.2305,-1.1797 -2.2109,-1.6914 -2.4531,-2.4414 v 0.004 c -0.26172,-0.69531 -0.19531,-1.4688 0.17969,-2.1094 0.37109,-0.64062 1.0156,-1.0781 1.75,-1.1914 0.87891,0.0508 1.7188,0.39062 2.3867,0.96484 -0.52344,1.6289 -1.1445,3.2227 -1.8633,4.7734 z"
       id="path955" />
    <path
       d="m 545.98,319.66 c -2.125,-2.7617 -2.3945,-4.1797 -0.89062,-5.0938 0.67188,-0.41016 2.3438,-0.40234 2.6602,0.0508 1.4805,2.1016 -0.0508,3.4414 -1.7695,5.043 z"
       id="path957" />
    <path
       d="m 219.79,156.61 -3.2812,3.3398 c -0.61328,-0.67969 -1.5938,-1.2773 -1.7617,-2.0547 -0.21875,-0.64453 -0.10938,-1.3594 0.28906,-1.9102 0.39844,-0.55469 1.043,-0.88281 1.7227,-0.87891 0.76953,-0.0273 1.5664,0.74219 3.0312,1.5039 z"
       id="path959" />
    <path
       d="m 488.72,358.1 c 1.0703,2.8008 0.84766,3.9492 -0.94141,4.2617 -0.9375,0.0703 -1.8594,-0.29688 -2.4883,-0.99609 -0.76953,-1.0664 0.0937,-1.875 3.4297,-3.2656 z"
       id="path961" />
    <path
       d="m 493.16,401.13 c -1.2812,-1.0781 -2.4141,-1.6406 -2.7969,-2.5234 -0.19531,-0.44922 0.8125,-1.8359 1.5586,-2.1758 v -0.004 c 0.53516,-0.30469 1.1914,-0.30078 1.7227,0.0156 0.5313,0.3164 0.84766,0.89453 0.82812,1.5117 0.043,0.83203 -0.67188,1.707 -1.3125,3.1758 z"
       id="path963" />
    <path
       d="m 232.47,159.84 c -1.0625,-1.9492 -1.9102,-3.5 0.29688,-4.3945 0.69531,-0.28125 2.3711,0.11719 2.5586,0.60156 0.86328,2.2812 -0.89453,2.9219 -2.8555,3.793 z"
       id="path965" />
    <path
       d="m 496.57,434.41 c -0.96484,1.1016 -1.4805,2.2188 -2.1953,2.3633 l -0.004,0.004 c -0.92578,0.0391 -1.8125,-0.39063 -2.3516,-1.1484 -0.30859,-0.52734 -0.31641,-1.1836 -0.0195,-1.7188 0.30078,-0.53906 0.85938,-0.87891 1.4727,-0.89453 0.8125,-0.0742 1.707,0.73047 3.0977,1.3945 z"
       id="path967" />
    <path
       d="m 585.72,345.36 c 1.1133,2.7891 0.87891,4.3516 -0.84375,4.8047 -0.58984,0.15625 -1.9492,-0.43359 -2.0312,-0.86719 v 0.004 c -0.28125,-0.91797 -0.11328,-1.9141 0.45312,-2.6875 0.56641,-0.77734 1.4609,-1.2422 2.4219,-1.2539 z"
       id="path969" />
    <path
       d="m 221.73,150.36 c 1.2656,-1.2227 1.8867,-2.2695 2.7188,-2.4805 h 0.004 c 0.89453,0.0391 1.7031,0.54297 2.1367,1.3242 0.28516,0.60156 0.26172,1.3047 -0.0547,1.8906 -0.32031,0.58594 -0.90234,0.98438 -1.5625,1.0742 -0.77344,0.10547 -1.7031,-0.90234 -3.2422,-1.8086 z"
       id="path971" />
    <path
       d="m 245.63,136.84 c -1.2109,-1.6133 -1.6953,-3.1562 0.47266,-4.3086 h 0.004 c 0.49219,-0.35938 1.1406,-0.42969 1.6992,-0.18359 0.55859,0.24609 0.94922,0.76953 1.0195,1.375 0.36328,2.2266 -0.99609,3.1211 -3.1953,3.1172 z"
       id="path973" />
    <path
       d="m 476.12,406.22 c -1.0156,1.0273 -2.125,1.9531 -3.3164,2.7656 -0.30469,0.16797 -1.5859,-0.66016 -1.8086,-1.2578 -0.47656,-1.2812 1.3008,-3.4258 2.6602,-3.2422 0.67578,0.0977 1.2578,0.85547 2.4648,1.7344 z"
       id="path975" />
    <path
       d="m 503.8,424.8 c -0.95313,-0.6875 -1.832,-1.0078 -2.1484,-1.6211 -0.57031,-1.1094 0.62891,-2.7031 2.0547,-2.5703 0.79687,0.0703 1.5195,0.96094 2.2734,1.4805 z"
       id="path977" />
    <path
       d="m 232.73,143.57 c 1.0703,1.0469 1.9727,1.5117 2.0742,2.1133 0.27734,1.6562 -0.97656,2.3438 -2.3594,2.4688 -0.49219,0.043 -1.5664,-0.87109 -1.5078,-1.043 0.51562,-1.2188 1.1133,-2.4023 1.793,-3.5391 z"
       id="path979" />
    <path
       d="m 484.33,370.2 c -1.6094,1.2891 -2.3203,2.1836 -3.2266,2.4648 -0.79687,0.0195 -1.5508,-0.375 -1.9844,-1.0469 -0.31641,-0.52344 -0.30859,-1.1836 0.0195,-1.7031 0.32812,-0.51953 0.92188,-0.80469 1.5312,-0.74219 1.2578,0.19531 2.4844,0.53906 3.6602,1.0273 z"
       id="path981" />
    <path
       d="m 493.31,422.89 c 1.1016,1.3906 2.2266,2.2578 2.082,2.75 -0.26953,0.91406 -1.2773,1.6133 -1.9805,2.3984 -0.58203,-0.51953 -1.6797,-1.082 -1.6445,-1.5508 h 0.004 c 0.33984,-1.2656 0.85937,-2.4766 1.5391,-3.5977 z"
       id="path983" />
    <path
       d="m 480.09,395.18 c -1.1992,1.168 -1.7734,2.1719 -2.5,2.3008 -0.66797,0.11719 -1.5,-0.71484 -2.2578,-1.1289 0.52734,-0.74219 0.91797,-1.8438 1.6289,-2.1172 0.625,-0.24219 1.6094,0.44141 3.1289,0.94531 z"
       id="path985" />
    <path
       d="m 572.52,351.92 -2.7539,-2.0977 v 0.004 c 0.53125,-0.89844 1.207,-1.6992 2,-2.3711 0.36328,-0.22266 2,0.64453 1.9883,0.98438 v -0.004 c -0.24219,1.2148 -0.66016,2.3867 -1.2344,3.4844 z"
       id="path987" />
    <path
       d="m 199.7,178.91 c -1.6055,-1.5469 -2.375,-2.8359 -0.76172,-4.3516 0.49609,-0.27734 1.1016,-0.27344 1.5938,0.008 1.418,1.4766 1.082,2.832 -0.83203,4.3438 z"
       id="path989" />
    <path
       d="m 510.34,380.82 c 1.0938,0.9375 2.1289,1.4102 2.1641,1.9453 -0.12109,0.93359 -0.41797,1.8398 -0.87891,2.6641 -0.78125,-0.48047 -1.9727,-0.80469 -2.2227,-1.4805 -0.24219,-0.67187 0.46094,-1.6914 0.9375,-3.1289 z"
       id="path991" />
    <path
       d="m 232.29,134.61 c 0.97656,0.40234 2.6758,0.67969 2.7734,1.2383 0.17578,0.99219 -0.61719,2.1602 -1.125,3.5859 -2.4375,-1.6172 -1.7148,-3.3672 -1.5352,-4.9883 z"
       id="path993" />
    <path
       d="m 483.41,341 0.92969,-5.1602 c 3.3203,2.8516 3.25,3.5391 -0.92969,5.1602 z"
       id="path995" />
    <path
       d="m 492.62,385.25 c 0.20703,-1.9688 0.85156,-3.2031 2.7227,-2.957 0.46094,0.0625 1.25,1.1992 1.1172,1.5391 -0.60547,1.5664 -1.8203,2.207 -3.8398,1.418 z"
       id="path997" />
    <path
       d="m 609.27,340.53 c 0.85547,2.043 0.0195,3.0938 -1.5938,3.4297 -0.38672,0.082 -1.4727,-1.0391 -1.4609,-1.5859 0.0547,-2.2344 1.8125,-1.5625 3.0547,-1.8438 z"
       id="path999" />
    <path
       d="m 562.82,317.71 c -0.69141,0.79688 -1.4609,1.5312 -2.2891,2.1875 -0.13672,0.0898 -1.3828,-0.89453 -1.3203,-1.2305 0.28516,-0.88672 0.69141,-1.7305 1.207,-2.5039 z"
       id="path1001" />
    <path
       d="m 492.67,338.88 c 1.2422,1.1797 2.2891,1.7734 2.2266,2.1953 -0.24219,0.89844 -0.73438,1.7109 -1.4219,2.3438 -0.11719,0.125 -1.543,-0.51953 -1.5469,-0.82031 0.12109,-1.2617 0.37109,-2.5078 0.74219,-3.7188 z"
       id="path1003" />
    <path
       d="m 571.27,335.78 c -0.16406,-2.5352 0.94531,-3.1484 3.2383,-2.6016 0.16406,2.5039 -0.94141,3.1211 -3.2383,2.6016 z"
       id="path1005" />
    <path
       d="m 258.69,130.86 1.1641,-3.5234 1.1055,-0.0586 c 0.33594,0.92188 1.0703,1.9219 0.91016,2.75 -0.24219,1.2539 -1.3555,1.7227 -3.1797,0.83203 z"
       id="path1007" />
    <path
       d="m 503.64,379.96 c -0.29688,4.3203 -0.54688,4.4609 -3.6289,2.5938 z"
       id="path1009" />
    <path
       d="m 564.18,337.72 c 2.8125,-0.45312 3.2539,0.94141 3.1758,2.6562 -0.49219,0.33594 -1.082,0.50781 -1.6797,0.48047 -0.58594,-1.0039 -1.0859,-2.0508 -1.4961,-3.1367 z"
       id="path1011" />
    <path
       d="m 494.06,352.67 c 1.457,0.55078 2.4102,1.2422 1.6445,2.6133 -0.49219,0.46875 -1.1992,0.64453 -1.8555,0.46094 -1.293,-0.83984 -0.96094,-1.918 0.21094,-3.0742 z"
       id="path1013" />
    <path
       d="m 497.8,430.65 c 0.64844,-0.89063 1.4102,-1.6914 2.2656,-2.3867 0.27344,-0.16406 1.5781,0.60156 1.5703,0.91406 h -0.004 c 0.0117,0.80078 -0.33203,1.5664 -0.9375,2.0898 -0.54688,0.26953 -1.4961,-0.27734 -2.8945,-0.61719 z"
       id="path1015" />
    <path
       d="m 550.25,339.79 c -0.70312,0.82422 -1.4844,1.582 -2.332,2.2578 -0.23828,0.15234 -0.9375,-0.40625 -1.4219,-0.64062 h -0.004 c 0.33203,-0.84766 0.77344,-1.6484 1.3125,-2.3828 0.17969,-0.19531 1.1719,0.34375 2.4453,0.76562 z"
       id="path1017" />
    <path
       d="m 534.25,352.77 c -0.57812,-1.5625 -0.0977,-2.582 1.5391,-2.7266 0.39453,-0.0352 1.2812,0.86719 1.2227,1.2227 -0.24609,1.5039 -1.1914,2.1367 -2.7617,1.5039 z"
       id="path1019" />
    <path
       d="m 269.31,124.19 c -0.83984,0.86719 -1.2891,1.6289 -1.9375,1.875 -0.35156,0.13281 -1.0352,-0.60938 -1.5703,-0.95312 0.42969,-0.64453 0.73828,-1.4844 1.3359,-1.8555 0.30859,-0.19141 1.1328,0.45703 2.1719,0.93359 z"
       id="path1021" />
    <path
       d="m 189.38,180.56 c 0.69531,0.11328 1.3633,0.35547 1.9727,0.71484 0.46094,0.45312 0.67969,1.1016 0.58203,1.7422 -0.32422,0.57422 -0.91797,0.94141 -1.5781,0.97656 -0.41406,-0.0508 -0.91016,-0.92188 -1.0352,-1.5 l 0.004,0.004 c -0.0508,-0.70312 0.004,-1.4062 0.16016,-2.0938 z"
       id="path1023" />
    <path
       d="m 595.61,324.54 c 1.9609,0.21484 2.6406,1.082 2.1211,2.6094 v 0.004 c -0.29688,0.46484 -0.8125,0.73828 -1.3672,0.72656 -1.6953,-0.5625 -1.3672,-1.8125 -0.75391,-3.3398 z"
       id="path1025" />
    <path
       d="m 486.92,403.46 c -0.5625,0.65625 -1.2227,1.2227 -1.9609,1.6719 -0.23828,0.0937 -1.3125,-0.94141 -1.2266,-1.2461 h -0.004 c 0.33203,-0.71094 0.78516,-1.3594 1.3398,-1.9102 z"
       id="path1027" />
    <path
       d="m 201.18,184.57 0.46484,2.7695 -1.8945,0.25391 -0.11328,-2.9023 z"
       id="path1029" />
    <path
       d="m 181.56,189.47 c 1.5469,1.6055 1.4336,2.6992 -0.28906,3.9219 -1.3086,-1.3242 -1.3672,-2.4336 0.28906,-3.9219 z"
       id="path1031" />
    <path
       d="m 587.17,318.74 c 1.2891,1.2891 1.6211,2.3438 0.27734,3.4062 -0.38672,0.16406 -0.83203,0.11719 -1.1758,-0.12891 -1.1328,-1.4258 -0.17578,-2.2422 0.89844,-3.2773 z"
       id="path1033" />
    <path
       d="m 497.28,407.23 c -0.67188,0.73047 -1.0898,1.5508 -1.5195,1.5586 h -0.004 c -0.67969,0.0195 -1.2734,-0.46875 -1.3828,-1.1445 -0.10938,-0.67188 0.29688,-1.3242 0.95312,-1.5234 0.44531,-0.10156 1.0742,0.57422 1.9531,1.1094 z"
       id="path1035" />
    <path
       d="m 520.5,363.18 c -1.1445,0.16406 -2.4531,1.5039 -3.3125,-0.28125 -0.0742,-0.64844 0.19531,-1.2891 0.71094,-1.6914 1.8516,-0.62109 1.9531,1.0586 2.4727,2.1484 z"
       id="path1037" />
    <path
       d="m 546.8,348.93 c -1.3047,-0.99219 -1.5781,-1.9688 -0.47656,-2.9453 v 0.004 c 0.5,-0.17578 1.0547,-0.082 1.4648,0.25391 0.91797,1.3359 0.0508,2.0234 -0.98828,2.6875 z"
       id="path1039" />
    <path
       d="m 566.86,327.38 -1.5508,1.9141 c -0.38672,-0.34766 -1.0547,-0.66797 -1.0859,-1.043 h -0.004 c 0.0469,-0.53906 0.35156,-1.0234 0.81641,-1.3008 0.31641,-0.16797 0.91406,0.19141 1.8242,0.42969 z"
       id="path1041" />
    <path
       d="m 514.5,358.98 c -0.625,0.54297 -0.98828,1.1172 -1.3945,1.1484 -0.42578,0.0312 -0.89062,-0.45703 -1.3359,-0.71484 l -0.004,-0.004 c 0.29688,-0.54688 0.68359,-1.0391 1.1445,-1.457 0.17578,-0.11328 0.83984,0.52344 1.5898,1.0273 z"
       id="path1043" />
    <path
       d="m 218.72,304.52 c 2.2891,-0.0117 4.2383,1.6719 4.5625,3.9414 0.38281,2.2812 -1.1484,4.4414 -3.4258,4.8359 -2.2578,0.0625 -4.2812,-1.3828 -4.9531,-3.543 -0.19922,-2.4453 1.4219,-4.6719 3.8164,-5.2344 z"
       id="path1045" />
    <path
       d="m 229.32,332.29 c -0.94141,0.17969 -1.9102,-0.0391 -2.6836,-0.59766 -0.77734,-0.5625 -1.2852,-1.418 -1.4062,-2.3672 0.0234,-2.1094 1.4805,-3.9336 3.5312,-4.4219 1.5742,-0.28906 3.4141,1.418 3.7812,3.5078 0.34766,2 -0.77734,3.3594 -3.2227,3.8789 z"
       id="path1047" />
    <path
       d="m 298.05,329.05 c 0.0195,2.1445 -1.543,3.9766 -3.668,4.2969 -1.5508,0.26953 -3.0742,0.125 -3.5664,-1.7109 v -0.004 c -0.14062,-2.4492 1.4648,-4.6602 3.8398,-5.2852 0.8125,-0.11328 1.6367,0.10938 2.2773,0.62109 0.64453,0.51172 1.0469,1.2656 1.1172,2.082 z"
       id="path1049" />
    <path
       d="m 254.96,324.74 c -0.0234,1.6484 -0.12891,2.957 -0.043,4.2539 0.15234,2.2812 -1.3086,2.75 -3.0703,2.8438 -1.9258,0.10156 -2.4922,-1.0508 -2.5938,-2.7969 -0.21875,-3.7852 1.25,-4.9922 5.707,-4.3008 z"
       id="path1051" />
    <path
       d="m 229.06,317.53 c -1.8555,0.33594 -2.75,-0.64453 -3.0234,-2.3086 v -0.004 c -0.0508,-2.1172 1.4609,-3.9453 3.5508,-4.293 1.9648,-0.21094 2.5117,1.1562 2.6992,2.707 0.13672,0.95313 -0.13281,1.9219 -0.75,2.6641 -0.61328,0.74219 -1.5156,1.1914 -2.4766,1.2344 z"
       id="path1053" />
    <path
       d="m 266.97,331.83 c 1.9102,1.2266 3.5039,2.0703 2.7109,4.3477 -0.65234,1.8789 -2.3086,2.1523 -3.8984,2.2773 -0.76562,0.0586 -2.0156,-0.28125 -2.2695,-0.80859 v -0.004 c -0.40625,-0.89453 -0.39062,-1.9258 0.0547,-2.8047 1.0195,-1.125 2.1602,-2.1328 3.4023,-3.0078 z"
       id="path1055" />
    <path
       d="m 237.94,334.37 c 0.40234,0.34375 1.4883,0.86328 1.8984,1.707 0.67578,1.4062 -0.5625,2.9219 -2.4961,3.4141 -1.3438,0.34375 -2.3125,0.0156 -2.6328,-1.4883 -0.375,-1.7695 0.56641,-3.1211 3.2305,-3.6328 z"
       id="path1057" />
    <path
       d="m 214.88,314.52 -0.37109,5.1719 c -2.332,0.0977 -3.2227,-0.90625 -3.1602,-2.5742 0.0586,-1.7461 1.3008,-2.3789 3.5312,-2.5977 z"
       id="path1059" />
    <path
       d="m 286.12,338.04 c -1.0156,-1.1133 -2.0547,-1.8047 -1.9531,-2.2266 v -0.004 c 0.38281,-1.0039 0.91406,-1.9492 1.5742,-2.8008 0.6875,0.58203 1.9258,1.1602 1.9336,1.75 0.0117,0.91797 -0.82031,1.8438 -1.5547,3.2812 z"
       id="path1061" />
    <path
       d="m 241.42,302.25 c -0.67188,0.92188 -1.4453,1.7656 -2.3125,2.5078 -0.19141,0.13281 -1.6016,-0.78906 -1.6992,-1.3555 -0.22656,-1.3164 0.0703,-2.8203 1.7891,-2.9258 0.57422,-0.0352 1.207,0.92578 2.2227,1.7734 z"
       id="path1063" />
    <path
       d="m 225.25,298.34 c -3.0664,-1.8125 -3.0664,-1.8125 -1.5195,-4.2188 1.9883,1.4883 1.9883,1.4883 1.5195,4.2188 z"
       id="path1065" />
    <path
       d="m 220.39,323.01 c -0.84375,-0.90625 -1.6484,-1.3945 -1.8555,-2.0664 -0.21484,-0.49219 -0.12891,-1.0703 0.21875,-1.4805 0.35156,-0.41016 0.91016,-0.58203 1.4297,-0.44531 0.75781,0.23438 1.3477,0.83984 1.5586,1.6016 0.0742,0.61719 -0.70703,1.332 -1.3516,2.3906 z"
       id="path1067" />
    <path
       d="m 240.01,317.2 c -0.88672,-0.99219 -1.8086,-1.5859 -1.7578,-2.0703 0.0859,-0.78125 0.82031,-1.4922 1.2773,-2.2305 0.63672,0.44531 1.793,0.88672 1.7969,1.3398 0.008,0.80859 -0.67578,1.6289 -1.3164,2.9609 z"
       id="path1069" />
    <path
       d="m 305.35,332.34 c -0.625,-1.7227 -0.31641,-2.9062 1.2969,-3.2266 0.39062,-0.0781 1.3398,0.78906 1.4141,1.3125 0.26953,1.8359 -0.96484,2.0859 -2.7109,1.9141 z"
       id="path1071" />
    <path
       d="m 263.36,341.15 -1.6719,3.0742 c -0.62891,-0.43359 -1.8047,-0.92187 -1.7695,-1.293 0.12891,-0.88281 0.58594,-1.6836 1.2773,-2.2422 0.35938,-0.26953 1.3203,0.25391 2.1641,0.46094 z"
       id="path1073" />
    <path
       d="m 302.45,334.54 c -0.55078,0.56641 -1.1914,1.0391 -1.9023,1.3906 -0.28516,0.0898 -1.3438,-0.98047 -1.2539,-1.2188 l 0.004,0.004 c 0.25,-0.75781 0.77734,-1.3906 1.4766,-1.7773 0.57422,-0.22266 1.4219,0.25 2.1523,0.41797 z"
       id="path1075" />
    <path
       d="m 252.08,339.63 c -0.94531,-0.91797 -1.832,-1.4453 -1.7656,-1.7812 l -0.004,-0.004 c 0.28125,-0.85938 0.68359,-1.6719 1.1953,-2.418 0.5625,0.37891 1.5898,0.76172 1.5859,1.1406 -0.1875,1.0625 -0.52734,2.0938 -1.0117,3.0625 z"
       id="path1077" />
    <path
       d="m 227.66,301.47 c 1.375,0.95312 2.4297,1.8398 1.2031,3.2539 -0.54688,0.39453 -1.2578,0.48047 -1.8828,0.22266 -1.0508,-1.1211 -0.85156,-2.3008 0.67969,-3.4766 z"
       id="path1079" />
    <path
       d="m 238.76,323.14 c 1.2617,0.70312 1.7773,1.6328 0.57031,2.7227 -0.35938,0.32422 -1.6875,0.28125 -1.8242,0.0195 -0.65234,-1.2539 -0.16797,-2.2305 1.2539,-2.7422 z"
       id="path1081" />
    <path
       d="m 275.82,340.2 c 0.8125,0.89062 1.6562,1.4297 1.5977,1.8359 -0.0937,0.66406 -0.77734,1.2461 -1.2109,1.8633 -0.41016,-0.31641 -1.1719,-0.64453 -1.1641,-0.94922 v 0.004 c 0.15234,-0.94531 0.41406,-1.8711 0.77734,-2.7539 z"
       id="path1083" />
    <path
       d="m 292.79,337.36 c 1.6289,0.37109 2.2109,1.25 1.5039,2.5586 -0.49609,0.39844 -1.1602,0.50781 -1.7578,0.29688 -1.3125,-1.043 -0.48047,-1.9648 0.25391,-2.8555 z"
       id="path1085" />
    <path
       d="m 313.46,322.71 -0.20703,2.4531 -1.5703,-0.14844 0.64844,-2.4922 z"
       id="path1087" />
  </g>
</svg>
