<?xml version="1.0" encoding="UTF-8" standalone="no"?>
<svg
   width="437.41208pt"
   height="526.39954pt"
   version="1.1"
   viewBox="0 0 437.41208 526.39954"
   id="svg4387"
   sodipodi:docname="noun-crab-2326710-1.svg"
   inkscape:version="1.1.2 (b8e25be8, 2022-02-05)"
   xmlns:inkscape="http://www.inkscape.org/namespaces/inkscape"
   xmlns:sodipodi="http://sodipodi.sourceforge.net/DTD/sodipodi-0.dtd"
   xmlns="http://www.w3.org/2000/svg"
   xmlns:svg="http://www.w3.org/2000/svg">
  <sodipodi:namedview
     id="namedview4389"
     pagecolor="#ffffff"
     bordercolor="#999999"
     borderopacity="1"
     inkscape:pageshadow="0"
     inkscape:pageopacity="0"
     inkscape:pagecheckerboard="0"
     inkscape:document-units="pt"
     showgrid="false"
     inkscape:zoom="0.60321429"
     inkscape:cx="290.94139"
     inkscape:cy="443.45767"
     inkscape:window-width="1312"
     inkscape:window-height="855"
     inkscape:window-x="0"
     inkscape:window-y="23"
     inkscape:window-maximized="0"
     inkscape:current-layer="g4385" />
  <defs
     id="defs4127">
    <symbol
       id="u"
       overflow="visible">
      <path
         d="m 18.766,-1.125 c -0.96875,0.5 -1.9805,0.875 -3.0312,1.125 -1.043,0.25781 -2.1367,0.39062 -3.2812,0.39062 -3.3984,0 -6.0898,-0.94531 -8.0781,-2.8438 -1.9922,-1.9062 -2.9844,-4.4844 -2.9844,-7.7344 0,-3.2578 0.99219,-5.8359 2.9844,-7.7344 1.9883,-1.9062 4.6797,-2.8594 8.0781,-2.8594 1.1445,0 2.2383,0.13281 3.2812,0.39062 1.0508,0.25 2.0625,0.625 3.0312,1.125 v 4.2188 c -0.98047,-0.65625 -1.9453,-1.1406 -2.8906,-1.4531 -0.94922,-0.3125 -1.9492,-0.46875 -3,-0.46875 -1.875,0 -3.3516,0.60547 -4.4219,1.8125 -1.0742,1.1992 -1.6094,2.8555 -1.6094,4.9688 0,2.1055 0.53516,3.7617 1.6094,4.9688 1.0703,1.1992 2.5469,1.7969 4.4219,1.7969 1.0508,0 2.0508,-0.14844 3,-0.45312 0.94531,-0.3125 1.9102,-0.80078 2.8906,-1.4688 z"
         id="path4064" />
    </symbol>
    <symbol
       id="c"
       overflow="visible">
      <path
         d="m 13.734,-11.141 c -0.4375,-0.19531 -0.87109,-0.34375 -1.2969,-0.4375 -0.41797,-0.10156 -0.83984,-0.15625 -1.2656,-0.15625 -1.2617,0 -2.2305,0.40625 -2.9062,1.2188 -0.67969,0.80469 -1.0156,1.9531 -1.0156,3.4531 v 7.0625 H 2.3591 v -15.312 h 4.8906 v 2.5156 c 0.625,-1 1.3438,-1.7266 2.1562,-2.1875 0.82031,-0.46875 1.8008,-0.70312 2.9375,-0.70312 0.16406,0 0.34375,0.01172 0.53125,0.03125 0.19531,0.01172 0.47656,0.03906 0.84375,0.07813 z"
         id="path4067" />
    </symbol>
    <symbol
       id="b"
       overflow="visible">
      <path
         d="m 17.641,-7.7031 v 1.4062 H 6.188 c 0.125,1.1484 0.53906,2.0078 1.25,2.5781 0.70703,0.57422 1.7031,0.85938 2.9844,0.85938 1.0312,0 2.082,-0.14844 3.1562,-0.45312 1.082,-0.3125 2.1914,-0.77344 3.3281,-1.3906 v 3.7656 c -1.1562,0.4375 -2.3125,0.76562 -3.4688,0.98438 -1.1562,0.22656 -2.3125,0.34375 -3.4688,0.34375 -2.7734,0 -4.9297,-0.70312 -6.4688,-2.1094 -1.5312,-1.4062 -2.2969,-3.3789 -2.2969,-5.9219 0,-2.5 0.75391,-4.4609 2.2656,-5.8906 1.5078,-1.4375 3.582,-2.1562 6.2188,-2.1562 2.4062,0 4.332,0.73047 5.7812,2.1875 1.4453,1.4492 2.1719,3.3828 2.1719,5.7969 z m -5.0312,-1.625 c 0,-0.92578 -0.27344,-1.6719 -0.8125,-2.2344 -0.54297,-0.57031 -1.25,-0.85938 -2.125,-0.85938 -0.94922,0 -1.7188,0.26562 -2.3125,0.79688 -0.5937,0.53126 -0.96484,1.2969 -1.1094,2.2969 z"
         id="path4070" />
    </symbol>
    <symbol
       id="a"
       overflow="visible">
      <path
         d="m 9.2188,-6.8906 c -1.0234,0 -1.793,0.17188 -2.3125,0.51562 -0.51172,0.34375 -0.76562,0.85547 -0.76562,1.5312 0,0.625 0.20703,1.1172 0.625,1.4688 0.41406,0.34375 0.98828,0.51562 1.7188,0.51562 0.92578,0 1.7031,-0.32812 2.3281,-0.98438 0.63281,-0.66406 0.95312,-1.4922 0.95312,-2.4844 v -0.5625 z m 7.4688,-1.8438 V 0 h -4.9219 v -2.2656 c -0.65625,0.92969 -1.3984,1.6055 -2.2188,2.0312 -0.82422,0.41406 -1.8242,0.625 -3,0.625 -1.5859,0 -2.8711,-0.45703 -3.8594,-1.375 -0.99219,-0.92578 -1.4844,-2.1289 -1.4844,-3.6094 0,-1.7891 0.61328,-3.1016 1.8438,-3.9375 1.2383,-0.84375 3.1797,-1.2656 5.8281,-1.2656 h 2.8906 v -0.39062 c 0,-0.76953 -0.30859,-1.332 -0.92188,-1.6875 -0.61719,-0.36328 -1.5703,-0.54688 -2.8594,-0.54688 -1.0547,0 -2.0312,0.10547 -2.9375,0.3125 -0.89844,0.21094 -1.7305,0.52344 -2.5,0.9375 v -3.7344 c 1.0391,-0.25 2.0859,-0.44141 3.1406,-0.57812 1.0625,-0.13281 2.125,-0.20312 3.1875,-0.20312 2.7578,0 4.75,0.54688 5.9688,1.6406 1.2266,1.0859 1.8438,2.8555 1.8438,5.3125 z"
         id="path4073" />
    </symbol>
    <symbol
       id="d"
       overflow="visible">
      <path
         d="m 7.7031,-19.656 v 4.3438 H 12.75 v 3.5 H 7.7031 v 6.5 c 0,0.71094 0.14062,1.1875 0.42188,1.4375 0.28126,0.25 0.83594,0.375 1.6719,0.375 h 2.5156 v 3.5 h -4.1875 c -1.9375,0 -3.3125,-0.39844 -4.125,-1.2031 -0.80469,-0.8125 -1.2031,-2.1797 -1.2031,-4.1094 v -6.5 h -2.4219 v -3.5 h 2.4219 v -4.3438 z"
         id="path4076" />
    </symbol>
    <symbol
       id="l"
       overflow="visible">
      <path
         d="m 12.766,-13.078 v -8.2031 h 4.9219 V -10e-5 H 12.766 v -2.2188 c -0.66797,0.90625 -1.4062,1.5703 -2.2188,1.9844 -0.8126,0.4141 -1.7578,0.625 -2.8281,0.625 -1.8867,0 -3.4336,-0.75 -4.6406,-2.25 -1.2109,-1.5 -1.8125,-3.4258 -1.8125,-5.7812 0,-2.3633 0.60156,-4.2969 1.8125,-5.7969 1.207,-1.5 2.7539,-2.25 4.6406,-2.25 1.0625,0 2,0.21484 2.8125,0.64062 0.82031,0.42969 1.5664,1.0859 2.2344,1.9688 z m -3.2188,9.9219 c 1.0391,0 1.8359,-0.37891 2.3906,-1.1406 0.55078,-0.76953 0.82812,-1.8828 0.82812,-3.3438 0,-1.457 -0.27734,-2.5664 -0.82812,-3.3281 -0.55469,-0.76953 -1.3516,-1.1562 -2.3906,-1.1562 -1.043,0 -1.8398,0.38672 -2.3906,1.1562 -0.55469,0.76172 -0.82812,1.8711 -0.82812,3.3281 0,1.4609 0.27344,2.5742 0.82812,3.3438 0.55078,0.76172 1.3477,1.1406 2.3906,1.1406 z"
         id="path4079" />
    </symbol>
    <symbol
       id="k"
       overflow="visible">
      <path
         d="m 10.5,-3.1562 c 1.0508,0 1.8516,-0.37891 2.4062,-1.1406 0.55078,-0.76953 0.82812,-1.8828 0.82812,-3.3438 0,-1.457 -0.27734,-2.5664 -0.82812,-3.3281 -0.55469,-0.76953 -1.3555,-1.1562 -2.4062,-1.1562 -1.0547,0 -1.8594,0.38672 -2.4219,1.1562 -0.55469,0.77344 -0.82812,1.8828 -0.82812,3.3281 0,1.4492 0.27344,2.5586 0.82812,3.3281 0.5625,0.77344 1.3672,1.1562 2.4219,1.1562 z m -3.25,-9.9219 c 0.67578,-0.88281 1.4219,-1.5391 2.2344,-1.9688 0.82031,-0.42578 1.7656,-0.64062 2.8281,-0.64062 1.8945,0 3.4453,0.75 4.6562,2.25 1.207,1.5 1.8125,3.4336 1.8125,5.7969 0,2.3555 -0.60547,4.2812 -1.8125,5.7812 -1.2109,1.5 -2.7617,2.25 -4.6562,2.25 -1.0625,0 -2.0078,-0.21094 -2.8281,-0.625 C 8.6719,-0.6602 7.9258,-1.32032 7.25,-2.21882 V -2e-5 H 2.3594 v -21.281 H 7.25 Z"
         id="path4082" />
    </symbol>
    <symbol
       id="f"
       overflow="visible">
      <path
         d="m 0.34375,-15.312 h 4.8906 l 4.125,10.391 3.5,-10.391 h 4.8906 l -6.4375,16.766 c -0.64844,1.6953 -1.4023,2.8828 -2.2656,3.5625 -0.86719,0.6875 -2,1.0312 -3.4062,1.0312 H 2.79685 V 2.8289 h 1.5312 c 0.83203,0 1.4375,-0.13672 1.8125,-0.40625 C 6.52336,2.16093 6.82024,1.69218 7.03117,1.01645 L 7.17179,0.59457 Z"
         id="path4085" />
    </symbol>
    <symbol
       id="j"
       overflow="visible">
      <path
         d="m 2.5781,-20.406 h 6.6875 l 4.6562,10.922 4.6719,-10.922 h 6.6875 V 0 H 20.2968 V -14.938 L 15.5937,-3.922 H 12.2656 L 7.5625,-14.938 V 0 H 2.5781 Z"
         id="path4088" />
    </symbol>
    <symbol
       id="t"
       overflow="visible">
      <path
         d="M 2.3594,-15.312 H 7.25 V 0 H 2.3594 Z m 0,-5.9688 H 7.25 v 4 H 2.3594 Z"
         id="path4091" />
    </symbol>
    <symbol
       id="s"
       overflow="visible">
      <path
         d="m 1.5781,-20.406 h 17.156 v 3.1719 l -10.953,13.25 h 11.266 V 3e-4 H 1.2661 v -3.1875 l 10.938,-13.25 H 1.5791 Z"
         id="path4094" />
    </symbol>
    <symbol
       id="i"
       overflow="visible">
      <path
         d="m 16.547,-12.766 c 0.61328,-0.94531 1.3477,-1.6719 2.2031,-2.1719 0.85156,-0.5 1.7891,-0.75 2.8125,-0.75 1.7578,0 3.0977,0.54688 4.0156,1.6406 0.92578,1.0859 1.3906,2.6562 1.3906,4.7188 V -4e-4 h -4.9219 v -7.9844 -0.35938 c 0.0078,-0.13281 0.01563,-0.32031 0.01563,-0.5625 0,-1.082 -0.16406,-1.8633 -0.48438,-2.3438 -0.3125,-0.48828 -0.82422,-0.73438 -1.5312,-0.73438 -0.92969,0 -1.6484,0.38672 -2.1562,1.1562 -0.51172,0.76172 -0.77344,1.8672 -0.78125,3.3125 v 7.5156 h -4.9219 v -7.9844 c 0,-1.6953 -0.14844,-2.7852 -0.4375,-3.2656 -0.29297,-0.48828 -0.8125,-0.73438 -1.5625,-0.73438 -0.9375,0 -1.6641,0.38672 -2.1719,1.1562 -0.51172,0.76172 -0.76562,1.8594 -0.76562,3.2969 v 7.5312 h -4.9219 v -15.312 h 4.9219 v 2.2344 c 0.60156,-0.86328 1.2891,-1.5156 2.0625,-1.9531 0.78125,-0.4375 1.6406,-0.65625 2.5781,-0.65625 1.0625,0 2,0.25781 2.8125,0.76562 0.8125,0.51172 1.4258,1.2305 1.8438,2.1562 z"
         id="path4097" />
    </symbol>
    <symbol
       id="h"
       overflow="visible">
      <path
         d="m 14.719,-14.828 v 3.9844 c -0.65625,-0.45703 -1.3242,-0.79688 -2,-1.0156 -0.66797,-0.21875 -1.3594,-0.32812 -2.0781,-0.32812 -1.3672,0 -2.4336,0.40234 -3.2031,1.2031 -0.76172,0.79297 -1.1406,1.9062 -1.1406,3.3438 0,1.4297 0.37891,2.543 1.1406,3.3438 0.76953,0.79297 1.8359,1.1875 3.2031,1.1875 0.75781,0 1.4844,-0.10938 2.1719,-0.32812 0.6875,-0.22656 1.3203,-0.56641 1.9062,-1.0156 v 4 c -0.76172,0.28125 -1.5391,0.48828 -2.3281,0.625 -0.78125,0.14453 -1.5742,0.21875 -2.375,0.21875 -2.7617,0 -4.9219,-0.70703 -6.4844,-2.125 -1.5547,-1.4141 -2.3281,-3.3828 -2.3281,-5.9062 0,-2.5312 0.77344,-4.5039 2.3281,-5.9219 1.5625,-1.4141 3.7227,-2.125 6.4844,-2.125 0.80078,0 1.5938,0.07422 2.375,0.21875 0.78125,0.13672 1.5547,0.35156 2.3281,0.64062 z"
         id="path4100" />
    </symbol>
    <symbol
       id="g"
       overflow="visible">
      <path
         d="M 17.75,-9.3281 V 0 h -4.9219 v -7.1094 c 0,-1.3438 -0.03125,-2.2656 -0.09375,-2.7656 -0.0625,-0.5 -0.16797,-0.86719 -0.3125,-1.1094 -0.1875,-0.3125 -0.44922,-0.55469 -0.78125,-0.73438 -0.32422,-0.17578 -0.69531,-0.26562 -1.1094,-0.26562 -1.0234,0 -1.8242,0.39844 -2.4062,1.1875 -0.58594,0.78125 -0.875,1.8711 -0.875,3.2656 V -1e-4 H 2.3594 v -21.281 H 7.25 v 8.2031 c 0.73828,-0.88281 1.5195,-1.5391 2.3438,-1.9688 0.83203,-0.42578 1.75,-0.64062 2.75,-0.64062 1.7695,0 3.1133,0.54688 4.0312,1.6406 0.91406,1.0859 1.375,2.6562 1.375,4.7188 z"
         id="path4103" />
    </symbol>
    <symbol
       id="r"
       overflow="visible">
      <path
         d="m 12.422,-21.281 v 3.2188 H 9.7189 c -0.6875,0 -1.1719,0.125 -1.4531,0.375 -0.27344,0.25 -0.40625,0.6875 -0.40625,1.3125 v 1.0625 h 4.1875 v 3.5 H 7.85955 V -2e-4 h -4.8906 v -11.812 h -2.4375 v -3.5 h 2.4375 v -1.0625 c 0,-1.6641 0.46094,-2.8984 1.3906,-3.7031 0.92578,-0.80078 2.3672,-1.2031 4.3281,-1.2031 z"
         id="path4106" />
    </symbol>
    <symbol
       id="e"
       overflow="visible">
      <path
         d="m 9.6406,-12.188 c -1.0859,0 -1.9141,0.39062 -2.4844,1.1719 -0.57422,0.78125 -0.85938,1.9062 -0.85938,3.375 0,1.4688 0.28516,2.5938 0.85938,3.375 0.57031,0.77344 1.3984,1.1562 2.4844,1.1562 1.0625,0 1.875,-0.38281 2.4375,-1.1562 0.57031,-0.78125 0.85938,-1.9062 0.85938,-3.375 0,-1.4688 -0.28906,-2.5938 -0.85938,-3.375 -0.5625,-0.78125 -1.375,-1.1719 -2.4375,-1.1719 z m 0,-3.5 c 2.6328,0 4.6914,0.71484 6.1719,2.1406 1.4766,1.418 2.2188,3.3867 2.2188,5.9062 0,2.5117 -0.74219,4.4805 -2.2188,5.9062 C 14.332,-0.317 12.2734,0.39 9.6406,0.39 6.9922,0.39 4.9258,-0.31703 3.4375,-1.735 1.9453,-3.1608 1.2031,-5.1295 1.2031,-7.6412 c 0,-2.5195 0.74219,-4.4883 2.2344,-5.9062 1.4883,-1.4258 3.5547,-2.1406 6.2031,-2.1406 z"
         id="path4109" />
    </symbol>
    <symbol
       id="q"
       overflow="visible">
      <path
         d="m 2.5781,-20.406 h 5.875 l 7.4219,14 v -14 h 4.9844 V 0 h -5.875 L 7.5625,-14 V 0 H 2.5781 Z"
         id="path4112" />
    </symbol>
    <symbol
       id="p"
       overflow="visible">
      <path
         d="m 2.1875,-5.9688 v -9.3438 h 4.9219 v 1.5312 c 0,0.83594 -0.00781,1.875 -0.015625,3.125 -0.011719,1.25 -0.015625,2.0859 -0.015625,2.5 0,1.2422 0.03125,2.1328 0.09375,2.6719 0.070313,0.54297 0.17969,0.93359 0.32812,1.1719 0.20703,0.32422 0.47266,0.57422 0.79688,0.75 0.32031,0.16797 0.69141,0.25 1.1094,0.25 1.0195,0 1.8203,-0.39062 2.4062,-1.1719 0.58203,-0.78125 0.875,-1.8672 0.875,-3.2656 v -7.5625 h 4.8906 V -6e-4 H 12.6875 V -2.2194 C 11.94531,-1.32096 11.1641,-0.6608 10.3437,-0.235 9.51948,0.17906 8.6093,0.39 7.6093,0.39 5.8476,0.39 4.5038,-0.14906 3.5781,-1.235 2.64841,-2.317 2.1875,-3.8952 2.1875,-5.9694 Z"
         id="path4115" />
    </symbol>
    <symbol
       id="o"
       overflow="visible">
      <path
         d="M 17.75,-9.3281 V 0 h -4.9219 v -7.1406 c 0,-1.3203 -0.03125,-2.2344 -0.09375,-2.7344 -0.0625,-0.5 -0.16797,-0.86719 -0.3125,-1.1094 -0.1875,-0.3125 -0.44922,-0.55469 -0.78125,-0.73438 -0.32422,-0.17578 -0.69531,-0.26562 -1.1094,-0.26562 -1.0234,0 -1.8242,0.39844 -2.4062,1.1875 -0.58594,0.78125 -0.875,1.8711 -0.875,3.2656 V -1e-4 H 2.3594 v -15.312 H 7.25 v 2.2344 c 0.73828,-0.88281 1.5195,-1.5391 2.3438,-1.9688 0.83203,-0.42578 1.75,-0.64062 2.75,-0.64062 1.7695,0 3.1133,0.54688 4.0312,1.6406 0.91406,1.0859 1.375,2.6562 1.375,4.7188 z"
         id="path4118" />
    </symbol>
    <symbol
       id="n"
       overflow="visible">
      <path
         d="m 2.5781,-20.406 h 8.7344 c 2.5938,0 4.582,0.57812 5.9688,1.7344 1.3945,1.1484 2.0938,2.7891 2.0938,4.9219 0,2.1367 -0.69922,3.7812 -2.0938,4.9375 -1.3867,1.1562 -3.375,1.7344 -5.9688,1.7344 H 7.8281 V 3e-4 h -5.25 z m 5.25,3.8125 v 5.7031 H 10.75 c 1.0195,0 1.8047,-0.25 2.3594,-0.75 0.5625,-0.5 0.84375,-1.2031 0.84375,-2.1094 0,-0.91406 -0.28125,-1.6172 -0.84375,-2.1094 -0.55469,-0.48828 -1.3398,-0.73438 -2.3594,-0.73438 z"
         id="path4121" />
    </symbol>
    <symbol
       id="m"
       overflow="visible">
      <path
         d="M 2.3594,-15.312 H 7.25 v 15.031 c 0,2.0508 -0.49609,3.6172 -1.4844,4.7031 -0.98047,1.082 -2.4062,1.625 -4.2812,1.625 H -0.9375 V 2.8283 h 0.85938 c 0.92578,0 1.5625,-0.21094 1.9062,-0.625 0.35156,-0.41797 0.53125,-1.2461 0.53125,-2.4844 z m 0,-5.9688 H 7.25 v 4 H 2.3594 Z"
         id="path4124" />
    </symbol>
  </defs>
  <g
     id="g4385"
     transform="translate(-131.25592,-16.798367)">
    <path
       d="m 207.46,95.941 c 6.2773,-5.4844 11.652,-10.246 17.105,-14.914 v 0.0039 c 2.0859,-1.9805 4.3906,-3.7188 6.8633,-5.1797 1.6484,-1.207 3.8281,-1.3984 5.6641,-0.5 1.832,0.89844 3.0195,2.7383 3.0781,4.7812 0.37109,2.8672 0.41797,5.7734 0.12891,8.6523 -0.34766,5.9883 -0.71094,11.984 -1.375,17.945 -1.9297,17.352 -6.2539,33.895 -18.555,47.062 h 0.004 c -4.1797,4.0039 -8.6992,7.6406 -13.5,10.871 -2.9727,2.2383 -6.25,4.0664 -9.2695,6.25 -3.418,2.3047 -5.8945,5.7578 -6.9844,9.7344 -1.043,4.0898 -3.1953,7.8164 -6.2188,10.762 -3.0234,2.9492 -6.8008,5.0078 -10.918,5.9453 -0.59766,6.8516 1.0117,13.715 4.5898,19.586 3.7852,8.5195 9.5742,15.992 16.875,21.785 2.0039,1.7578 3.9102,3.625 5.707,5.5977 0.64062,0.70703 1.5547,1.1016 2.5078,1.082 0.95312,-0.0156 1.8555,-0.44531 2.4688,-1.1758 0.33984,-0.23828 0.65625,-0.50781 0.94531,-0.80469 5.7109,-6.3281 12.949,-11.09 21.02,-13.84 3.418,-1.4102 6.9297,-2.5742 10.512,-3.4883 2.6328,-0.52344 5.2188,-1.25 7.7383,-2.168 11.242,-5.4844 23.652,-5.6914 35.559,-8.1016 7.4688,-1.5117 15.062,-2.4219 22.555,-3.5938 0.17969,-3.8242 0.23438,-7.4531 0.55078,-11.055 0.58203,-4.5586 2.5039,-8.8398 5.5195,-12.305 0.38281,-0.48828 0.84766,-0.91406 1.2227,-1.4062 2.0273,-2.6602 4.7422,-5.918 2.6055,-8.8672 -2.6055,-3.6016 -5.4219,-7.6797 -11.484,-6.9023 v -0.004 c -9.6211,1.5391 -19.359,-1.9688 -25.793,-9.2852 -3.8789,-4.9102 -5.7031,-11.133 -5.0898,-17.359 0.61328,-6.2266 3.6172,-11.973 8.3789,-16.031 6.0352,-4.5469 13.875,-5.957 21.113,-3.793 18.715,3.3633 26.113,21.852 15.711,37.945 -0.32812,0.59766 -0.61719,1.2188 -0.86719,1.8516 2.25,2.375 4.6094,4.668 6.7383,7.1562 4.0039,4.1406 5.0469,10.312 2.6289,15.539 -1.4609,3.4258 -2.8242,6.8984 -4.0391,10.418 -0.61719,1.7539 -0.98047,3.5898 -1.082,5.4531 -0.26172,5.9062 1.3477,7.4375 7.2188,6.7617 10.285,-1.1836 20.531,-2.75 30.836,-3.6875 6.3594,-0.57812 12.797,-0.3125 19.203,-0.39062 3.4883,-0.043 6.9766,-0.008 10.922,-0.008 -0.21094,-2.1875 -0.42969,-3.7734 -0.50391,-5.3633 -0.625,-5.0234 1.2422,-10.035 5,-13.426 4.0742,-3.2617 7.0781,-7.6641 8.6328,-12.641 1.1602,-4.1953 0.94531,-4.5039 -2.582,-7.0664 h 0.004 c -3.1289,-2.0117 -5.9648,-4.4492 -8.4219,-7.2383 -2.5352,-3.4453 -4.0625,-7.5195 -4.4141,-11.781 -0.35156,-4.2578 0.48438,-8.5312 2.418,-12.344 1.8828,-3.3633 4.6797,-6.125 8.0664,-7.9648 3.3867,-1.8398 7.2227,-2.6797 11.07,-2.4297 4.1406,0.35547 8.1172,1.8008 11.523,4.1914 3.4023,2.3867 6.1172,5.6328 7.8633,9.4062 3.3438,7.3203 2.5664,15.867 -2.043,22.465 -3.5391,5.6914 -3.9102,5.7305 -11.105,9.0117 0.13281,6.1367 -2.1914,12.07 -6.4648,16.477 -3.3672,4.3125 -4.8516,9.8047 -4.1094,15.227 0.35938,2.7812 1.625,3.8164 4.3555,4.1445 8.6016,1.0391 17.188,2.25 25.754,3.5781 2.6406,0.49219 5.2344,1.2109 7.7539,2.1484 11.145,3.7617 22.301,7.4961 33.379,11.453 4.0742,1.457 7.9375,3.5117 11.902,5.2773 2.2578,1.0078 4.5234,1.9883 6.5664,2.8867 6.6523,-2.75 12.277,-7.5117 16.086,-13.617 1.2266,-2.1406 2.1719,-4.4297 2.8086,-6.8125 0.64062,-1.4297 0.64453,-3.0664 0.0117,-4.5 -0.63672,-1.4336 -1.8477,-2.5273 -3.3359,-3.0156 -2.6016,-1.3711 -4.7461,-3.4727 -6.1641,-6.043 -1.4219,-2.5742 -2.0625,-5.5039 -1.8359,-8.4336 -0.19531,-7.8555 -3.418,-15.328 -9,-20.859 -4.4453,-4.9141 -7.8633,-10.664 -10.051,-16.918 -4.8828,-13.695 -6.9297,-28.238 -6.0078,-42.746 0.84375,-8.4531 2.1328,-16.852 3.8672,-25.164 1.0312,-5.3633 2.7773,-6.3984 7.8867,-4.1758 3.8398,1.918 7.4023,4.3359 10.602,7.1914 2.8438,2.3008 5.2578,5.125 8.6055,8.457 v -0.0039 c 2.8008,-10.488 3.9219,-21.359 3.3242,-32.199 -0.39453,-2.6602 -0.47656,-5.3555 -0.25,-8.0352 0.85938,-5.6406 4.4805,-7.6484 9.4102,-4.7891 v 0.0039 c 5.4258,3.0078 10.5,6.6133 15.125,10.75 7.3945,6.6523 14.254,13.879 20.512,21.609 6.6719,8.5117 11.125,18.547 12.961,29.203 3.9102,23.16 -1.7109,46.918 -15.582,65.871 -1.8906,2.457 -4.1328,4.6172 -6.6602,6.4141 -1.7188,1.1289 -2.8008,3.0039 -2.9102,5.0586 -0.17969,2.0664 -0.64844,4.0977 -1.3984,6.0312 -0.97266,3.6406 -3.0391,6.8984 -5.9219,9.3281 -2.8867,2.4258 -6.4453,3.9141 -10.199,4.2539 0.89453,13.242 -7.1484,21.766 -15.535,29.32 4.3242,4.7812 8.5625,9.5039 12.844,14.191 11.176,12.781 16.969,29.395 16.168,46.352 -0.39062,17.035 -4.5078,33.777 -12.059,49.047 -3.2969,7.1328 -6.0234,14.547 -9.6055,21.527 -3.0117,5.8672 -6.8984,11.285 -10.367,16.922 -2.3477,3.8125 -4.6484,7.6523 -7.4609,12.289 2.7812,0 4.9609,0.0391 7.1406,-0.008 v 0.004 c 4.3672,-0.54688 8.7852,0.42578 12.52,2.7539 3.7305,2.3281 6.5508,5.8672 7.9844,10.027 0.85156,1.5391 2.125,2.8008 3.668,3.6406 1.125,0.54297 2.3555,0.82422 3.6016,0.82031 10.723,1.1133 16.105,8.3203 19.863,17.367 h -0.004 c 3.7734,9.2148 6.0078,18.988 6.6133,28.926 -0.0156,7 -0.72656,13.984 -2.1172,20.844 -0.16797,2.2031 -2.0547,3.8711 -4.2578,3.7695 -2.3086,0.39062 -4.6055,-0.72656 -5.7266,-2.7773 -3.0391,-4.9336 -4.9023,-10.504 -5.4414,-16.273 -0.45312,-5.3516 -1.5977,-10.625 -3.418,-15.68 -1.5273,-4.3281 -4.25,-8.1367 -7.8516,-10.984 -3.6016,-2.8438 -7.9336,-4.6133 -12.5,-5.1055 -1.4219,-0.125 -2.8516,0.15234 -4.125,0.79688 -7.5039,3.4219 -16.215,2.9102 -23.262,-1.375 -5.2852,-3.0938 -11.551,-4.7695 -15.047,-11.254 l -6.9102,7.6641 c 3.8945,0.94531 6.9805,1.6133 10.012,2.457 2.7773,0.77344 5.5,1.7461 8.25,2.6133 3.25,0.53906 6.1445,2.375 8.0195,5.082 1.875,2.7109 2.5781,6.0625 1.9414,9.293 4.6211,1.9102 8.9062,3.9336 13.355,5.4648 v 0.004 c 7.1719,2.4258 12.887,7.9219 15.594,14.992 2.5938,6.0938 5.6094,12.051 7.6445,18.328 l 0.004,-0.004 c 2.6328,7.7227 2.4766,16.125 -0.44922,23.742 -0.83984,2.1875 -2.0547,3.6914 -4.4336,3.5938 -2.5742,0.0586 -4.875,-1.5781 -5.668,-4.0273 -2.7227,-7.1055 -5.3984,-14.242 -8.5117,-21.18 -5.0938,-11.789 -15.223,-20.66 -27.582,-24.152 -1.1133,-0.51563 -2.3359,-0.76172 -3.5625,-0.71875 -6.8398,0.98437 -13.797,-0.67578 -19.453,-4.6406 -0.89062,-0.39844 -1.8086,-0.74219 -2.7422,-1.0312 2.0117,4.3789 3.6328,8.0508 5.4141,11.645 0.31641,0.64062 1.3047,0.94141 1.9727,1.4141 6.75,4.7734 13.523,9.5078 20.234,14.332 5.4062,4.2461 8.9297,10.441 9.8203,17.258 2,9.5352 1.9141,19.395 -0.26172,28.891 -0.26172,1.6328 -0.79688,3.2109 -1.582,4.668 -1.1211,2.0078 -3.2422,3.2461 -5.543,3.2344 -2.2969,-0.0117 -4.4062,-1.2695 -5.5117,-3.2852 -1.6992,-3.0625 -3.0039,-6.3242 -3.8867,-9.7148 -1.0586,-3.7773 -1.3594,-7.7617 -2.3281,-11.57 -1.8984,-7.0938 -6.0078,-13.398 -11.734,-17.996 -5.7266,-4.5977 -12.77,-7.25 -20.105,-7.5703 -8.4062,-0.23438 -16.207,-4.4258 -21.047,-11.301 -2.2422,-2.9766 -4.5898,-5.9023 -6.5352,-9.0664 v -0.004 c -1.6211,-3.0234 -5.2461,-4.3633 -8.4453,-3.1211 -10.082,2.3438 -20.168,4.6992 -30.336,6.6055 -14.379,3.3398 -29.41,2.4961 -43.32,-2.4375 -8.4336,-3.2617 -16.656,-7.0391 -24.621,-11.32 -4.6641,-2.4922 -4.9531,-2.3555 -9.207,1.293 h 0.004 c -7.7969,7.1875 -17.273,12.301 -27.559,14.875 -0.78516,0.27344 -1.6016,0.43359 -2.4297,0.47656 -10.312,-0.81641 -19.051,4.0547 -28.09,7.7695 -4.6953,1.9414 -8.1211,6.0859 -9.1523,11.059 -0.77734,3.0117 -1.4922,6.0391 -2.2305,9.0586 -1.3359,5.5 -4.6211,10.328 -9.2461,13.586 -1.5703,1.2305 -3.5977,1.7148 -5.5547,1.3281 -1.5859,-1.207 -2.4961,-3.1055 -2.4414,-5.1016 0.6875,-8.1836 -0.66406,-16.578 2.6719,-24.52 1.5781,-3.7539 2.2695,-7.8867 3.8867,-11.621 v 0.004 c 1.8359,-3.7812 4.9688,-6.7734 8.8281,-8.4375 7.5898,-3.7578 15.25,-7.375 22,-10.625 l 7.4297,-13.465 c -5.7383,1.4844 -11.848,3.082 -17.973,4.625 h -0.004 c -0.98438,0.33984 -2.0352,0.45312 -3.0742,0.33203 -8.8281,-2 -15.926,2.9297 -23.305,6.1016 -5.0664,2.1133 -8.9375,6.3672 -10.57,11.609 -1.4609,4.5273 -3.2227,8.9531 -5.2773,13.242 -1.2812,2.8203 -3.0742,5.3828 -5.2852,7.5547 -1.7305,1.3906 -3.9297,2.0703 -6.1445,1.9023 -2.543,-0.23438 -3.4102,-2.793 -3.5391,-5.1992 h 0.004 c -0.28125,-2.0508 -0.21875,-4.1328 0.18359,-6.1641 2.1289,-9.6719 4.8516,-19.203 8.1484,-28.543 1.8594,-4.6172 5.4258,-8.3398 9.957,-10.402 6.1641,-2.9023 12.488,-5.4805 18.812,-8.0195 1.9805,-0.79688 3.7031,-1.457 4.543,-3.7031 3.4922,-8.1523 10.879,-13.98 19.621,-15.477 1.9648,-0.55859 3.9492,-1.0469 6.9844,-1.8477 l -5.3984,-6.6641 c -7.1094,5.0078 -15.363,8.1484 -24.004,9.1406 -5.7344,0.99609 -11.637,0.29297 -16.977,-2.0195 -1.8477,-0.75391 -3.8789,-0.92578 -5.8242,-0.48828 -8.0156,1.9258 -14.48,7.832 -17.121,15.641 -3.9648,9.9922 -7.2383,20.254 -11.168,30.258 h 0.004 c -1.42189,3.4023 -3.35939,6.5625 -5.74219,9.3711 -1.8789,2.4258 -5.25781,3.0977 -7.9219,1.5781 -3.0039,-1.5391 -2.8281,-4.332 -2.3281,-7.0625 h -0.004 c 2.0156,-15.391 6.4688,-30.359 13.199,-44.344 0.87891,-1.4141 1.5508,-2.9414 1.9961,-4.543 2.4688,-11.738 11.836,-15.215 21.648,-17.73 3.5664,-0.65625 6.7461,-2.6641 8.8672,-5.6094 4.6836,-5.332 10.941,-9.0391 17.867,-10.586 1.7578,-0.5625 3.5859,-0.89453 6.3359,-1.5664 -2.9883,-4.2031 -5.5117,-8.0547 -8.3359,-11.664 -6.3711,-8.1445 -13.211,-15.938 -19.273,-24.297 -8.9141,-11.457 -15.824,-24.34 -20.441,-38.098 -4.6289,-15.57 -1.6797,-32.41 7.9688,-45.477 1.4688,-2.1914 3.1289,-4.2539 4.8281,-6.5469 -3.75,-2.6523 -7.2266,-4.8672 -10.422,-7.4297 l 0.004,-0.004 c -5.0703,-3.9531 -9.36331,-8.8125 -12.672,-14.324 -6.1289,-10.504 -13.25,-20.641 -13.297,-33.609 v -0.004 c -0.25391,-1.5508 -0.94922,-2.9961 -2.0078,-4.1562 -3.7031,-4.9609 -7.6289,-9.7578 -11.285,-14.75 v -0.004 c -2.4336,-2.9805 -3,-7.0703 -1.4648,-10.602 1.5859,-3.4141 1.0195,-7.4375 -1.4414,-10.285 -6.2344,-10.086 -9.6719,-21.652 -9.957,-33.508 -0.64453,-6.8125 -0.62109,-13.676 0.0703,-20.484 1.2695,-13.831993 5.4609,-27.233993 12.297,-39.323993 9.4961,-14.777 21.328,-27.918 35.031,-38.906 4.0703,-4.0664 9.0703,-7.0898 14.562,-8.8086 6.2656,-1.5781 10.129,1.5508 9.4375,8.0039 v 0.0039 c -0.0117,0.41406 -0.0781,0.82422 -0.20312,1.2227 -3.5312,10.688 -4.0547,22.145 -1.5117,33.109 1.8086,11.621 3.8477,23.207 6.0547,36.398 z m 24.219,277.71 -0.13672,-0.13672 4.9492,7.9414 v 0.004 c 2.1172,-0.63281 4.2773,-1.1094 6.4648,-1.4297 0.41406,-0.0312 1.5039,2.1094 1.3398,2.2695 v -0.004 c -1.1602,0.97656 -2.3867,1.875 -3.6641,2.6914 -0.19531,0.19531 -0.33594,0.44141 -0.40625,0.70703 3.1797,4.707 6,9.5391 9.4531,13.863 6.543,8.1953 13.555,16.016 20.176,24.156 7.543,9.3594 16.449,17.535 26.422,24.254 13.25,8.7969 27.453,16.07 42.34,21.676 14.043,5.1992 29.336,6.0312 43.863,2.3867 5.6484,-1.2656 11.266,-2.6523 16.918,-3.9023 6.0586,-1.3398 12.289,-2.1094 18.164,-4.0039 h -0.004 c 5.0547,-1.7344 9.8906,-4.043 14.414,-6.8867 4.4023,-2.6641 8.2891,-6.168 12.453,-9.2344 8.3242,-5.4297 15.938,-11.879 22.664,-19.195 2.8906,-3.5117 6.1133,-6.75 9.2031,-10.094 17.605,-18.156 31.875,-39.273 42.152,-62.379 4.2188,-9.4453 7.8906,-19.125 10.996,-28.992 5.5195,-19.059 6.9023,-38.168 -1.4766,-57.113 v 0.004 c -4.75,-11.355 -13.078,-20.848 -23.715,-27.039 -10.969,-6.6758 -22.746,-11.926 -35.043,-15.613 -6.3906,-1.7383 -12.664,-3.8711 -18.789,-6.3828 -7.9766,-3.4766 -16.352,-5.9492 -24.938,-7.3555 -7.4805,-1.5547 -15.09,-2.4102 -22.73,-2.5508 -7.4219,0.38281 -14.859,0.17969 -22.25,-0.61328 -4.7148,-0.64453 -9.4805,-0.8125 -14.227,-0.49609 -11.719,1.1055 -23.379,2.8125 -35.086,4.1133 -11.91,1.3203 -23.863,2.2578 -35.754,3.7031 -9.8477,1.1992 -19.676,2.6562 -29.426,4.4727 v -0.004 c -5.0117,1.2031 -9.9531,2.6758 -14.805,4.4102 -2.6953,1.0586 -5.4883,1.8516 -8.3359,2.3672 -5.5,0.94141 -10.785,2.8789 -15.594,5.7109 -8.1172,3.1055 -15.117,8.5781 -20.09,15.703 -0.26953,0.44531 -1.0312,0.60547 -1.5781,0.87109 l -0.004,0.004 c -8.7422,4.9648 -15.195,13.156 -17.977,22.82 l 5.9023,3.3438 c -0.47656,2.293 -0.25391,5.1016 -1.5508,6.4453 l 0.004,0.004 c -2.1797,1.5273 -4.6133,2.6602 -7.1836,3.3438 -1.3594,10.539 0.80469,21.234 6.1562,30.414 2.0625,3.8203 4.5391,7.4375 6.3828,11.359 5.1094,8.9922 11.191,17.398 18.137,25.062 0.86719,0.89844 1.832,1.6953 2.8711,2.3789 2.0547,-2.1445 2.0742,-6.5352 6.707,-5.125 h 0.004 c 2.7461,0.48828 4.875,2.668 5.2969,5.4258 0.45312,4.5859 -4.0234,4.7617 -7.5938,6.4531 z M 198.062,21.001 c -5.1836,1.3477 -10.023,3.7773 -14.199,7.1328 -3.4297,2.9648 -6.7773,6.0234 -10.137,9.0664 -8.418,7.3359 -15.875,15.699 -22.199,24.898 -8.9844,13.762 -14.328,29.582 -15.527,45.977 -1.3555,14.297 0.76172,28.711 6.1719,42.016 0.82812,3.2305 2.6133,6.1367 5.1211,8.3359 2.5078,2.1992 5.6211,3.5898 8.9336,3.9883 3.8438,0.82422 7.5781,2.082 11.133,3.75 7.1758,2.4609 14.207,5.8164 21.914,3.9648 5.0469,-7.9102 8.4336,-16.766 9.9531,-26.023 2.832,-18.098 3.3633,-36.477 1.5859,-54.707 -0.69922,-11.91 -3.5352,-23.691 -5.4062,-35.531 h -0.004 c -1.6797,-7.7266 -1.3477,-15.754 0.96094,-23.312 0.8125,-3.1367 1.3828,-6.3281 1.6992,-9.5547 z m 318.75,158.25 c 3.0469,0.51563 5.6523,0.94531 8.2578,1.3984 l 0.004,0.004 c 3.668,0.33984 7.2969,1.0352 10.836,2.082 2.4648,1.1992 5.4297,0.65234 7.3047,-1.3516 1.7578,-1.4414 3.3281,-3.1055 4.6641,-4.9492 6.875,-9.5859 11.676,-20.5 14.098,-32.043 l -4.3242,-3.5 0.51562,-1 h 4.8789 v -6.1172 c -2.4062,-0.78906 -5.2383,-1.1797 -3.7461,-5.0625 l 4.1875,-0.79688 v -8.2734 c -6.0781,1.5391 -7.9961,1.0898 -8.6914,-1.832 -0.80078,-3.3633 1.8984,-6.6992 7.3867,-8.7266 l -3.3086,-10.070004 c -2.4922,0.64062 -5.0547,3.015604 -6.5352,-0.47656 -1.375,-3.2383 2.2812,-3.0352 3.5898,-4.2734 -8.582,-15.742 -30.414,-37.043 -41.246,-39.895 l -0.004,0.0039 c -0.48828,2.3711 -0.73438,4.7852 -0.73828,7.207 0.75781,9.2969 0.28516,18.652 -1.4062,27.82 -0.71484,4.2617 -0.82812,8.6211 -1.2812,12.929994 h -0.004 c -0.0469,1.2227 -0.32031,2.4258 -0.80078,3.5508 -7.832,15.324 -12.113,32.219 -12.523,49.426 0.0156,5.8203 1.4688,11.547 4.2266,16.672 1.08981,3.0156 4.21481,4.7852 7.3594,4.1641 0.0312,-7.1562 3.69141,-10 9.53521,-7.7305 2.4805,0.96484 3.1484,2.6055 1.82029,4.8555 -1.1289,1.918 -2.4922,3.6992 -4.0547,5.9844 z m -317.66,-14.863 c 3.0664,-2.1523 5.2031,-3.5469 7.2227,-5.0938 2.3164,-1.7148 4.543,-3.5469 6.6758,-5.4883 7.9688,-7.25 13.832,-16.52 16.973,-26.828 3.0195,-12.656 4.7148,-25.594 5.0625,-38.602 -0.0508,-2.8359 -0.32812,-5.6641 -0.83594,-8.4531 -2.3555,1.5312 -4.6094,3.2148 -6.75,5.0391 -4.4336,5.4336 -9.6484,10.172 -15.48,14.062 -3.5938,1.8242 -5.6523,5.707 -5.1406,9.7031 0.0547,1.2383 -0.082,2.4805 -0.0508,3.7188 0.125,17.605 -2.4609,35.125 -7.6758,51.941 z m 285.37,-79.402 c -0.74609,4.4297 -1.2695,8.9258 -2.2773,13.309 -4.4023,19.766 -2.2344,40.43 6.1758,58.852 1.3047,2.3945 2.832,4.6641 4.5547,6.7773 0.51953,-0.98828 0.84375,-1.3125 0.83203,-1.625 -0.88672,-10.301 -0.0625,-20.68 2.4375,-30.711 2.4844,-8.3047 5.0586,-16.59 7.9648,-24.754 1.3828,-3.1055 0.50781,-6.75 -2.1328,-8.8906 -3.1289,-3 -5.9688,-6.3164 -9.1992,-9.1914 -2.2305,-1.9766 -4.4414,-4.4883 -8.3555,-3.7656 z m -191.07,45.043 c -4.3086,-0.64844 -8.6328,1.0508 -11.344,4.457 -2.6211,3.1992 -4.3203,7.0508 -4.918,11.145 -1.7773,5.9492 0.54297,12.363 5.7188,15.793 2.9375,2.5977 6.5312,4.3398 10.391,5.0312 3.8594,0.6875 7.8359,0.30469 11.492,-1.1172 5.9219,-2.0938 10.336,-7.1055 11.672,-13.242 1.332,-6.1406 -0.60938,-12.531 -5.1289,-16.895 -4.7812,-4.5039 -11.438,-6.4297 -17.883,-5.1719 z m 259.61,354.15 c 2.9492,-5.8086 4.2656,-12.309 3.8008,-18.805 -0.48828,-11.191 -3.1484,-22.184 -7.8203,-32.363 -1.5,-4.5938 -4.7031,-8.4414 -8.9492,-10.746 -4.1328,-1.6445 -8.5469,-2.5781 -12.84,-3.8281 l -6.7734,14.016 c 1.2734,0.31641 2.0547,0.50781 2.8359,0.70312 4.6875,0.98828 9.0195,3.2344 12.523,6.5 3.5078,3.2656 6.0586,7.4258 7.375,12.031 1.7969,5.5273 2.7812,11.285 2.9141,17.094 0.17969,5.8516 2.6719,11.391 6.9336,15.398 z m -93.793,5.8789 c 1.4219,0.70312 2.3594,1.1055 3.2383,1.6055 v 0.004 c 6.8125,3.0547 12.602,8.0117 16.664,14.273 3.4062,6.1719 5.6641,12.906 6.6641,19.883 0.71094,3.6445 1.8555,7.1914 3.4023,10.57 0.44141,1.125 1.7773,1.9023 2.918,3.0547 2.8789,-3.8008 4.2891,-8.5156 3.9727,-13.273 0.12891,-5.9531 -0.58594,-11.918 -0.63672,-17.879 0.0625,-5.8945 -2.6758,-11.469 -7.375,-15.027 -5.168,-4.1211 -10.586,-7.9336 -15.992,-11.746 h 0.004 c -1.8242,-1.0938 -3.7188,-2.0586 -5.6797,-2.8789 z m -216.19,-40.941 c 7.6719,-1.1602 15.105,-3.5742 21.996,-7.1367 4.0391,-2.0938 4.7305,-3.7383 3.2344,-7.8945 -2.1211,-4.9414 -5.3047,-9.3516 -9.3203,-12.926 -1.875,-1.7305 -4.5625,-2.2695 -6.9609,-1.3906 -8.043,1.5938 -14.914,6.7734 -18.664,14.066 -1.7031,3.3125 -1.5234,7.2812 0.47656,10.426 1.9961,3.1445 5.5156,4.9922 9.2383,4.8555 z m 181.11,20.445 c 8.9727,13.129 9.0664,12.969 16.766,17.461 v 0.004 c 4.7773,2.5898 10.629,2.1797 15,-1.0547 3.2812,-2.0352 7.5195,-5.7852 4.5352,-11.355 -0.16797,-0.60156 -0.0469,-1.2461 0.32812,-1.7461 1.5391,-1.9297 0.34766,-3.4648 -0.54297,-5.0938 -4.8164,-5.3125 -11.586,-8.4414 -18.754,-8.6641 -0.60156,0.15625 -1.1719,0.40625 -1.6953,0.74219 -5.0781,3.1367 -10.145,6.293 -15.637,9.707 z m -124.66,-6.3672 c -2.6445,-5.7578 -6.8203,-10.684 -12.066,-14.242 -1.668,-1.0625 -3.875,-2.5273 -5.5,-2.1875 -4.8398,0.80078 -9.543,2.2969 -13.957,4.4414 -5.6211,3.1953 -7.9023,10.133 -5.2773,16.039 2.7539,6.0625 9.582,9.1328 15.945,7.1758 7.6055,-2.3711 14.684,-6.1836 20.855,-11.227 z m -55.055,-57.141 c -2.7969,-8.0234 -7.7031,-15.152 -14.203,-20.629 -0.84375,-0.59766 -1.9023,-0.80078 -2.9062,-0.55078 -7.8398,1.3281 -14.824,5.7383 -19.395,12.246 -1.5469,1.9844 -2.1016,4.5625 -1.5117,7.0039 0.58984,2.4453 2.2578,4.4883 4.5391,5.5469 1.7344,1.0898 3.6328,1.8984 5.6211,2.3945 9.9609,2.4453 18.629,-1.1953 27.855,-6.0117 z m 209.67,42.227 c 4.8203,6.0469 11.09,10.785 18.223,13.777 4.793,2.1758 10.316,2.0586 15.012,-0.32422 4.5938,-2.2891 5.4258,-6.6016 6.1289,-11.336 0.82813,-3.0742 -0.71484,-6.293 -3.6328,-7.5781 -5.4062,-3.0938 -11.41,-5 -17.613,-5.5938 -1.8281,-0.22266 -3.6836,0.16016 -5.2734,1.0898 -4.3633,3.0469 -8.4375,6.5 -12.844,9.9648 z m 74.375,65.176 c 2.625,-1.4102 4.0547,-4.3438 3.5469,-7.2812 -0.21484,-2.0508 -0.25391,-4.1133 -0.11719,-6.168 0.53906,-3.7031 -0.16016,-7.4805 -1.9883,-10.746 -2.0508,-4.5 -4.0625,-9.0195 -6.1172,-13.52 -1.7148,-5.1367 -5.0547,-9.582 -9.5156,-12.656 -5.3516,-2.957 -11.164,-5.0703 -16.68,-7.5078 l -6.2344,9.2305 c 22,8.8047 29.836,28.125 37.105,48.648 z m -137.3,-365.12 c 0.39453,4.6289 2.3945,8.9727 5.6602,12.281 3.2617,3.3086 7.5781,5.3672 12.203,5.8242 4.2578,-0.51953 8.1719,-2.5938 10.988,-5.8281 2.8203,-3.2305 4.3438,-7.3906 4.2812,-11.68 0.0273,-4.5938 -1.7109,-9.0234 -4.8594,-12.371 -3.1445,-3.3477 -7.4609,-5.3594 -12.051,-5.6133 -9.2461,-0.37109 -15.93,6.793 -16.223,17.387 z m 89.68,273.93 h -0.004 c 5.8164,6.6641 13.723,11.156 22.426,12.734 3.9141,0.57031 7.8633,-0.76562 10.633,-3.5898 -4.6836,-2.5859 -5.7773,-4.3164 -4.2617,-6.9297 0.58594,-1.0117 1.8672,-2.5234 2.5742,-2.3945 l -0.004,-0.004 c 2.6289,0.63281 5.2109,1.4453 7.7227,2.4414 0.46094,-0.95703 1.082,-2.0312 1.5156,-3.1758 1.8984,-3.5703 1.8477,-7.8594 -0.13672,-11.379 -1.9805,-3.5234 -5.625,-5.7891 -9.6602,-6.0195 -3.0664,-0.47656 -6.1719,-0.66797 -9.2734,-0.5625 -1.6406,-0.008 -3.2344,0.54297 -4.5195,1.5664 -5.7422,5.5977 -11.266,11.418 -17.016,17.312 z m -223.51,44.445 c -0.79297,0 -1.5859,0.11719 -2.3438,0.34766 -6.7031,3.1719 -13.438,6.2812 -20.027,9.6836 v -0.004 c -4.0781,2.2031 -7.043,6.0234 -8.168,10.52 -1.7031,6.3555 -3.0312,12.805 -3.9766,19.312 -0.29688,3.7148 -0.32422,7.4453 -0.0937,11.16 3.4688,-2.1328 6.1719,-5.3047 7.7344,-9.0625 1.6953,-4.2031 3.0977,-8.5195 4.2031,-12.918 0.91797,-5.3828 4.3945,-9.9844 9.3164,-12.344 3.0977,-1.6094 6.3125,-2.9805 9.6172,-4.1016 3.332,-1.2383 6.7578,-2.2305 10.258,-3.3672 z m -72.051,-288.28 -36.859,-11.172 c -0.23047,2.3867 -1.4414,5.2812 -0.5,6.9727 h 0.004 c 2.7344,5.9609 6.4336,11.426 10.945,16.18 8.8555,7.8242 24.777,0.39453 26.41,-11.98 z m -19.961,287.6 c 2.9844,-0.75781 5.293,-3.125 5.9688,-6.1289 3.4648,-9.918 6.8203,-19.879 10.461,-29.734 1.3633,-5.0039 4.0586,-9.543 7.7969,-13.137 3.7422,-3.5938 8.3867,-6.1016 13.441,-7.2617 l -2.4648,-8.3867 c -10.051,2.1445 -18.734,4.7383 -21.398,15.754 h -0.004 c -0.73828,2.1484 -1.707,4.2109 -2.8828,6.1562 -4.9375,10.887 -8.4531,22.371 -10.457,34.16 -0.35547,2.8438 -0.50781,5.7109 -0.46094,8.5781 z m 27.84,22.93 c 2.7461,-1.4141 4.8008,-3.8828 5.6953,-6.8398 2.2305,-5.0859 4.6172,-10.117 6.5938,-15.305 l 0.004,0.004 c 2.4023,-6.5117 7.9453,-11.352 14.723,-12.859 3.8828,-1.0898 7.5703,-2.8711 11.43,-4.3711 l -4.8672,-10.117 c -8.0078,2.1016 -15.566,5.6484 -22.297,10.469 -1.6797,1.5273 -2.9883,3.418 -3.8281,5.5273 -3.7969,9.3516 -6.4844,19.117 -8.0117,29.098 -0.0391,1.4844 0.14844,2.9648 0.55859,4.3945 z m 344.11,-300.24 c -5.4062,-0.89062 -10.676,-1.5586 -15.852,-2.6641 -5.3008,-1.1328 -10.512,-2.6914 -15.828,-4.0781 v -0.004 c -1.1328,5.2656 -0.44141,10.754 1.957,15.574 1.5625,3.6758 4.9727,3.9297 7.7969,5.375 0.17969,0.10156 0.35156,0.21484 0.51172,0.34375 4.2578,3.2461 10.133,3.3477 14.5,0.25391 2.4805,-1.5156 4.457,-3.7266 5.6875,-6.3594 1.2305,-2.6328 1.6562,-5.5703 1.2266,-8.4414 z m -339.64,59.523 c -14.953,-13.777 -28.25,-28.434 -30.098,-50.297 l -4.1484,0.40625 c 0.70313,19.25 18.816,45.852 34.246,49.891 z m 301.77,-13.348 c 6.8789,1.8867 10.781,-2.8281 14.246,-7.3086 3.9531,-5.1172 8.3398,-10.535 4.8086,-17.918 v -0.004 c -3.2344,10.363 -9.9727,19.281 -19.055,25.23 z m -182.55,-23.887 c -4.2227,-7.3984 -1.2852,-13.676 1.0273,-20.047 1.0938,-3.0117 1.9727,-6.1016 3.3203,-10.312 -2.9102,4.3828 -4.9492,7.6602 -7.1875,10.789 h -0.004 c -4.3008,5.7969 -5.5859,13.301 -3.4531,20.199 z m 81.27,-4.9102 c -0.91797,-6.5781 0.0312,-13.277 2.7383,-19.34 -1.9414,1.5547 -3.7539,3.2656 -5.4219,5.1133 -2.6953,2.9609 -3.7148,7.0781 -2.7148,10.957 0.44141,2.7656 1.8516,4.0234 5.3984,3.2695 z m 56.195,251.24 0.69922,-1.2109 -6.5156,-6.2109 -5.332,4.0898 z m -176.42,-19.043 -6.832,5.2461 0.39453,0.71094 10.691,-2.5781 z m 127.13,-258.2 1.5469,0.49219 2.0234,-7.4492 -1.1875,-0.33594 z"
       id="path4129" />
    <path
       d="m 271.13,132.09 c -3.2344,0.51953 -3.9141,-1.2383 -4.0664,-3.5273 v 0.004 c -0.16406,-3.7109 1.3359,-7.2969 4.0859,-9.7852 2.7539,-2.4883 6.4727,-3.6211 10.145,-3.0859 1.6367,0.0547 3.2617,0.27734 4.8516,0.66406 0.95312,0.57422 1.6016,1.5391 1.7773,2.6406 0.082,0.48438 -1.1914,1.4102 -2.0156,1.7695 v -0.004 c -0.80078,0.18359 -1.6289,0.20703 -2.4414,0.0664 -7.8477,-0.14453 -10.27,1.8633 -11.801,9.7734 l 0.004,0.004 c -0.14844,0.50391 -0.32812,1 -0.53906,1.4805 z"
       id="path4131" />
    <path
       d="m 422.91,132.15 c -1.4688,-2.3477 -2.4453,-3.9727 -3.4844,-5.5547 -2.668,-4.0742 -5.3594,-7.9609 -11.359,-6.1016 -0.87891,0.27344 -2.2656,-1.0898 -3.418,-1.6992 0.73437,-1.0391 1.375,-2.8828 2.2148,-2.9727 2.9805,-0.49609 6.0234,-0.45703 8.9922,0.11328 3.5312,1.3125 6.2617,4.1758 7.4062,7.7617 1.6094,2.6289 1.4688,5.9688 -0.35156,8.4531 z"
       id="path4133" />
    <path
       d="m 311.91,228.65 c 2.7227,0.38672 5.3711,1.1953 7.8477,2.4023 3.8281,2.6875 3.7031,5.6992 0.9375,9.5195 -4.3828,5.3086 -10.902,8.3906 -17.789,8.4062 -2.4609,0.24609 -4.9336,0.30078 -7.4023,0.16797 -3.2031,0.25781 -6.1367,-1.7852 -7.0039,-4.875 -0.52344,-3.4805 0.76562,-6.9883 3.4102,-9.3086 5.957,-3.9102 12.879,-6.0938 20,-6.3125 z m -18.844,15.102 1.3906,1.6445 c 5.625,-0.93359 11.348,-1.5 16.836,-2.9492 3.2148,-0.84766 5.6992,-3.4023 6.457,-6.6406 -7.2305,-2.9414 -15.457,-2.0469 -21.887,2.3789 -1.2422,1.6836 -2.1875,3.5664 -2.7969,5.5664 z"
       id="path4135" />
    <path
       d="m 419.93,247.11 c -2.6953,-0.83984 -6.0391,-1.8164 -9.332,-2.9297 -2.1367,-0.72266 -4.1953,-1.668 -6.3125,-2.4609 -2.2852,-0.51562 -4.0742,-2.2852 -4.6172,-4.5586 -0.54687,-2.2773 0.25,-4.6641 2.0508,-6.1602 2.3867,-2.7031 6.0742,-3.8594 9.5781,-3.0078 5.0117,1.1641 10.039,2.2812 14.992,3.6602 4.7656,1.3281 6.2188,3.1875 6.2305,7.1641 v 0.004 c 0.0312,3.6836 -2.6719,6.8242 -6.3203,7.3398 -2.0703,0.42578 -4.1641,0.74219 -6.2695,0.94922 z m -15.727,-9.7266 c 4.5273,1.5195 8.7031,2.6758 12.672,4.3359 v 0.004 c 2.5352,0.89063 5.2969,0.89844 7.8359,0.0156 1.7109,-0.40234 3.6523,-0.84766 3.2266,-2.8984 l 0.004,0.004 c -0.43359,-1.4961 -1.5195,-2.7148 -2.9531,-3.3125 -4.7344,-1.4922 -9.5859,-2.5898 -14.504,-3.2734 -1.5391,-0.30469 -3.1328,0.0898 -4.3477,1.082 -1.2148,0.99219 -1.9258,2.4766 -1.9336,4.0469 z"
       id="path4137" />
    <path
       d="m 345.76,231.25 c 2.6055,5.8789 4.3477,10.652 6.7812,15.039 0.92578,1.6406 2.6055,2.7109 4.4844,2.8594 1.875,0.14844 3.7031,-0.64453 4.8789,-2.1172 1.3125,-1.8242 2.25,-3.8906 2.7539,-6.082 0.22266,-1.8438 0.30859,-3.7031 0.24609,-5.5625 0.1875,-1.9219 0.61719,-3.8203 1.0352,-6.2891 3.0859,1.168 5.0312,4.2305 4.7812,7.5195 -0.10156,6.082 -2.5977,11.883 -6.9492,16.137 -2.0352,2.1641 -5.125,2.9844 -7.9609,2.1055 -3.5703,-1.6445 -6.6055,-4.2617 -8.7578,-7.5508 -2.1523,-3.2891 -3.3359,-7.1172 -3.418,-11.043 0.51953,-1.7461 1.2344,-3.4297 2.125,-5.0156 z"
       id="path4139" />
    <path
       d="m 203.96,288.2 c -0.14062,-1.5664 0.41016,-3.1172 1.5,-4.2461 1.0938,-1.1328 2.625,-1.7344 4.1953,-1.6484 1.5586,-0.19922 3.125,0.26953 4.3242,1.2852 1.1992,1.01567 1.9141,2.4922 1.9688,4.0625 -0.42578,3.5508 -2.9688,6.4844 -6.4258,7.4062 -3.1406,0.0898 -5.5703,-2.9062 -5.5625,-6.8594 z"
       id="path4141" />
    <path
       d="m 220.66,252.61 c -0.0508,3.7969 -2.9062,6.9727 -6.6797,7.4258 -2.5078,-0.17187 -4.7227,-3.5195 -4.6445,-7.0312 -0.11328,-3.2188 2.3359,-5.9492 5.5469,-6.1875 1.5469,-0.043 3.043,0.55469 4.1367,1.6523 1.0938,1.0938 1.6875,2.5938 1.6406,4.1406 z"
       id="path4143" />
    <path
       d="m 211.62,312.18 c -0.004,-4.2344 2.1367,-7.0664 5.2695,-6.9648 3.1367,0.26953 5.6523,2.7109 6.0078,5.8398 -0.46094,3.7734 -3.4648,6.7227 -7.2461,7.1211 -2.3555,-0.15625 -4.0273,-2.6367 -4.0312,-5.9961 z"
       id="path4145" />
    <path
       d="m 231.56,334.97 c -0.33594,-3.8164 2.2539,-7.2695 6.0078,-8.0156 1.2344,-0.12109 2.4609,0.29688 3.3633,1.1484 0.90234,0.85156 1.3906,2.0469 1.3438,3.2891 -0.25391,3.9844 -3.1094,7.3203 -7.0078,8.1875 -2.2383,0.0859 -3.6797,-1.7031 -3.707,-4.6094 z"
       id="path4147" />
    <path
       d="m 262.45,377.27 c 0.10156,-3.3984 2.7344,-6.1875 6.125,-6.4844 2.9414,0.22266 5.2422,2.6289 5.332,5.5781 -0.58203,3.7891 -3.9414,6.5156 -7.7695,6.3086 -2.5781,-0.33594 -3.9297,-2.3164 -3.6875,-5.4023 z"
       id="path4149" />
    <path
       d="m 194.17,306.99 c -0.0156,-3.6641 1.7656,-6.5703 4.0898,-6.6797 3.1289,0.28906 5.6836,2.6094 6.2734,5.6953 -0.46875,3.543 -3.1367,6.3984 -6.6367,7.1133 -2.293,-0.0195 -3.7109,-2.3555 -3.7266,-6.1289 z"
       id="path4151" />
    <path
       d="m 222.96,270.27 c 0.125,-3.5977 2.0508,-5.5156 5.3438,-5.3164 v 0.004 c 1.4648,-0.10938 2.9023,0.42969 3.9375,1.4727 1.0352,1.043 1.5625,2.4844 1.4414,3.9492 -0.22656,3.1992 -2.7461,5.7617 -5.9414,6.0391 -1.4492,-0.17969 -2.7695,-0.92969 -3.6641,-2.082 -0.89844,-1.1523 -1.3008,-2.6172 -1.1172,-4.0664 z"
       id="path4153" />
    <path
       d="m 244.05,372.23 c -0.42969,-1.9805 -0.57422,-4.0195 -0.42188,-6.043 0.46875,-1.7891 1.6562,-4.4961 2.9023,-4.7148 2.1523,-0.0977 4.2617,0.64453 5.8828,2.0664 1.1211,0.82031 1.7031,2.1836 1.5195,3.5586 -0.18359,1.375 -1.1055,2.5391 -2.3984,3.0352 -2.4141,0.96094 -4.9219,1.6641 -7.4844,2.0977 z"
       id="path4155" />
    <path
       d="m 211.69,327.39 c 3,-0.15625 5.582,2.1016 5.8281,5.0977 -0.043,2.3906 -3.2969,6 -5.3828,5.9727 -2.3516,-0.0312 -4.6914,-3.1523 -4.7344,-6.3125 -0.0391,-3.1016 1.4492,-4.7539 4.2891,-4.7578 z"
       id="path4157" />
    <path
       d="m 311.59,444.46 c -0.28125,-0.14062 -1.2148,-0.30469 -1.6289,-0.86328 v 0.004 c -1.3789,-1.8398 -1.543,-4.3203 -0.42578,-6.3242 0.88281,-1.9336 1.6445,-3.7305 4.0938,-3.9844 4.043,-0.41797 6.2266,2.3984 4.6953,6.0977 -0.94531,2.9453 -3.6445,4.9766 -6.7344,5.0703 z"
       id="path4159" />
    <path
       d="m 241.35,242.16 c -0.0156,-4.0547 1.9766,-6.75 4.8984,-6.6328 2.3984,0.0977 4.0508,2.2539 4.0625,5.293 h -0.004 c -0.17188,2.9805 -2.3672,5.4531 -5.3047,5.9688 -2.3438,0.19922 -3.6406,-1.4453 -3.6523,-4.6289 z"
       id="path4161" />
    <path
       d="m 199.82,259.98 c 2.5781,-0.28516 4.9102,1.5312 5.2656,4.1016 0.14453,3.2344 -2.3164,5.9922 -5.5469,6.2148 -2.2773,0.043 -3.7539,-1.9688 -3.9023,-5.3164 v 0.004 c -0.23437,-1.2422 0.0977,-2.5234 0.91016,-3.4922 0.80859,-0.96875 2.0117,-1.5234 3.2734,-1.5117 z"
       id="path4163" />
    <path
       d="m 284.71,423.89 c -0.38672,2.3203 -2.3594,4.0391 -4.7109,4.1016 -2.2344,-0.0273 -3.9688,-2.6602 -3.5625,-5.5469 h 0.004 c 0.0586,-2.1836 1.8555,-3.918 4.0391,-3.8945 2.0859,-0.0469 4.3945,3.043 4.2305,5.3398 z"
       id="path4165" />
    <path
       d="m 243.53,303.68 1.5859,-8.3164 c 3.9375,-0.25391 6.0625,0.89844 6.2148,4.2148 0.13281,2.8789 -2.0586,4.1562 -7.8008,4.1016 z"
       id="path4167" />
    <path
       d="m 254.39,357.29 c -0.95703,-3.2344 -0.42188,-5.6914 2.5078,-6.3789 1.7773,-0.10938 3.5391,0.38672 4.9961,1.4102 0.50391,0.29297 0.49219,2.4297 -0.008,3.3164 -1.9336,3.418 -4.8516,1.9375 -7.4961,1.6523 z"
       id="path4169" />
    <path
       d="m 336.05,445.14 c -0.40234,2.4023 -0.21875,4.0859 -0.96875,5.0547 h 0.004 c -1.0703,1.1367 -2.4414,1.9453 -3.9492,2.332 -0.41016,0.13281 -1.957,-1.3633 -1.8672,-1.9297 0.16797,-1.7109 0.80469,-3.3438 1.8359,-4.7148 0.69531,-0.76172 2.5703,-0.44531 4.9453,-0.74219 z"
       id="path4171" />
    <path
       d="m 226.4,248.76 c -0.42188,-2.207 -0.57031,-4.457 -0.44141,-6.6992 0.51953,-1.2383 1.5781,-2.1719 2.8711,-2.5312 1.1641,-0.0117 2.25,0.57812 2.875,1.5586 0.5625,1.2344 0.55078,2.6523 -0.0312,3.875 -1.5742,1.5 -3.3477,2.7773 -5.2734,3.7969 z"
       id="path4173" />
    <path
       d="m 244.31,352.63 c -1.2266,0.91797 -2.75,2.8984 -4.5469,3.1875 -2.1484,0.34766 -2.8398,-2.0039 -2.75,-3.9492 h -0.004 c -0.0586,-0.9375 0.28906,-1.8594 0.95703,-2.5195 0.66797,-0.66406 1.5898,-1.0039 2.5273,-0.93359 2.2109,-0.0508 3.457,0.94922 3.8164,4.2148 z"
       id="path4175" />
    <path
       d="m 227.45,322.22 c -1.9844,-3.9805 -1.8438,-6.8086 0.53516,-7.0742 v -0.004 c 1.5508,-0.0898 3.0586,0.51953 4.1094,1.6641 1.3672,1.9492 -0.67188,4.168 -4.6445,5.4141 z"
       id="path4177" />
    <path
       d="m 256.77,404.39 c 0.55078,-3.2031 -0.0352,-5.918 3.2109,-6.5781 0.91797,-0.043 1.8086,0.30469 2.4531,0.96094 0.64062,0.65625 0.97266,1.5547 0.90625,2.4688 -0.75391,3.0742 -3.1758,3.0469 -6.5703,3.1484 z"
       id="path4179" />
    <path
       d="m 242.82,265.12 c -1.2305,-1.9297 -2.3398,-2.918 -2.4648,-4.0234 -0.25,-2.1641 0.96484,-3.3906 3.3125,-3.2891 1.8008,0.0781 3.7734,0.69531 3.3203,2.5664 -0.375,1.543 -2.2891,2.7148 -4.168,4.7461 z"
       id="path4181" />
    <path
       d="m 235.85,302.49 c -1.3008,-1.9883 -2.5352,-3.043 -2.6094,-4.1758 -0.13281,-2.0352 1.0703,-3.7344 3.375,-3.3125 v -0.004 c 1.1875,0.39844 2.2227,1.1523 2.9609,2.1602 -1.1016,1.8672 -2.3477,3.6523 -3.7266,5.332 z"
       id="path4183" />
    <path
       d="m 205.66,279.34 c -2.4883,1.5195 -3.8594,2.957 -5.25,2.9805 -0.81641,0.0156 -2.168,-2.1406 -2.3906,-3.4727 -0.33594,-1.9844 1.2773,-3.082 3.1055,-2.6172 1.2812,0.33203 2.3398,1.5508 4.5352,3.1094 z"
       id="path4185" />
    <path
       d="m 221.39,288.43 c 1.6445,2.0039 3.0312,2.9883 3.3398,4.2383 0.45703,1.8438 -2.1641,4.3594 -3.8008,3.6445 -1.293,-0.74219 -2.1641,-2.043 -2.3633,-3.5156 -0.0469,-1.1172 1.4062,-2.3047 2.8242,-4.3672 z"
       id="path4187" />
    <path
       d="m 313.52,420.27 c -1.3438,1.4062 -2.8867,2.6055 -4.5781,3.5703 -0.60547,0.22266 -2.4766,-1.2734 -2.7656,-2.2734 -0.5625,-1.9609 1.6289,-4.5195 3.4492,-4.1445 1.1406,0.23438 2.0781,1.4648 3.8945,2.8477 z"
       id="path4189" />
    <path
       d="m 308.45,404.82 c 1.1875,2.375 2.5,3.8711 2.1641,4.5547 -0.96484,1.4023 -2.1484,2.6445 -3.5039,3.6758 -0.71094,-1.0195 -2.168,-2.2266 -1.9688,-3.0195 v 0.004 c 0.84766,-1.8867 1.9648,-3.6445 3.3086,-5.2148 z"
       id="path4191" />
    <path
       d="m 268.93,411.73 c 1.4844,-0.91406 2.3242,-1.8555 3.1484,-1.8438 1.4336,0.17188 2.8398,0.51172 4.1953,1.0117 -0.12891,1.1211 -0.44141,2.2109 -0.92969,3.2266 -0.46484,0.68359 -1.207,1.125 -2.0312,1.2031 -0.8242,0.0781 -1.6367,-0.21484 -2.2227,-0.79688 -0.82422,-0.85156 -1.5469,-1.7891 -2.1602,-2.8008 z"
       id="path4193" />
    <path
       d="m 276.71,368.07 c -1.2148,-1.5508 -2.2969,-2.3281 -2.4531,-3.2617 -0.32812,-1.9727 0.30859,-3.9375 2.7656,-3.6562 1.0859,0.125 3,1.875 2.8516,2.293 l 0.004,0.004 c -0.84766,1.6719 -1.9141,3.2266 -3.168,4.6211 z"
       id="path4195" />
    <path
       d="m 224.73,347.13 c -1.0273,-2.4141 -1.6602,-4.7852 1.5469,-5.9492 0.75781,-0.40234 1.668,-0.36719 2.3945,0.0898 0.72266,0.45703 1.1484,1.2656 1.1133,2.1211 -0.0586,2.9375 -1.7812,4.375 -5.0547,3.7383 z"
       id="path4197" />
    <path
       d="m 216.62,263.26 c 2.9219,0.57031 4.9336,1.4922 4.2891,4.4062 -0.57031,0.98047 -1.6172,1.5938 -2.7539,1.6133 -2.625,-0.97266 -2.9297,-3.0312 -1.5352,-6.0195 z"
       id="path4199" />
    <path
       d="m 216.37,279.84 c 2.9141,-1.043 5.0898,-1.5508 6.0586,1.3164 -0.0195,1.125 -0.625,2.1562 -1.5938,2.7266 -3.0938,1.0898 -3.6406,-1.1797 -4.4648,-4.043 z"
       id="path4201" />
    <path
       d="m 208.46,314.49 c 1,1.3789 1.7812,2.8984 2.3242,4.5117 0.0898,0.61328 -1.4844,1.4648 -2.3047,2.207 -1.0117,-1.0156 -1.8516,-2.1875 -2.4883,-3.4688 -0.18359,-0.56641 1.1953,-1.6445 2.4688,-3.25 z"
       id="path4203" />
    <path
       d="m 199.88,325.94 c -1.1641,-1.6836 -2.5078,-2.7734 -2.4648,-3.8086 0.043,-1.0156 1.4961,-1.9727 2.3281,-2.957 0.98047,1.0352 2.4883,1.9492 2.7539,3.1406 0.17969,0.8125 -1.3828,2.0078 -2.6172,3.625 z"
       id="path4205" />
    <path
       d="m 216.36,341.91 c 1.4336,2.2383 2.7227,3.3984 2.7734,4.6133 0.0352,0.85156 -1.5,2.3242 -2.5391,2.543 -2.0195,0.42188 -3.082,-1.1484 -2.8242,-2.9883 0.14844,-1.0898 1.2188,-2.0469 2.5898,-4.168 z"
       id="path4207" />
    <path
       d="m 314.5,454.15 c -0.82812,-2.1641 -1.1719,-4.2266 1.7617,-4.5977 0.93359,-0.11719 3.0352,1.5117 2.9453,2.082 -0.37891,2.4258 -2.2461,3.0508 -4.707,2.5156 z"
       id="path4209" />
    <path
       d="m 233.72,306.81 c -1.6367,1.3867 -2.5938,2.875 -3.6484,2.9492 -2.2539,0.16016 -2.4844,-1.9336 -2.1367,-3.5 0.19141,-0.86328 1.6406,-2.1602 2.3086,-2.043 1.0742,0.19141 1.9688,1.3906 3.4766,2.5938 z"
       id="path4211" />
    <path
       d="m 258.11,231.82 c -1.9375,2.3203 -3.6953,3.7734 -5.9336,1.7031 -0.51953,-1.0352 -0.45703,-2.2656 0.16016,-3.2461 2.1836,-2.1055 3.9336,-0.83203 5.7734,1.543 z"
       id="path4213" />
    <path
       d="m 276.55,398.42 c -1.4961,1.0312 -3.125,1.8477 -4.8438,2.4336 -0.61719,0.0937 -2.0273,-1.2852 -2.1055,-2.0938 -0.16406,-1.7109 0.71875,-3.3867 2.7617,-3.0938 1.1094,0.16016 2.0781,1.3164 4.1875,2.7539 z"
       id="path4215" />
    <path
       d="m 296.86,437.28 c -1.2695,1.1914 -2.1992,2.6641 -2.8594,2.5508 -1.207,-0.32422 -2.2266,-1.1445 -2.7969,-2.2617 -0.23438,-0.48828 1.2461,-2.543 1.6953,-2.4609 1.4258,0.51562 2.7617,1.25 3.9609,2.1719 z"
       id="path4217" />
    <path
       d="m 264.55,242.95 c -2.0156,1.0859 -3.2031,2.2188 -3.8594,1.9688 -1.1172,-0.42969 -1.9023,-1.7266 -2.8281,-2.6602 0.77344,-0.73438 1.7266,-2.1953 2.2812,-2.0547 h 0.004 c 1.5898,0.70312 3.0703,1.6289 4.4023,2.7461 z"
       id="path4219" />
    <path
       d="m 190.04,290.38 c 1.2305,1.6836 2.7344,2.9102 2.5273,3.668 v 0.004 c -0.52344,1.2031 -1.625,2.0508 -2.9219,2.2461 -1.2461,-0.31641 -2.2266,-1.2695 -2.582,-2.5039 -0.0469,-0.88281 1.5391,-1.8594 2.9766,-3.4141 z"
       id="path4221" />
    <path
       d="m 266.15,364.87 c -1.75,1.0664 -3.125,2.3594 -3.5742,2.0898 h -0.004 c -1.0156,-0.76953 -1.7578,-1.8438 -2.1133,-3.0664 -0.10547,-0.29297 1.5078,-1.75 1.9766,-1.5977 1.3477,0.6875 2.5977,1.5508 3.7148,2.5742 z"
       id="path4223" />
    <path
       d="m 220.79,328.21 -0.63281,-5.25 c 2.2344,-0.89844 3.5078,-0.74219 4.0547,1.4062 0.55078,2.1758 0.0273,3.5234 -3.4219,3.8438 z"
       id="path4225" />
    <path
       d="m 227.17,259.96 c -0.82031,-1.0352 -1.4883,-2.1797 -1.9883,-3.4023 -0.28516,-1.5547 0.37109,-3.0039 2.2383,-2.582 0.90234,0.20313 2.2969,1.5117 2.207,2.1367 -0.16406,1.125 -1.2773,2.1172 -2.457,3.8477 z"
       id="path4227" />
    <path
       d="m 252.87,263.86 c -1.0352,-1.4219 -1.9258,-2.9375 -2.6641,-4.5352 -0.125,-0.36719 1.5195,-1.8672 1.7578,-1.7422 v 0.004 c 1.1523,0.50391 2.1133,1.3633 2.75,2.4492 0.26562,0.62891 -0.82422,1.8281 -1.8438,3.8242 z"
       id="path4229" />
    <path
       d="m 243.06,308.95 -3.1172,2.1836 c -0.59375,-0.91797 -1.7734,-1.9492 -1.6211,-2.7188 0.14844,-0.75781 1.6016,-1.5703 2.5781,-1.7188 0.50391,-0.0781 1.2227,1.2266 2.1602,2.2539 z"
       id="path4231" />
    <path
       d="m 233.45,289.08 c -1.3867,-1.8438 -1.9688,-3.6094 0.49609,-4.8789 0.92188,-0.1875 1.875,0.12109 2.5117,0.80859 0.88672,2.4531 -0.29297,3.7695 -3.0078,4.0703 z"
       id="path4233" />
    <path
       d="m 284.86,409.93 c 3.2578,-0.17188 4.4453,1 4.0469,3.1328 -0.11719,0.64062 -1.7695,0.99609 -2.7188,1.4805 z"
       id="path4235" />
    <path
       d="m 231.68,373.66 v -4.7188 c 2.2539,-0.67969 3.6133,-0.0664 3.6875,2.0352 0.0937,2.6602 -1.7383,2.9062 -3.8242,2.543 z"
       id="path4237" />
    <path
       d="m 331.73,458.54 c -1.5977,0.95312 -2.7109,2.1211 -3.4297,1.9141 -0.83984,-0.23828 -1.5469,-1.6172 -1.8594,-2.6367 -0.0937,-0.30469 1.4375,-1.6172 2.0469,-1.5039 0.97266,0.17969 1.793,1.1641 3.2422,2.2266 z"
       id="path4239" />
    <path
       d="m 295.95,422.86 -2.5977,2.7852 c -0.71875,-0.79688 -2.0664,-1.6602 -1.9922,-2.3789 0.0898,-0.84766 1.2969,-1.7969 2.2383,-2.2305 0.35156,-0.16406 1.3164,0.98828 2.3516,1.8242 z"
       id="path4241" />
    <path
       d="m 257.43,390.74 c -0.76953,-1.0703 -1.8594,-2 -1.6875,-2.4688 0.32422,-0.88281 1.375,-1.5 2.125,-2.2266 0.62891,0.85547 1.5664,1.6484 1.7617,2.5938 0.0937,0.45312 -1.2109,1.1953 -2.1992,2.1016 z"
       id="path4243" />
    <path
       d="m 253.8,377.63 -2.9062,2.3398 c -0.5625,-0.76172 -1.6719,-1.625 -1.5508,-2.2578 v 0.004 c 0.34766,-0.94531 1.1055,-1.6797 2.0586,-2.0039 0.43359,-0.14062 1.2891,0.99219 2.3984,1.918 z"
       id="path4245" />
    <path
       d="m 359.9,467.55 c -1.6211,0.66797 -2.6875,1.5273 -3.4648,1.3203 -0.88672,-0.23828 -1.6758,-1.3477 -2.1562,-2.2617 -0.11719,-0.22266 1.1484,-1.6523 1.7773,-1.6562 0.75,0 1.5039,0.94141 3.8438,2.5977 z"
       id="path4247" />
    <path
       d="m 320.18,414.15 c -1.3164,0.82812 -2.3789,1.9102 -2.832,1.6953 -0.91406,-0.42969 -1.5,-1.5625 -2.2188,-2.4062 0.67188,-0.5625 1.5156,-1.7031 1.9805,-1.5664 v 0.004 c 1.1367,0.58594 2.1758,1.3555 3.0703,2.2734 z"
       id="path4249" />
    <path
       d="m 345.59,459.85 c -1.6172,-2.2656 -2.5781,-3.0195 -2.5352,-3.7148 0.043,-0.67578 1.1094,-1.2852 1.7266,-1.9258 0.73828,0.75 1.8594,1.3945 2.0977,2.2773 0.19922,0.74609 -0.625,1.7656 -1.2891,3.3633 z"
       id="path4251" />
    <path
       d="m 209.6,266.97 c 1.0117,0.75 1.9062,1.6484 2.6602,2.6562 0.14844,0.27734 -1.2656,1.957 -1.7344,1.8633 -1.0508,-0.28906 -1.957,-0.95703 -2.5508,-1.8711 -0.20312,-0.30859 0.85938,-1.4453 1.625,-2.6484 z"
       id="path4253" />
    <path
       d="m 236.02,366.06 c -0.73047,-1.2695 -1.3555,-2.6016 -1.8672,-3.9766 -0.0742,-0.26172 1.3711,-1.3359 1.5234,-1.2266 v 0.004 c 1.0039,0.67578 1.8633,1.5469 2.5234,2.5625 0.14844,0.25 -1.0391,1.2891 -2.1797,2.6367 z"
       id="path4255" />
    <path
       d="m 341.87,463.66 c -1.2891,0.91406 -2.3867,2.0078 -2.668,1.8281 -0.83203,-0.63281 -1.4805,-1.4766 -1.875,-2.4453 -0.0898,-0.18359 1.0938,-1.3867 1.4375,-1.2812 l -0.004,-0.004 c 1.1094,0.50781 2.1523,1.1445 3.1094,1.9023 z"
       id="path4257" />
    <path
       d="m 549.93,145.58 c 3.3984,-0.0703 6.5703,1.8477 6.7656,4.0938 0.24609,2.8555 -4.6211,7.4648 -7.8594,7.4492 h -0.004 c -2.9844,-0.32031 -5.1445,-2.9961 -4.832,-5.9805 -0.0781,-1.5625 0.53516,-3.082 1.6797,-4.1523 1.1406,-1.0703 2.6953,-1.5859 4.25,-1.4102 z"
       id="path4259" />
    <path
       d="m 548.5,93.203 c 0.15625,2.3047 -3.4141,6.5312 -5.5156,6.5352 -2.8359,-0.67188 -4.9375,-3.0586 -5.25,-5.957 -0.0469,-2.4922 1.7539,-4.1836 4.7852,-4.4922 2.7227,-0.51172 5.3633,1.2148 5.9805,3.9141 z"
       id="path4261" />
    <path
       d="m 541.71,142.34 c -0.11719,2.8047 -2.4766,4.9883 -5.2812,4.8906 -1.1523,0.0312 -2.2539,-0.47266 -2.9844,-1.3672 -0.72656,-0.89062 -0.99609,-2.0742 -0.73438,-3.1953 0.34375,-3.3164 2.375,-5.3242 5.0469,-4.9922 h 0.004 c 2.3594,0.23047 4.1133,2.2969 3.9492,4.6641 z"
       id="path4263" />
    <path
       d="m 546.47,131.14 c 2.8672,-0.32422 5.4883,1.6484 5.9805,4.4922 0.0781,1.1445 -0.35156,2.2656 -1.1797,3.0586 -0.82422,0.79688 -1.9609,1.1836 -3.1016,1.0586 -1.2383,0.21484 -2.5078,-0.15625 -3.4336,-1.0117 -0.92188,-0.85156 -1.3984,-2.0859 -1.2812,-3.3398 0.0664,-2.168 0.74219,-4.0586 3.0156,-4.2578 z"
       id="path4265" />
    <path
       d="m 540.78,160.06 c -0.004,2.3711 -1.8242,4.3359 -4.1836,4.5234 -1.1523,-0.0156 -2.25,-0.5 -3.043,-1.3359 -0.79297,-0.83984 -1.2109,-1.9609 -1.1602,-3.1133 -0.0937,-2.2773 0.52344,-4.125 3.2617,-4.332 1.2461,-0.12891 2.4922,0.25 3.457,1.0508 0.96484,0.80469 1.5664,1.957 1.668,3.207 z"
       id="path4267" />
    <path
       d="m 537.45,169.87 c 0.73047,0.75 2.6719,1.8789 3.1484,3.4492 0.69531,2.2891 -2.4102,5.625 -4.6758,5.5352 -2.6719,-0.10938 -3.2734,-2.1484 -3.4023,-4.3086 -0.15625,-2.707 1.5039,-4.6602 4.9297,-4.6758 z"
       id="path4269" />
    <path
       d="m 546.38,109.14 c -0.13672,-3.7891 0.69922,-5.4297 3.3477,-5.3867 1.125,0.0547 2.1836,0.55859 2.9375,1.3984 0.75,0.83984 1.1367,1.9453 1.0664,3.0703 -0.12891,2.1914 -2.5234,4.6445 -4.4531,3.9062 -1.4766,-0.56641 -2.4336,-2.4766 -2.8984,-2.9883 z"
       id="path4271" />
    <path
       d="m 538.01,83.629 c -1.8164,1.6562 -3.8242,3.0938 -5.9766,4.2734 -1.5742,0.58984 -3.3359,-2.1406 -3.0352,-4.4023 0.3125,-2.3359 1.6133,-4.0273 4.0508,-3.4219 1.4844,0.375 2.6875,1.8672 4.9609,3.5508 z"
       id="path4273" />
    <path
       d="m 533.86,70.277 c 1.293,1.5664 2.3555,3.3086 3.1641,5.1719 0.13672,0.55859 -1.7227,2.1797 -2.8281,2.3555 -2.0234,0.32422 -2.9727,-1.3516 -2.7344,-3.1328 0.15625,-1.168 1.168,-2.2266 2.3984,-4.3945 z"
       id="path4275" />
    <path
       d="m 542.56,107.81 c -1.5781,1.1953 -3.3125,2.1719 -5.1562,2.9062 -0.49219,0.11328 -1.9688,-1.8125 -2.1211,-2.9297 -0.28906,-2.0742 1.5117,-2.8242 3.1641,-2.5977 1.1094,0.15234 2.0898,1.2773 4.1133,2.6211 z"
       id="path4277" />
    <path
       d="m 552.22,121.58 c -1.8086,1.5859 -2.9219,3.3125 -3.9805,3.2773 h 0.004 c -1.4219,-0.32812 -2.5625,-1.3867 -3,-2.7773 0.22656,-1.4219 1.1953,-2.6172 2.5391,-3.1328 1.0586,-0.17578 2.3984,1.3359 4.4375,2.6328 z"
       id="path4279" />
    <path
       d="m 550.89,167.7 c -1.9883,1.3242 -3.4062,2.8281 -4.0078,2.5547 -1.293,-0.74219 -2.293,-1.8984 -2.8359,-3.2891 -0.15234,-0.35547 1.8008,-2.332 2.5703,-2.207 1.2539,0.20312 2.332,1.5195 4.2734,2.9414 z"
       id="path4281" />
    <path
       d="m 538.14,120.98 c -3.1367,-0.0703 -4.9375,-1.2227 -4.6758,-3.9844 0.0625,-0.67188 2.4453,-1.8828 3.3398,-1.582 3.1602,1.0547 1.9922,3.2891 1.3359,5.5664 z"
       id="path4283" />
    <path
       d="m 524.4,128.73 c -1.2461,-2.125 -2.3242,-3.1602 -2.375,-4.2383 -0.0781,-1.7031 0.97266,-3.3672 2.9375,-2.8281 1.2266,0.46875 2.1289,1.5273 2.3984,2.8086 -0.0742,1.1719 -1.4805,2.2578 -2.9609,4.2578 z"
       id="path4285" />
    <path
       d="m 525.53,156.32 c 1.1328,2.0195 2.1602,3.0742 2.2695,4.2148 0.18359,0.83594 -0.0977,1.707 -0.73438,2.2773 -0.63672,0.57031 -1.5352,0.75 -2.3438,0.47656 -1.1211,-0.63672 -1.8477,-1.7891 -1.9336,-3.0742 0.0273,-1.0273 1.3477,-2.0234 2.7422,-3.8945 z"
       id="path4287" />
    <path
       d="m 505.09,171.61 c -1.2109,-2.543 -2.2852,-3.75 -2.1133,-4.7344 0.17969,-1.0352 1.5586,-1.8594 2.4141,-2.7773 0.75781,0.75 2.2031,1.582 2.125,2.2344 h 0.004 c -0.57031,1.8594 -1.3867,3.6367 -2.4297,5.2773 z"
       id="path4289" />
    <path
       d="m 542.39,86.762 c -0.86328,-1.3672 -1.7656,-2.2227 -1.8711,-3.1641 -0.0703,-0.64062 0.98437,-1.4023 1.5352,-2.1133 0.91406,0.83594 1.7148,1.7852 2.3867,2.8281 0.15234,0.30859 -1.0625,1.3086 -2.0508,2.4492 z"
       id="path4291" />
    <path
       d="m 536.87,129.23 c -1.1953,0.70312 -2.0273,1.5703 -2.7656,1.4961 -0.53125,-0.0547 -0.92969,-1.3711 -1.3867,-2.125 0.71094,-0.54297 1.5156,-0.95703 2.3711,-1.2148 0.41406,-0.0508 0.95703,0.94922 1.7812,1.8438 z"
       id="path4293" />
    <path
       d="m 528.54,174.22 c 0.5625,0.88281 1.0352,1.8242 1.4062,2.8047 0.0625,0.21484 -1.4609,1.1914 -1.5508,1.1016 -0.81641,-0.69531 -1.4688,-1.5625 -1.9141,-2.5352 -0.22656,-0.63281 0.28906,-1.5312 0.47266,-2.3125 z"
       id="path4295" />
    <path
       d="m 304.21,149.95 c 0.13672,2.2148 -0.82031,4.3555 -2.5625,5.7305 -1.7461,1.3711 -4.0508,1.8008 -6.1719,1.1484 -4.1719,-0.80469 -7.5391,-3.8867 -8.7031,-7.9727 -0.89062,-2.1523 -0.5625,-4.6172 0.85938,-6.4609 1.4258,-1.8438 3.7266,-2.7812 6.0352,-2.4609 2.7305,-0.0977 5.3906,0.91016 7.3711,2.793 1.9844,1.8867 3.1289,4.4883 3.1719,7.2227 z m -8.3672,-2.1602 -0.41797,-2.0039 c -1.1328,0.16016 -2.2539,0.41406 -3.3477,0.75391 0.0156,0.71484 0.11719,1.4219 0.29688,2.1133 z"
       id="path4297" />
    <path
       d="m 405.77,140.36 c 3.9844,-0.23047 7.7031,2.0117 9.3672,5.6406 1.6602,3.6289 0.92578,7.9062 -1.8555,10.773 -1.6133,1.1758 -3.6016,1.707 -5.5859,1.4961 -3.0078,-1.0273 -5.3906,-3.3594 -6.4883,-6.3398 -1.0938,-2.9844 -0.78516,-6.3008 0.83984,-9.0312 1.0977,-1.0391 2.3555,-1.8945 3.7227,-2.5391 z"
       id="path4299" />
    <path
       d="m 507.69,413.41 c 0.50781,-1.3867 1.1328,-2.7305 1.8672,-4.0117 0.9375,-1.918 3.0742,-2.9336 5.1523,-2.4453 2.2734,0.49609 3.9609,2.4141 4.1562,4.7344 0.66797,2.0195 -0.11719,4.2344 -1.9062,5.3789 -1.207,0.76172 -2.5078,1.3594 -3.875,1.7773 -3.5625,0.95312 -5.4297,-0.63281 -5.3945,-5.4336 z"
       id="path4301" />
    <path
       d="m 503.67,413.96 c -0.85547,0.48047 -1.9258,1.5781 -3.0039,1.5898 -2.1133,0.0156 -4.0156,-0.875 -4.0117,-3.5039 0.004,-2.1016 1.4336,-2.7227 3.2383,-2.6953 2.5156,0.043 3.4648,1.6406 3.7773,4.6094 z"
       id="path4303" />
    <path
       d="m 500.97,421.89 c 2.4609,0.96484 4.8086,1.6758 4,4.5625 -0.80859,1.0273 -2.0898,1.5547 -3.3867,1.3984 -2.6875,-1.125 -2.4297,-3.2383 -0.61328,-5.9609 z"
       id="path4305" />
    <path
       d="m 493.99,425.35 c -1.0039,-1.625 -2.0586,-2.6445 -2.1523,-3.75 -0.0547,-0.64062 1.7891,-2.1523 2.1797,-1.9727 h 0.004 c 1.1562,0.52734 2.0703,1.4688 2.5664,2.6406 0.17969,0.51953 -1.3008,1.6055 -2.5977,3.082 z"
       id="path4307" />
  </g>
</svg>
