<?xml version="1.0" encoding="UTF-8" standalone="no"?>
<svg
   width="513.33368pt"
   height="331.89288pt"
   version="1.1"
   viewBox="0 0 513.33368 331.89288"
   id="svg9161"
   sodipodi:docname="noun-fiddler-crab-3386436.svg"
   inkscape:version="1.1.1 (c3084ef, 2021-09-22)"
   xmlns:inkscape="http://www.inkscape.org/namespaces/inkscape"
   xmlns:sodipodi="http://sodipodi.sourceforge.net/DTD/sodipodi-0.dtd"
   xmlns="http://www.w3.org/2000/svg"
   xmlns:svg="http://www.w3.org/2000/svg">
  <defs
     id="defs9165" />
  <sodipodi:namedview
     id="namedview9163"
     pagecolor="#ffffff"
     bordercolor="#999999"
     borderopacity="1"
     inkscape:pageshadow="0"
     inkscape:pageopacity="0"
     inkscape:pagecheckerboard="0"
     inkscape:document-units="pt"
     showgrid="false"
     fit-margin-top="0"
     fit-margin-left="0"
     fit-margin-right="0"
     fit-margin-bottom="0"
     inkscape:zoom="0.60321429"
     inkscape:cx="342.33274"
     inkscape:cy="314.15038"
     inkscape:window-width="1312"
     inkscape:window-height="855"
     inkscape:window-x="0"
     inkscape:window-y="23"
     inkscape:window-maximized="0"
     inkscape:current-layer="svg9161" />
  <path
     d="m 310.90519,0.01369868 c -13.609,0.27344 -26.773,4.90230002 -37.559,13.21100032 -1.5977,1.2383 -2.25,3.3438 -1.6406,5.2656 0.61328,1.9258 2.3594,3.2695 4.375,3.3594 15.918,0.69531 31.309,5.8945 44.387,14.992 -19.086,0.72266 -37.898,-4.7188 -53.648,-15.516 -1.543,-1.0742 -3.5703,-1.1523 -5.1914,-0.20312 -1.6211,0.95312 -2.543,2.7578 -2.3633,4.6289 1.7422,19.086 11.988,36.371 27.898,47.059 15.91,10.688 35.785,13.633 54.113,8.0273 2.1914,-0.66797 4.5469,-0.52734 6.6406,0.39453 7.4219,3.2539 15.68,4.0742 23.594,2.3516 -0.17188,5.8945 1.957,11.621 5.9336,15.973 -6.9844,7.875001 -12.391,17.016001 -15.93,26.926001 -8.2422,-3.875 -17.242,-5.8867 -26.355,-5.8867 h -51.203 l 6.5703,-14.488 c 3.6953,0.50781 7.1992,-1.7773 8.2266,-5.3594 1.0312,-3.585901 -0.73047,-7.378901 -4.1328,-8.906201 -3.3984,-1.5312 -7.4062,-0.32812 -9.4023,2.8203 -2,3.1484 -1.3789,7.285201 1.4531,9.710901 l -7.2578,16.086 v 0.004 c -2.8984,-0.31641 -5.7109,-1.1836 -8.2812,-2.5586 -9.1016,-4.8711 -20.039,-4.8711 -29.141,0 -2.5781,1.3789 -5.3984,2.2617 -8.3047,2.6016 l -7.2578,-16.09 c 2.8281,-2.4297 3.4414,-6.570301 1.4336,-9.714801 -2.0039,-3.1445 -6.0195,-4.3359 -9.4141,-2.7969 -3.3984,1.5391 -5.1484,5.3438 -4.1055,8.921901 1.043,3.582 4.5586,5.8516 8.2539,5.3281 l 6.5273,14.488 h -51.207 c -9.7969,0 -19.453,2.3242 -28.18,6.7773 -0.29297,0.14453 -0.63281,0.16016 -0.93359,0.043 -0.30469,-0.11719 -0.54297,-0.35547 -0.66406,-0.66016 -2.7969,-7.0273 -6.7812,-13.527 -11.777,-19.211 2.9883,-3.3945 4.6328,-7.757801 4.6328,-12.277001 6.043,1.207 12.309,0.59375 18.004,-1.7578 2.0156,-0.83594 4.25,-0.96094 6.3438,-0.35547 14.719,4.2695 30.57,1.7383 43.23,-6.8984 12.656,-8.6367 20.797,-22.473 22.191,-37.734 0.14844,-1.6445 -0.66406,-3.2305 -2.0898,-4.0703 -1.4258,-0.83594 -3.2031,-0.78125 -4.5742,0.14844 -12.125,8.3086 -26.535,12.629 -41.23,12.367 10.141,-6.7383 21.926,-10.578 34.09,-11.113 1.7969,-0.0781 3.3516,-1.2734 3.8906,-2.9883 0.54297,-1.7148 -0.0469,-3.582 -1.4727,-4.6797 -9.0781,-6.9805 -20.23,-10.727 -31.688,-10.641 -11.453,0.0859 -22.547,4.0039 -31.52,11.121 -1.1719,0.92969 -2.5508,1.5703 -4.0156,1.8711 -10.555,2.1953 -19.785,8.5352 -25.625,17.594 -8.2383,4.7539 -15.039,11.641 -19.688,19.941 -4.6445,8.2969 -6.964802,17.695 -6.7148,27.199001 2.9414,17.332 11.336,33.273 23.961,45.504 0.46094,0.30859 0.64453,0.89844 0.43359,1.4141 -3.7344,6.5273 -6.2461,13.68 -7.418,21.105 -0.0508,0.3125 -0.22656,0.58594 -0.48438,0.76953 -0.25781,0.17969 -0.57812,0.24609 -0.88672,0.1875 -5.1875,-0.94141 -10.43,-1.5352 -15.695,-1.7812 -2.171902,-0.10156 -4.328102,0.42188 -6.210902,1.5078 -12.418,-14.344 -21.754,-31.09 -27.426,-49.195 -0.66797,-2.1172 -1.9492,-3.9883 -3.6758,-5.3867 3.1055,-14.418 8.5938,-28.215001 16.25,-40.820001 0.80469,-1.3242 0.64453,-3.0156 -0.39453,-4.1641 -1.0352,-1.1484 -2.707,-1.4805 -4.1016,-0.8125 -8.6328,4.0625 -15.812,10.676 -20.566,18.945 -4.7539,8.273401 -6.8555,17.805001 -6.0195,27.309001 -2.4727,2.293 -3.7969,5.5742 -3.6016,8.9453 0.73828,13.391 5.4219,26.262 13.457,37 8.0351,10.738 19.062,18.863 31.699,23.355 0.86328,1.6484 2.1172,3.0547 3.6523,4.1055 7.484402,5.0547 16.230002,7.9219 25.258002,8.2852 0.48828,0.0117 0.91797,0.32812 1.0742,0.79297 0.24219,0.78125 0.5,1.5586 0.77344,2.3281 0.15234,0.40625 0.0703,0.86328 -0.21484,1.1914 -0.28906,0.32422 -0.73437,0.46484 -1.1562,0.35938 -3.3594,-0.80078 -6.7773,-1.3438 -10.223,-1.6172 -2.3203,-0.18359 -4.6406,0.35938 -6.6406,1.5508 -20.125002,-13 -45.109002,-16.043 -67.770002,-8.2578 -3.5469,1.2227 -6.2148,4.1758 -7.0742,7.8242 -8.5156,3.8047 -15.664,10.113 -20.4959995,18.09 -4.832,7.9766 -7.11720003,17.238 -6.54300003,26.543 0.09375,1.5625 1.21480003,2.8672 2.74220003,3.2031 1.5273,0.33203 3.0898,-0.38672 3.8281,-1.7656 6.7968995,-12.816 16.0899995,-24.145 27.3359995,-33.312 1.6992,0.625 3.5273,0.82422 5.3164,0.57031 19.465,-2.8086 39.277,-2.1445 58.508,1.9648 1.0117,1.918 2.558602,3.5039 4.449202,4.5625 12.172,6.7852 25.82,10.484 39.75,10.77 0.30078,0.0117 0.58594,0.13672 0.79688,0.35156 1.2617,1.293 2.5469,2.5625 3.8555,3.8125 0.38281,0.36328 0.47656,0.9375 0.22266,1.4023 -0.25,0.46484 -0.78516,0.70312 -1.2969,0.58203 -13.047,-3.4023 -26.324,-5.8359 -39.727,-7.2812 -1.6055,-0.17188 -3.2266,-0.0156 -4.7695,0.45312 -12.902002,-2.3008 -26.203002,0.25 -37.332002,7.168 -11.133,6.918 -19.309,17.715 -22.957,30.301 -0.73438,2.5586 -0.53125,5.293 0.57422,7.7148 -1.418,9.0938 -0.23438,18.402 3.4062,26.855 3.64058,8.453 9.5938,15.707 17.176,20.926 1.2773,0.86719 2.9727,0.79688 4.1719,-0.17578 1.1992,-0.97266 1.6172,-2.6172 1.0312,-4.043 -5.168,-12.383 -8.3438,-25.508 -9.4023,-38.883 0.78125,-0.52344 1.4961,-1.1445 2.1211,-1.8477 10.305,-11.52 22.742,-20.934 36.625,-27.727 1.3281,1.2188 2.9102,2.1211 4.632802,2.6445 25.211,7.6562 51.793,9.7031 77.879,6 0.25781,-0.0391 0.51953,0.008 0.75,0.13281 2.0508,1.1328 4.1289,2.2227 6.2266,3.2656 0.47656,0.23047 0.73438,0.75391 0.63281,1.2695 -0.10156,0.51953 -0.53906,0.90625 -1.0625,0.94141 -19.34,1.4414 -38.73,2.0078 -58.121,1.6914 -2.0273,-0.0391 -4.0352,0.39844 -5.8633,1.2773 -9.6094,0.94141 -17.996,6.9219 -22.020002,15.699 -2.7539,7.8828 -2.6172,16.484 0.38281,24.277 3.000002,7.7891 8.671902,14.262 16.000002,18.258 1.3516,0.74609 3.0312,0.51953 4.1367,-0.55859 1.1016,-1.0781 1.3711,-2.75 0.65625,-4.1211 -4.9492,-9.6562 -5.1602,-21.059 -0.57422,-30.895 1.9336,1.2422 4.1641,1.9531 6.457,2.0547 29.047,1.3242 57.852,-5.7852 82.945,-20.469 30.801,9.5508 63.766,9.5508 94.562,0 25.102,14.688 53.918,21.797 82.969,20.469 2.2969,-0.10156 4.5234,-0.8125 6.457,-2.0547 4.5586,9.7578 4.3906,21.07 -0.45312,30.691 -0.83203,1.3516 -0.64453,3.0977 0.45703,4.2422 1.0977,1.1484 2.832,1.4102 4.2188,0.64062 h -0.43359 0.004 c 7.3281,-3.9961 13,-10.469 16,-18.258 3,-7.793 3.1367,-16.395 0.38281,-24.277 -4.0195,-8.7734 -12.395,-14.75 -22,-15.699 -1.8203,-0.87109 -3.8203,-1.3125 -5.8398,-1.2773 -19.402,0.31641 -38.812,-0.24609 -58.164,-1.6875 -0.52734,-0.0391 -0.96094,-0.42578 -1.0625,-0.94141 -0.10156,-0.51953 0.15625,-1.0391 0.62891,-1.2734 2.1094,-1.043 4.1914,-2.1289 6.2539,-3.2617 0.23047,-0.12891 0.49609,-0.17578 0.75781,-0.13281 26.078,3.6992 52.652,1.6484 77.859,-6.0039 1.7383,-0.51562 3.3359,-1.418 4.6758,-2.6445 13.875,6.793 26.305,16.211 36.602,27.727 0.62109,0.69922 1.3242,1.3203 2.0977,1.8477 -1.0664,13.375 -4.2461,26.5 -9.4219,38.883 -0.58984,1.4258 -0.17578,3.0742 1.0273,4.0508 1.1992,0.97266 2.8984,1.043 4.1758,0.17188 7.5781,-5.2188 13.531,-12.473 17.176,-20.926 3.6406,-8.4531 4.8203,-17.762 3.4062,-26.855 1.1016,-2.4219 1.3047,-5.1562 0.57031,-7.7148 -3.6445,-12.582 -11.82,-23.375 -22.945,-30.293 -11.125,-6.918 -24.418,-9.4727 -37.316,-7.1758 -1.5508,-0.47266 -3.1836,-0.62891 -4.793,-0.45312 -13.398,1.4453 -26.668,3.8789 -39.707,7.2773 -0.51562,0.14062 -1.0625,-0.0898 -1.3242,-0.5625 -0.25781,-0.46875 -0.16406,-1.0547 0.22656,-1.4219 1.3164,-1.2461 2.6094,-2.5156 3.8828,-3.8086 0.21875,-0.22656 0.52344,-0.35547 0.83984,-0.35156 13.922,-0.28906 27.562,-3.9883 39.727,-10.773 1.75,-0.97266 3.2109,-2.4023 4.2227,-4.1289 0.17188,-0.29297 0.46094,-0.49219 0.79297,-0.55078 19.062,-4.0078 38.68,-4.6328 57.961,-1.8477 1.5938,0.23438 3.2227,0.11328 4.7656,-0.35547 0.36719,-0.10156 0.75781,-0.0195 1.0547,0.22266 11.012,9.0898 20.121,20.262 26.812,32.879 0.73438,1.375 2.293,2.0977 3.8164,1.7695 1.5273,-0.32812 2.6484,-1.6289 2.7539,-3.1836 0.56641,-9.2109 -1.6602,-18.379 -6.3906,-26.305 -4.7305,-7.9219 -11.746,-14.23 -20.125,-18.102 -0.30078,-0.14062 -0.52344,-0.40234 -0.61719,-0.72266 -0.98437,-3.4297 -3.582,-6.168 -6.9609,-7.3242 -22.434,-7.7148 -47.156,-4.8203 -67.199,7.8711 -0.36719,0.21484 -0.82422,0.21484 -1.1875,0 -1.8672,-0.97266 -3.9727,-1.3984 -6.0703,-1.2305 -3.4453,0.27344 -6.8633,0.81641 -10.223,1.6211 -0.42188,0.10156 -0.86719,-0.0391 -1.1562,-0.36328 -0.28516,-0.32812 -0.36719,-0.78516 -0.21484,-1.1914 0.28125,-0.76172 0.54688,-1.5273 0.79688,-2.3008 0.16016,-0.47266 0.60156,-0.78906 1.0977,-0.79297 9.0273,-0.36719 17.773,-3.2461 25.262,-8.3047 1.5391,-1.043 2.8008,-2.4453 3.6719,-4.0859 12.633,-4.5 23.652,-12.629 31.68,-23.371 8.0234,-10.742 12.699,-23.617 13.434,-37.008 0.18359,-3.3594 -1.1367,-6.6328 -3.6055,-8.9219 0.83984,-9.5 -1.2578,-19.031 -6.0078,-27.301001 -4.75,-8.2734 -11.926,-14.887 -20.555,-18.953 -1.3945,-0.64844 -3.0469,-0.3125 -4.0781,0.83203 -1.0273,1.1445 -1.1875,2.8281 -0.39453,4.1445 7.6406,12.609 13.113,26.406001 16.203,40.824001 -1.7266,1.3945 -3.0039,3.2656 -3.6758,5.3828 -5.5742,17.797 -14.695,34.285 -26.812,48.465 -0.33984,0.41797 -0.92578,0.54688 -1.4141,0.30859 -1.6914,-0.80469 -3.5547,-1.1836 -5.4297,-1.0977 -5.668,0.26562 -11.312,0.93359 -16.887,2.0078 -0.95703,-6.9258 -3.0781,-13.637 -6.2734,-19.852 16.559,-15.371 27.586,-35.777 31.375,-58.051001 0.31641,-11.801 -2.5664,-23.469 -8.3398,-33.77 -5.7695,-10.301 -14.219,-18.848 -24.449,-24.738 -7.3398,-11.43 -19.027,-19.367 -32.359,-21.973 -1.5195,-0.30078 -2.9453,-0.96875 -4.1523,-1.9414 -11.664,-9.4453003 -26.293,-14.46500032 -41.301,-14.16800032 z m 0.11719,4.17580002 c 14.004,-0.26562 27.652,4.418 38.539,13.2340003 1.7578,1.4141 3.832,2.3789 6.0469,2.8047 12.262,2.3984 23.004,9.7227 29.711,20.262 1.7578,7 1.5117,14.348 -0.70313,21.215 -2.2148,6.8672 -6.3125,12.973 -11.824,17.625 -7.6914,2.2266 -15.918,1.6875 -23.254,-1.5273 -3.0195,-1.332 -6.4219,-1.5352 -9.582,-0.57422 h 0.11719 c -17.113,5.2266 -35.668,2.4648 -50.52,-7.5156 -14.852,-9.9805 -24.414,-26.121 -26.039,-43.938 -0.0312,-0.24609 0.0859,-0.48828 0.30078,-0.61328 0.21484,-0.125 0.48438,-0.10938 0.67969,0.0391 16.512,11.316 36.227,17.012 56.227,16.246 1.9102,-0.0781 3.5586,-1.3711 4.0898,-3.2109 0.52734,-1.8359 -0.18359,-3.8086 -1.7617,-4.8906 -13.742,-9.5508 -29.918,-15.004 -46.641,-15.723 -0.28516,0.043 -0.55859,-0.12109 -0.66016,-0.38672 -0.10157,-0.26563 -0.008,-0.57031 0.22656,-0.73047 10.074,-7.7539003 22.367,-12.0700003 35.074,-12.3240003 z m -125.27,27.5860003 c 11.094,-0.48047 22.004,2.9688 30.805,9.7461 -12.93,0.5625 -25.457,4.6406 -36.238,11.797 -1.625,1.0703 -2.3633,3.0781 -1.8203,4.9492 0.54688,1.8711 2.2461,3.168 4.1953,3.1953 15.582,0.28906 30.863,-4.2891 43.719,-13.098 -1.2773,14.016 -8.75,26.727 -20.379,34.656 -11.625,7.9297 -26.188,10.25 -39.703,6.3281 -3.0039,-0.87109 -6.2109,-0.69531 -9.1016,0.5 -5.6289,2.3281 -11.879,2.6836 -17.73,1.0078 -4.3164,-3.668 -7.5195,-8.4688 -9.25,-13.859 -1.7344,-5.3906 -1.9297,-11.156 -0.5625,-16.648 5.2305,-8.1836 13.539,-13.91 23.047,-15.883 2.1016,-0.44531 4.0703,-1.375 5.75,-2.7188 7.7812,-6.1797 17.316,-9.7422 27.246,-10.176 z m 204.5,12.184 v 0.004 c 16.305,10.938 26.387,29.027 27.109,48.648 -5.8828,-3.1406 -12.582,-4.4023 -19.203,-3.625 -6.6211,0.78125 -12.844,3.5664 -17.836,7.9844 -3.5586,-3.9961 -5.2148,-9.3398 -4.5391,-14.648 11.039,-9.4883 16.492,-23.941 14.469,-38.359 z m -265.36,20.059 v 0.004 c -1.2656,11.32 3.1211,22.543 11.73,30.004 0.45312,3.9453 -0.74609,7.902301 -3.3086,10.930001 -3.9648,-3.3945 -8.8398,-5.546901 -14.016,-6.187501 -5.1797,-0.64453 -10.434,0.25391 -15.102,2.582001 0.77344,-14.969001 8.4102,-28.742001 20.695,-37.332001 z m -51.184002,14.488 v 0.004 c -7.0352,12.098 -12.168,25.203001 -15.219,38.859001 -2.2539,-0.67187 -4.6641,-0.625 -6.8906,0.13281 -0.31641,-7.9062 1.5898,-15.742 5.4961,-22.621001 3.9102,-6.8789 9.6641,-12.527 16.613,-16.309 z m 365.580002,0 v 0.004 c 6.957,3.7773 12.715,9.4219 16.629,16.301 3.9102,6.882801 5.8203,14.719001 5.5078,22.629001 -2.2422,-0.76953 -4.668,-0.81641 -6.9375,-0.13281 -3.0469,-13.656 -8.1719,-26.762001 -15.199,-38.863001 z m -38.359,14.469 c 5.7344,-0.20703 11.398,1.3203 16.25,4.3867 -3.8086,20.465001 -14,39.195001 -29.117,53.508001 -5.5742,-9.1992 -13.445,-16.789 -22.84,-22.02 3.5547,-10.207 9.1953,-19.562 16.562,-27.473 5.0859,-5.128901 11.93,-8.128901 19.145,-8.398401 z m -285.14,9.789101 v 0.004 c 6.043,-0.0703 11.852,2.3086 16.109,6.5938 5.6914,6.1211 10.086,13.332 12.918,21.199 -7.0898,4.4688 -13.199,10.328 -17.961,17.227 -11.625,-11.25 -19.48,-25.82 -22.496,-41.711 3.4414,-2.1172 7.3906,-3.2578 11.43,-3.3086 z m 140.88,16.086 v 0.004 c 4.3242,0.0273 8.5781,1.1094 12.391,3.1484 3.918,2.0977 8.2891,3.1953 12.73,3.1953 h 53.262 c 14.32,-0.008 28.133,5.3008 38.754,14.906 10.621,9.6016 17.297,22.809 18.73,37.055 1.4336,14.25 -2.4805,28.52 -10.98,40.043 -29.297,39.734 -75.727,63.188 -125.09,63.188 -49.363,0 -95.793,-23.453 -125.09,-63.188 -8.4961,-11.52 -12.41,-25.785 -10.984,-40.027 1.4297,-14.242 8.0977,-27.449 18.711,-37.051 10.613,-9.6055 24.418,-14.926 38.73,-14.926 h 53.078 c 4.5156,-0.0117 8.957,-1.1289 12.938,-3.2617 3.9375,-2.1055 8.3398,-3.1875 12.801,-3.1484 z m 201.29,2.1211 v 0.004 c 1.9414,0.0352 3.7852,0.86719 5.0977,2.2969 1.3164,1.4336 1.9883,3.3398 1.8594,5.2773 -0.66406,12.074 -4.7461,23.711 -11.766,33.555 -7.0195,9.8438 -16.695,17.492 -27.891,22.055 0.0703,-2.7109 -0.82812,-5.3555 -2.5352,-7.4609 12.801,-14.77 22.422,-32.012 28.273,-50.656 0.91797,-3.0625 3.7656,-5.1328 6.9609,-5.0664 z m -403.000002,0.13281 -0.004,0.004 c 3.1914,-0.11328 6.0625,1.9102 7.0312,4.9492 5.8477,18.656 15.469,35.906 28.27,50.684 -1.6992,2.0977 -2.5977,4.7344 -2.5312,7.4375 -11.191,-4.5703 -20.852,-12.223 -27.863,-22.066 -7.0117,-9.8438 -11.086,-21.477 -11.75,-33.543 -0.0937,-1.9023 0.57422,-3.7617 1.8633,-5.1641 1.2852,-1.4023 3.082,-2.2305 4.9805,-2.2969 z m 43.789,55.586 v 0.004 c 0.23438,-0.0117 0.47266,-0.0117 0.71094,0 5.578102,0.26172 11.133002,0.93359 16.613002,2.0078 -0.42969,6.2539 0.0937,12.543 1.5508,18.641 -8.0547,-0.42578 -15.84,-3.0352 -22.523002,-7.5508 -2.5547,-1.7266 -3.7188,-4.8945 -2.8906,-7.8672 0.82812,-2.9688 3.4648,-5.0781 6.543,-5.2305 z m 314.800002,0 v 0.004 c 3.207,-0.14453 6.1172,1.8594 7.125,4.9062 1.0078,3.0468 -0.13281,6.3945 -2.7891,8.1914 -6.6758,4.5117 -14.453,7.1211 -22.5,7.5508 1.4414,-6.1016 1.9492,-12.387 1.5078,-18.641 5.4922,-1.0781 11.062,-1.7461 16.656,-2.0078 z m -356.610002,21.223 v 0.004 c 14.621,-0.46094 29.051,3.4336 41.461,11.18 -1.5859,2.1172 -2.3672,4.7266 -2.2148,7.3711 -19.035,-3.8125 -38.582,-4.3477 -57.797,-1.5742 -3.4414,0.51562 -6.707,-1.6758 -7.5312,-5.0547 -0.82422,-3.3789 1.0664,-6.832 4.3594,-7.9531 7,-2.4023 14.324,-3.7422 21.723,-3.9688 z m 399.900002,0 -0.004,0.004 c 7.1289,0.28906 14.176,1.6133 20.926,3.9219 3.2656,1.1328 5.1406,4.5586 4.332,7.9219 -0.80859,3.3594 -4.0352,5.5625 -7.457,5.0859 -19.215,-2.7695 -38.766,-2.2383 -57.801,1.5742 0.15234,-2.6406 -0.62891,-5.25 -2.2148,-7.3711 12.637,-7.8789 27.359,-11.762 42.238,-11.133 z m -51.066,10.816 h -0.004 c 3.1719,0.0586 5.9102,2.2422 6.6758,5.3203 0.76172,3.0781 -0.63672,6.2891 -3.4141,7.8242 -10.469,5.8438 -22.105,9.2891 -34.066,10.086 3.5391,-3.9219 6.8828,-8.0195 10.016,-12.277 1.8281,-2.4688 3.4688,-5.0703 4.9062,-7.7812 4.9102,-1.6719 10.004,-2.7305 15.176,-3.1484 0.23828,-0.0117 0.47266,-0.0117 0.71094,0 z m -298.63,0 h -0.004 c 0.26562,-0.0156 0.53125,-0.0156 0.79688,0 5.168,0.41797 10.266,1.4766 15.172,3.1484 1.4336,2.7109 3.0664,5.3125 4.8828,7.7812 3.1367,4.2578 6.4766,8.3516 10.02,12.277 -11.965,-0.79688 -23.602,-4.2422 -34.07,-10.086 -2.7422,-1.5391 -4.125002,-4.7148 -3.3789,-7.7734 0.74219,-3.0547 3.4297,-5.2422 6.5742,-5.3477 z m -80.457002,1.6445 h -0.004 c 0.44531,2.1914 1.5547,4.1875 3.1719,5.7305 -10.496,8.7852 -19.301,19.41 -25.9919965,31.352 0.0078,-7.6875 2.1445,-15.219 6.1718965,-21.766 4.0273,-6.543 9.7891,-11.844 16.648,-15.316 z m 459.610002,0 h -0.004 c 6.8633,3.4688 12.629,8.7695 16.66,15.312 4.0312,6.5469 6.1719,14.082 6.1797,21.77 -6.6953,-11.945 -15.512,-22.566 -26.012,-31.352 1.6172,-1.543 2.7266,-3.5391 3.1719,-5.7305 z m -395.930002,28.637 -0.004,0.004 c 1.6289,-0.0391 3.2578,0.004 4.8828,0.12891 -3.25,3.6836 -3.9258,8.9688 -1.7109,13.352 -14.078,7.0039 -26.691,16.621 -37.172,28.34 -2.1719,2.4062 -5.7109,2.9961 -8.5469,1.4297 -2.832,-1.5703 -4.207,-4.8867 -3.3203,-8 2.8945,-9.9961 8.9023,-18.809 17.152,-25.148 8.2497,-6.339 18.309,-9.8828 28.715,-10.109 z m 332.210002,0 -0.004,0.004 c 10.41,0.21484 20.48,3.75 28.742,10.094 8.2578,6.3398 14.273,15.156 17.168,25.16 0.89063,3.1133 -0.48828,6.4297 -3.3203,8 -2.83202,1.5703 -6.375,0.97656 -8.543,-1.4297 -10.488,-11.719 -23.113,-21.34 -37.195,-28.34 2.2148,-4.3828 1.5352,-9.668 -1.7109,-13.348 1.6172,-0.125 3.2383,-0.17187 4.8594,-0.13281 z m -318.66,0.30859 -0.004,0.004 c 0.12891,-0.004 0.25781,-0.004 0.38672,0 0.26172,-0.0156 0.52344,-0.0156 0.78125,0 17.93,1.9375 35.621,5.668 52.805,11.133 4.8477,3.8047 9.9141,7.3242 15.172,10.543 -23.879,2.7031 -48.059,0.49609 -71.055,-6.4805 -3.640602,-1.0938 -5.960902,-4.6602 -5.484402,-8.4297 0.47266,-3.7734 3.601602,-6.6523 7.398402,-6.8125 z m 304.77,0 v 0.004 c 3.8672,-0.0195 7.1602,2.8008 7.7383,6.625 0.57812,3.8203 -1.7344,7.4922 -5.4336,8.6172 -23.012,6.9805 -47.211,9.1875 -71.105,6.4805 5.2656,-3.2188 10.34,-6.7383 15.199,-10.543 17.191,-5.4688 34.887,-9.1992 52.824,-11.137 0.25781,-0.0117 0.51562,-0.0117 0.77344,0 z m -210.96,34.043 v 0.004 c 2.0078,0.79297 4.0312,1.5469 6.0703,2.2578 -23.629,13.027 -50.398,19.273 -77.355,18.051 -2.3359,-0.0703 -4.5547,-1.0664 -6.1562,-2.7695 -1.6016,-1.7031 -2.4609,-3.9766 -2.3828,-6.3164 0.0742,-2.3359 1.0781,-4.5508 2.7891,-6.1445 1.7109,-1.5977 3.9844,-2.4492 6.3242,-2.3633 23.602,0.38672 47.211,-0.51953 70.715,-2.7148 z m 117.52,0 v 0.004 c 23.512,2.1992 47.129,3.1055 70.738,2.7148 4.8477,-0.125 8.8828,3.6914 9.0273,8.5352 0.14453,4.8477 -3.6562,8.8984 -8.5,9.0586 -26.965,1.2305 -53.742,-5.0156 -77.379,-18.051 2.0469,-0.71094 4.0781,-1.4609 6.0938,-2.2578 z m -199.96,5.5234 0.004,0.004 c -2.3359,4.5039 -1.8359,9.957 1.2773,13.965 -5.3359,10.512 -5.6797,22.863 -0.93359,33.656 -5.8203,-3.75 -10.215,-9.3359 -12.492,-15.875 -2.2734,-6.5391 -2.293,-13.648 -0.0586,-20.199 2.4609,-5.2578 6.8242,-9.3828 12.207,-11.547 z m 282.38,0 0.004,0.004 c 5.3828,2.1641 9.7461,6.2891 12.207,11.547 2.2383,6.5469 2.2266,13.652 -0.0391,20.191 -2.2656,6.5352 -6.6523,12.129 -12.465,15.883 4.7305,-10.801 4.3711,-23.152 -0.98047,-33.656 3.1133,-4.0078 3.6133,-9.4609 1.2773,-13.965 z m -352.910002,6.4336 0.004,0.004 c 2.4844,1.7539 5.5742,2.4219 8.5586,1.8477 1.125,12.523 4.0469,24.82 8.6719,36.512 -11.777,-9.1172 -18.238,-23.5 -17.23,-38.359 z m 423.490002,0 0.004,0.004 c 1.0039,14.863 -5.4648,29.246 -17.25,38.359 4.6328,-11.691 7.5625,-23.988 8.6953,-36.512 2.9844,0.57422 6.0742,-0.0899 8.5547,-1.8477 z"
     id="path9159" />
</svg>
