<?xml version="1.0" encoding="UTF-8" standalone="no"?>
<svg
   width="522.5094pt"
   height="363.78107pt"
   version="1.1"
   viewBox="0 0 522.5094 363.78107"
   id="svg2829"
   sodipodi:docname="noun-dolphin-1684932.svg"
   inkscape:version="1.1.1 (c3084ef, 2021-09-22)"
   xmlns:inkscape="http://www.inkscape.org/namespaces/inkscape"
   xmlns:sodipodi="http://sodipodi.sourceforge.net/DTD/sodipodi-0.dtd"
   xmlns="http://www.w3.org/2000/svg"
   xmlns:svg="http://www.w3.org/2000/svg">
  <sodipodi:namedview
     id="namedview2831"
     pagecolor="#ffffff"
     bordercolor="#999999"
     borderopacity="1"
     inkscape:pageshadow="0"
     inkscape:pageopacity="0"
     inkscape:pagecheckerboard="0"
     inkscape:document-units="pt"
     showgrid="false"
     fit-margin-top="0"
     fit-margin-left="0"
     fit-margin-right="0"
     fit-margin-bottom="0"
     inkscape:zoom="0.79821429"
     inkscape:cx="-26.308725"
     inkscape:cy="351.4094"
     inkscape:window-width="1739"
     inkscape:window-height="969"
     inkscape:window-x="0"
     inkscape:window-y="23"
     inkscape:window-maximized="0"
     inkscape:current-layer="g2827" />
  <defs
     id="defs2739">
    <symbol
       id="w"
       overflow="visible">
      <path
         d="M 0.03125,0 H 0.015625 0 V -0.015625 -0.03125 H 0.015625 0.03125 0.015625 V -0.015625 0 H 0.03125 v -0.015625 z"
         id="path2670" />
    </symbol>
    <symbol
       id="e"
       overflow="visible">
      <path
         d="M 0.015625,-0.015625 V 0 H 0 v -0.03125 h 0.015625 v 0.015625 -0.015625 z"
         id="path2673" />
    </symbol>
    <symbol
       id="b"
       overflow="visible">
      <path
         d="M 0.03125,-0.015625 H 0.015625 V 0 C 0.0234375,0 0.03125,-0.0039062 0.03125,-0.015625 V 0 H 0.015625 0 V -0.015625 L 0.015625,-0.03125 v 0.015625 z"
         id="path2676" />
    </symbol>
    <symbol
       id="a"
       overflow="visible">
      <path
         d="M 0.015625,-0.015625 V 0 Z m 0.015625,0 V 0 H 0.015625 0 V -0.015625 H 0.015625 0 V -0.03125 h 0.015625 v 0.015625 z"
         id="path2679" />
    </symbol>
    <symbol
       id="d"
       overflow="visible">
      <path
         d="M 0.015625,-0.03125 V -0.015625 0 H 0 V -0.015625 -0.03125 Z"
         id="path2682" />
    </symbol>
    <symbol
       id="l"
       overflow="visible">
      <path
         d="M 0.015625,-0.015625 V -0.03125 H 0.03125 V 0 H 0.015625 0 V -0.015625 L 0.015625,-0.03125 Z m 0,0.015625 v -0.015625 z"
         id="path2685" />
    </symbol>
    <symbol
       id="k"
       overflow="visible">
      <path
         d="m 0.015625,0 v -0.015625 z m 0,-0.015625 V -0.03125 c 0.0078125,0 0.015625,0.0078125 0.015625,0.015625 V 0 H 0.015625 0 v -0.03125 h 0.015625 z"
         id="path2688" />
    </symbol>
    <symbol
       id="j"
       overflow="visible">
      <path
         d="M 0,-0.03125 H 0.015625 V -0.015625 -0.03125 H 0.03125 L 0.015625,0 V 0.015625 H 0 V 0 h 0.015625 z"
         id="path2691" />
    </symbol>
    <symbol
       id="i"
       overflow="visible">
      <path
         d="M 0.015625,-0.03125 V -0.015625 0 H 0.03125 v -0.015625 c 0,-0.0078125 -0.0078125,-0.015625 -0.015625,-0.015625 z m 0,0 H 0.03125 V -0.015625 0 H 0.015625 0 V -0.015625 -0.03125 Z"
         id="path2694" />
    </symbol>
    <symbol
       id="v"
       overflow="visible">
      <path
         d="M 0,-0.03125 H 0.015625 V 0 H 0 Z"
         id="path2697" />
    </symbol>
    <symbol
       id="f"
       overflow="visible">
      <path
         d="M 0.03125,-0.015625 V 0 H 0.015625 V -0.015625 0 H 0 v -0.03125 h 0.015625 v 0.015625 -0.015625 c 0.0078125,0 0.015625,0.0078125 0.015625,0.015625 z"
         id="path2700" />
    </symbol>
    <symbol
       id="h"
       overflow="visible">
      <path
         d="M 0,-0.03125 H 0.015625 0.03125 v 0.015625 H 0.015625 V 0 H 0 Z m 0.015625,0 v 0.015625 z"
         id="path2703" />
    </symbol>
    <symbol
       id="g"
       overflow="visible">
      <path
         d="m 0.03125,-0.03125 v 0.015625 H 0.015625 C 0.0234375,-0.015625 0.03125,-0.0078125 0.03125,0 H 0.015625 0 0.015625 V -0.015625 H 0 L 0.015625,-0.03125 Z"
         id="path2706" />
    </symbol>
    <symbol
       id="c"
       overflow="visible">
      <path
         d="M 0.015625,-0.015625 V 0 Z m 0,-0.015625 v 0.015625 H 0.03125 C 0.03125,-0.003906 0.0234375,0 0.015625,0 H 0 v -0.015625 z"
         id="path2709" />
    </symbol>
    <symbol
       id="u"
       overflow="visible">
      <path
         d="M 0,-0.03125 H 0.015625 V -0.015625 -0.03125 H 0.03125 L 0.015625,0 Z"
         id="path2712" />
    </symbol>
    <symbol
       id="t"
       overflow="visible">
      <path
         d="M 0,-0.03125 H 0.015625 V -0.015625 -0.03125 H 0.03125 L 0.015625,-0.015625 0.03125,0 H 0.015625 V -0.015625 0 H 0 Z"
         id="path2715" />
    </symbol>
    <symbol
       id="s"
       overflow="visible">
      <path
         d="M 0.015625,-0.03125 V 0 H 0 v -0.03125 z"
         id="path2718" />
    </symbol>
    <symbol
       id="r"
       overflow="visible">
      <path
         d="M 0.03125,-0.015625 V -0.03125 c 0.0078125,0 0.015625,0.0078125 0.015625,0.015625 V 0 H 0.03125 V -0.015625 0 H 0.015625 V -0.015625 0 H 0 v -0.03125 h 0.015625 v 0.015625 -0.015625 0.015625 z"
         id="path2721" />
    </symbol>
    <symbol
       id="q"
       overflow="visible">
      <path
         d="M 0.03125,-0.015625 V 0 H 0.015625 V -0.015625 0 H 0 v -0.03125 h 0.015625 v 0.015625 -0.015625 c 0.0078125,0 0.015625,0.0078125 0.015625,0.015625 z"
         id="path2724" />
    </symbol>
    <symbol
       id="p"
       overflow="visible">
      <path
         d="M 0,-0.03125 H 0.015625 L 0.03125,-0.015625 V -0.03125 0 L 0.015625,-0.015625 V 0 H 0 Z"
         id="path2727" />
    </symbol>
    <symbol
       id="o"
       overflow="visible">
      <path
         d="M 0,-0.015625 V -0.03125 H 0.015625 V -0.015625 0 -0.015625 -0.03125 H 0.03125 V 0 H 0.015625 0 Z"
         id="path2730" />
    </symbol>
    <symbol
       id="n"
       overflow="visible">
      <path
         d="M 0,-0.03125 H 0.015625 V 0 H 0 v 0.015625 z m 0,0 h 0.015625 z"
         id="path2733" />
    </symbol>
    <symbol
       id="m"
       overflow="visible">
      <path
         d="m 0.03125,-0.03125 v 0.015625 H 0.015625 V 0 H 0.03125 0.015625 0 V -0.015625 L 0.015625,-0.03125 Z"
         id="path2736" />
    </symbol>
  </defs>
  <g
     id="g2827"
     transform="translate(-88.749951,-98.079808)">
    <path
       d="m 447.95,387.18 c 0.21484,-0.77344 0.66406,-1.4648 1.3086,-1.9688 8.4297,-12.816 15.84,-27.516 22.25,-45.004 0.71094,-1.9336 2.8477,-2.9219 4.7891,-2.2227 1.9336,0.71094 2.9219,2.8477 2.2227,4.7891 -5.1602,14.102 -10.984,26.469 -17.453,37.539 22.914,-10.238 48.777,-28.16 70.578,-53.75 19.918,-23.371 36.418,-53.145 44.184,-89.312 l 0.0195,-0.0547 c 3.0039,-13.031 3.5742,-24.406 4.1328,-35.785 0.31641,-6.4219 0.64453,-12.844 1.3828,-19.543 1.0547,-9.5742 4.9922,-18.844 9.6211,-29.727 4.1992,-9.875 8.9805,-21.121 12.523,-34.992 0.59766,-4.0977 0.30859,-6.9336 -0.57031,-8.7461 -0.48438,-1 -1.1836,-1.6133 -2.0078,-1.9141 -1.0078,-0.375 -2.2773,-0.36328 -3.668,-0.0469 -0.91406,0.20703 -1.8477,0.53125 -2.7812,0.96094 -0.0859,0.0391 -0.16016,0.0859 -0.24219,0.11328 -2.1484,1.0352 -4.2852,2.6328 -6.0859,4.6016 l -0.19531,0.21484 -0.12109,0.10156 c -13.57,11.555 -22.465,25.145 -31.492,38.922 -1.3242,2.0234 -2.6602,4.0508 -4.4609,6.7578 -6.8711,10.312 -13.059,19.57 -21.383,26.328 -8.2695,6.7109 -18.367,10.754 -32.715,10.539 -0.86719,2.4258 -1.5039,5.1875 -1.8867,8.5195 -0.23438,2.043 -2.082,3.5195 -4.125,3.2852 -2.043,-0.23437 -3.5195,-2.082 -3.2852,-4.125 0.67187,-5.8438 2.0352,-10.312 4.043,-14.262 1.9883,-3.9297 4.5273,-7.1953 7.5977,-10.723 1.3516,-1.5586 3.7148,-1.7188 5.2656,-0.36328 1.5586,1.3516 1.7188,3.7148 0.36328,5.2656 -1.4648,1.6875 -2.7891,3.293 -3.9492,4.9102 10.305,-0.52344 17.797,-3.7695 24.004,-8.8008 7.4492,-6.0391 13.328,-14.859 19.871,-24.668 1.1953,-1.793 2.8203,-4.2656 4.4258,-6.7305 9.2852,-14.176 18.441,-28.148 32.777,-40.395 0.35547,-0.375 0.71875,-0.74609 1.082,-1.1016 -9.6875,0.25391 -18.125,10.406 -26.246,20.168 -3.5,4.2109 -6.9453,8.3438 -10.453,11.77 -0.76563,0.74609 -1.7734,1.0938 -2.7734,1.0469 -22.418,-1.1094 -39.098,0.45703 -53.809,6.3359 -14.699,5.8711 -27.691,16.148 -42.785,32.461 -12.328,13.328 -25.676,32.883 -39.023,52.434 -6.9336,10.156 -13.871,20.309 -20.719,29.68 -9.6992,13.262 -20.625,21.867 -32.883,26.844 -12.199,4.9453 -25.621,6.2344 -40.387,4.8711 -24.379,-2.25 -41.199,-5.582 -56.738,-12.266 -15.539,-6.684 -29.613,-16.605 -48.488,-32.051 -0.63281,-0.52344 -1.0547,-1.2148 -1.25,-1.9492 -4.8984,-5.7227 -10.938,-7.8867 -17.164,-7.9688 -6.3359,-0.0859 -12.953,1.8867 -18.93,4.5469 1.3086,5.8633 3.4805,11.594 6.5898,16.82 3.1719,5.3281 7.3359,10.156 12.562,14.074 1.0273,0.77344 1.2305,2.2305 0.46484,3.2578 -0.77344,1.0273 -2.2305,1.2305 -3.2578,0.46484 -5.7383,-4.3008 -10.305,-9.5859 -13.766,-15.41 -3.1914,-5.3555 -5.4688,-11.18 -6.8984,-17.137 -1.3828,0.71875 -2.6992,1.457 -3.957,2.1914 0.0195,0.10156 0.0391,0.20703 0.0391,0.30859 0.50391,8 2.5,16.117 6.2266,23.465 3.3398,6.6094 8.0742,12.59 14.336,17.285 1.0273,0.77344 1.2305,2.2305 0.46484,3.2578 -0.77344,1.0273 -2.2305,1.2305 -3.2578,0.46484 -6.8711,-5.1523 -12.051,-11.695 -15.699,-18.91 -3.668,-7.2617 -5.7969,-15.195 -6.543,-23.082 -2.4258,1.6523 -5.1055,3.668 -7.9258,5.8711 -2.0625,10.324 -3.5469,24.324 -0.17578,40.031 3.5078,16.363 12.32,34.656 31.266,52.723 22.793,21.738 50.082,40.441 79.688,52.211 25.637,10.191 53.023,15.195 80.715,12.441 1.875,-2.0547 3.668,-4.2266 5.3672,-6.5156 8.5195,-11.527 14.355,-26.004 14.094,-42.746 -0.0273,-2.0547 1.625,-3.7422 3.6758,-3.7617 2.0547,-0.0274 3.7422,1.625 3.7617,3.6758 0.28906,18.547 -6.1523,34.543 -15.551,47.266 -2.1016,2.8477 -4.3594,5.5234 -6.7188,8.0352 -0.0937,0.11328 -0.19531,0.21484 -0.29688,0.31641 -10.828,11.395 -23.883,19.207 -35.121,22.633 -2.2578,0.91406 -3.875,2.1914 -4.6836,3.5938 -0.42969,0.74609 -0.60547,1.5391 -0.49609,2.3164 0.12109,0.83203 0.60547,1.7266 1.5039,2.6133 2.082,2.0625 5.9648,3.8555 12.066,4.8711 13.039,0.28125 27.496,0.17578 42.086,-2.6992 14.477,-2.8477 29.121,-8.457 42.664,-19.227 14.168,-11.5 26.73,-23.789 37.699,-38.566 1.6055,-2.1641 3.1836,-4.3867 4.7227,-6.6719 z M 121.04,245.74 c 2.0078,0.45703 3.2578,2.4531 2.8008,4.4609 -0.45703,2.0078 -2.4531,3.2578 -4.4609,2.8008 -3.6289,-0.83984 -5.8633,-0.12891 -6.9609,1.3086 -1.0273,1.3438 -1.2969,3.3594 -0.90625,5.4023 0.42188,2.1758 1.5977,4.2656 3.4062,5.582 2.4844,1.8008 6.3945,2.1016 11.629,-0.89453 l 0.0195,-0.008 c 2.2969,-1.5664 4.6367,-3.2656 6.9609,-5.0195 3.3398,-2.5312 6.1133,-4.7227 8.8125,-6.8516 5.5234,-4.3672 10.734,-8.4844 15.289,-11.34 8.7461,-5.4805 21.422,-11.609 33.691,-11.453 7.8672,0.10156 15.492,2.707 21.773,9.4727 20.562,-11.863 32.367,-7.168 41.645,-3.4727 5.2461,2.0898 9.4062,3.7539 14.047,-0.25391 0.74609,-1.0156 1.2617,-1.9688 1.5664,-2.8477 0.55859,-1.5781 0.44922,-2.9414 -0.0273,-4.0781 -0.24219,-0.58984 -0.58984,-1.1367 -1,-1.6445 -1.4766,-1.5586 -3.0039,-2.4453 -4.4609,-2.8203 -1.2148,-0.31641 -2.3906,-0.28906 -3.4336,-0.008 -1,0.26172 -1.8672,0.73828 -2.5117,1.3516 -0.48438,0.45703 -0.82031,0.95312 -0.94141,1.4375 -0.51172,1.9883 -2.5469,3.1836 -4.5352,2.668 -1.9883,-0.51172 -3.1836,-2.5469 -2.668,-4.5352 0.48438,-1.875 1.5586,-3.5938 3.043,-4.9922 0.51172,-0.48438 1.082,-0.93359 1.6875,-1.3359 -1.0547,-0.38281 -2.1484,-0.69922 -3.2773,-0.93359 -4.3672,-0.92578 -9.4922,-0.76563 -16.07,0.92578 -1.1836,0.29688 -2.3789,0 -3.2656,-0.71875 -10.023,-8.1367 -19.973,-10.371 -28.934,-9.4453 -13.273,1.3711 -24.555,9.5312 -30.762,15.828 l -0.16797,0.16797 c -0.0195,0.0195 -0.0391,0.0391 -0.0664,0.0547 l -0.008,0.008 c -0.0195,0.0195 -0.0469,0.0391 -0.0664,0.0547 l -0.008,0.008 c -0.0195,0.0195 -0.0391,0.0391 -0.0664,0.0469 l -0.008,0.008 -0.0664,0.0469 -0.008,0.008 c -0.0195,0.0195 -0.0469,0.0273 -0.0664,0.0469 l -0.008,0.008 c -0.0195,0.0195 -0.0469,0.0273 -0.0664,0.0469 l -0.008,0.008 c -0.0195,0.0195 -0.0469,0.0273 -0.0742,0.0469 h -0.008 c -0.0195,0.008 -0.0469,0.0273 -0.0664,0.0391 l -0.0195,0.008 -0.0664,0.0391 -0.0195,0.008 -0.0664,0.0391 -0.008,0.008 c -0.0195,0.008 -0.0469,0.0195 -0.0664,0.0273 l -0.0273,0.008 -0.0664,0.0274 -0.0195,0.008 -0.0664,0.0273 -0.0195,0.008 c -0.0195,0.008 -0.0469,0.0195 -0.0664,0.0274 l -0.0195,0.008 -0.0547,0.0273 -0.0273,0.008 -0.0547,0.0195 -0.0391,0.008 -0.0547,0.0195 -0.0274,0.008 -0.0547,0.0195 -0.0274,0.008 -0.0547,0.0195 -0.0273,0.008 -0.0547,0.0195 -0.0273,0.008 -0.0547,0.008 -0.0273,0.008 -0.0547,0.008 h -0.0273 l -0.0664,0.008 h -0.0195 l -0.0664,0.008 h -0.0273 l -0.0547,0.008 h -0.0273 l -0.0664,0.008 h -0.0195 l -0.0742,0.008 h -0.55078 l -0.0664,-0.008 h -0.0195 l -0.0664,-0.008 h -0.0195 c -0.0274,0 -0.0469,-0.008 -0.0742,-0.008 h -0.008 l -0.0742,-0.008 h -0.0195 l -0.0664,-0.008 h -0.0195 l -0.0664,-0.0195 h -0.0195 c -0.0273,-0.008 -0.0469,-0.008 -0.0664,-0.0195 l -0.0195,-0.008 -0.0664,-0.0195 -0.0195,-0.008 -0.0664,-0.0195 -0.0195,-0.008 -0.0664,-0.0195 -0.0195,-0.008 c -0.0273,-0.008 -0.0469,-0.0195 -0.0742,-0.0274 h -0.008 c -0.0273,-0.008 -0.0547,-0.0195 -0.0742,-0.0273 h -0.008 c -0.0273,-0.008 -0.0469,-0.0195 -0.0742,-0.0273 h -0.008 c -0.0274,-0.008 -0.0469,-0.0195 -0.0742,-0.0274 l -0.008,-0.008 c -0.0273,-0.008 -0.0469,-0.0195 -0.0742,-0.0273 l -0.008,-0.008 -0.0664,-0.0273 -0.0195,-0.008 -0.0664,-0.0274 -0.0195,-0.008 -0.0664,-0.0391 -0.0195,-0.008 c -0.0195,-0.008 -0.0391,-0.0274 -0.0664,-0.0391 l -0.0195,-0.008 -0.0664,-0.0391 -0.0195,-0.008 -0.0664,-0.0391 -0.0195,-0.008 -0.0547,-0.0391 -0.0195,-0.0195 -0.0547,-0.0391 -0.0195,-0.0195 -0.0547,-0.0391 -0.0195,-0.0195 -0.0547,-0.0469 -0.008,-0.008 -0.0547,-0.0469 -0.0859,-0.0859 c -0.0195,-0.0195 -0.0391,-0.0273 -0.0547,-0.0469 l -0.082,-0.082 c -7.8867,-7.9141 -24.844,-7.6992 -40.387,-2.2578 -6.3359,2.2227 -12.387,5.3203 -17.48,9.1016 -4.9453,3.6758 -8.9492,7.9883 -11.348,12.75 -3.6953,7.3281 -3.5,15.941 3.2188,25.172 2.2852,3.0352 5.6289,3.707 9.5859,2.8359 -0.31641,-0.19531 -0.625,-0.40234 -0.92578,-0.61719 -3.4141,-2.4727 -5.5898,-6.2891 -6.3555,-10.191 -0.78516,-4.0312 -0.0742,-8.25 2.3047,-11.359 2.7812,-3.6289 7.5781,-5.6562 14.543,-4.043 z m 9.6328,24.855 c -0.12109,0.0937 -0.24219,0.16797 -0.375,0.25391 -13.227,8.8555 -26.098,13.691 -34.355,2.7539 l -0.02734,-0.0469 c -8.6797,-11.883 -8.8281,-23.191 -3.8906,-32.977 2.9492,-5.832 7.7266,-11.023 13.57,-15.371 5.7031,-4.23831 12.441,-7.6914 19.469,-10.156 16.426,-5.75 34.637,-6.0391 45.312,1.6602 7.3828,-6.6914 19.125,-14.215 32.816,-15.63301 10.293,-1.0625 21.617,1.2891 32.93,9.9219 6.9531,-1.5859 12.629,-1.6328 17.621,-0.57812 5.3203,1.1211 9.7539,3.4453 14.102,6.4766 1.3984,0.55078 2.9297,1.3906 4.3594,2.4844 0.92578,0.71094 1.8125,1.5312 2.6133,2.4648 0.0859,0.0937 0.16016,0.17578 0.23438,0.26953 0.85937,1.0469 1.5977,2.2227 2.1367,3.5195 1.1562,2.7344 1.4453,5.918 0.20703,9.4453 -0.57813,1.625 -1.4844,3.3125 -2.7891,5.0508 -0.16016,0.23438 -0.35547,0.44922 -0.57031,0.64453 -8.1562,7.3633 -14.281,4.9297 -22.027,1.8398 -7.5117,-2.9961 -17.016,-6.7773 -33.449,2.0547 16.277,13.094 28.906,21.727 42.543,27.59 14.773,6.3477 30.941,9.5391 54.469,11.703 13.598,1.25 25.883,0.10156 36.914,-4.3789 10.984,-4.4531 20.84,-12.254 29.672,-24.332 6.7578,-9.2383 13.664,-19.355 20.57,-29.477 13.457,-19.723 26.926,-39.441 39.723,-53.285 15.855,-17.145 29.66,-28 45.5,-34.328 15.445,-6.168 32.602,-7.9414 55.254,-6.9453 2.9297,-2.9883 5.8438,-6.4961 8.8008,-10.051 11.527,-13.871 23.613,-28.409995 40.816,-21.16 0.94141,-0.363275 1.8867,-0.652335 2.8203,-0.867185 2.7617,-0.625 5.4688,-0.57031 7.8672,0.31641 2.5938,0.953115 4.7422,2.789095 6.1406,5.675795 1.5195,3.125 2.082,7.5234 1.168,13.422 l -0.0469,0.30859 -0.008,0.0391 c -3.668,14.363 -8.5977,25.957 -12.918,36.129 -4.3945,10.332 -8.1367,19.133 -9.0625,27.598 -0.72656,6.5781 -1.0352,12.844 -1.3438,19.105 -0.58984,11.715 -1.168,23.426 -4.3008,37.035 -8.0469,37.5 -25.164,68.375 -45.816,92.613 -1.0938,1.2773 -2.1914,2.5391 -3.293,3.7812 1.1367,8.0352 1.8672,15.688 1.793,23.332 -0.0742,8.2422 -1.0742,16.363 -3.5,24.754 l -0.0937,0.33594 -0.14062,0.26953 c -6.3359,12.824 -17.574,19.328 -29.875,22.082 -17.77,3.9766 -37.855,-0.0859 -47.676,-3.957 l -0.80078,-0.31641 -0.59766,-0.66406 c -1.2617,-1.3906 -2.1094,-2.875 -2.6875,-4.4141 -0.41016,0.55859 -0.8125,1.1211 -1.2227,1.6719 -11.395,15.344 -24.387,28.066 -39.012,39.938 l -0.0273,0.0273 c -14.605,11.621 -30.344,17.66 -45.875,20.719 -15.309,3.0156 -30.379,3.0977 -43.941,2.8086 -0.17578,0 -0.34375,-0.0195 -0.51172,-0.0469 -7.9414,-1.2891 -13.262,-3.8906 -16.379,-6.9805 -2.1016,-2.082 -3.2773,-4.4258 -3.6289,-6.8125 -0.36328,-2.4531 0.14844,-4.8828 1.4297,-7.1016 1.6523,-2.875 4.6094,-5.3398 8.5508,-6.8867 0.0937,-0.0391 0.19531,-0.0742 0.28906,-0.10156 7.7578,-2.3438 16.512,-7.0273 24.621,-13.746 -25.777,1.0625 -51.129,-4.0977 -74.992,-13.59 -30.559,-12.152 -58.66,-31.398 -82.078,-53.73 -20.215,-19.281 -29.645,-38.93 -33.422,-56.578 -2.8008,-13.02 -2.5117,-24.91 -1.2227,-34.73 -1.7539,1.3828 -3.4531,2.6992 -4.9766,3.8438 -2.4453,1.8477 -4.9102,3.6289 -7.3555,5.293 z m 337.6,-85.297 c 1.9883,-2.6211 4.4141,-4.582 6.7383,-5.6484 3.0508,-1.3906 6.0938,-1.3711 8.418,0.39062 2.3242,1.7656 3.1641,4.6836 2.6406,7.9883 -0.39062,2.5312 -1.6328,5.4023 -3.6211,8.0156 -1.9883,2.6211 -4.4141,4.582 -6.7383,5.6484 -3.0508,1.3906 -6.0938,1.3711 -8.418,-0.39062 -2.3242,-1.7656 -3.1641,-4.6836 -2.6406,-7.9883 0.39062,-2.5312 1.6328,-5.4023 3.6211,-8.0156 z m -11.48,204.89 c 0.0469,1 0.14062,1.9688 0.35547,2.875 0.19531,0.83203 0.50391,1.625 1,2.3438 9.2383,3.4258 26.863,6.7852 42.457,3.293 10.184,-2.2773 19.461,-7.5586 24.66,-17.844 2.1484,-7.5703 3.043,-14.926 3.1094,-22.398 0.0469,-5.2539 -0.32812,-10.621 -0.96094,-16.191 -22.719,23.297 -48.402,39.273 -70.605,47.926 z m -12.328,-170.33 c 0.61719,-1.1211 2.0352,-1.5312 3.1562,-0.91406 1.1211,0.61719 1.5312,2.0352 0.91406,3.1562 -19.449,35.148 -41.691,62.758 -66.789,82.488 -24.902,19.582 -52.586,31.445 -83.133,35.262 -1.2773,0.16016 -2.4453,-0.75781 -2.5938,-2.0352 -0.16016,-1.2773 0.75781,-2.4453 2.0352,-2.5938 29.68,-3.707 56.598,-15.242 80.816,-34.289 24.621,-19.367 46.469,-46.5 65.605,-81.07 z"
       id="path2741" />
  </g>
</svg>
