<?xml version="1.0" encoding="UTF-8" standalone="no"?>
<svg
   width="513.34344pt"
   height="419.29117pt"
   version="1.1"
   viewBox="0 0 513.34344 419.29117"
   id="svg862"
   sodipodi:docname="noun-dolphin-3386232.svg"
   inkscape:version="1.1.1 (c3084ef, 2021-09-22)"
   xmlns:inkscape="http://www.inkscape.org/namespaces/inkscape"
   xmlns:sodipodi="http://sodipodi.sourceforge.net/DTD/sodipodi-0.dtd"
   xmlns="http://www.w3.org/2000/svg"
   xmlns:svg="http://www.w3.org/2000/svg">
  <defs
     id="defs866" />
  <sodipodi:namedview
     id="namedview864"
     pagecolor="#ffffff"
     bordercolor="#999999"
     borderopacity="1"
     inkscape:pageshadow="0"
     inkscape:pageopacity="0"
     inkscape:pagecheckerboard="0"
     inkscape:document-units="pt"
     showgrid="false"
     fit-margin-top="0"
     fit-margin-left="0"
     fit-margin-right="0"
     fit-margin-bottom="0"
     inkscape:zoom="0.60321429"
     inkscape:cx="342.33274"
     inkscape:cy="372.17288"
     inkscape:window-width="1312"
     inkscape:window-height="855"
     inkscape:window-x="0"
     inkscape:window-y="23"
     inkscape:window-maximized="0"
     inkscape:current-layer="svg862" />
  <g
     id="g860"
     transform="translate(-93.3273,-70.353343)">
    <path
       d="m 284.89,70.414 c -12.145,-0.26953 -24.297,0.35938 -36.352,1.8828 -25.484,1.3711 -50.105,9.7227 -71.16,24.145 -21.059,14.422 -37.746,34.359 -48.234,57.625 -12.316,4.9648 -23.133,13.043 -31.387,23.445 -2.8711,3.6523 -4.4297,8.1641 -4.4297,12.805 0,4.6445 1.5586,9.1523 4.4297,12.805 7.7461,9.9609 19.562,15.91 32.18,16.199 h 79.688 c 3.7617,0.0117 6.8164,3.0469 6.8516,6.8125 0.19531,19.727 8.6484,38.469 23.305,51.672 14.66,13.203 34.184,19.656 53.82,17.789 3.6367,-0.34766 6.707,-2.8477 7.7852,-6.3398 1.0742,-3.4922 -0.0508,-7.2852 -2.8594,-9.6211 -11.371,-9.4727 -16.992,-24.176 -14.836,-38.816 0.29297,-1.9883 1.4375,-3.7461 3.1406,-4.8164 1.6992,-1.0742 3.7812,-1.3477 5.6992,-0.75 80.801,25.117 151.2,75.902 200.53,144.65 1.0938,1.5312 1.5156,3.4414 1.1641,5.293 -0.35156,1.8477 -1.4453,3.4727 -3.0273,4.4922 -15.098,9.75 -27.66,22.949 -36.648,38.508 -2.5195,4.3672 -2.3516,9.7812 0.4375,13.98 2.7891,4.1953 7.7188,6.4492 12.719,5.8164 42.844,-5.5273 85.91,8.4688 117.32,38.133 3.8555,3.6602 9.5703,4.5586 14.363,2.2617 4.7927,-2.2969 7.6719,-7.3125 7.2383,-12.609 -2.8125,-34.969 -19.102,-67.477 -45.434,-90.652 -1.2461,-1.0859 -2.0625,-2.582 -2.2969,-4.2148 -9.7266,-70.055 -36.527,-136.64 -78.039,-193.91 -3.5703,-11.352 -3.3867,-23.555 0.51953,-34.797 3.9062,-11.242 11.328,-20.93 21.172,-27.621 4.8164,-3.2812 8.0234,-8.4453 8.8242,-14.219 0.79688,-5.7695 -0.87891,-11.613 -4.625,-16.078 -3.7422,-4.4648 -9.2031,-7.1406 -15.027,-7.3594 h -0.13281 0.004 c -28.477,-1.0703 -56.801,4.6172 -82.66,16.594 -2.0273,0.94922 -4.3906,0.84766 -6.332,-0.26563 -35.867,-20.629 -76.34,-31.918 -117.71,-32.824 z m -0.13281,4.625 0.004,-0.0039 c 40.59,0.89453 80.305,11.969 115.5,32.211 3.2344,1.8594 7.1719,2.0352 10.559,0.46875 25.195,-11.672 52.797,-17.207 80.547,-16.16 4.5156,0.17578 8.7422,2.2539 11.641,5.7148 2.8984,3.4648 4.1992,7.9961 3.5781,12.469 -0.625,4.4766 -3.1094,8.4766 -6.8438,11.02 -10.766,7.3281 -18.859,17.961 -23.055,30.297 -4.1914,12.332 -4.2617,25.695 -0.19141,38.07 41.324,56.77 68.004,122.86 77.672,192.41 0.37891,2.7305 1.7266,5.2344 3.793,7.0586 25.43,22.387 41.16,53.781 43.871,87.547 0.27344,3.3828 -1.5664,6.5859 -4.625,8.0508 -3.0586,1.4688 -6.707,0.89844 -9.1719,-1.4336 -32.418,-30.613 -76.863,-45.062 -121.08,-39.359 -3.2617,0.42578 -6.4844,-1.0352 -8.3086,-3.7734 -1.8242,-2.7344 -1.9375,-6.2734 -0.28906,-9.1172 8.6289,-14.93 20.688,-27.586 35.18,-36.934 2.6484,-1.7031 4.4805,-4.4219 5.0703,-7.5156 0.5898,-3.0937 -0.11719,-6.293 -1.9492,-8.8555 -49.914,-69.566 -121.15,-120.96 -202.92,-146.37 -3.207,-0.99219 -6.6836,-0.53125 -9.5234,1.2578 -2.8359,1.7891 -4.7539,4.7305 -5.2461,8.0508 -2.3945,16.227 3.8281,32.535 16.426,43.043 1.375,1.1445 1.9219,3 1.3945,4.707 -0.52734,1.707 -2.0312,2.9258 -3.8086,3.0938 h 0.13281 -0.004 c -18.34,1.7305 -36.566,-4.3047 -50.254,-16.641 -13.684,-12.332 -21.578,-29.836 -21.762,-48.258 -0.0586,-6.3086 -5.1914,-11.391 -11.5,-11.395 h -79.629 c -11.203,-0.27344 -21.691,-5.5625 -28.57,-14.41 -2.230501,-2.8359 -3.441401,-6.3398 -3.441401,-9.9492 0,-3.6055 1.2109,-7.1094 3.441401,-9.9453 8.1406,-10.27 18.926,-18.117 31.199,-22.707 9.9648,-22.953 26.137,-42.676 46.695,-56.945 20.559,-14.27 44.688,-22.523 69.68,-23.836 11.879,-1.5039 23.855,-2.1289 35.832,-1.8633 z"
       id="path856" />
    <path
       d="m 220.37,139.64 c 0.004,-2.0977 -0.82031,-4.1055 -2.3008,-5.5898 -1.4766,-1.4844 -3.4844,-2.3164 -5.5781,-2.3164 -2.0937,0 -4.1016,0.83203 -5.582,2.3164 -1.4766,1.4844 -2.3047,3.4922 -2.2969,5.5898 -0.008,2.0938 0.82031,4.1016 2.2969,5.5859 1.4805,1.4844 3.4883,2.3203 5.582,2.3203 2.0937,0 4.1016,-0.83594 5.5781,-2.3203 1.4805,-1.4844 2.3047,-3.4922 2.3008,-5.5859 z"
       id="path858" />
  </g>
</svg>
