<?xml version="1.0" encoding="UTF-8" standalone="no"?>
<svg
   width="526.64478pt"
   height="516.42224pt"
   version="1.1"
   viewBox="0 0 526.64478 516.42224"
   id="svg2136"
   sodipodi:docname="noun-fish-2601081.svg"
   inkscape:version="1.1.2 (b8e25be8, 2022-02-05)"
   xmlns:inkscape="http://www.inkscape.org/namespaces/inkscape"
   xmlns:sodipodi="http://sodipodi.sourceforge.net/DTD/sodipodi-0.dtd"
   xmlns="http://www.w3.org/2000/svg"
   xmlns:svg="http://www.w3.org/2000/svg">
  <sodipodi:namedview
     id="namedview2138"
     pagecolor="#ffffff"
     bordercolor="#999999"
     borderopacity="1"
     inkscape:pageshadow="0"
     inkscape:pageopacity="0"
     inkscape:pagecheckerboard="0"
     inkscape:document-units="pt"
     showgrid="false"
     inkscape:zoom="0.60321429"
     inkscape:cx="164.94967"
     inkscape:cy="642.39195"
     inkscape:window-width="1312"
     inkscape:window-height="855"
     inkscape:window-x="0"
     inkscape:window-y="23"
     inkscape:window-maximized="0"
     inkscape:current-layer="g2134" />
  <defs
     id="defs2088">
    <symbol
       id="l"
       overflow="visible">
      <path
         d="m 37.516,-2.25 c -1.9297,1.0117 -3.9453,1.7734 -6.0469,2.2812 -2.0938,0.50781 -4.2812,0.76562 -6.5625,0.76562 -6.793,0 -12.18,-1.8984 -16.156,-5.7031 -3.9688,-3.8008 -5.9531,-8.957 -5.9531,-15.469 0,-6.5195 1.9844,-11.68 5.9531,-15.484 3.9766,-3.8008 9.3633,-5.7031 16.156,-5.7031 2.2812,0 4.4688,0.25781 6.5625,0.76562 2.1016,0.51172 4.1172,1.2656 6.0469,2.2656 v 8.4531 c -1.9492,-1.332 -3.8711,-2.3047 -5.7656,-2.9219 -1.8984,-0.625 -3.8906,-0.9375 -5.9844,-0.9375 -3.7617,0 -6.7188,1.2031 -8.875,3.6094 -2.1484,2.4062 -3.2188,5.7266 -3.2188,9.9531 0,4.2109 1.0703,7.5156 3.2188,9.9219 2.1562,2.4062 5.1133,3.6094 8.875,3.6094 2.0938,0 4.0859,-0.30469 5.9844,-0.92188 1.8945,-0.625 3.8164,-1.5977 5.7656,-2.9219 z"
         id="path2052" />
    </symbol>
    <symbol
       id="c"
       overflow="visible">
      <path
         d="m 27.453,-22.281 c -0.85547,-0.40625 -1.7109,-0.70312 -2.5625,-0.89062 -0.84375,-0.19531 -1.6953,-0.29688 -2.5469,-0.29688 -2.5234,0 -4.4609,0.80859 -5.8125,2.4219 -1.3555,1.6172 -2.0312,3.9297 -2.0312,6.9375 V -10e-5 H 4.703 v -30.625 h 9.7969 v 5.0312 c 1.25,-2.0078 2.6914,-3.4727 4.3281,-4.3906 1.6328,-0.91406 3.5859,-1.375 5.8594,-1.375 0.33203,0 0.6875,0.01563 1.0625,0.04687 0.38281,0.02344 0.94141,0.07813 1.6719,0.17188 z"
         id="path2055" />
    </symbol>
    <symbol
       id="a"
       overflow="visible">
      <path
         d="m 35.281,-15.391 v 2.7812 H 12.39 c 0.23828,2.3047 1.0664,4.0273 2.4844,5.1719 1.4258,1.1484 3.4141,1.7188 5.9688,1.7188 2.0508,0 4.1562,-0.30078 6.3125,-0.90625 2.1641,-0.61328 4.3906,-1.5391 6.6719,-2.7812 v 7.5469 c -2.3125,0.875 -4.6328,1.5391 -6.9531,1.9844 -2.3125,0.44531 -4.625,0.67188 -6.9375,0.67188 -5.543,0 -9.8516,-1.4062 -12.922,-4.2188 -3.0742,-2.8203 -4.6094,-6.7734 -4.6094,-11.859 0,-5 1.5039,-8.9258 4.5156,-11.781 3.0195,-2.8633 7.1758,-4.2969 12.469,-4.2969 4.8125,0 8.6602,1.4492 11.547,4.3438 2.8945,2.8984 4.3438,6.7734 4.3438,11.625 z m -10.062,-3.2656 c 0,-1.8516 -0.54688,-3.3477 -1.6406,-4.4844 -1.0859,-1.1445 -2.5,-1.7188 -4.25,-1.7188 -1.8984,0 -3.4375,0.53906 -4.625,1.6094 -1.1797,1.0625 -1.9141,2.5938 -2.2031,4.5938 z"
         id="path2058" />
    </symbol>
    <symbol
       id="h"
       overflow="visible">
      <path
         d="m 18.438,-13.781 c -2.043,0 -3.5781,0.35156 -4.6094,1.0469 -1.0312,0.6875 -1.5469,1.7031 -1.5469,3.0469 0,1.2422 0.41016,2.2148 1.2344,2.9219 0.83203,0.69922 1.9883,1.0469 3.4688,1.0469 1.8438,0 3.3906,-0.66016 4.6406,-1.9844 1.2578,-1.3203 1.8906,-2.9727 1.8906,-4.9531 v -1.125 z m 14.953,-3.6875 V 5e-4 h -9.875 v -4.5469 c -1.3125,1.8672 -2.793,3.2266 -4.4375,4.0781 -1.6367,0.84375 -3.6328,1.2656 -5.9844,1.2656 -3.168,0 -5.7422,-0.92578 -7.7188,-2.7812 -1.9805,-1.8516 -2.9688,-4.2539 -2.9688,-7.2031 0,-3.5938 1.2344,-6.2266 3.7031,-7.9062 2.4688,-1.6758 6.3477,-2.5156 11.641,-2.5156 h 5.7656 v -0.76562 c 0,-1.5508 -0.60938,-2.6875 -1.8281,-3.4062 -1.21872,-0.7187 -3.125,-1.0781 -5.7188,-1.0781 -2.0938,0 -4.0469,0.21484 -5.8594,0.64062 -1.8047,0.41797 -3.4766,1.043 -5.0156,1.875 v -7.4688 c 2.0938,-0.50781 4.1953,-0.89453 6.3125,-1.1562 2.1133,-0.25781 4.2266,-0.39062 6.3438,-0.39062 5.5195,0 9.5039,1.0898 11.953,3.2656 2.457,2.1797 3.6875,5.7188 3.6875,10.625 z"
         id="path2061" />
    </symbol>
    <symbol
       id="b"
       overflow="visible">
      <path
         d="m 15.391,-39.328 v 8.7031 h 10.094 v 7 H 15.391 v 12.984 c 0,1.4297 0.28125,2.3906 0.84375,2.8906 0.57031,0.5 1.6953,0.75 3.375,0.75 h 5.0312 v 7 h -8.3906 c -3.8672,0 -6.6055,-0.80469 -8.2188,-2.4219 -1.6172,-1.6133 -2.4219,-4.3516 -2.4219,-8.2188 v -12.984 h -4.875 v -7 h 4.875 v -8.7031 z"
         id="path2064" />
    </symbol>
    <symbol
       id="g"
       overflow="visible">
      <path
         d="m 25.547,-26.141 v -16.406 h 9.8438 V 0 H 25.547 v -4.4375 c -1.3555,1.8125 -2.8438,3.1406 -4.4688,3.9844 -1.6172,0.83203 -3.4922,1.25 -5.625,1.25 -3.7734,0 -6.8711,-1.5 -9.2969,-4.5 -2.4297,-3 -3.6406,-6.8594 -3.6406,-11.578 0,-4.7266 1.2109,-8.5859 3.6406,-11.578 2.4258,-3 5.5234,-4.5 9.2969,-4.5 2.1133,0 3.9844,0.42188 5.6094,1.2656 1.6328,0.84375 3.1289,2.1641 4.4844,3.9531 z m -6.4531,19.828 c 2.0938,0 3.6914,-0.76562 4.7969,-2.2969 1.1016,-1.5312 1.6562,-3.7539 1.6562,-6.6719 0,-2.9141 -0.55469,-5.1406 -1.6562,-6.6719 -1.1055,-1.5312 -2.7031,-2.2969 -4.7969,-2.2969 -2.0859,0 -3.6797,0.76562 -4.7812,2.2969 -1.1055,1.5312 -1.6562,3.7578 -1.6562,6.6719 0,2.918 0.55078,5.1406 1.6562,6.6719 1.1016,1.5312 2.6953,2.2969 4.7812,2.2969 z"
         id="path2067" />
    </symbol>
    <symbol
       id="f"
       overflow="visible">
      <path
         d="m 21,-6.3125 c 2.0938,0 3.6914,-0.76562 4.7969,-2.2969 1.1016,-1.5312 1.6562,-3.7539 1.6562,-6.6719 0,-2.9141 -0.55469,-5.1406 -1.6562,-6.6719 -1.1055,-1.5312 -2.7031,-2.2969 -4.7969,-2.2969 -2.0938,0 -3.7031,0.77344 -4.8281,2.3125 -1.1172,1.5312 -1.6719,3.75 -1.6719,6.6562 0,2.8984 0.55469,5.1172 1.6719,6.6562 1.125,1.543 2.7344,2.3125 4.8281,2.3125 z m -6.5,-19.828 c 1.3438,-1.7891 2.832,-3.1094 4.4688,-3.9531 1.6445,-0.84375 3.5352,-1.2656 5.6719,-1.2656 3.7695,0 6.8672,1.5 9.2969,4.5 2.4258,2.9922 3.6406,6.8516 3.6406,11.578 0,4.7188 -1.2148,8.5781 -3.6406,11.578 -2.4297,3 -5.5273,4.5 -9.2969,4.5 -2.1367,0 -4.0273,-0.42188 -5.6719,-1.2656 C 17.3321,-1.32036 15.8438,-2.6446 14.5,-4.4376 V -10e-5 H 4.7031 v -42.547 H 14.5 Z"
         id="path2070" />
    </symbol>
    <symbol
       id="e"
       overflow="visible">
      <path
         d="m 0.6875,-30.625 h 9.7812 l 8.2344,20.781 7,-20.781 H 35.5 L 22.609,2.906 c -1.293,3.4062 -2.8047,5.7852 -4.5312,7.1406 -1.7188,1.3633 -3.9922,2.0469 -6.8125,2.0469 H 5.6091 V 5.656 h 3.0625 c 1.6562,0 2.8594,-0.26562 3.6094,-0.79688 0.75781,-0.52344 1.3516,-1.4648 1.7812,-2.8281 l 0.26562,-0.85938 z"
         id="path2073" />
    </symbol>
    <symbol
       id="d"
       overflow="visible">
      <path
         d="m 0.28125,-40.828 h 10.578 l 10.828,30.141 10.797,-30.141 h 10.578 L 27.95325,0 h -12.562 z"
         id="path2076" />
    </symbol>
    <symbol
       id="k"
       overflow="visible">
      <path
         d="m 29.453,-29.672 v 7.9844 c -1.3359,-0.90625 -2.6719,-1.5781 -4.0156,-2.0156 -1.3359,-0.4375 -2.7188,-0.65625 -4.1562,-0.65625 -2.7422,0 -4.8711,0.79688 -6.3906,2.3906 -1.5234,1.5938 -2.2812,3.8242 -2.2812,6.6875 0,2.8555 0.75781,5.0859 2.2812,6.6875 1.5195,1.5938 3.6484,2.3906 6.3906,2.3906 1.5312,0 2.9844,-0.22656 4.3594,-0.6875 1.375,-0.45703 2.6445,-1.1328 3.8125,-2.0312 v 8.0156 c -1.5312,0.5625 -3.0898,0.98438 -4.6719,1.2656 -1.5742,0.28906 -3.1523,0.4375 -4.7344,0.4375 -5.5234,0 -9.8438,-1.4141 -12.969,-4.25 -3.1172,-2.8438 -4.6719,-6.7852 -4.6719,-11.828 0,-5.0508 1.5547,-8.9922 4.6719,-11.828 3.125,-2.832 7.4453,-4.25 12.969,-4.25 1.6016,0 3.1797,0.14062 4.7344,0.42188 1.5625,0.28125 3.1172,0.70312 4.6719,1.2656 z"
         id="path2079" />
    </symbol>
    <symbol
       id="j"
       overflow="visible">
      <path
         d="m 19.281,-24.359 c -2.168,0 -3.8242,0.78125 -4.9688,2.3438 -1.1367,1.5547 -1.7031,3.7969 -1.7031,6.7344 0,2.9297 0.56641,5.1719 1.7031,6.7344 1.1445,1.5625 2.8008,2.3438 4.9688,2.3438 2.1328,0 3.7656,-0.78125 4.8906,-2.3438 1.1328,-1.5625 1.7031,-3.8047 1.7031,-6.7344 0,-2.9375 -0.57031,-5.1797 -1.7031,-6.7344 -1.125,-1.5625 -2.7578,-2.3438 -4.8906,-2.3438 z m 0,-7 c 5.2695,0 9.3828,1.4219 12.344,4.2656 2.957,2.8438 4.4375,6.7812 4.4375,11.812 0,5.0308 -1.4805,8.9688 -4.4375,11.812 -2.9609,2.8438 -7.0742,4.2656 -12.344,4.2656 -5.293,0 -9.4297,-1.4219 -12.406,-4.2656 -2.9805,-2.8438 -4.4688,-6.7812 -4.4688,-11.812 0,-5.0308 1.4883,-8.9688 4.4688,-11.812 2.9766,-2.8438 7.1133,-4.2656 12.406,-4.2656 z"
         id="path2082" />
    </symbol>
    <symbol
       id="i"
       overflow="visible">
      <path
         d="m 28.625,-29.672 v 7.4375 c -2.0938,-0.875 -4.1172,-1.5312 -6.0625,-1.9688 -1.9492,-0.4375 -3.793,-0.65625 -5.5312,-0.65625 -1.8555,0 -3.2344,0.23438 -4.1406,0.70312 -0.89844,0.46094 -1.3438,1.1719 -1.3438,2.1406 0,0.78125 0.33594,1.3867 1.0156,1.8125 0.6875,0.41797 1.9141,0.72656 3.6875,0.92188 l 1.7188,0.25 c 5.0078,0.63672 8.3789,1.6836 10.109,3.1406 1.7383,1.4609 2.6094,3.7461 2.6094,6.8594 0,3.2734 -1.2031,5.7305 -3.6094,7.375 -2.4062,1.6367 -6,2.4531 -10.781,2.4531 -2.0234,0 -4.1172,-0.16406 -6.2812,-0.48438 -2.1562,-0.32031 -4.375,-0.80078 -6.6562,-1.4375 v -7.4375 c 1.957,0.94922 3.957,1.6641 6,2.1406 2.0508,0.46875 4.1328,0.70312 6.25,0.70312 1.9141,0 3.3594,-0.25781 4.3281,-0.78125 0.96875,-0.53125 1.4531,-1.3164 1.4531,-2.3594 0,-0.875 -0.33594,-1.5234 -1,-1.9531 -0.66797,-0.42578 -1.9961,-0.75781 -3.9844,-1 l -1.7188,-0.21875 c -4.3555,-0.55078 -7.4062,-1.5625 -9.1562,-3.0312 -1.75,-1.4766 -2.625,-3.7227 -2.625,-6.7344 0,-3.2383 1.1094,-5.6406 3.3281,-7.2031 2.2266,-1.5703 5.6406,-2.3594 10.234,-2.3594 1.8008,0 3.6914,0.13672 5.6719,0.40625 1.9883,0.27344 4.1484,0.69922 6.4844,1.2812 z"
         id="path2085" />
    </symbol>
  </defs>
  <g
     id="g2134"
     transform="translate(-86.677576,-21.782898)">
    <path
       d="m 125.24,499.5 c 31.562,31.566 31.719,77.051 87.695,-19.891 78.418,69.434 195.25,69.555 273.93,0.0859 56.008,96.727 56.539,51.059 87.797,19.805 6.2539,-6.25 13.211,-11.266 19.348,-15.688 15.723,-11.328 27.195,-21.598 12.578,-36.246 -8.3906,-8.3828 -36.738,-28.219 -65.625,-43.516 10.543,-25.215 16.078,-51.902 16.078,-79.527 0,-82.883 -49.125,-157.36 -125.25,-190.19 -1.5938,-62.453002 -35.129,-112.550002 -76.234,-112.550002 -40.027,0 -72.906,47.336 -76.172,108.210002 -81.707,29.586 -136.52,107.51 -136.52,194.53 0,27.645 5.5508,54.344 16.094,79.52 -29.156,15.414 -57.457,35.25 -65.629,43.527 -21.266,21.281 13.66,33.691 31.914,51.926 z m 476.72,-38.461 c -0.28516,3.4414 -7.5039,8.6445 -14.492,13.684 -45.004,32.445 -43.977,61.625 -56.82,48.781 -6.2148,-6.2109 -21.164,-26.828 -35.301,-51.57 3.6094,-3.5703 7.0938,-7.2344 10.406,-11.02 25.617,35.082 24.332,38.035 29.535,38.035 4.4922,0 7.2031,-5.0898 4.582,-8.8086 l -26.793,-38.305 c 4.8008,-6.1484 9.2383,-12.516 13.285,-19.125 43.199,26.691 41.199,26.668 44.18,26.668 5.6016,0 7.7227,-7.3555 2.9766,-10.348 l -41.508,-26.008 c 1.5391,-2.8633 2.9609,-5.7852 4.3633,-8.7188 7.9688,4.2461 66.332,37.668 65.586,46.734 z M 355.55,32.989 c 34.098,0 62.082,42.805 64.883,97.066 -10.773,-3.8711 -21.812,-6.8438 -33.043,-8.8789 3.3867,-7.9961 7.9219,-15.52 13.551,-22.09 4.8008,-5.5977 -3.6406,-12.914 -8.5078,-7.2852 -6.9531,8.1133 -12.527,17.48 -16.43,27.477 -6.4688,-0.80859 -12.969,-1.332 -19.473,-1.5391 4.9414,-12.074 11.758,-23.418 20.223,-33.305 4.8203,-5.6172 -3.6875,-12.918 -8.5078,-7.2852 -10.25,11.969 -18.242,25.906 -23.707,40.73 -7.8203,0.19531 -15.609,0.74609 -23.34,1.8125 16.664,-46.434 37.52,-51.25 28.695,-58.805 -2.3516,-1.9961 -5.8828,-1.7422 -7.8984,0.61328 -15.039,17.562 -26.305,38.371 -33.309,60.41 -6.0391,1.2188 -12,2.7109 -17.895,4.4727 3.8398,-52.5 31.375,-93.395 64.758,-93.395 z m -67.137,117.51 c 19.609,-7 40.305,-10.551 61.535,-10.551 102.5,0 184.69,82.875 184.69,184.58 0,26.145 -5.3594,51.398 -15.957,75.117 -79.051,179.6 -353.43,125.91 -353.43,-75.117 0,-78.09 49.48,-148.02 123.16,-174.03 z m -187.15,304.98 c 7.457,-7.5508 34.633,-26.473 62.293,-41.172 1.3477,2.8164 2.7227,5.6211 4.1914,8.3633 -32.035,22.527 -48.496,25.742 -43.152,34.125 5.7578,9.0195 17.223,-7.1602 48.762,-24.418 4.3984,7.2266 9.2422,14.156 14.508,20.797 -21.18,31.094 -34.598,38.691 -26.676,44.652 7.8008,5.9375 11.449,-8.8828 34.02,-35.781 2.9766,3.3477 6.043,6.6289 9.25,9.8008 -4,7.0273 -32.414,54.969 -40.559,54.969 -6.0273,0 -16.086,-20.555 -30.746,-35.223 -24.395,-24.398 -42.781,-25.184 -31.891,-36.113 z"
       id="path2090" />
    <path
       d="m 264.28,387.02 c -2.1875,2.1875 -2.1875,5.7305 0,7.918 23.613,23.609 54.633,35.414 85.652,35.414 31.02,0 62.027,-11.809 85.641,-35.414 2.1875,-2.1875 2.1875,-5.7305 0,-7.918 -2.1875,-2.1875 -5.7305,-2.1875 -7.918,0 -42.852,42.859 -112.58,42.848 -155.45,0 -2.1914,-2.1875 -5.7344,-2.1875 -7.9219,0 z"
       id="path2092" />
    <path
       d="m 426.83,354.64 c 24.523,0 44.473,-24.605 44.473,-54.848 0,-30.246 -19.949,-54.852 -44.473,-54.852 -24.52,0 -44.473,24.605 -44.473,54.852 0,30.242 19.953,54.848 44.473,54.848 z m 0,-98.496 c 18.344,0 33.273,19.586 33.273,43.652 0,24.066 -14.93,43.645 -33.273,43.645 -18.343,0 -33.273,-19.578 -33.273,-43.645 0,-24.07 14.93,-43.652 33.273,-43.652 z"
       id="path2094" />
    <path
       d="m 441.46,289.78 c 0,-11.594 -9.375,-21.02 -20.902,-21.02 -11.594,0 -21.023,9.4297 -21.023,21.02 0,11.527 9.4297,20.906 21.023,20.906 11.527,0.004 20.902,-9.375 20.902,-20.906 z m -30.727,0 c 0,-5.4141 4.4102,-9.8203 9.8242,-9.8203 5.3477,0 9.7031,4.4062 9.7031,9.8203 0,5.3555 -4.3516,9.707 -9.7031,9.707 -5.4141,0 -9.8242,-4.3516 -9.8242,-9.707 z"
       id="path2096" />
    <path
       d="m 273.03,354.64 c 24.523,0 44.473,-24.605 44.473,-54.848 0,-30.246 -19.949,-54.852 -44.473,-54.852 -24.52,0 -44.473,24.605 -44.473,54.852 0,30.242 19.949,54.848 44.473,54.848 z m 0,-98.496 c 18.344,0 33.273,19.586 33.273,43.652 0,24.066 -14.93,43.645 -33.273,43.645 -18.343,0 -33.273,-19.578 -33.273,-43.645 0,-24.07 14.93,-43.652 33.273,-43.652 z"
       id="path2098" />
    <path
       d="m 279.31,310.69 c 11.594,0 21.02,-9.3789 21.02,-20.906 0,-11.594 -9.4297,-21.02 -21.02,-21.02 -11.527,0 -20.902,9.4297 -20.902,21.02 0,11.527 9.375,20.906 20.902,20.906 z m 0,-30.73 c 5.4141,0 9.8203,4.4062 9.8203,9.8203 0,5.3555 -4.4062,9.707 -9.8203,9.707 -5.3477,0 -9.7031,-4.3516 -9.7031,-9.707 0,-5.4141 4.3516,-9.8203 9.7031,-9.8203 z"
       id="path2100" />
  </g>
</svg>
