<?xml version="1.0" encoding="UTF-8" standalone="no"?>
<svg
   width="515.25989pt"
   height="263.59381pt"
   version="1.1"
   viewBox="0 0 515.25989 263.59381"
   id="svg2668"
   sodipodi:docname="noun-fish-2326647.svg"
   inkscape:version="1.1.2 (b8e25be8, 2022-02-05)"
   xmlns:inkscape="http://www.inkscape.org/namespaces/inkscape"
   xmlns:sodipodi="http://sodipodi.sourceforge.net/DTD/sodipodi-0.dtd"
   xmlns="http://www.w3.org/2000/svg"
   xmlns:svg="http://www.w3.org/2000/svg">
  <sodipodi:namedview
     id="namedview2670"
     pagecolor="#ffffff"
     bordercolor="#999999"
     borderopacity="1"
     inkscape:pageshadow="0"
     inkscape:pageopacity="0"
     inkscape:pagecheckerboard="0"
     inkscape:document-units="pt"
     showgrid="false"
     inkscape:zoom="0.60321429"
     inkscape:cx="287.62581"
     inkscape:cy="445.11545"
     inkscape:window-width="1312"
     inkscape:window-height="855"
     inkscape:window-x="0"
     inkscape:window-y="23"
     inkscape:window-maximized="0"
     inkscape:current-layer="g2666" />
  <defs
     id="defs2484">
    <symbol
       id="u"
       overflow="visible">
      <path
         d="m 18.766,-1.125 c -0.96875,0.5 -1.9805,0.875 -3.0312,1.125 -1.043,0.25781 -2.1367,0.39062 -3.2812,0.39062 -3.3984,0 -6.0898,-0.94531 -8.0781,-2.8438 -1.9922,-1.9062 -2.9844,-4.4844 -2.9844,-7.7344 0,-3.2578 0.99219,-5.8359 2.9844,-7.7344 1.9883,-1.9062 4.6797,-2.8594 8.0781,-2.8594 1.1445,0 2.2383,0.13281 3.2812,0.39062 1.0508,0.25 2.0625,0.625 3.0312,1.125 v 4.2188 c -0.98047,-0.65625 -1.9453,-1.1406 -2.8906,-1.4531 -0.94922,-0.3125 -1.9492,-0.46875 -3,-0.46875 -1.875,0 -3.3516,0.60547 -4.4219,1.8125 -1.0742,1.1992 -1.6094,2.8555 -1.6094,4.9688 0,2.1055 0.53516,3.7617 1.6094,4.9688 1.0703,1.1992 2.5469,1.7969 4.4219,1.7969 1.0508,0 2.0508,-0.14844 3,-0.45312 0.94531,-0.3125 1.9102,-0.80078 2.8906,-1.4688 z"
         id="path2421" />
    </symbol>
    <symbol
       id="c"
       overflow="visible">
      <path
         d="m 13.734,-11.141 c -0.4375,-0.19531 -0.87109,-0.34375 -1.2969,-0.4375 -0.41797,-0.10156 -0.83984,-0.15625 -1.2656,-0.15625 -1.2617,0 -2.2305,0.40625 -2.9062,1.2188 -0.67969,0.80469 -1.0156,1.9531 -1.0156,3.4531 v 7.0625 H 2.3591 v -15.312 h 4.8906 v 2.5156 c 0.625,-1 1.3438,-1.7266 2.1562,-2.1875 0.82031,-0.46875 1.8008,-0.70312 2.9375,-0.70312 0.16406,0 0.34375,0.01172 0.53125,0.03125 0.19531,0.01172 0.47656,0.03906 0.84375,0.07813 z"
         id="path2424" />
    </symbol>
    <symbol
       id="b"
       overflow="visible">
      <path
         d="m 17.641,-7.7031 v 1.4062 H 6.188 c 0.125,1.1484 0.53906,2.0078 1.25,2.5781 0.70703,0.57422 1.7031,0.85938 2.9844,0.85938 1.0312,0 2.082,-0.14844 3.1562,-0.45312 1.082,-0.3125 2.1914,-0.77344 3.3281,-1.3906 v 3.7656 c -1.1562,0.4375 -2.3125,0.76562 -3.4688,0.98438 -1.1562,0.22656 -2.3125,0.34375 -3.4688,0.34375 -2.7734,0 -4.9297,-0.70312 -6.4688,-2.1094 -1.5312,-1.4062 -2.2969,-3.3789 -2.2969,-5.9219 0,-2.5 0.75391,-4.4609 2.2656,-5.8906 1.5078,-1.4375 3.582,-2.1562 6.2188,-2.1562 2.4062,0 4.332,0.73047 5.7812,2.1875 1.4453,1.4492 2.1719,3.3828 2.1719,5.7969 z m -5.0312,-1.625 c 0,-0.92578 -0.27344,-1.6719 -0.8125,-2.2344 -0.54297,-0.57031 -1.25,-0.85938 -2.125,-0.85938 -0.94922,0 -1.7188,0.26562 -2.3125,0.79688 -0.5937,0.53126 -0.96484,1.2969 -1.1094,2.2969 z"
         id="path2427" />
    </symbol>
    <symbol
       id="a"
       overflow="visible">
      <path
         d="m 9.2188,-6.8906 c -1.0234,0 -1.793,0.17188 -2.3125,0.51562 -0.51172,0.34375 -0.76562,0.85547 -0.76562,1.5312 0,0.625 0.20703,1.1172 0.625,1.4688 0.41406,0.34375 0.98828,0.51562 1.7188,0.51562 0.92578,0 1.7031,-0.32812 2.3281,-0.98438 0.63281,-0.66406 0.95312,-1.4922 0.95312,-2.4844 v -0.5625 z m 7.4688,-1.8438 V 0 h -4.9219 v -2.2656 c -0.65625,0.92969 -1.3984,1.6055 -2.2188,2.0312 -0.82422,0.41406 -1.8242,0.625 -3,0.625 -1.5859,0 -2.8711,-0.45703 -3.8594,-1.375 -0.99219,-0.92578 -1.4844,-2.1289 -1.4844,-3.6094 0,-1.7891 0.61328,-3.1016 1.8438,-3.9375 1.2383,-0.84375 3.1797,-1.2656 5.8281,-1.2656 h 2.8906 v -0.39062 c 0,-0.76953 -0.30859,-1.332 -0.92188,-1.6875 -0.61719,-0.36328 -1.5703,-0.54688 -2.8594,-0.54688 -1.0547,0 -2.0312,0.10547 -2.9375,0.3125 -0.89844,0.21094 -1.7305,0.52344 -2.5,0.9375 v -3.7344 c 1.0391,-0.25 2.0859,-0.44141 3.1406,-0.57812 1.0625,-0.13281 2.125,-0.20312 3.1875,-0.20312 2.7578,0 4.75,0.54688 5.9688,1.6406 1.2266,1.0859 1.8438,2.8555 1.8438,5.3125 z"
         id="path2430" />
    </symbol>
    <symbol
       id="d"
       overflow="visible">
      <path
         d="m 7.7031,-19.656 v 4.3438 H 12.75 v 3.5 H 7.7031 v 6.5 c 0,0.71094 0.14062,1.1875 0.42188,1.4375 0.28126,0.25 0.83594,0.375 1.6719,0.375 h 2.5156 v 3.5 h -4.1875 c -1.9375,0 -3.3125,-0.39844 -4.125,-1.2031 -0.80469,-0.8125 -1.2031,-2.1797 -1.2031,-4.1094 v -6.5 h -2.4219 v -3.5 h 2.4219 v -4.3438 z"
         id="path2433" />
    </symbol>
    <symbol
       id="l"
       overflow="visible">
      <path
         d="m 12.766,-13.078 v -8.2031 h 4.9219 V -10e-5 H 12.766 v -2.2188 c -0.66797,0.90625 -1.4062,1.5703 -2.2188,1.9844 -0.8126,0.4141 -1.7578,0.625 -2.8281,0.625 -1.8867,0 -3.4336,-0.75 -4.6406,-2.25 -1.2109,-1.5 -1.8125,-3.4258 -1.8125,-5.7812 0,-2.3633 0.60156,-4.2969 1.8125,-5.7969 1.207,-1.5 2.7539,-2.25 4.6406,-2.25 1.0625,0 2,0.21484 2.8125,0.64062 0.82031,0.42969 1.5664,1.0859 2.2344,1.9688 z m -3.2188,9.9219 c 1.0391,0 1.8359,-0.37891 2.3906,-1.1406 0.55078,-0.76953 0.82812,-1.8828 0.82812,-3.3438 0,-1.457 -0.27734,-2.5664 -0.82812,-3.3281 -0.55469,-0.76953 -1.3516,-1.1562 -2.3906,-1.1562 -1.043,0 -1.8398,0.38672 -2.3906,1.1562 -0.55469,0.76172 -0.82812,1.8711 -0.82812,3.3281 0,1.4609 0.27344,2.5742 0.82812,3.3438 0.55078,0.76172 1.3477,1.1406 2.3906,1.1406 z"
         id="path2436" />
    </symbol>
    <symbol
       id="k"
       overflow="visible">
      <path
         d="m 10.5,-3.1562 c 1.0508,0 1.8516,-0.37891 2.4062,-1.1406 0.55078,-0.76953 0.82812,-1.8828 0.82812,-3.3438 0,-1.457 -0.27734,-2.5664 -0.82812,-3.3281 -0.55469,-0.76953 -1.3555,-1.1562 -2.4062,-1.1562 -1.0547,0 -1.8594,0.38672 -2.4219,1.1562 -0.55469,0.77344 -0.82812,1.8828 -0.82812,3.3281 0,1.4492 0.27344,2.5586 0.82812,3.3281 0.5625,0.77344 1.3672,1.1562 2.4219,1.1562 z m -3.25,-9.9219 c 0.67578,-0.88281 1.4219,-1.5391 2.2344,-1.9688 0.82031,-0.42578 1.7656,-0.64062 2.8281,-0.64062 1.8945,0 3.4453,0.75 4.6562,2.25 1.207,1.5 1.8125,3.4336 1.8125,5.7969 0,2.3555 -0.60547,4.2812 -1.8125,5.7812 -1.2109,1.5 -2.7617,2.25 -4.6562,2.25 -1.0625,0 -2.0078,-0.21094 -2.8281,-0.625 C 8.6719,-0.6602 7.9258,-1.32032 7.25,-2.21882 V -2e-5 H 2.3594 v -21.281 H 7.25 Z"
         id="path2439" />
    </symbol>
    <symbol
       id="f"
       overflow="visible">
      <path
         d="m 0.34375,-15.312 h 4.8906 l 4.125,10.391 3.5,-10.391 h 4.8906 l -6.4375,16.766 c -0.64844,1.6953 -1.4023,2.8828 -2.2656,3.5625 -0.86719,0.6875 -2,1.0312 -3.4062,1.0312 H 2.79685 V 2.8289 h 1.5312 c 0.83203,0 1.4375,-0.13672 1.8125,-0.40625 C 6.52336,2.16093 6.82024,1.69218 7.03117,1.01645 L 7.17179,0.59457 Z"
         id="path2442" />
    </symbol>
    <symbol
       id="j"
       overflow="visible">
      <path
         d="m 2.5781,-20.406 h 6.6875 l 4.6562,10.922 4.6719,-10.922 h 6.6875 V 0 H 20.2968 V -14.938 L 15.5937,-3.922 H 12.2656 L 7.5625,-14.938 V 0 H 2.5781 Z"
         id="path2445" />
    </symbol>
    <symbol
       id="t"
       overflow="visible">
      <path
         d="M 2.3594,-15.312 H 7.25 V 0 H 2.3594 Z m 0,-5.9688 H 7.25 v 4 H 2.3594 Z"
         id="path2448" />
    </symbol>
    <symbol
       id="s"
       overflow="visible">
      <path
         d="m 1.5781,-20.406 h 17.156 v 3.1719 l -10.953,13.25 h 11.266 V 3e-4 H 1.2661 v -3.1875 l 10.938,-13.25 H 1.5791 Z"
         id="path2451" />
    </symbol>
    <symbol
       id="i"
       overflow="visible">
      <path
         d="m 16.547,-12.766 c 0.61328,-0.94531 1.3477,-1.6719 2.2031,-2.1719 0.85156,-0.5 1.7891,-0.75 2.8125,-0.75 1.7578,0 3.0977,0.54688 4.0156,1.6406 0.92578,1.0859 1.3906,2.6562 1.3906,4.7188 V -4e-4 h -4.9219 v -7.9844 -0.35938 c 0.0078,-0.13281 0.01563,-0.32031 0.01563,-0.5625 0,-1.082 -0.16406,-1.8633 -0.48438,-2.3438 -0.3125,-0.48828 -0.82422,-0.73438 -1.5312,-0.73438 -0.92969,0 -1.6484,0.38672 -2.1562,1.1562 -0.51172,0.76172 -0.77344,1.8672 -0.78125,3.3125 v 7.5156 h -4.9219 v -7.9844 c 0,-1.6953 -0.14844,-2.7852 -0.4375,-3.2656 -0.29297,-0.48828 -0.8125,-0.73438 -1.5625,-0.73438 -0.9375,0 -1.6641,0.38672 -2.1719,1.1562 -0.51172,0.76172 -0.76562,1.8594 -0.76562,3.2969 v 7.5312 h -4.9219 v -15.312 h 4.9219 v 2.2344 c 0.60156,-0.86328 1.2891,-1.5156 2.0625,-1.9531 0.78125,-0.4375 1.6406,-0.65625 2.5781,-0.65625 1.0625,0 2,0.25781 2.8125,0.76562 0.8125,0.51172 1.4258,1.2305 1.8438,2.1562 z"
         id="path2454" />
    </symbol>
    <symbol
       id="h"
       overflow="visible">
      <path
         d="m 14.719,-14.828 v 3.9844 c -0.65625,-0.45703 -1.3242,-0.79688 -2,-1.0156 -0.66797,-0.21875 -1.3594,-0.32812 -2.0781,-0.32812 -1.3672,0 -2.4336,0.40234 -3.2031,1.2031 -0.76172,0.79297 -1.1406,1.9062 -1.1406,3.3438 0,1.4297 0.37891,2.543 1.1406,3.3438 0.76953,0.79297 1.8359,1.1875 3.2031,1.1875 0.75781,0 1.4844,-0.10938 2.1719,-0.32812 0.6875,-0.22656 1.3203,-0.56641 1.9062,-1.0156 v 4 c -0.76172,0.28125 -1.5391,0.48828 -2.3281,0.625 -0.78125,0.14453 -1.5742,0.21875 -2.375,0.21875 -2.7617,0 -4.9219,-0.70703 -6.4844,-2.125 -1.5547,-1.4141 -2.3281,-3.3828 -2.3281,-5.9062 0,-2.5312 0.77344,-4.5039 2.3281,-5.9219 1.5625,-1.4141 3.7227,-2.125 6.4844,-2.125 0.80078,0 1.5938,0.07422 2.375,0.21875 0.78125,0.13672 1.5547,0.35156 2.3281,0.64062 z"
         id="path2457" />
    </symbol>
    <symbol
       id="g"
       overflow="visible">
      <path
         d="M 17.75,-9.3281 V 0 h -4.9219 v -7.1094 c 0,-1.3438 -0.03125,-2.2656 -0.09375,-2.7656 -0.0625,-0.5 -0.16797,-0.86719 -0.3125,-1.1094 -0.1875,-0.3125 -0.44922,-0.55469 -0.78125,-0.73438 -0.32422,-0.17578 -0.69531,-0.26562 -1.1094,-0.26562 -1.0234,0 -1.8242,0.39844 -2.4062,1.1875 -0.58594,0.78125 -0.875,1.8711 -0.875,3.2656 V -1e-4 H 2.3594 v -21.281 H 7.25 v 8.2031 c 0.73828,-0.88281 1.5195,-1.5391 2.3438,-1.9688 0.83203,-0.42578 1.75,-0.64062 2.75,-0.64062 1.7695,0 3.1133,0.54688 4.0312,1.6406 0.91406,1.0859 1.375,2.6562 1.375,4.7188 z"
         id="path2460" />
    </symbol>
    <symbol
       id="r"
       overflow="visible">
      <path
         d="m 12.422,-21.281 v 3.2188 H 9.7189 c -0.6875,0 -1.1719,0.125 -1.4531,0.375 -0.27344,0.25 -0.40625,0.6875 -0.40625,1.3125 v 1.0625 h 4.1875 v 3.5 H 7.85955 V -2e-4 h -4.8906 v -11.812 h -2.4375 v -3.5 h 2.4375 v -1.0625 c 0,-1.6641 0.46094,-2.8984 1.3906,-3.7031 0.92578,-0.80078 2.3672,-1.2031 4.3281,-1.2031 z"
         id="path2463" />
    </symbol>
    <symbol
       id="e"
       overflow="visible">
      <path
         d="m 9.6406,-12.188 c -1.0859,0 -1.9141,0.39062 -2.4844,1.1719 -0.57422,0.78125 -0.85938,1.9062 -0.85938,3.375 0,1.4688 0.28516,2.5938 0.85938,3.375 0.57031,0.77344 1.3984,1.1562 2.4844,1.1562 1.0625,0 1.875,-0.38281 2.4375,-1.1562 0.57031,-0.78125 0.85938,-1.9062 0.85938,-3.375 0,-1.4688 -0.28906,-2.5938 -0.85938,-3.375 -0.5625,-0.78125 -1.375,-1.1719 -2.4375,-1.1719 z m 0,-3.5 c 2.6328,0 4.6914,0.71484 6.1719,2.1406 1.4766,1.418 2.2188,3.3867 2.2188,5.9062 0,2.5117 -0.74219,4.4805 -2.2188,5.9062 C 14.332,-0.317 12.2734,0.39 9.6406,0.39 6.9922,0.39 4.9258,-0.31703 3.4375,-1.735 1.9453,-3.1608 1.2031,-5.1295 1.2031,-7.6412 c 0,-2.5195 0.74219,-4.4883 2.2344,-5.9062 1.4883,-1.4258 3.5547,-2.1406 6.2031,-2.1406 z"
         id="path2466" />
    </symbol>
    <symbol
       id="q"
       overflow="visible">
      <path
         d="m 2.5781,-20.406 h 5.875 l 7.4219,14 v -14 h 4.9844 V 0 h -5.875 L 7.5625,-14 V 0 H 2.5781 Z"
         id="path2469" />
    </symbol>
    <symbol
       id="p"
       overflow="visible">
      <path
         d="m 2.1875,-5.9688 v -9.3438 h 4.9219 v 1.5312 c 0,0.83594 -0.00781,1.875 -0.015625,3.125 -0.011719,1.25 -0.015625,2.0859 -0.015625,2.5 0,1.2422 0.03125,2.1328 0.09375,2.6719 0.070313,0.54297 0.17969,0.93359 0.32812,1.1719 0.20703,0.32422 0.47266,0.57422 0.79688,0.75 0.32031,0.16797 0.69141,0.25 1.1094,0.25 1.0195,0 1.8203,-0.39062 2.4062,-1.1719 0.58203,-0.78125 0.875,-1.8672 0.875,-3.2656 v -7.5625 h 4.8906 V -6e-4 H 12.6875 V -2.2194 C 11.94531,-1.32096 11.1641,-0.6608 10.3437,-0.235 9.51948,0.17906 8.6093,0.39 7.6093,0.39 5.8476,0.39 4.5038,-0.14906 3.5781,-1.235 2.64841,-2.317 2.1875,-3.8952 2.1875,-5.9694 Z"
         id="path2472" />
    </symbol>
    <symbol
       id="o"
       overflow="visible">
      <path
         d="M 17.75,-9.3281 V 0 h -4.9219 v -7.1406 c 0,-1.3203 -0.03125,-2.2344 -0.09375,-2.7344 -0.0625,-0.5 -0.16797,-0.86719 -0.3125,-1.1094 -0.1875,-0.3125 -0.44922,-0.55469 -0.78125,-0.73438 -0.32422,-0.17578 -0.69531,-0.26562 -1.1094,-0.26562 -1.0234,0 -1.8242,0.39844 -2.4062,1.1875 -0.58594,0.78125 -0.875,1.8711 -0.875,3.2656 V -1e-4 H 2.3594 v -15.312 H 7.25 v 2.2344 c 0.73828,-0.88281 1.5195,-1.5391 2.3438,-1.9688 0.83203,-0.42578 1.75,-0.64062 2.75,-0.64062 1.7695,0 3.1133,0.54688 4.0312,1.6406 0.91406,1.0859 1.375,2.6562 1.375,4.7188 z"
         id="path2475" />
    </symbol>
    <symbol
       id="n"
       overflow="visible">
      <path
         d="m 2.5781,-20.406 h 8.7344 c 2.5938,0 4.582,0.57812 5.9688,1.7344 1.3945,1.1484 2.0938,2.7891 2.0938,4.9219 0,2.1367 -0.69922,3.7812 -2.0938,4.9375 -1.3867,1.1562 -3.375,1.7344 -5.9688,1.7344 H 7.8281 V 3e-4 h -5.25 z m 5.25,3.8125 v 5.7031 H 10.75 c 1.0195,0 1.8047,-0.25 2.3594,-0.75 0.5625,-0.5 0.84375,-1.2031 0.84375,-2.1094 0,-0.91406 -0.28125,-1.6172 -0.84375,-2.1094 -0.55469,-0.48828 -1.3398,-0.73438 -2.3594,-0.73438 z"
         id="path2478" />
    </symbol>
    <symbol
       id="m"
       overflow="visible">
      <path
         d="M 2.3594,-15.312 H 7.25 v 15.031 c 0,2.0508 -0.49609,3.6172 -1.4844,4.7031 -0.98047,1.082 -2.4062,1.625 -4.2812,1.625 H -0.9375 V 2.8283 h 0.85938 c 0.92578,0 1.5625,-0.21094 1.9062,-0.625 0.35156,-0.41797 0.53125,-1.2461 0.53125,-2.4844 z m 0,-5.9688 H 7.25 v 4 H 2.3594 Z"
         id="path2481" />
    </symbol>
  </defs>
  <g
     id="g2666"
     transform="translate(-92.278188,-148.3007)">
    <path
       d="m 433.73,242.72 c 5.0469,4.3242 9.8984,8.9062 15.188,12.914 v -0.004 c 6.7266,5.6055 15.848,7.3906 24.191,4.7344 12.617,-3.7227 24.492,-9.6094 35.094,-17.395 4.457,-3.4258 9.1797,-6.5078 13.773,-9.7578 1.5312,-1.082 3.0938,-2.1328 4.5352,-3.3281 h 0.004 c 12.812,-10.34 24.441,-22.074 34.664,-34.98 4.6523,-6.0078 7.0586,-6.2812 13.086,-1.8789 5.6094,3.9727 10.871,8.4141 15.73,13.273 4.9375,5.7188 8.1953,12.699 9.4062,20.156 5.1953,20.172 7.9297,40.902 8.1367,61.734 -0.33594,4.1367 -1.0977,8.2305 -2.2656,12.215 -0.71484,4.2383 -3.8984,7.6367 -8.082,8.625 -6.5195,2.1172 -13.168,3.8125 -19.906,5.0781 -14.414,2.2109 -28.98,3.293 -43.562,3.2344 -13.109,-0.65625 -26.078,-3.0117 -38.582,-7.0078 -5.1797,-1.5469 -10.199,-3.6328 -15.316,-5.3906 l -0.004,0.004 c -3.6836,-1.6953 -7.8125,-2.1562 -11.781,-1.3164 -3.9648,0.83984 -7.5547,2.9336 -10.234,5.9766 -13.383,14.309 -27.578,27.871 -40.73,42.383 v -0.004 c -10.523,11.305 -22.805,20.836 -36.367,28.227 -16.637,9.5586 -34.367,17.07 -52.805,22.375 -9.3867,2.7969 -19.055,4.5625 -28.824,5.2656 -10.59,0.60938 -21.09,2.6953 -31.68,3.4492 v -0.004 c -18.117,1.6172 -36.375,-0.0586 -53.895,-4.9492 -7.8477,-2.0078 -15.539,-4.5859 -23.012,-7.7188 -7.4102,-3.7539 -14.535,-8.0391 -21.32,-12.828 -6.2617,-4.1094 -12.211,-8.6953 -18.328,-13.031 h 0.004 c -9.4141,-7.5898 -17.531,-16.664 -24.031,-26.859 -8.6016,-12.297 -15.625,-25.625 -20.914,-39.672 -7.257805,-16.867 -11.754005,-34.793 -13.312005,-53.086 -1.1562,-9.8281 0.90625,-19.766 5.8789,-28.32 2.902305,-4.5391 4.949205,-9.6289 7.878905,-14.145 h 0.004 c 2.1445,-3.3203 4.7383,-6.332 7.6992,-8.9492 14.445,-12.301 30.195,-22.98 46.973,-31.844 21.23,-10.707 44.188,-17.586 67.809,-20.316 18.652,-2.3633 37.574,-1.4453 55.906,2.707 19.09,3.5586 37.59,9.75 54.977,18.391 10.91,5.6562 21.355,12.172 31.23,19.484 13.473,9.8008 26.41,20.363 39.273,30.973 8.1953,6.7617 15.836,14.199 23.727,21.332 z m -45.648,-32.949 0.24219,0.0234 -20.031,-16.703 c -2.5703,2.25 -4.2305,4.75 -6.4062,5.3359 -2.4883,0.66797 -3.832,-1.8594 -4.2734,-4.5469 l 3.9648,-5.3867 c -8.1094,-4.793 -15.504,-9.9609 -23.559,-13.715 -9.8672,-4.4766 -19.98,-8.3906 -30.293,-11.719 -8.4766,-2.8672 -17.137,-5.1602 -25.926,-6.8633 -16.18,-2.9531 -32.688,-3.6719 -49.062,-2.1289 -26.672,2.25 -52.492,10.461 -75.559,24.035 -9.4727,5.6406 -18.602,11.84 -27.336,18.566 -8.5352,6.0195 -16.039,13.383 -22.227,21.797 -2.6562,3.9609 -4.6289,8.3398 -5.8398,12.953 -0.87891,3.625 -0.89453,7.4062 -0.0469,11.043 0.33593,2.7773 2.05859,5.1992 4.5742,6.4219 2.51949,1.2227 5.48439,1.0781 7.875,-0.37891 3.2031,-1.4961 6.2891,-3.2188 9.2422,-5.1641 1.875,-1.1406 3.5938,-2.5469 5.73049,-4.0859 2.2891,5.082 -1.625,6.1641 -3.7461,7.7617 -8.5625,6.4453 -17.40599,11.297 -27.679995,0.8125 -0.80859,17.758 4.621105,32.977 8.980505,48.281 l -0.004,-0.008 c 0.54297,0.12891 1.1016,0.17969 1.6602,0.14844 1,-0.28125 1.9844,-0.62892 2.9414,-1.04301 10.574,-4.64839 22.379,-5.73829 33.625,-3.1016 13.277,2.0469 25.602,8.125 35.305,17.414 3.5742,3.7305 8.3203,6.3164 12.141,9.8438 8.5664,7.9062 17.348,15.652 25.176,24.254 h 0.004 c 7.4648,8.4453 16.434,15.43 26.445,20.605 9.168,5.0781 19.617,7.3789 30.074,6.6133 9.418,-0.9375 18.961,-0.56641 28.441,-0.77734 -0.043,-4.66019 1.2344,-6.9766 3.7148,-6.6406 0.92188,0.125 2.2695,0.79298 2.5156,1.5195 v 0.004 c 0.5,1.9453 0.83203,3.9297 0.99609,5.9297 15.703,1.418 30.609,5.2539 40.246,19.172 14.496,-5.082 46.102,-24.137 50.738,-32.477 l -2.2109,-3.2461 0.67188,-1.0312 5.9844,1.3711 c 11.699,-10.785 23.344,-21.531 34.938,-32.238 h 0.004 c 0.53906,-0.63281 1.043,-1.2969 1.5078,-1.9883 5.1641,-7.0586 11.258,-13.383 18.117,-18.809 3.8281,-2.9844 8.8633,-3.9492 13.523,-2.5859 5.1914,1.5273 10.234,3.5625 15.434,5.0625 9.6523,3.3359 19.531,5.9727 29.562,7.8984 20.848,2.9844 42.039,2.5508 62.75,-1.2812 4.6719,-1.0312 9.2578,-2.4062 13.727,-4.1211 5.1445,-1.6797 8.75,-6.3203 9.1055,-11.723 0.56641,-7.668 0.44141,-15.367 -0.36719,-23.012 -0.8125,-8.0586 -2.8945,-15.977 -4.0508,-24.008 -1.3242,-10.98 -4.082,-21.742 -8.1992,-32.012 -3.6406,-8.5391 -10.445,-15.34 -18.988,-18.977 -5.207,-2.375 -5.0273,-2.8828 -8.7031,1.4219 -4.3359,5.0742 -8.2852,10.52 -12.949,15.266 -10.844,10.672 -22.637,20.336 -35.234,28.871 -5.2656,3.6953 -10.477,7.4727 -15.039,10.734 l -1.125,10.125 c -2.2969,-0.86719 -4.0039,-1 -4.7188,-1.9141 -0.71094,-1.4844 -1.1445,-3.0859 -1.2852,-4.7227 -3.1406,1.2969 -5.9609,2.6016 -8.875,3.6406 -8.1992,2.9258 -15.715,8.5859 -25.363,5.8789 0.49609,4.1328 1.082,7.7812 -3.2969,9.5391 l -0.004,-0.004 c -2.3711,1.1016 -5.1836,0.53125 -6.9453,-1.3984 -2.8008,-3.3203 -2.7461,-8.1914 0.12109,-11.449 l -31.812,-28.805 c -7.4219,3.5273 -8.2227,3.7461 -10.371,1.9375 v -0.004 c -3.6641,-3.4219 -4.6406,-8.8438 -2.4062,-13.332 z m -73.734,190.39 0.28125,-1.7969 h 0.004 c -5.9219,-4.0352 -12.551,-6.9297 -19.539,-8.5234 -10.305,-1.3633 -20.672,-2.2891 -31.027,-3.1953 -13.758,-1.293 -26.93,-6.1875 -38.199,-14.184 -9.7617,-7.1367 -18.82,-15.191 -27.055,-24.051 -6.457,-7.0859 -13.621,-13.492 -21.383,-19.117 -9.0547,-6.3672 -19.262,-10.914 -30.055,-13.387 -10.715,-2.793 -21.98,-2.6758 -32.637,0.33203 7.2227,13.238 13.34,26.68 23.973,37.23 1.3164,-0.51172 2.6641,-0.94141 4.0352,-1.2891 5.1914,-1.3711 10.512,-2.1914 15.879,-2.4492 6.043,0.39844 12.004,1.6055 17.723,3.5938 4.3008,1.5273 8.3555,3.668 12.035,6.3633 8.375,5.8047 16.344,12.195 24.73,17.984 12.477,8.4844 27.043,13.375 42.109,14.148 7.793,0.17188 15.324,2.832 21.496,7.5859 2.1953,2.1836 4.9258,3.7422 7.9219,4.5273 2.9922,0.78125 6.1367,0.75781 9.1211,-0.0703 0.79688,-0.19922 1.6758,-0.0664 2.4883,-0.21875 6.0352,-1.1406 12.066,-2.3164 18.098,-3.4844 z m 29.832,-9.0859 0.004,0.004 c -0.55859,-0.89453 -1.1719,-1.7539 -1.8281,-2.5781 -0.82422,-0.9375 -1.7227,-1.8086 -2.6914,-2.5977 -10.605,-7.9453 -23.66,-11.922 -36.891,-11.242 -8.1094,-0.0547 -16.223,1.0078 -24.34,1.4805 h -0.004 c -6.8633,0.41016 -13.746,-0.33984 -20.359,-2.2227 -14.902,-4.2266 -28.383,-12.41 -39.008,-23.68 -7.8203,-8.6484 -16.156,-16.82 -24.957,-24.465 -6.75,-5.5117 -13.305,-11.262 -20.074,-16.75 h -0.004 c -7.1523,-5.4375 -15.367,-9.3164 -24.109,-11.391 -8.8516,-2.5664 -18.16,-3.1367 -27.254,-1.6758 -4.9258,0.44141 -9.6367,2.2148 -13.629,5.1289 2.3516,10.691 2.582,11.07 12.074,9.4844 23.367,-3.9023 43.16,5.0938 61.332,17.926 v 0.004 c 8.3867,6.8711 16.234,14.383 23.469,22.461 4.0195,3.9023 7.9297,7.9336 12.137,11.621 16.082,13.938 36.711,21.508 57.992,21.281 15.336,-0.36719 30.387,4.1562 42.98,12.91 1.5586,0.99219 3.4375,1.3438 5.2461,0.99219 6.0742,-1.3906 12.062,-3.168 18.047,-4.9102 0.68359,-0.19922 1.1641,-1.082 1.8711,-1.7773 z m -95.887,16.543 0.25781,-2.1172 h -0.004 c -3.2891,-1.6719 -6.7617,-2.957 -10.348,-3.8359 -12.766,-1.6562 -23.488,-8.2266 -34.699,-13.652 -0.89844,-0.51953 -1.7461,-1.1289 -2.5312,-1.8164 -6.8711,-5.4258 -14.562,-9.7266 -22.789,-12.727 -5.2773,-2.4805 -11.41,-2.3516 -16.582,0.33984 3.25,4.7695 8.707,7.5547 14.473,7.3867 9.7578,-1.2852 19.496,2.5 25.824,10.039 4.8438,6.5469 12.152,10.832 20.23,11.875 1.0195,0.14844 1.9805,0.69531 3,0.85938 7.7188,1.2422 15.441,2.4375 23.168,3.6484 z m -47.598,-32.758 0.57031,-1.0273 c -6.1289,-4.5586 -12.094,-9.3672 -18.434,-13.617 l 0.004,-0.004 c -8.582,-4.7852 -18.301,-7.1523 -28.121,-6.8516 -4.25,-0.20703 -8.4531,0.97266 -11.977,3.3555 l 8.1328,8.2617 c 14.371,-5.7422 27.363,-2.2461 39.871,5.2773 v 0.004 c 3.2266,1.7188 6.5508,3.2539 9.9531,4.5977 z m 30.777,16.125 -0.32812,0.71875 v -0.004 c 1.082,0.85156 2.2812,1.5391 3.5586,2.043 8.4531,1.9453 16.891,4.0391 25.441,5.4375 v 0.004 c 4.1328,0.14453 8.0703,1.793 11.074,4.6328 1.8516,2.0547 2.0508,1.875 5.4727,0.85938 -6.5547,-5.3672 -14.621,-8.5664 -23.074,-9.1523 -5.7266,-0.71094 -11.406,-1.7266 -17.023,-3.043 -1.7383,-0.33984 -3.418,-0.99219 -5.1211,-1.5 z m -30.227,4.9375 v -0.004 c -2.3477,-3.7773 -5.7891,-6.7578 -9.8633,-8.543 -4.0742,-1.7891 -8.5938,-2.3008 -12.965,-1.4688 6.7148,5.0859 14.535,8.5195 22.828,10.012 z m 24.047,-2.3164 v -0.004 c -10.098,-6.8828 -20.754,-12.906 -31.859,-18.004 9.1289,8.3242 20.02,14.477 31.859,18.004 z m 26.602,8.0312 c 3.1211,5.5312 5.3867,6.0586 13.941,3.4297 z m -78.664,-33.859 -0.0781,-1.332 c -5.332,0.31641 -10.969,-2.4297 -16.176,1.6406 0.49219,0.76953 0.73828,1.4141 0.91406,1.3984 5.1211,-0.52734 10.23,-1.125 15.34,-1.707 z"
       id="path2486" />
    <path
       d="m 296.61,328.55 c -9.6328,9.1289 -20.5,16.863 -32.285,22.973 -5.875,2.9414 -8.5078,1.9805 -10.953,-4.3711 -2.0156,-5.0195 -3.7344,-10.152 -5.1484,-15.371 -3.6211,-13.941 -10.473,-26.836 -20,-37.641 -0.8125,-1.1875 -1.5156,-2.4492 -2.0977,-3.7656 -1.1836,-2.0547 -0.58984,-4.1445 1.3398,-4.6836 6.0898,-1.6953 7.2812,-6.7305 7.6836,-11.605 0.53516,-6.457 3.4453,-7.3477 8.8828,-8.1758 12.316,-1.8828 24.598,-3.9922 36.844,-6.3281 3.8516,-0.72656 7.4961,-2.4883 11.301,-3.5508 3.3438,-1.0938 6.793,-1.8555 10.289,-2.2734 4.0156,-0.40234 8.0078,0.97266 10.926,3.7617 2.9219,2.7852 4.4805,6.707 4.2656,10.738 1.3359,20.785 -5.1758,41.309 -18.246,57.52 -0.51172,0.65234 -1.1758,1.1758 -2.8008,2.7734 z m -66.328,-38.133 c 1.5664,2.0742 3.0664,4.0352 4.543,6.0156 v -0.004 c 9.332,13.109 16.008,27.918 19.66,43.59 1.832,6.9922 3.9023,7.9922 10.891,6.1055 6.7617,-2.2383 12.945,-5.9336 18.117,-10.832 11.551,-8.6992 20.309,-20.582 25.191,-34.191 3.4258,-9.6328 5.043,-19.812 4.7695,-30.031 -0.17969,-4.2227 -2.4023,-8.0938 -5.9609,-10.375 -3.5586,-2.2812 -8.0039,-2.6914 -11.918,-1.0977 -3.8945,1.4727 -7.8867,2.6641 -11.949,3.5742 -13.059,2.5977 -26.148,5.0703 -39.281,7.2695 v -0.004 c -2.793,0.0508 -5.1172,2.1641 -5.4375,4.9375 -0.60547,4.5898 -2.8945,8.793 -6.418,11.797 -0.87109,0.98438 -1.6133,2.0742 -2.207,3.2461 z"
       id="path2488" />
    <path
       d="m 577.14,219.8 c -4.2812,6.3516 -9.9609,11.633 -16.605,15.438 -12.129,7.3047 -24.637,13.98 -36.902,21.062 h 0.004 c -7.9297,4.2148 -15.035,9.8203 -20.977,16.555 -0.82031,0.94531 -1.5938,1.9297 -2.3125,2.957 -1.5391,1.793 -2.0703,4.2383 -1.4062,6.5078 0.66016,2.2695 2.4219,4.0508 4.6836,4.7344 7.0898,3.0391 14.676,4.75 22.383,5.0469 8.332,0.0234 16.668,0.40234 24.996,0.73828 12.895,0.89062 25.844,0.57812 38.68,-0.94141 2.0391,-0.30078 4.1055,-0.41016 7.2109,-0.71094 -1.543,2.4531 -4.2617,3.918 -7.1602,3.8555 -15.215,2.3359 -30.656,2.8203 -45.984,1.4375 -6.8125,-0.40625 -13.695,0.66016 -20.543,0.57812 -5.6094,-0.0703 -11.215,-0.78906 -16.809,-1.3359 -5.207,-0.75391 -10.039,-3.1445 -13.801,-6.8203 -3.2031,-4.0039 -3.6953,-9.5312 -1.2539,-14.039 2.7773,-5.1875 7.168,-9.3359 12.508,-11.812 10.02,-5.5352 20.133,-10.898 30.109,-16.512 7.0664,-3.9766 13.914,-8.3477 20.957,-12.363 6.7344,-3.7617 12.785,-8.6289 17.902,-14.395 0.73828,-0.84375 2.2148,-1.043 3.3477,-1.543 z"
       id="path2490" />
    <path
       d="m 585.07,238.59 c -0.91016,2.168 -1.043,3.457 -1.75,4 -3.0156,2.5469 -6.2656,4.8125 -9.7031,6.7578 -5.7422,2.9336 -11.664,5.5 -17.73,7.6758 -8.6055,2.5859 -16.504,7.1094 -23.086,13.227 -3.8008,3.8164 -3.5586,5.7031 1.7695,7.1016 h -0.004 c 5.7422,1.8086 11.699,2.8555 17.715,3.1055 12.023,-0.125 24.035,-1.3555 36.461,-2.1602 v 0.004 c -0.59766,2.4297 -2.6406,4.2344 -5.125,4.5312 -5.0352,1.1836 -10.168,1.918 -15.332,2.1953 -6.1992,0.19141 -12.465,-1.0625 -18.629,-0.64062 -5.3359,0.85938 -10.777,0.85938 -16.109,-0.008 -3.0586,-0.64062 -6.0625,-1.5195 -8.9844,-2.625 -4.9648,-2.1133 -6,-6.2812 -2.0078,-9.7305 l 0.004,-0.004 c 5.1562,-4.8242 10.871,-9.0117 17.027,-12.473 10.992,-5.8828 22.402,-10.949 34.137,-15.152 3.9141,-1.6719 7.7031,-3.6133 11.348,-5.8047 z"
       id="path2492" />
    <path
       d="m 178.9,251.04 c 1.707,2.5664 3.5781,5.0469 5.0859,7.7266 1.6133,3.2773 1.0117,7.2148 -1.5039,9.8672 -2.1992,2.4336 -5.8711,2.8477 -8.5547,0.96094 -3.7656,-1.6914 -7.3984,-3.668 -10.859,-5.9141 -1.8828,-1.5781 -3.4336,-3.5156 -4.5625,-5.6992 -1.9062,-3.1445 -1.4375,-7.1836 1.1445,-9.8047 2.2305,-2.5703 5.7148,-3.6797 9.0195,-2.8672 3.9492,0.72656 7.5469,2.7422 10.23,5.7305 z m -2.4648,2.8086 c -4.5703,-3.5312 -6.7188,-4.5508 -9.7734,-4.0586 -4.832,0.78125 -6.6016,4.6797 -3.0859,7.918 l -0.004,-0.004 c 3.5586,3.1562 7.5273,5.8125 11.797,7.9023 3.0234,1.5391 5.5078,-0.68359 4.668,-4.0664 -0.9375,-2.6797 -2.1445,-5.2578 -3.6016,-7.6953 z"
       id="path2494" />
    <path
       d="m 584.12,259.14 c 0.59375,3.9844 -2.0312,4.2773 -4.0156,5.1719 -2.8242,1.2695 -5.9453,2.2891 -5.6758,6.6484 v -0.004 c 6.7617,1.5 13.797,1.168 20.387,-0.95312 l 0.26562,1.3125 c -0.94141,0.96484 -2.0078,1.8008 -3.1719,2.4805 -7.5508,3.1289 -15.996,3.3477 -23.699,0.61719 -3.2578,-1.082 -3.707,-4.8438 -0.83203,-7.6094 1.9688,-1.8438 4.2422,-3.3281 6.7188,-4.3906 3.2852,-1.2617 6.6289,-2.3555 10.023,-3.2734 z"
       id="path2496" />
    <path
       d="m 176.19,210.12 c -2.4141,1.6875 -4.668,3.5859 -6.7461,5.6758 -1.8633,2.6602 -3.4961,5.4766 -4.8789,8.418 1.7617,0.45703 3.5781,0.67187 5.3984,0.64453 4.1133,-0.92188 7.7617,-3.2734 10.297,-6.6406 1.832,-2.2891 3.2969,-2.2109 4.6797,0.72656 -3.707,4.7656 -8.7695,8.3008 -14.527,10.129 -2.8047,1.0977 -5.9961,0.37109 -8.0547,-1.8281 -1.9844,-2.3359 -2.0469,-5.75 -0.15234,-8.1562 2.043,-3.1055 4.3984,-5.9883 7.0312,-8.6094 1.7852,-1.1406 3.7617,-1.9492 5.832,-2.3906 z"
       id="path2498" />
    <path
       d="m 422.07,260.61 c 2.4609,2.2266 3.1211,5.8281 1.6133,8.7891 -2.1328,2.9805 -5.9531,4.2383 -9.4375,3.0977 -3.5352,-1.957 -5.625,-5.7734 -5.3711,-9.8047 0.41797,-2.3281 2.1914,-4.1797 4.5,-4.6875 3.1602,-0.99219 6.6016,0.0391 8.6953,2.6055 z"
       id="path2500" />
    <path
       d="m 388.08,209.77 c 0.91797,1.5977 1.9258,3.1445 2.7305,4.7969 1.6016,2.9922 0.84766,6.7031 -1.793,8.8398 -2.6445,2.1328 -6.4297,2.0859 -9.0195,-0.11328 -2.8398,-2.3125 -3.5117,-6.3789 -1.5703,-9.4883 1.793,-3.6523 6.0391,-5.3789 9.875,-4.0156 z"
       id="path2502" />
    <path
       d="m 348.5,195.42 c -3.2773,3.3594 -6.9219,3.9453 -9.2266,1.4922 h 0.004 c -2.3789,-2.8086 -2.1406,-6.9883 0.53906,-9.5117 1,-1.375 2.5391,-2.2578 4.2305,-2.4219 1.6914,-0.16797 3.375,0.39453 4.6211,1.5508 1.25,1.1523 1.9453,2.7812 1.9141,4.4805 -0.0312,1.6992 -0.78906,3.3047 -2.082,4.4102 z"
       id="path2504" />
    <path
       d="m 388.72,229.07 c 1.0352,-1.1914 2.5352,-1.875 4.1172,-1.8711 1.5781,0.004 3.0781,0.69531 4.1094,1.8945 2.1016,2.707 1.9062,6.543 -0.46094,9.0195 -1.1875,1.3477 -2.9141,2.1016 -4.707,2.0508 -1.7969,-0.0469 -3.4766,-0.88672 -4.5938,-2.2969 -0.97266,-1.3633 -1.3594,-3.0664 -1.0703,-4.7188 0.28516,-1.6523 1.2266,-3.1211 2.6055,-4.0781 z"
       id="path2506" />
    <path
       d="m 402.32,259.91 c -2.7031,2.4336 -6.668,2.8477 -9.8164,1.0156 -1.8711,-2.332 -1.9141,-5.6367 -0.10937,-8.0195 2.3672,-2.5195 6.2539,-2.8438 9.0039,-0.75391 2.3555,1.9102 2.7617,5.3477 0.92188,7.7578 z"
       id="path2508" />
    <path
       d="m 356.1,210.82 c -2.125,2.4531 -5.793,2.8359 -8.3789,0.875 -2,-2.5273 -1.8867,-6.125 0.26172,-8.5273 0.92188,-1.168 2.3086,-1.8711 3.793,-1.9297 1.4844,-0.0586 2.9219,0.53516 3.9336,1.625 2.5039,3.1172 3.7461,5.1758 0.39062,7.957 z"
       id="path2510" />
    <path
       d="m 348.95,371.86 c 0.86328,-1.0664 2.125,-1.7305 3.4922,-1.8477 1.3672,-0.11328 2.7227,0.33594 3.7539,1.2461 2.1016,2.4297 2.3789,5.9492 0.67578,8.6758 -2.5195,2.3359 -6.3594,2.4844 -9.0547,0.35547 -1.7383,-2.707 -1.2617,-6.2773 1.1328,-8.4297 z"
       id="path2512" />
    <path
       d="m 427.43,278.01 c 1.1445,1.1406 1.7695,2.6992 1.7305,4.3125 -0.0352,1.6172 -0.73438,3.1445 -1.9297,4.2305 -2.1914,2.0625 -5.5898,2.1133 -7.8438,0.12109 -1.2891,-3.5391 -0.34766,-7.5039 2.3984,-10.082 2.5117,-1.5898 4.2383,-0.0469 5.6445,1.418 z"
       id="path2514" />
    <path
       d="m 463.25,288.31 c -2.3828,2.4648 -6.2266,2.7617 -8.957,0.69141 -1.625,-2.293 -1.293,-5.4336 0.77344,-7.3359 2.3125,-2.2266 5.918,-2.3945 8.4258,-0.39062 1.0586,0.87891 1.6484,2.1992 1.6016,3.5781 -0.0508,1.375 -0.73047,2.6523 -1.8438,3.457 z"
       id="path2516" />
    <path
       d="m 334.8,228.4 c 1.9023,-2.3516 5.2773,-2.8672 7.7969,-1.1953 1.0703,1.0195 1.6484,2.4492 1.582,3.9219 -0.0664,1.4727 -0.76562,2.8477 -1.9219,3.7656 -2.3359,2.5508 -6.2656,2.8086 -8.9141,0.58203 -1.6484,-1.8984 -1.0742,-4.6875 1.457,-7.0742 z"
       id="path2518" />
    <path
       d="m 329.23,188.11 c 2.0469,1.8672 2.5234,4.9023 1.1523,7.3125 -2.4297,2.3555 -6.125,2.8203 -9.0586,1.1367 -1.9336,-2.0273 -2.1953,-5.1211 -0.63672,-7.4453 2.3086,-2.1953 5.7891,-2.6055 8.543,-1.0039 z"
       id="path2520" />
    <path
       d="m 392.81,348.49 c 2.2031,2.0742 2.3438,5.5312 0.31641,7.7773 -2.4297,2.1523 -6.1133,2.0508 -8.4219,-0.23438 -0.95703,-1.1133 -1.3984,-2.5859 -1.2109,-4.043 0.1875,-1.4609 0.98438,-2.7695 2.1953,-3.6055 0.91016,-1.0195 2.2188,-1.5898 3.582,-1.5703 1.3672,0.0195 2.6562,0.63281 3.5391,1.6758 z"
       id="path2522" />
    <path
       d="m 363.64,218.16 c -1.5586,-2.0469 -1.4766,-4.9062 0.19531,-6.8633 0.72266,-1.1445 1.8828,-1.9453 3.2109,-2.2227 1.3242,-0.28125 2.707,-0.008 3.832,0.74609 1.1719,0.89844 1.9258,2.2344 2.0859,3.7031 0.16406,1.4648 -0.27734,2.9336 -1.2227,4.0664 -2.2773,1.9648 -5.5742,2.1992 -8.1016,0.57031 z"
       id="path2524" />
    <path
       d="m 377.68,233.7 c -2.3281,1.9805 -5.8164,1.7109 -7.8125,-0.60547 -0.85547,-0.79688 -1.3008,-1.9453 -1.207,-3.1133 0.0898,-1.168 0.71094,-2.2305 1.6836,-2.8828 2.4766,-2.3672 5.375,-2.6445 7.1484,-0.6875 1.0234,0.92188 1.625,2.2266 1.6602,3.6055 0.0352,1.375 -0.5,2.707 -1.4727,3.6836 z"
       id="path2526" />
    <path
       d="m 360.25,358.49 c 2.2266,-2.2734 4.1797,-2.5352 5.9102,-0.78906 h -0.004 c 0.95312,0.98047 1.4727,2.3008 1.4414,3.668 -0.0273,1.3633 -0.59766,2.6641 -1.5898,3.6055 -1.8398,1.832 -4.7891,1.9023 -6.7148,0.16016 -1.6641,-1.875 -1.3086,-4.332 0.95703,-6.6445 z"
       id="path2528" />
    <path
       d="m 432.66,252.16 c 1.6641,1.7109 1.6992,4.4297 0.0742,6.1836 -2.1055,1.8398 -5.2227,1.9219 -7.4219,0.19531 -1.332,-1.3672 -0.64062,-4.918 1.2969,-6.6445 v -0.004 c 0.79297,-0.84766 1.9219,-1.3086 3.0859,-1.2578 1.1641,0.0508 2.2461,0.60938 2.9648,1.5273 z"
       id="path2530" />
    <path
       d="m 480.57,265.27 c 3.3242,-2.7656 5.793,-2.7422 7.5352,-0.3125 1.3086,1.8203 1.8555,3.7383 -0.13672,5.5117 h 0.004 c -2.2891,2.0156 -5.7656,1.8203 -7.8125,-0.43359 -0.67969,-0.64062 -1.0273,-1.5547 -0.94531,-2.4805 0.0781,-0.92969 0.57812,-1.7695 1.3555,-2.2852 z"
       id="path2532" />
    <path
       d="m 474.18,270.89 c 1.9297,1.8867 1.4492,3.7031 -0.21484,5.4219 -2.2266,2.2969 -6.2773,2.8359 -7.7969,1 -1.7734,-2.1406 -0.50781,-3.8555 0.97266,-5.4531 2.4219,-2.6094 4.9297,-2.9375 7.0391,-0.96875 z"
       id="path2534" />
    <path
       d="m 417.39,242.16 c 4.7891,4.0742 5.3086,5.3164 3.2461,7.3555 -0.91797,0.97656 -2.1953,1.5312 -3.5352,1.5273 -1.3398,0 -2.6172,-0.55859 -3.5312,-1.5391 -1.5664,-2.2734 -0.57031,-4.3008 3.8203,-7.3438 z"
       id="path2536" />
    <path
       d="m 334.94,176.52 c 0.97266,0.79687 1.5234,2 1.4883,3.2539 -0.0312,1.2578 -0.64844,2.4297 -1.6641,3.1719 -1.7539,1.457 -3.5664,2.0977 -5.375,0.0859 h 0.004 c -0.80469,-0.95312 -1.1758,-2.1953 -1.0352,-3.4336 0.14453,-1.2422 0.79297,-2.3633 1.7969,-3.1094 0.57031,-0.74609 1.457,-1.1836 2.3984,-1.1758 0.94141,0.004 1.8242,0.45312 2.3867,1.207 z"
       id="path2538" />
    <path
       d="m 294.82,169.02 c -0.125,-1.5312 0.0937,-3.0703 0.64062,-4.5039 1.207,-1.957 4.5,-1.3828 6.4023,0.71875 0.73828,0.57422 1.1953,1.4375 1.2578,2.3711 0.0625,0.9336 -0.27344,1.8477 -0.92969,2.5156 -1.6641,1.8555 -4.625,1.7031 -7.3711,-1.1016 z"
       id="path2540" />
    <path
       d="m 300.6,174.69 c 1.4727,0.0117 2.9258,0.30859 4.2852,0.87109 2.2578,1.3984 3.043,5.3086 1.6172,6.5391 h 0.004 c -1.6914,1.4219 -4.1953,1.2617 -5.6914,-0.35937 -1.9453,-1.9141 -2.0391,-5.0195 -0.21484,-7.0508 z"
       id="path2542" />
    <path
       d="m 371.71,371.95 c 0.17578,1.3828 0.0195,2.7891 -0.45313,4.1016 -1.2656,2.0508 -6.3086,2.1055 -7.0312,0.14453 -0.41406,-1.6797 -0.0859,-3.457 0.89844,-4.8828 1.5977,-2.1523 4.1836,-1.9727 6.5859,0.63672 z"
       id="path2544" />
    <path
       d="m 368.96,249.96 c -1.832,1.2578 -3.8555,2.3945 -6.1445,0.71875 l -0.004,-0.004 c -1.5664,-1.7852 -1.418,-4.4961 0.33203,-6.1016 1.6953,-1.418 4.2031,-1.2656 5.7109,0.35156 0.80078,0.57812 1.2852,1.5 1.3047,2.4883 0.0234,0.99219 -0.42188,1.9336 -1.1992,2.5469 z"
       id="path2546" />
    <path
       d="m 352.11,225.85 0.28125,-5.2656 c 2.457,-1.8008 5.9102,-1.2734 7.7148,1.1797 0.57813,1.0234 0.60547,2.2695 0.0664,3.3164 -1.6797,2.4531 -4.1562,2.2695 -8.0625,0.76953 z"
       id="path2548" />
    <path
       d="m 402.29,343.75 c 2.8047,-4.0039 4.9219,-4.9492 6.9883,-2.9297 h -0.004 c 0.77344,0.54688 1.2539,1.418 1.3008,2.3633 0.043,0.94531 -0.34766,1.8594 -1.0664,2.4727 -2.3086,2.2891 -4.0664,1.8164 -7.2188,-1.9062 z"
       id="path2550" />
    <path
       d="m 439.73,266.17 c 0.0781,1.2266 -0.12891,2.457 -0.60938,3.5898 -0.78906,0.94531 -1.9453,1.5117 -3.1758,1.5625 -1.2344,0.0469 -2.4297,-0.42578 -3.293,-1.3086 -0.61719,-0.57031 -0.94531,-1.3867 -0.89453,-2.2227 0.0469,-0.83594 0.46875,-1.6094 1.1445,-2.1055 0.95703,-0.86328 2.2266,-1.3008 3.5156,-1.2109 1.2891,0.0937 2.4844,0.70312 3.3125,1.6953 z"
       id="path2552" />
    <path
       d="m 381.43,243.43 c 1.7656,1.1602 3.2695,1.6836 3.9688,2.7383 0.62109,1.3594 1.0234,2.8086 1.1914,4.293 -1.5078,0.30469 -3.2188,1.1797 -4.4727,0.74609 h 0.004 c -1.3945,-0.63672 -2.4062,-1.8906 -2.7383,-3.3867 -0.14062,-1.2539 1.1797,-2.668 2.0469,-4.3906 z"
       id="path2554" />
    <path
       d="m 384.07,365.69 c -3.582,3.3516 -6.2891,4.1523 -7.3867,2.0859 -0.54688,-1.4336 -0.37891,-3.043 0.45312,-4.3359 1.8945,-2.3164 4.0352,-1.5781 6.9336,2.25 z"
       id="path2556" />
    <path
       d="m 324.21,370.13 c -2.1367,-0.22266 -4.2383,-0.71094 -6.2578,-1.457 -0.49609,-0.25781 -0.33594,-2.7461 0.23438,-3.8398 0.8125,-1.5547 4.4883,-1.3906 5.457,0.28125 h 0.004 c 0.46094,1.6289 0.64844,3.3242 0.5625,5.0156 z"
       id="path2558" />
    <path
       d="m 336.41,373.45 c -1.8945,-1.1836 -4.0469,-2.4258 -3.5,-5.0898 0.58594,-1.2266 1.7734,-2.0547 3.1289,-2.1758 1.5234,0.30078 2.8359,1.2656 3.5742,2.6328 0.89453,2.3555 -0.68359,3.832 -3.2031,4.6328 z"
       id="path2560" />
    <path
       d="m 406.02,240.41 c 1.4766,4.6602 1.1875,5.7734 -1.5156,6.6406 -1.7773,0.57031 -3.3203,0.32031 -4.0742,-1.5742 -0.9375,-2.3398 0.76172,-3.9297 5.5898,-5.0664 z"
       id="path2562" />
    <path
       d="m 322.16,179.58 c -2.1523,0.008 -4.293,-0.33984 -6.332,-1.0352 -1.6953,-1.1094 -0.94531,-2.9297 0.3125,-4.2695 1.2109,-1.2969 2.7773,-2.4492 4.1367,-0.63281 0.89844,1.8828 1.5352,3.8789 1.8828,5.9375 z"
       id="path2564" />
    <path
       d="m 336.66,216.55 c 1.3359,2.5039 2.6484,4.7539 -0.89062,6.2188 -0.83984,0.4375 -1.8438,0.43359 -2.6836,-0.004 -0.83984,-0.4375 -1.4141,-1.2617 -1.5352,-2.2031 -0.20312,-3.6406 2.6094,-3.4805 5.1094,-4.0117 z"
       id="path2566" />
    <path
       d="m 481.36,286.86 c -3.2305,-0.80469 -5.2812,-0.76953 -6.3047,-1.7734 -0.64844,-0.63672 -0.0937,-3.0039 0.58594,-4.2305 0.24219,-0.4375 2.8516,-0.26172 3.6133,0.45312 0.93359,0.87891 1.0664,2.6133 2.1055,5.5508 z"
       id="path2568" />
    <path
       d="m 442.6,277.09 c -0.49219,2.8047 -0.26953,4.8242 -1.1328,5.5391 -0.9375,0.77344 -2.8789,0.33594 -4.3867,0.42578 0.0586,-1.3008 -0.36719,-3.0312 0.30469,-3.7969 0.85156,-0.97266 2.5977,-1.1602 5.2148,-2.168 z"
       id="path2570" />
    <path
       d="m 283.92,160.79 c 0.0391,2.1289 0.42578,3.9727 0.008,4.1836 -1.3672,0.47656 -2.7969,0.74609 -4.2422,0.80469 -0.15234,-1.0898 -0.80469,-2.7617 -0.35156,-3.1562 1.4258,-0.84375 2.9727,-1.4609 4.5859,-1.832 z"
       id="path2572" />
    <path
       d="m 403.41,269.79 c -0.29297,2.5312 -0.0859,4.1602 -0.77344,5.1875 -0.33203,0.49609 -2.832,0.31641 -3.4648,-0.37109 -0.66797,-1.0977 -0.74609,-2.4531 -0.21484,-3.6172 0.38672,-0.69531 2.1406,-0.63672 4.4531,-1.1992 z"
       id="path2574" />
    <path
       d="m 345.4,361.42 c 1.8789,-2.2227 3.7852,-2.7812 5.5781,-0.5625 0.38672,1.0664 0.1875,2.2578 -0.51953,3.1406 -2.7227,1.5781 -3.793,-0.56641 -5.0586,-2.5781 z"
       id="path2576" />
    <path
       d="m 346.53,219.27 c -0.62109,3.1406 -1.9414,3.9336 -4.0938,2.957 -0.46094,-0.36719 -0.69922,-0.94531 -0.63281,-1.5312 0.78906,-2.4648 2.5273,-1.9023 4.7266,-1.4258 z"
       id="path2578" />
    <path
       d="m 510.37,251.91 c -0.76172,1.0156 -1.0898,1.8984 -1.5938,2.0117 -0.5625,0.125 -1.2852,-0.44141 -1.9375,-0.70703 0.28516,-0.62891 0.42578,-1.582 0.89844,-1.793 0.52344,-0.23828 1.3516,0.21094 2.6328,0.48828 z"
       id="path2580" />
    <path
       d="m 372.89,201.46 c 0.85156,0.20703 1.6797,0.48438 2.4844,0.83203 0.21875,0.12109 0.16016,0.73047 0.23047,1.1172 v 0.004 c -0.71875,0.16406 -1.457,0.23438 -2.1914,0.21094 -0.19141,-0.0234 -0.25391,-0.98438 -0.52344,-2.1641 z"
       id="path2582" />
    <path
       d="m 272.88,331 c -2.3555,2.6797 -4.0195,1 -5.2656,-0.62891 -5.0547,-6.5938 -9.8906,-13.359 -14.941,-19.953 -3.9219,-5.125 -6.6523,-11.062 -7.9883,-17.379 -1.2266,-3.8828 0.0469,-8.1211 3.2109,-10.688 2.6523,-2.3086 5.7344,-4.0703 9.0742,-5.1836 12.469,-3.3164 25.34,-4.8867 38.238,-4.6641 0.83203,0.0195 1.6562,0.13281 2.457,0.33984 0.37109,0.0859 0.67578,0.44141 1.1797,0.78516 -0.76172,2.5703 -2.9531,2.3828 -4.9492,2.6055 -7.2383,0.80078 -14.512,1.3945 -21.695,2.543 -4.082,0.66016 -8.0625,1.8281 -11.855,3.4688 -6.0625,2.5859 -8.9453,9.5391 -6.5,15.66 4.1016,9.0742 8.8438,17.867 13.566,26.645 v -0.004 c 1.5977,2.332 3.4297,4.4961 5.4688,6.4531 z"
       id="path2584" />
    <path
       d="m 296.81,292.52 c -2.1523,-0.14062 -4.3086,-0.39062 -6.4609,-0.40234 -4.75,-0.0273 -9.5117,-0.11719 -14.242,0.21484 l -0.004,-0.004 c -1.8398,0.16016 -3.5781,0.92969 -4.9336,2.1875 -4.0234,4.0703 -3.5,5.7656 -0.96484,9.0703 3.3008,4.0234 7.5117,7.1992 12.289,9.2656 3.4297,1.668 6.9023,3.2422 10.359,4.8594 l -0.31641,1.2773 h -0.004 c -1.293,0.26172 -2.6133,0.35547 -3.9297,0.27734 -9.5078,-1.5977 -18.297,-6.0625 -25.203,-12.793 -2.9922,-2.7305 -4.2656,-6.875 -3.3203,-10.816 0.94141,-3.9414 3.9492,-7.0586 7.8555,-8.1445 1.1328,-0.52344 2.3594,-0.82812 3.6055,-0.89062 7.6523,0.61328 15.297,1.3242 22.922,2.1914 0.99609,0.11328 1.8711,1.2891 2.8047,1.9766 z"
       id="path2586" />
    <path
       d="m 293.17,310.99 c -2.2539,1.5234 -5.2812,1.168 -7.1211,-0.83203 -1.9102,-1.8242 -3.5195,-3.9375 -4.7695,-6.2617 -0.91797,-1.8711 1.1836,-4.2383 4.0234,-4.2227 v -0.004 c 3.2852,0.22656 6.5469,0.68359 9.7656,1.3633 -1.7305,5.457 -5.7188,2.1055 -8.4766,3.7148 0.39453,3.4688 4.125,3.7656 6.5781,6.2422 z"
       id="path2588" />
  </g>
</svg>
