<?xml version="1.0" encoding="UTF-8" standalone="no"?>
<svg
   width="507.67078pt"
   height="277.65662pt"
   version="1.1"
   viewBox="0 0 507.67078 277.65662"
   id="svg3476"
   sodipodi:docname="noun-narwhal.svg"
   inkscape:version="1.1.2 (b8e25be8, 2022-02-05)"
   xmlns:inkscape="http://www.inkscape.org/namespaces/inkscape"
   xmlns:sodipodi="http://sodipodi.sourceforge.net/DTD/sodipodi-0.dtd"
   xmlns="http://www.w3.org/2000/svg"
   xmlns:svg="http://www.w3.org/2000/svg">
  <sodipodi:namedview
     id="namedview3478"
     pagecolor="#ffffff"
     bordercolor="#999999"
     borderopacity="1"
     inkscape:pageshadow="0"
     inkscape:pageopacity="0"
     inkscape:pagecheckerboard="0"
     inkscape:document-units="pt"
     showgrid="false"
     inkscape:zoom="0.70178571"
     inkscape:cx="341.27226"
     inkscape:cy="309.92366"
     inkscape:window-width="1440"
     inkscape:window-height="855"
     inkscape:window-x="0"
     inkscape:window-y="23"
     inkscape:window-maximized="0"
     inkscape:current-layer="g3474" />
  <defs
     id="defs3286">
    <symbol
       id="u"
       overflow="visible">
      <path
         d="m 18.766,-1.125 c -0.96875,0.5 -1.9805,0.875 -3.0312,1.125 -1.043,0.25781 -2.1367,0.39062 -3.2812,0.39062 -3.3984,0 -6.0898,-0.94531 -8.0781,-2.8438 -1.9922,-1.9062 -2.9844,-4.4844 -2.9844,-7.7344 0,-3.2578 0.99219,-5.8359 2.9844,-7.7344 1.9883,-1.9062 4.6797,-2.8594 8.0781,-2.8594 1.1445,0 2.2383,0.13281 3.2812,0.39062 1.0508,0.25 2.0625,0.625 3.0312,1.125 v 4.2188 c -0.98047,-0.65625 -1.9453,-1.1406 -2.8906,-1.4531 -0.94922,-0.3125 -1.9492,-0.46875 -3,-0.46875 -1.875,0 -3.3516,0.60547 -4.4219,1.8125 -1.0742,1.1992 -1.6094,2.8555 -1.6094,4.9688 0,2.1055 0.53516,3.7617 1.6094,4.9688 1.0703,1.1992 2.5469,1.7969 4.4219,1.7969 1.0508,0 2.0508,-0.14844 3,-0.45312 0.94531,-0.3125 1.9102,-0.80078 2.8906,-1.4688 z"
         id="path3223" />
    </symbol>
    <symbol
       id="c"
       overflow="visible">
      <path
         d="m 13.734,-11.141 c -0.4375,-0.19531 -0.87109,-0.34375 -1.2969,-0.4375 -0.41797,-0.10156 -0.83984,-0.15625 -1.2656,-0.15625 -1.2617,0 -2.2305,0.40625 -2.9062,1.2188 -0.67969,0.80469 -1.0156,1.9531 -1.0156,3.4531 v 7.0625 H 2.3591 v -15.312 h 4.8906 v 2.5156 c 0.625,-1 1.3438,-1.7266 2.1562,-2.1875 0.82031,-0.46875 1.8008,-0.70312 2.9375,-0.70312 0.16406,0 0.34375,0.01172 0.53125,0.03125 0.19531,0.01172 0.47656,0.03906 0.84375,0.07813 z"
         id="path3226" />
    </symbol>
    <symbol
       id="b"
       overflow="visible">
      <path
         d="m 17.641,-7.7031 v 1.4062 H 6.188 c 0.125,1.1484 0.53906,2.0078 1.25,2.5781 0.70703,0.57422 1.7031,0.85938 2.9844,0.85938 1.0312,0 2.082,-0.14844 3.1562,-0.45312 1.082,-0.3125 2.1914,-0.77344 3.3281,-1.3906 v 3.7656 c -1.1562,0.4375 -2.3125,0.76562 -3.4688,0.98438 -1.1562,0.22656 -2.3125,0.34375 -3.4688,0.34375 -2.7734,0 -4.9297,-0.70312 -6.4688,-2.1094 -1.5312,-1.4062 -2.2969,-3.3789 -2.2969,-5.9219 0,-2.5 0.75391,-4.4609 2.2656,-5.8906 1.5078,-1.4375 3.582,-2.1562 6.2188,-2.1562 2.4062,0 4.332,0.73047 5.7812,2.1875 1.4453,1.4492 2.1719,3.3828 2.1719,5.7969 z m -5.0312,-1.625 c 0,-0.92578 -0.27344,-1.6719 -0.8125,-2.2344 -0.54297,-0.57031 -1.25,-0.85938 -2.125,-0.85938 -0.94922,0 -1.7188,0.26562 -2.3125,0.79688 -0.5937,0.53126 -0.96484,1.2969 -1.1094,2.2969 z"
         id="path3229" />
    </symbol>
    <symbol
       id="a"
       overflow="visible">
      <path
         d="m 9.2188,-6.8906 c -1.0234,0 -1.793,0.17188 -2.3125,0.51562 -0.51172,0.34375 -0.76562,0.85547 -0.76562,1.5312 0,0.625 0.20703,1.1172 0.625,1.4688 0.41406,0.34375 0.98828,0.51562 1.7188,0.51562 0.92578,0 1.7031,-0.32812 2.3281,-0.98438 0.63281,-0.66406 0.95312,-1.4922 0.95312,-2.4844 v -0.5625 z m 7.4688,-1.8438 V 0 h -4.9219 v -2.2656 c -0.65625,0.92969 -1.3984,1.6055 -2.2188,2.0312 -0.82422,0.41406 -1.8242,0.625 -3,0.625 -1.5859,0 -2.8711,-0.45703 -3.8594,-1.375 -0.99219,-0.92578 -1.4844,-2.1289 -1.4844,-3.6094 0,-1.7891 0.61328,-3.1016 1.8438,-3.9375 1.2383,-0.84375 3.1797,-1.2656 5.8281,-1.2656 h 2.8906 v -0.39062 c 0,-0.76953 -0.30859,-1.332 -0.92188,-1.6875 -0.61719,-0.36328 -1.5703,-0.54688 -2.8594,-0.54688 -1.0547,0 -2.0312,0.10547 -2.9375,0.3125 -0.89844,0.21094 -1.7305,0.52344 -2.5,0.9375 v -3.7344 c 1.0391,-0.25 2.0859,-0.44141 3.1406,-0.57812 1.0625,-0.13281 2.125,-0.20312 3.1875,-0.20312 2.7578,0 4.75,0.54688 5.9688,1.6406 1.2266,1.0859 1.8438,2.8555 1.8438,5.3125 z"
         id="path3232" />
    </symbol>
    <symbol
       id="d"
       overflow="visible">
      <path
         d="m 7.7031,-19.656 v 4.3438 H 12.75 v 3.5 H 7.7031 v 6.5 c 0,0.71094 0.14062,1.1875 0.42188,1.4375 0.28126,0.25 0.83594,0.375 1.6719,0.375 h 2.5156 v 3.5 h -4.1875 c -1.9375,0 -3.3125,-0.39844 -4.125,-1.2031 -0.80469,-0.8125 -1.2031,-2.1797 -1.2031,-4.1094 v -6.5 h -2.4219 v -3.5 h 2.4219 v -4.3438 z"
         id="path3235" />
    </symbol>
    <symbol
       id="l"
       overflow="visible">
      <path
         d="m 12.766,-13.078 v -8.2031 h 4.9219 V -10e-5 H 12.766 v -2.2188 c -0.66797,0.90625 -1.4062,1.5703 -2.2188,1.9844 -0.8126,0.4141 -1.7578,0.625 -2.8281,0.625 -1.8867,0 -3.4336,-0.75 -4.6406,-2.25 -1.2109,-1.5 -1.8125,-3.4258 -1.8125,-5.7812 0,-2.3633 0.60156,-4.2969 1.8125,-5.7969 1.207,-1.5 2.7539,-2.25 4.6406,-2.25 1.0625,0 2,0.21484 2.8125,0.64062 0.82031,0.42969 1.5664,1.0859 2.2344,1.9688 z m -3.2188,9.9219 c 1.0391,0 1.8359,-0.37891 2.3906,-1.1406 0.55078,-0.76953 0.82812,-1.8828 0.82812,-3.3438 0,-1.457 -0.27734,-2.5664 -0.82812,-3.3281 -0.55469,-0.76953 -1.3516,-1.1562 -2.3906,-1.1562 -1.043,0 -1.8398,0.38672 -2.3906,1.1562 -0.55469,0.76172 -0.82812,1.8711 -0.82812,3.3281 0,1.4609 0.27344,2.5742 0.82812,3.3438 0.55078,0.76172 1.3477,1.1406 2.3906,1.1406 z"
         id="path3238" />
    </symbol>
    <symbol
       id="k"
       overflow="visible">
      <path
         d="m 10.5,-3.1562 c 1.0508,0 1.8516,-0.37891 2.4062,-1.1406 0.55078,-0.76953 0.82812,-1.8828 0.82812,-3.3438 0,-1.457 -0.27734,-2.5664 -0.82812,-3.3281 -0.55469,-0.76953 -1.3555,-1.1562 -2.4062,-1.1562 -1.0547,0 -1.8594,0.38672 -2.4219,1.1562 -0.55469,0.77344 -0.82812,1.8828 -0.82812,3.3281 0,1.4492 0.27344,2.5586 0.82812,3.3281 0.5625,0.77344 1.3672,1.1562 2.4219,1.1562 z m -3.25,-9.9219 c 0.67578,-0.88281 1.4219,-1.5391 2.2344,-1.9688 0.82031,-0.42578 1.7656,-0.64062 2.8281,-0.64062 1.8945,0 3.4453,0.75 4.6562,2.25 1.207,1.5 1.8125,3.4336 1.8125,5.7969 0,2.3555 -0.60547,4.2812 -1.8125,5.7812 -1.2109,1.5 -2.7617,2.25 -4.6562,2.25 -1.0625,0 -2.0078,-0.21094 -2.8281,-0.625 C 8.6719,-0.6602 7.9258,-1.32032 7.25,-2.21882 V -2e-5 H 2.3594 v -21.281 H 7.25 Z"
         id="path3241" />
    </symbol>
    <symbol
       id="f"
       overflow="visible">
      <path
         d="m 0.34375,-15.312 h 4.8906 l 4.125,10.391 3.5,-10.391 h 4.8906 l -6.4375,16.766 c -0.64844,1.6953 -1.4023,2.8828 -2.2656,3.5625 -0.86719,0.6875 -2,1.0312 -3.4062,1.0312 H 2.79685 V 2.8289 h 1.5312 c 0.83203,0 1.4375,-0.13672 1.8125,-0.40625 C 6.52336,2.16093 6.82024,1.69218 7.03117,1.01645 L 7.17179,0.59457 Z"
         id="path3244" />
    </symbol>
    <symbol
       id="j"
       overflow="visible">
      <path
         d="m 2.5781,-20.406 h 6.6875 l 4.6562,10.922 4.6719,-10.922 h 6.6875 V 0 H 20.2968 V -14.938 L 15.5937,-3.922 H 12.2656 L 7.5625,-14.938 V 0 H 2.5781 Z"
         id="path3247" />
    </symbol>
    <symbol
       id="t"
       overflow="visible">
      <path
         d="M 2.3594,-15.312 H 7.25 V 0 H 2.3594 Z m 0,-5.9688 H 7.25 v 4 H 2.3594 Z"
         id="path3250" />
    </symbol>
    <symbol
       id="s"
       overflow="visible">
      <path
         d="m 1.5781,-20.406 h 17.156 v 3.1719 l -10.953,13.25 h 11.266 V 3e-4 H 1.2661 v -3.1875 l 10.938,-13.25 H 1.5791 Z"
         id="path3253" />
    </symbol>
    <symbol
       id="i"
       overflow="visible">
      <path
         d="m 16.547,-12.766 c 0.61328,-0.94531 1.3477,-1.6719 2.2031,-2.1719 0.85156,-0.5 1.7891,-0.75 2.8125,-0.75 1.7578,0 3.0977,0.54688 4.0156,1.6406 0.92578,1.0859 1.3906,2.6562 1.3906,4.7188 V -4e-4 h -4.9219 v -7.9844 -0.35938 c 0.0078,-0.13281 0.01563,-0.32031 0.01563,-0.5625 0,-1.082 -0.16406,-1.8633 -0.48438,-2.3438 -0.3125,-0.48828 -0.82422,-0.73438 -1.5312,-0.73438 -0.92969,0 -1.6484,0.38672 -2.1562,1.1562 -0.51172,0.76172 -0.77344,1.8672 -0.78125,3.3125 v 7.5156 h -4.9219 v -7.9844 c 0,-1.6953 -0.14844,-2.7852 -0.4375,-3.2656 -0.29297,-0.48828 -0.8125,-0.73438 -1.5625,-0.73438 -0.9375,0 -1.6641,0.38672 -2.1719,1.1562 -0.51172,0.76172 -0.76562,1.8594 -0.76562,3.2969 v 7.5312 h -4.9219 v -15.312 h 4.9219 v 2.2344 c 0.60156,-0.86328 1.2891,-1.5156 2.0625,-1.9531 0.78125,-0.4375 1.6406,-0.65625 2.5781,-0.65625 1.0625,0 2,0.25781 2.8125,0.76562 0.8125,0.51172 1.4258,1.2305 1.8438,2.1562 z"
         id="path3256" />
    </symbol>
    <symbol
       id="h"
       overflow="visible">
      <path
         d="m 14.719,-14.828 v 3.9844 c -0.65625,-0.45703 -1.3242,-0.79688 -2,-1.0156 -0.66797,-0.21875 -1.3594,-0.32812 -2.0781,-0.32812 -1.3672,0 -2.4336,0.40234 -3.2031,1.2031 -0.76172,0.79297 -1.1406,1.9062 -1.1406,3.3438 0,1.4297 0.37891,2.543 1.1406,3.3438 0.76953,0.79297 1.8359,1.1875 3.2031,1.1875 0.75781,0 1.4844,-0.10938 2.1719,-0.32812 0.6875,-0.22656 1.3203,-0.56641 1.9062,-1.0156 v 4 c -0.76172,0.28125 -1.5391,0.48828 -2.3281,0.625 -0.78125,0.14453 -1.5742,0.21875 -2.375,0.21875 -2.7617,0 -4.9219,-0.70703 -6.4844,-2.125 -1.5547,-1.4141 -2.3281,-3.3828 -2.3281,-5.9062 0,-2.5312 0.77344,-4.5039 2.3281,-5.9219 1.5625,-1.4141 3.7227,-2.125 6.4844,-2.125 0.80078,0 1.5938,0.07422 2.375,0.21875 0.78125,0.13672 1.5547,0.35156 2.3281,0.64062 z"
         id="path3259" />
    </symbol>
    <symbol
       id="g"
       overflow="visible">
      <path
         d="M 17.75,-9.3281 V 0 h -4.9219 v -7.1094 c 0,-1.3438 -0.03125,-2.2656 -0.09375,-2.7656 -0.0625,-0.5 -0.16797,-0.86719 -0.3125,-1.1094 -0.1875,-0.3125 -0.44922,-0.55469 -0.78125,-0.73438 -0.32422,-0.17578 -0.69531,-0.26562 -1.1094,-0.26562 -1.0234,0 -1.8242,0.39844 -2.4062,1.1875 -0.58594,0.78125 -0.875,1.8711 -0.875,3.2656 V -1e-4 H 2.3594 v -21.281 H 7.25 v 8.2031 c 0.73828,-0.88281 1.5195,-1.5391 2.3438,-1.9688 0.83203,-0.42578 1.75,-0.64062 2.75,-0.64062 1.7695,0 3.1133,0.54688 4.0312,1.6406 0.91406,1.0859 1.375,2.6562 1.375,4.7188 z"
         id="path3262" />
    </symbol>
    <symbol
       id="r"
       overflow="visible">
      <path
         d="m 12.422,-21.281 v 3.2188 H 9.7189 c -0.6875,0 -1.1719,0.125 -1.4531,0.375 -0.27344,0.25 -0.40625,0.6875 -0.40625,1.3125 v 1.0625 h 4.1875 v 3.5 H 7.85955 V -2e-4 h -4.8906 v -11.812 h -2.4375 v -3.5 h 2.4375 v -1.0625 c 0,-1.6641 0.46094,-2.8984 1.3906,-3.7031 0.92578,-0.80078 2.3672,-1.2031 4.3281,-1.2031 z"
         id="path3265" />
    </symbol>
    <symbol
       id="e"
       overflow="visible">
      <path
         d="m 9.6406,-12.188 c -1.0859,0 -1.9141,0.39062 -2.4844,1.1719 -0.57422,0.78125 -0.85938,1.9062 -0.85938,3.375 0,1.4688 0.28516,2.5938 0.85938,3.375 0.57031,0.77344 1.3984,1.1562 2.4844,1.1562 1.0625,0 1.875,-0.38281 2.4375,-1.1562 0.57031,-0.78125 0.85938,-1.9062 0.85938,-3.375 0,-1.4688 -0.28906,-2.5938 -0.85938,-3.375 -0.5625,-0.78125 -1.375,-1.1719 -2.4375,-1.1719 z m 0,-3.5 c 2.6328,0 4.6914,0.71484 6.1719,2.1406 1.4766,1.418 2.2188,3.3867 2.2188,5.9062 0,2.5117 -0.74219,4.4805 -2.2188,5.9062 C 14.332,-0.317 12.2734,0.39 9.6406,0.39 6.9922,0.39 4.9258,-0.31703 3.4375,-1.735 1.9453,-3.1608 1.2031,-5.1295 1.2031,-7.6412 c 0,-2.5195 0.74219,-4.4883 2.2344,-5.9062 1.4883,-1.4258 3.5547,-2.1406 6.2031,-2.1406 z"
         id="path3268" />
    </symbol>
    <symbol
       id="q"
       overflow="visible">
      <path
         d="m 2.5781,-20.406 h 5.875 l 7.4219,14 v -14 h 4.9844 V 0 h -5.875 L 7.5625,-14 V 0 H 2.5781 Z"
         id="path3271" />
    </symbol>
    <symbol
       id="p"
       overflow="visible">
      <path
         d="m 2.1875,-5.9688 v -9.3438 h 4.9219 v 1.5312 c 0,0.83594 -0.00781,1.875 -0.015625,3.125 -0.011719,1.25 -0.015625,2.0859 -0.015625,2.5 0,1.2422 0.03125,2.1328 0.09375,2.6719 0.070313,0.54297 0.17969,0.93359 0.32812,1.1719 0.20703,0.32422 0.47266,0.57422 0.79688,0.75 0.32031,0.16797 0.69141,0.25 1.1094,0.25 1.0195,0 1.8203,-0.39062 2.4062,-1.1719 0.58203,-0.78125 0.875,-1.8672 0.875,-3.2656 v -7.5625 h 4.8906 V -6e-4 H 12.6875 V -2.2194 C 11.94531,-1.32096 11.1641,-0.6608 10.3437,-0.235 9.51948,0.17906 8.6093,0.39 7.6093,0.39 5.8476,0.39 4.5038,-0.14906 3.5781,-1.235 2.64841,-2.317 2.1875,-3.8952 2.1875,-5.9694 Z"
         id="path3274" />
    </symbol>
    <symbol
       id="o"
       overflow="visible">
      <path
         d="M 17.75,-9.3281 V 0 h -4.9219 v -7.1406 c 0,-1.3203 -0.03125,-2.2344 -0.09375,-2.7344 -0.0625,-0.5 -0.16797,-0.86719 -0.3125,-1.1094 -0.1875,-0.3125 -0.44922,-0.55469 -0.78125,-0.73438 -0.32422,-0.17578 -0.69531,-0.26562 -1.1094,-0.26562 -1.0234,0 -1.8242,0.39844 -2.4062,1.1875 -0.58594,0.78125 -0.875,1.8711 -0.875,3.2656 V -1e-4 H 2.3594 v -15.312 H 7.25 v 2.2344 c 0.73828,-0.88281 1.5195,-1.5391 2.3438,-1.9688 0.83203,-0.42578 1.75,-0.64062 2.75,-0.64062 1.7695,0 3.1133,0.54688 4.0312,1.6406 0.91406,1.0859 1.375,2.6562 1.375,4.7188 z"
         id="path3277" />
    </symbol>
    <symbol
       id="n"
       overflow="visible">
      <path
         d="m 2.5781,-20.406 h 8.7344 c 2.5938,0 4.582,0.57812 5.9688,1.7344 1.3945,1.1484 2.0938,2.7891 2.0938,4.9219 0,2.1367 -0.69922,3.7812 -2.0938,4.9375 -1.3867,1.1562 -3.375,1.7344 -5.9688,1.7344 H 7.8281 V 3e-4 h -5.25 z m 5.25,3.8125 v 5.7031 H 10.75 c 1.0195,0 1.8047,-0.25 2.3594,-0.75 0.5625,-0.5 0.84375,-1.2031 0.84375,-2.1094 0,-0.91406 -0.28125,-1.6172 -0.84375,-2.1094 -0.55469,-0.48828 -1.3398,-0.73438 -2.3594,-0.73438 z"
         id="path3280" />
    </symbol>
    <symbol
       id="m"
       overflow="visible">
      <path
         d="M 2.3594,-15.312 H 7.25 v 15.031 c 0,2.0508 -0.49609,3.6172 -1.4844,4.7031 -0.98047,1.082 -2.4062,1.625 -4.2812,1.625 H -0.9375 V 2.8283 h 0.85938 c 0.92578,0 1.5625,-0.21094 1.9062,-0.625 0.35156,-0.41797 0.53125,-1.2461 0.53125,-2.4844 z m 0,-5.9688 H 7.25 v 4 H 2.3594 Z"
         id="path3283" />
    </symbol>
  </defs>
  <g
     id="g3474"
     transform="translate(-96.161912,-141.16871)">
    <path
       d="m 490.84,256.39 c 0.43359,-2.918 0.78906,-5.6523 1.2578,-8.3711 0.94141,-5.4688 1.7656,-10.969 2.9805,-16.379 1.0781,-4.7188 3.4766,-9.0352 6.9141,-12.441 4.6055,-4.6758 8.9609,-9.6094 13.684,-14.16 5.0938,-5.1484 11.426,-8.9023 18.387,-10.902 2.4492,-0.65234 5.0352,-0.58984 7.4531,0.17578 1.9727,0.75781 3.4766,2.3984 4.0586,4.4336 0.58203,2.0312 0.17969,4.2188 -1.0938,5.9102 -0.77734,1.1523 -1.6484,2.2422 -2.6094,3.2461 -4.6172,4.8516 -6.6484,11.609 -5.4766,18.199 0.30469,2.3867 0.76562,4.7461 1.3828,7.0703 1.7617,6.9531 0.64062,14.32 -3.1133,20.434 -1.3555,2.5586 -3.1055,4.9023 -4.582,7.4023 -0.44531,1.0117 -0.79688,2.0625 -1.0508,3.1406 1.3125,-0.0352 2.6172,-0.17578 3.9062,-0.41797 3.875,-1.1367 7.6953,-2.4531 11.574,-3.5781 6.5508,-2.0117 13.562,-1.9766 20.098,0.0937 6.6523,2.4727 12.602,6.5352 17.324,11.832 2.5156,2.3125 5.6133,3.9023 8.957,4.5977 2.4297,0.66016 4.918,1.1016 7.3672,1.6992 3.293,0.83984 5.5898,3.8086 5.5742,7.207 -0.17969,1.2266 -0.76953,2.3594 -1.668,3.2148 -1.1602,0.96484 -2.4336,1.7812 -3.793,2.4297 -1.5195,0.60938 -2.9609,1.4023 -4.293,2.3555 -2.1406,2.0117 -4.8398,3.3281 -7.7422,3.7773 -8.7617,2.4414 -17.773,3.875 -26.859,4.2812 -5.9219,-0.10156 -11.828,-0.68359 -17.656,-1.7344 -9.1289,-1.9453 -18.117,-4.582 -27.09,-7.1992 -2.3828,-0.98438 -4.6523,-2.2188 -6.7734,-3.6875 -3.5547,2.3672 -7.1094,4.7422 -10.68,7.1016 -7.1719,4.7344 -14.484,9.2734 -21.488,14.242 -6.7969,4.8242 -13.191,10.207 -19.914,15.141 -11.977,9.707 -22.988,20.547 -32.879,32.371 -1.7148,1.8555 -3.6406,3.5117 -5.3828,5.3438 h -0.004 c -8.6641,9.293 -18.707,17.195 -29.777,23.43 -9.5391,5.4922 -19.527,10.152 -29.867,13.93 -4.5234,1.5742 -8.9102,3.5859 -13.5,4.9062 -7.8789,2.2695 -15.848,4.2266 -23.812,6.168 -4.5312,1.1055 -9.1133,2.0586 -13.711,2.8242 v 0.004 c -13.133,2.6602 -26.477,4.1133 -39.871,4.3438 -4.3984,-0.0742 -8.7891,-0.74609 -13.172,-1.2461 -3.2578,-0.375 -6.5,-0.91406 -9.75,-1.3828 -7.625,-1.1016 -15.348,-1.7617 -22.855,-3.4062 v -0.004 c -11.77,-2.4062 -23.223,-6.168 -34.129,-11.207 -7.4414,-3.4648 -14.562,-7.582 -21.277,-12.301 -6.3086,-4.4062 -12.133,-9.4688 -17.371,-15.105 -5.3047,-5.5977 -10.043,-11.703 -14.145,-18.227 -2.8984,-4.8984 -5.4609,-9.9805 -7.6836,-15.215 -3.2539,-6.9922 -6,-14.211 -8.2148,-21.602 -3.5898,-13.156 -1.1445,-27.227 6.6758,-38.398 4.1289,-6.1953 8.8789,-11.977 13.082,-18.125 1.4453,-2.5195 2.6758,-5.1602 3.6797,-7.8867 -0.30859,-0.0547 -0.62109,-0.0625 -0.92969,-0.0273 -5.5664,2.125 -7.8008,0.54297 -7.0586,-5.2617 h -0.004 c 0.48047,-2.6055 1.1172,-5.1797 1.9023,-7.707 -1.4219,0.33203 -2.9883,0.71094 -4.5586,1.0625 v 0.004 c -0.60937,0.23438 -1.293,0.17188 -1.8516,-0.16406 -0.55859,-0.33984 -0.92969,-0.91406 -1.0039,-1.5664 -0.375,-1.5664 -0.42578,-3.1953 -0.14844,-4.7852 0.78125,-2.5156 1.707,-4.9883 2.7695,-7.3984 -0.0274,-0.0195 -0.14063,-0.14453 -0.23828,-0.13672 -1.6406,0.14844 -3.3633,1.7891 -4.8984,-0.0586 l 0.004,0.004 c -1.3789,-1.9844 -1.8008,-4.4766 -1.1602,-6.8008 0.41016,-1.4258 1.0039,-2.7891 1.7656,-4.0586 -0.39453,-0.15234 -0.66016,-0.36328 -0.81641,-0.30078 -4.1289,1.5859 -5.5547,0.69922 -5.4648,-3.7422 h -0.004 c 0.18359,-1.8555 0.52344,-3.6914 1.0195,-5.4883 -0.21875,-0.0977 -0.46875,-0.32031 -0.64453,-0.27344 -5.4727,1.5703 -5.7188,-0.91406 -5.207,-5.0039 0.34375,-1.832 0.8125,-3.6406 1.3984,-5.4102 -5.6484,0.0898 -7.2148,-1.9453 -5.9141,-7.4648 0.17188,-0.72656 0.46875,-1.4258 0.83203,-2.5039 -2.1953,0.0586 -4.3047,-0.19922 -4.332,-2.8359 -0.0234,-1.9766 0.30078,-3.957 0.46875,-5.9609 -3.3359,-0.74219 -4.1797,-1.0703 -2.7734,-8.5742 -3.4844,-2.3477 -4.5312,-1.7852 -2.5977,-9.4141 -1.3047,-1.1484 -2.796903,-1.9375 -3.425803,-3.1641 h 0.0039 c -0.46484,-1.5273 -0.67578,-3.125 -0.62891,-4.7227 -2.4062,-1.0273 -2.6172,-3.1953 -1.875,-5.5742 0.61328,-2.7773 2.5742,-5.0586 5.230493,-6.082 1.3242,-0.45313 2.2148,0.21875 2.5117,1.5547 h -0.004 c 0.12109,0.70703 0.19922,1.4219 0.23047,2.1367 4.2852,1.3438 4.5703,1.9297 3.9297,7.8516 4.1523,1.6445 4.1641,1.6641 3.8594,8.3477 4.5352,1.5 5.2539,2.7617 4.1875,7.7188 l 0.004,0.008 c 3.1758,1.957 4.3633,5.9961 2.75,9.3594 4.7539,2.1445 6.2344,4.168 4.8945,10.543 6.0977,0.71484 6.2539,3.6016 5.3125,9.7578 2.1602,0.16016 5.2266,-1.0977 5.6211,2.4688 v 0.004 c 0.10156,2.2188 0.0352,4.4375 -0.19141,6.6445 1.0391,0.33594 3,0.375 3.6016,1.2969 v 0.004 c 0.88672,1.6367 1.3555,3.4727 1.3672,5.3359 -0.0664,1.7266 -0.3125,3.4453 -0.72656,5.125 2.7461,0.27344 4.1211,2.0312 5.4336,4.5859 1.4805,2.8789 -0.39844,5.1367 -0.29688,7.6562 5.8008,0.61328 7.9414,5.0195 5.125,13.18 0.81641,-0.11328 1.6367,-0.17969 2.4609,-0.19531 0.99219,0.0352 2.3359,-0.15625 2.9062,0.39453 2.5039,2.4219 5.0078,1.125 7.6914,0.55859 5.0469,-1.0703 10.145,-1.9375 15.254,-2.6719 h 0.004 c 3.9219,-0.21875 7.8438,0.39062 11.516,1.7891 7.5977,2.0078 14.812,5.2578 21.348,9.6211 8.2227,5.6602 16.344,11.477 24.398,17.375 h 0.004 c 7.6328,5.8398 15.836,10.902 24.48,15.109 5.8086,2.4883 11.895,4.2656 18.129,5.293 8.1719,1.5508 16.477,2.5 24.766,3.2656 3.6562,0.17578 7.3203,-0.0703 10.922,-0.73828 8.0039,-1.1367 15.996,-2.3828 23.953,-3.8086 7.707,-1.3789 15.387,-2.9102 23.035,-4.5977 h -0.004 c 6.5977,-1.1836 13.039,-3.1016 19.211,-5.7188 6.7383,-3.1797 13.426,-6.4727 20.234,-9.5 6.9219,-3.0781 13.957,-5.8984 20.949,-8.8203 13.105,-5.0898 27.055,-7.6602 41.117,-7.5781 6.9609,-0.16406 13.859,0.16016 20.773,0.58984 2.7344,0.16797 5.4453,0.73047 8.3125,1.1367 z m -34.52,1.0234 c -2.5352,-0.16797 -5.2852,-1.375 -7.0938,1.668 h -0.004 c -1.5391,2.2227 -4.0586,3.5625 -6.7617,3.5977 -2.5391,0.35156 -3.3477,-1.7734 -4.5039,-3.1406 v -0.004 c -1.3125,-0.15625 -2.582,0.53125 -3.1602,1.7227 -0.99219,1.9844 -2.8555,3.3984 -5.0391,3.8164 -2.1797,0.41797 -4.4336,-0.20703 -6.0898,-1.6836 -6.6445,3.1797 -13.363,6.4062 -20.09,9.6094 -6.2734,2.9922 -12.414,6.3203 -18.863,8.8672 v 0.004 c -12.969,4.6914 -26.359,8.1328 -39.984,10.277 -8.3164,1.5625 -16.715,2.6797 -25.066,4.0586 v -0.004 c -4.4258,1.0234 -8.9062,1.793 -13.418,2.3086 -5.0469,0.24219 -10.109,-0.0469 -15.098,-0.85937 -7.7227,-1.2617 -15.328,-3.25 -23.012,-4.7617 v -0.004 c -10.84,-2.5938 -20.879,-7.8086 -29.234,-15.184 -3.75,-2.9961 -7.5508,-5.9375 -11.457,-8.7266 -5.3398,-3.8164 -10.848,-7.3906 -16.195,-11.195 h 0.004 c -6.5352,-4.8086 -13.867,-8.4258 -21.66,-10.688 -9.0273,-2.8203 -18.777,-2.2383 -27.406,1.6367 -2.4531,1.2383 -4.2773,3.4531 -5.0234,6.0977 4.2266,-0.51172 6.3398,1.6016 5.9531,5.5898 -1.5781,7.8359 -7.1133,14.285 -14.613,17.039 -1.3555,0.40234 -2.8203,0.008 -3.7852,-1.0234 -1.5078,-1.2656 -1.9922,-3.375 -1.1914,-5.1719 0.5625,-1.5977 1.2109,-3.168 1.8828,-4.8984 -0.62109,0.0351 -1.2422,-0.004 -1.8516,-0.11719 -3.4102,-1.2109 -5.4258,0.76562 -7.2773,3.125 -3.6562,4.3516 -6.9258,9.0156 -9.7695,13.938 -6.5078,12.07 -7.8359,26.266 -3.6797,39.332 0.28906,0.96094 0.80078,1.8398 1.4961,2.5625 0.96875,1.2734 2.7344,1.6328 4.125,0.83984 2.8125,-1.8594 5.9258,-3.5078 6.7656,-7.2969 l -0.004,-0.004 c 0.36719,-1.4766 0.90234,-2.9062 1.5898,-4.2617 0.58203,-0.8125 1.2617,-1.5547 2.0234,-2.207 0.4375,3.3477 -0.45703,6.7344 -2.4961,9.4297 -2.0547,4.3516 -6.2422,7.3047 -11.031,7.7773 1.4453,3.8516 2.5859,7.4766 4.1484,10.91 1.9844,4.3672 4.3945,8.5391 6.4727,12.867 h -0.004 c 2.0469,4.3477 6.3984,7.1406 11.203,7.1914 6.3242,0.17969 12.633,-0.78906 18.609,-2.8633 7.457,-2.375 15.074,-4.2188 22.797,-5.5078 13.305,-2.0469 26.914,-0.63672 39.52,4.0898 3.8633,1.4844 7.832,2.707 12.066,4.1562 0.13672,-1.4609 0.28516,-2.4375 0.3125,-3.418 h -0.004 c -0.0312,-6.5273 2.5742,-12.793 7.2188,-17.375 4.1797,-4.1055 9.4219,-6.9648 15.137,-8.2539 6.5469,-1.5 13.297,-1.9062 19.977,-1.2031 9.332,1.4062 17.969,5.7734 24.633,12.453 4.8047,4.4688 9.8281,8.6953 15.055,12.66 1.4922,1.1758 3.4297,1.6367 5.293,1.2578 4.6055,-0.79688 9.2266,-1.5117 13.859,-2.1016 8.4336,-0.85547 16.77,-2.4844 24.906,-4.8711 16.137,-5.3555 31.113,-13.707 44.152,-24.617 9.9883,-8.1367 19.008,-17.402 29.719,-24.707 12.695,-8.8516 27.164,-14.832 42.406,-17.531 2.5859,-0.44531 5.168,-0.92578 7.1719,-1.2852 v 0.004 c 0.23828,-1.6719 0.75391,-3.2891 1.5234,-4.7891 1.293,-1.1953 2.7539,-2.1992 4.3359,-2.9727 l -2.5586,-5.082 c -0.16406,3.5469 -0.55078,4.4844 -2.3359,4.7305 h 0.004 c -0.69531,0.10547 -1.4062,-0.0664 -1.9727,-0.48438 -0.5625,-0.41797 -0.94141,-1.043 -1.0391,-1.7383 -0.23438,-2.0234 1.2891,-3.4414 4.6055,-4.1719 -0.73047,-2.7656 0.39063,-6.2305 -3.5859,-8.4609 2.1406,3.8164 1.7734,5.8203 -0.99609,7.9922 -1.4375,1.3906 -3.7266,1.3633 -5.1328,-0.0586 -0.70312,-0.80859 -1.5352,-2.082 -1.3594,-2.957 0.55078,-1.8984 1.2812,-3.7422 2.1836,-5.5039 l -1.9375,-0.10156 c -0.0977,2.7812 -3.1211,1.9531 -4.3008,3.3906 l 0.42578,0.71094 c 0.95703,1.1367 1.293,2.6719 0.89844,4.1055 -0.39844,1.4336 -1.4727,2.5781 -2.875,3.0625 -1.4922,0.78906 -2.8281,0.41797 -3.3164,-1.207 l -0.004,0.004 c -0.40234,-1.1875 -0.46875,-2.4609 -0.19922,-3.6875 0.30078,-1.0352 1.3789,-1.8398 1.8164,-2.3828 l -2.6562,-5.3477 -5.3125,0.73828 0.17188,-0.0742 -10.141,0.40234 z m 111.53,7.6211 c -2.1211,-1.8867 -4.7422,-3.125 -7.5508,-3.5625 -5.6289,-1.0703 -11.453,-0.25781 -16.574,2.3125 -4.2344,2.3516 -9.0781,3.3711 -13.902,2.9258 -1.5625,-0.004 -2.9453,-1.0078 -3.4375,-2.4922 -0.62891,-1.4062 -0.34766,-3.0547 0.71484,-4.1719 1.5352,-1.6641 2.9141,-3.4727 4.1094,-5.3945 3.668,-5.3906 5.1875,-11.957 4.2578,-18.406 -0.50781,-2.9805 -1.0742,-5.9531 -1.582,-8.9336 l 0.004,-0.004 c -1.2656,-6.6758 0.32422,-13.574 4.3828,-19.023 1.6055,-2.2617 2.9258,-4.7148 3.9336,-7.2969 1.0977,-2.7539 0.22656,-4.0625 -2.6992,-4.4102 l 0.004,-0.004 c -4.7344,-0.48828 -9.4766,0.85547 -13.25,3.7617 3.6367,1.5352 4.2852,2.2773 3.7109,4.1914 -0.21484,1.3086 -1.375,2.25 -2.6992,2.1953 -0.70312,-0.043 -1.7383,-0.33984 -1.9922,-0.84375 h -0.004 c -0.55859,-1.3633 -1,-2.7695 -1.3164,-4.207 -2.1133,1.1211 -3.9844,2.6523 -5.5,4.5039 l 4.0781,0.10547 -1.8555,4.1758 -3.4883,-3.082 -3.5039,2.9844 c 1.4844,0.64062 3.2305,1.2305 2.3242,2.9102 -1.2812,2.375 -3.2383,0.57031 -4.9766,0.19141 v 0.004 c -8.0898,6.8594 -13.516,16.34 -15.328,26.789 -0.72266,4.8672 -1.0312,9.7891 -0.92969,14.707 -0.14063,5.5586 0.73828,11.094 2.5938,16.336 1.3477,3.6797 3.1992,7.1562 5.4961,10.332 2.3867,2.7227 5.2617,4.9727 8.4727,6.6367 3.2617,1.6641 6.6797,2.9961 10.207,3.9844 4.4375,1.4297 8.9648,2.582 13.449,3.8555 1.3047,0.48047 2.6406,0.85547 4.0039,1.125 6.6484,0.79688 13.301,1.5859 19.973,2.1602 h -0.004 c 2.4922,0.0664 4.9844,-0.0273 7.4648,-0.27734 -0.73828,-3.3672 -0.61328,-4.0117 0.65234,-4.2734 1.4922,-0.30859 2.25,0.49219 2.7969,3 h -0.004 c 7.8281,-0.97656 15.445,-3.2031 22.566,-6.6016 -1.3906,-2.5586 -3.5234,-4.668 -1.1367,-7.1758 0.86719,-0.73438 1.9141,-1.2227 3.0352,-1.4062 2.4609,-0.58203 4.0117,1.3008 5.8984,3.0195 -0.39844,-3.582 -1.7031,-4.2188 -10.758,-5.793 -0.59766,4.6211 -1.4492,5.8281 -4.4688,6.3438 -2.7266,0.56641 -5.4453,-1.0078 -6.3164,-3.6523 -0.46484,-0.88281 -0.57812,-1.9102 -0.32031,-2.875 0.97266,-1.3359 2.0859,-2.5586 3.3242,-3.6523 l -2.9961,-3.6367 c -2.6055,2.1641 -3.6016,2.4023 -4.6211,1.0781 -1.7461,-2.2695 1.2305,-2.3477 1.9414,-3.6914 l -2.6523,-2.0391 c -0.99609,1.6406 -2.1836,3.1562 -3.5312,4.5156 -0.92578,0.57812 -2.0508,0.73438 -3.0977,0.42188 -1.043,-0.3125 -1.9023,-1.0586 -2.3594,-2.0469 -1.2227,-2.2969 -0.80859,-3.5195 1.6836,-4.8672 0.53125,-0.28516 1.1133,-0.46875 1.7773,-0.74609 z m -317.76,76.828 c -1.3008,1.5195 -2.9844,3.332 -4.4922,5.2773 -2.5352,3.2539 -3.4258,7.4961 -2.4141,11.496 1.1992,5.6133 4.0898,10.727 8.2891,14.645 5.3828,4.793 11.766,8.3281 18.688,10.344 6.7578,2.4453 13.719,4.2852 20.801,5.5 4.7617,0.49219 9.5,1.2734 14.27,1.5898 h 0.004 c 4.3945,0.30859 8.8086,0.35156 13.211,0.12109 6.3945,-0.85156 12.625,-2.668 18.477,-5.3828 2.8672,-1.0859 5.3242,-3.0391 7.0352,-5.5859 1.7773,-2.043 2.3594,-4.8672 1.5234,-7.4492 -0.83203,-2.5781 -2.9531,-4.5312 -5.5938,-5.1484 -2.7422,-0.95703 -5.457,-1.9883 -8.1992,-2.9492 -1.9023,-0.66406 -3.8281,-1.2656 -6.2852,-2.0703 0.30078,-1.6602 -0.55859,-3.1797 -3.293,-3.0547 h -0.004 c 0.23828,0.85938 0.41016,1.7383 0.51953,2.625 0,1.125 -0.0625,2.2461 -0.18359,3.3633 -1.1836,0.30469 -2.4102,0.42969 -3.6289,0.36719 -1.6875,-0.36328 -3.5898,-0.91406 -3.7422,-3.168 -0.14453,-2.125 1.3125,-3.1445 3.0117,-3.9062 0.71484,-0.32031 1.4492,-0.60156 2.4297,-1.0078 -0.64062,-0.60938 -1.3164,-1.1836 -2.0273,-1.7109 -0.62109,-0.35156 -1.2695,-0.65625 -1.9375,-0.91406 -3.0195,2.8594 -4.7773,3.1094 -6.7812,0.85938 -0.72656,-0.81641 -1.6914,-2.0898 -1.4961,-2.8984 h 0.004 c 0.59766,-1.3086 1.4297,-2.5 2.4492,-3.5195 -1.3516,-1.2812 -2.7812,-2.4766 -4.2812,-3.5781 -0.93359,-0.54688 -2.0156,-0.78516 -3.0938,-0.67969 -5.4492,0.51562 -7.8203,-1.5625 -7.6758,-7.1445 l -3.3984,-1.5078 c 0.0781,0.76953 0.13672,1.1328 0.14844,1.4961 0.082,2.4336 -0.65234,3.8477 -2.2109,4.293 h 0.004 c -1.9219,0.0625 -3.7148,-0.97266 -4.6211,-2.6719 -1.1016,-1.8672 0.17578,-2.75 1.3789,-3.7422 0.33594,-0.37109 0.625,-0.78125 0.85938,-1.2227 -3.418,-1.6758 -7.2305,-2.4023 -11.027,-2.0977 0.19141,0.91406 0.29297,1.5117 0.4375,2.0938 h 0.004 c 0.47656,2.043 -0.42188,4.1602 -2.2266,5.2305 -1.5117,0.53125 -3.1758,0.40625 -4.5938,-0.33984 -2.5703,-0.97266 -4.6406,-2.9414 -5.7344,-5.4609 -0.64062,0.66406 -1.332,1.0391 -1.375,1.4805 -0.16016,1.6914 -0.76562,3.2109 -2.5391,3.1836 -1.0508,-0.0156 -2.082,-1.1523 -3.3477,-1.9219 l -1.4609,1.0625 v 0.004 c 0.91797,1.4375 1.6758,2.9766 2.2578,4.582 0.54688,2.3086 -0.83984,3.5547 -2.9844,2.7031 -1.8047,-0.91406 -3.5273,-1.9805 -5.1523,-3.1836 z m 97.926,29.953 c 4.5273,-0.78125 9.0078,-1.418 13.426,-2.3477 v -0.004 c 8.0039,-1.0859 15.844,-3.1289 23.359,-6.0898 6.6719,-2.9531 13.121,-6.3906 19.289,-10.289 5.9766,-4.0117 12.09,-7.8125 18.113,-11.75 3.9258,-2.6172 8.5898,-3.9023 13.301,-3.6641 1.7539,0.11328 3.4648,-0.58203 4.6445,-1.8867 3.2891,-3.1289 6.5312,-6.3398 10.09,-9.1406 8.2383,-6.4805 16.656,-12.727 24.984,-19.09 0.71484,-0.54688 1.3086,-1.25 2.5469,-2.4531 l -6.3672,0.33984 c -0.0781,-2.1055 1.2148,-2.582 2.6602,-2.7539 h 0.004 c 1.8672,-0.34375 3.7656,-0.47656 5.6641,-0.39453 3.4688,0.38672 5.5,-1.5312 8.2188,-4.3984 -4.5234,-0.26953 -8.2617,-0.73047 -11.996,-0.66797 -11.305,0.8125 -22.129,4.8945 -31.152,11.754 -6.6602,4.5781 -12.988,9.625 -18.934,15.102 -10.598,9.2109 -22.156,17.254 -34.48,23.984 -7.8672,3.7656 -16.035,6.8633 -24.422,9.2656 -1.3008,0.48047 -2.6406,0.84766 -4.0039,1.0977 -7.582,1.3359 -15.18,2.6055 -22.766,3.9258 -0.51953,0.19141 -1.0117,0.44922 -1.4688,0.76563 1.0391,0.41016 2.0234,0.94141 2.9375,1.582 2.5,2.043 5.9141,2.5586 8.9023,1.3438 1.6016,-0.37109 3.168,-0.89844 4.7695,-1.2539 v 0.004 c 1.0312,-0.16406 2.0703,-0.26953 3.1172,-0.31641 -3.5,3.4883 -8.1445,2.3906 -11.977,4.125 z m -103.86,-3.1992 0.29688,-0.91016 c -0.88672,-0.73047 -1.875,-1.3281 -2.9375,-1.7656 -4.9062,-1.1992 -9.8359,-2.3047 -14.789,-3.2812 -9.7461,-2.3359 -19.875,-2.6094 -29.734,-0.80859 -10.969,2.4336 -21.824,5.3984 -32.656,8.3945 h -0.004 c -4.0078,0.98047 -7.7383,2.8711 -10.898,5.5234 l 6.4375,5.6172 c 5.0234,-2.9375 9.3477,-5.8086 13.969,-8.0742 h -0.004 c 4.8359,-2.5352 10.137,-4.0586 15.582,-4.4688 1.1172,-0.0586 2.4609,-0.54688 3.7148,1.1914 -3.1406,0.71484 -5.9453,1.2422 -8.6875,1.9922 h -0.004 c -8.3516,1.5195 -15.902,5.918 -21.344,12.434 4.6016,2.793 9.1523,5.4766 13.613,8.293 1.7852,1.3281 4.25,1.2578 5.9531,-0.17188 0.51172,-0.375 1.0352,-0.72266 1.5586,-1.082 5.4102,-4.1562 11.309,-7.6328 17.562,-10.359 9.7734,-3.4922 19.996,-5.582 30.355,-6.2031 5.5039,-0.44922 11.023,-0.74219 16.637,-1.1133 -0.87891,-2.1797 -3.0352,-3.5664 -5.3828,-3.4609 -3.7656,-0.20703 -7.4805,-1.2188 -11.246,-1.4609 -5.9297,-1.2461 -11.945,-2.0312 -17.992,-2.3477 -0.60547,0.0547 -1.2578,-0.44922 -1.8906,-0.69141 l -0.0195,-0.83984 h -0.004 c 0.80859,-0.33203 1.6641,-0.52344 2.5352,-0.56641 6.7422,0.92188 13.469,1.9688 20.203,2.9453 3.0547,0.44141 6.1172,0.8125 9.1758,1.2148 z m -4.0195,44.453 c 2.5898,0.19531 4.4414,0.35938 6.293,0.47266 6.6836,0.40234 13.363,0.88672 20.051,1.1133 1.7539,0.0234 3.4844,-0.38281 5.043,-1.1797 3.4766,-1.7812 6.7266,-3.9922 10.164,-5.8477 8.207,-4.4297 16.469,-8.7539 24.703,-13.133 0.57422,-0.30469 1.0977,-0.69922 1.7578,-1.125 -7.1445,-0.94531 -14,-1.8633 -20.855,-2.7305 -0.58984,-0.0273 -1.1797,0.0859 -1.7188,0.33203 -1.5781,0.73438 -3.1953,1.3906 -4.8438,1.9609 -7.0117,1.7266 -13.695,4.5859 -19.789,8.457 -1.8711,1.418 -4.3047,1.8516 -6.5469,1.1602 4.0859,-3.3164 8.7266,-5.875 13.711,-7.5625 4.7578,-2.1016 9.7812,-3.5977 15.004,-5.4727 l -0.004,0.004 c -1.6602,-0.52344 -3.3555,-0.92188 -5.0781,-1.1992 -1.8555,-0.27344 -3.75,-0.20312 -5.5859,0.20312 -9.9102,2.9648 -19.516,6.8789 -28.676,11.691 -4.0156,2.1016 -8.043,4.1836 -12.039,6.3242 -2.2461,1.2031 -4.4414,2.5117 -6.6602,3.7695 3.0508,1.1133 6.2227,1.8672 9.4492,2.25 0.86719,0.0469 1.7305,-0.16016 2.4844,-0.58984 2.9141,-1.5039 5.7656,-3.125 8.6523,-4.6836 1.4805,-0.80078 2.9805,-1.5547 4.4727,-2.332 l 0.57422,0.94141 c -2.9414,2.7109 -6.832,4.2031 -10.562,7.1797 z m 89.84,-54.113 -0.0195,1.1484 c 1.3125,0.25781 2.6367,0.44141 3.9727,0.55078 6.4531,0.0391 12.875,-0.89844 19.047,-2.7812 9.3477,-2.6289 18.609,-5.5781 27.836,-8.5977 8.5078,-2.4844 16.492,-6.4961 23.566,-11.84 9.6523,-7.7305 19.914,-14.664 29.246,-22.836 9.8242,-8.8359 21.66,-15.133 34.48,-18.34 7.6328,-2.0586 15.676,-2.0625 23.312,-0.004 4.9141,-2.3086 9.5781,-5.1172 13.918,-8.3828 -2.5352,-4.0117 -7.3906,-5.9023 -11.977,-4.668 -6.3945,0.69922 -12.734,1.8516 -18.973,3.4453 -14.688,3.9844 -28.371,11.02 -40.156,20.648 -4.3125,3.4414 -8.0078,7.6562 -12.027,11.473 -6.5469,5.7539 -13.488,11.047 -20.773,15.836 -10.078,7.2383 -21.27,12.793 -33.133,16.441 -10.098,3.0977 -20.664,4.6797 -31.035,6.8594 -2.3984,0.5 -4.8555,0.70703 -7.2852,1.0469 z m -123.57,46.824 c 4.4336,1.7422 8.9766,3.1875 13.602,4.3203 0.50391,0.0742 1.0156,-0.0195 1.4609,-0.26562 7.4648,-3.9336 14.883,-7.957 22.379,-11.832 6.1445,-3.1758 12.336,-6.2773 18.602,-9.2031 2.832,-1.1094 5.7227,-2.0586 8.6641,-2.8359 -4.0273,-1.5547 -7.1602,-2.8242 -10.344,-3.957 -0.80469,-0.24609 -1.6641,-0.26562 -2.4766,-0.0586 -3.4336,0.80859 -6.8516,1.6875 -10.258,2.6133 h -0.004 c -6.6484,2.0039 -13.051,4.7422 -19.09,8.168 -6.3516,3.3711 -12.504,7.1289 -18.734,10.727 -1.043,0.60547 -2.0586,1.2578 -3.8008,2.3242 z m 67.496,8.0664 0.42578,1.0391 c 4.5234,-0.27344 9.0469,-0.69141 13.574,-0.75781 2.2578,-0.0625 4.4141,-0.95312 6.0586,-2.5039 4.0469,-3.6094 8.3984,-6.8633 13.008,-9.7227 4.8086,-2.4883 9.832,-4.5391 15.008,-6.1289 9.2344,-3.1562 19.051,-4.25 28.754,-3.2031 4.4961,0.44531 8.9531,1.3203 13.43,1.9805 v -0.004 c 0.37109,0.0703 0.75,0.0391 1.1016,-0.0898 3.6562,-1.3359 7.1211,-3.1406 10.309,-5.3711 -0.67578,-0.30078 -1.3672,-0.5625 -2.0703,-0.78516 -11.828,-2.9336 -24.184,-3.0039 -36.043,-0.20312 -7.4609,1.7891 -14.77,4.082 -22.375,5.5234 -5.875,1.4414 -11.535,3.6484 -16.84,6.5586 -6.3516,3.0938 -12.402,6.8086 -18.57,10.277 -1.9453,1.0938 -3.8477,2.2617 -5.7695,3.3945 z m -18.18,-34.305 -0.0391,-0.87891 v 0.004 c -1.1094,-0.23437 -2.2383,-0.36328 -3.3711,-0.38672 -11.094,0.62891 -22.078,2.5508 -32.73,5.7188 -9.3828,2.6406 -18.117,7.1797 -25.672,13.336 -1.0547,1.043 -2.0391,2.1484 -2.957,3.3125 3.2227,1.2461 5.8945,2.2734 8.5664,3.3125 1.7695,0.69141 3.7461,0.59766 5.4453,-0.25 8.793,-4.1484 17.27,-8.9375 25.359,-14.332 6.2617,-4.0352 13.152,-7 20.391,-8.7656 1.6641,-0.37891 3.3398,-0.71094 5.0078,-1.0664 z m -105.3,-6.4844 c 2.6875,-1.0273 4.8984,-1.9531 7.1602,-2.7227 7.75,-2.6406 15.438,-5.5078 23.305,-7.7344 5.5,-1.3672 11.074,-2.4219 16.691,-3.1641 6.957,-1.3164 14.07,-1.5781 21.102,-0.77344 2.918,0.39844 5.8516,0.71094 9.4922,1.1445 l -0.004,0.004 c -0.41406,-0.41016 -0.86719,-0.77344 -1.3555,-1.0898 -6.4961,-2.8125 -13.402,-4.5586 -20.457,-5.1758 -12.004,-0.51172 -24.004,1.1328 -35.43,4.8555 -7.8672,2.7734 -16.121,4.2969 -24.457,4.5156 -1.1797,0 -2.3594,0.0703 -4.3086,0.12891 2.9883,3.6211 5.5273,6.6992 8.2617,10.012 z m 259.64,-6.207 -0.37891,-1.1172 v -0.004 c -3.3672,0.16016 -6.7227,0.5625 -10.031,1.2031 -9.6406,2.5352 -19.156,5.5352 -28.781,8.1133 h -0.004 c -6.8711,2.1445 -14.055,3.125 -21.25,2.9062 -0.73828,0.0977 -1.4492,0.33203 -2.1055,0.6875 5.9766,1.3594 11.906,-0.38672 17.746,1.1641 l 0.004,-0.004 c -6.1602,2.1914 -12.73,2.9805 -19.23,2.3086 l -2.0508,2.7852 c 11.238,-1.0898 22.574,-0.46094 33.621,1.8672 1.3516,0.25781 2.7422,0.13281 4.0273,-0.35156 5.4531,-2.043 10.605,-4.8125 15.32,-8.2305 2.0078,-1.4492 4.2227,-2.75 4.0625,-6.0039 4.668,0.57031 6.3438,-3.1289 9.0508,-5.3281 z m 25.391,-26.449 c -2.3906,-0.78516 -5.0039,-0.52344 -7.1914,0.72266 -4.3516,2.3008 -8.7656,4.5391 -12.879,7.2266 -7.6289,5.4102 -15.586,10.348 -23.816,14.785 -5.6875,3.0117 -11.602,5.5703 -17.691,7.6562 -5.8867,1.4805 -11.863,2.5625 -17.895,3.2344 -2.3828,0.39062 -4.793,0.58984 -7.1914,0.875 h -0.004 c 1.7695,1.2695 4.0195,1.6523 6.1055,1.0391 9.3906,-1.2695 18.625,-3.5117 27.555,-6.6914 9.3281,-3.6445 19.234,-5.5742 29.246,-5.6992 0.98438,0.0508 1.9531,-0.24219 2.7461,-0.82422 7.6484,-6.8125 14.68,-14.281 21.016,-22.324 z m -139.61,72.68 c 3.1953,0.20312 6.3516,-0.77734 8.8633,-2.7578 2.1445,-2.2578 5.0703,-3.6055 8.1758,-3.7773 -0.5625,2.9375 -3.9883,2.6523 -5.3984,5.5703 5.2734,-2.8047 9.6914,-5.4648 14.367,-7.5508 4.625,-2.0664 9.5078,-3.5547 14.402,-5.3438 -1.957,-0.62109 -4.3047,1.6953 -6.4336,-0.85938 h -0.004 c 0.80469,-0.25781 1.6289,-0.46094 2.4609,-0.61328 3.3906,-0.34375 6.7969,-0.57422 10.18,-0.96875 1.7305,-0.20703 3.4805,0.15625 4.9844,1.0352 4.125,2.5195 9.4531,1.8047 12.77,-1.7109 -24.195,-7.332 -56.648,6.8047 -64.367,16.977 z m -50.859,-36.676 c -0.21875,-0.10547 -0.43359,-0.29297 -0.65625,-0.30078 -0.88281,-0.0273 -1.7695,-0.043 -2.6523,0.0117 v -0.004 c -10.59,0.57422 -21.113,2.0312 -31.461,4.3633 -10.27,3.293 -19.852,8.4336 -28.273,15.172 l 6.5273,3.3516 c 16.098,-14.707 35.914,-19.59 56.516,-22.594 z m -98.902,-106.04 c -0.19531,0.76172 -0.34375,1.5312 -0.43359,2.3125 -0.16016,2.457 0.96484,3.3789 3.2227,2.5586 5.2461,-2.0391 9.4219,-6.1484 11.543,-11.363 1.1602,-1.7227 1.1523,-3.9805 -0.0234,-5.6953 -1.0469,-1.1914 -3.5703,-0.64062 -5.8203,1.2539 -3.4883,3.082 -6.3672,6.793 -8.4883,10.934 z m 2.5156,-28.145 v 0.004 c 0.15625,-1.4453 0.17578,-2.9023 0.0508,-4.3477 -0.32422,-2.1914 -1.5117,-2.6406 -3.5312,-1.6953 -5.4727,3.0781 -8.9141,8.8203 -9.043,15.098 0.0469,0.78516 0.41797,2.0312 0.92578,2.1992 0.92969,0.27344 1.9375,0.12109 2.75,-0.41016 3.7383,-2.8906 6.7656,-6.6016 8.8477,-10.844 z m 8.0391,9.457 -1.4492,-3.9062 c -1.1992,0.15234 -2.7266,-0.10938 -3.5625,0.53125 v 0.004 c -2.5586,1.9961 -4.9766,4.1602 -7.2461,6.4805 -2.5312,2.543 -2.1172,5.8359 -1.8281,9.5312 6.1719,-2.1992 11.23,-6.7383 14.086,-12.637 z m -15.219,-28.395 v 0.004 c -7.1289,2.3594 -11.152,9.9023 -9.1328,17.137 6.9609,-1.7695 9.2539,-7.457 11.41,-13.148 z m -5.1328,-12.246 v 0.004 c -4.0352,2.4414 -7.1367,6.1758 -8.793,10.594 -1,1.7695 -0.95703,3.9414 0.11328,5.668 5.6758,-1.4414 9.8203,-6.3086 10.34,-12.141 0.28125,-1.5781 -0.36328,-3.1758 -1.6602,-4.1211 z m -13.277,5.3633 0.004,0.004 c 4.6133,-2.2852 8.25,-6.1562 10.25,-10.898 0.29688,-0.69141 0.41016,-1.4453 0.33203,-2.1914 -0.1875,-1.7383 -1.3945,-2.3672 -2.9648,-1.5156 -0.98438,0.53125 -1.8086,1.3555 -2.75,1.9766 -4.4727,2.4688 -6.5273,7.7969 -4.8672,12.629 z m -5.5273,-10.141 c 5.3828,-1.2422 9.5312,-5.5391 10.578,-10.965 0.0859,-0.9375 -0.27344,-1.8594 -0.96875,-2.4961 -0.96094,-0.50781 -2.1055,-0.53516 -3.0938,-0.082 -4.3164,3.1289 -6.7656,8.2188 -6.5156,13.543 z m -3.8164,-17.477 0.004,-0.004 c -0.44141,1.0898 -0.73438,2.2344 -0.875,3.4023 0.0391,1.0352 0.30469,2.5078 0.99609,2.9336 0.59375,0.36328 2.1992,-0.19922 2.8867,-0.85156 1.8008,-1.7422 3.4688,-3.6172 4.9883,-5.6094 0.55469,-0.82422 0.88672,-1.7852 0.95703,-2.7812 0.1875,-1.668 0.043,-3.6953 -1.8008,-4.0469 l -0.004,0.004 c -1.4531,-0.0273 -2.8477,0.58203 -3.8164,1.668 -1.2695,1.6523 -2.3867,3.4219 -3.332,5.2812 z m 202.28,221.34 c 10.051,-3.4531 20.973,-4.0586 30.535,-9.0938 -10.871,-0.18359 -21.535,2.9922 -30.535,9.0938 z m -206.15,-225.16 c 5.3398,-1.4102 8.6094,-6.7891 7.3984,-12.176 -1.2266,-0.45312 -2.5977,0.10156 -3.1641,1.2812 -1.957,3.2891 -4.8711,6.2305 -4.2344,10.895 z m -2.6641,-8.9688 0.004,-0.004 c 3.4883,-1.9648 6.1953,-5.0742 7.6602,-8.8047 0.15234,-0.63672 0.0781,-1.7227 -0.31641,-2 -0.69141,-0.46875 -1.5547,-0.61328 -2.3633,-0.39453 -3.4766,2.6289 -5.3555,6.8594 -4.9805,11.199 z m 1.8477,-19.922 c -4.4297,3.875 -6.0312,8 -4.1758,11.152 v -0.004 c 2.7969,-1.9609 4.8398,-4.8164 5.793,-8.0977 0.42969,-1.5352 0.25391,-2.75 -1.6172,-3.0508 z m -7.5781,1.4062 h 0.004 c 3.5234,-1.6133 5.5977,-5.3242 5.1172,-9.1719 -4.4492,0.42187 -6.539104,3.9922 -5.1211,9.1719 z m 0.82812,-13.309 c -3.3789,0.0117 -4.6719,2.1797 -3.7656,6.2422 h 0.0039 c 2.3594,-1.1758 3.8242,-3.6094 3.7656,-6.2422 z m 137.64,219.1 0.0937,-0.57031 -2.2422,-0.58594 h -0.004 c 0.11328,0.39453 0.41016,0.71094 0.79688,0.84375 0.44531,0.12891 0.89844,0.23438 1.3555,0.3125 z"
       id="path3288" />
    <path
       d="m 151.98,293.11 c 1.168,-1.5547 2.4648,-3.0078 3.8711,-4.3516 0.74219,-0.60547 1.6992,-0.88672 2.6523,-0.77344 0.94922,0.10938 1.8164,0.60156 2.3984,1.3633 1.4766,2.125 2.0469,4.7539 1.582,7.3008 -0.46484,2.5508 -1.9258,4.8047 -4.0586,6.2734 -1.4297,0.41406 -2.9648,0.23047 -4.2539,-0.50781 -1.2891,-0.73828 -2.2227,-1.9688 -2.5898,-3.4062 -0.0117,-1.9727 0.12109,-3.9453 0.39844,-5.8984 z"
       id="path3290" />
    <path
       d="m 176.61,303.32 c 1.793,0.58203 3.1719,2.0352 3.6602,3.8594 0.48828,1.8203 0.0234,3.7695 -1.2383,5.1719 -3.0117,3.3281 -7.293,5.2227 -11.781,5.2148 -4.7383,0.23438 -7.0469,-3.4609 -5.3242,-7.918 2.4141,-5.6992 8.8828,-8.4844 14.684,-6.3281 z m 2.043,6.0508 c -1.2539,-2.3477 -2.3086,-4.4531 -5.0586,-4.8945 h -0.004 c -4.0898,-0.0937 -7.8633,2.1836 -9.6875,5.8438 -0.99219,2.9688 0.3125,5.1211 3.3711,5.0977 4.5625,0 8.8242,-2.2656 11.375,-6.0469 z"
       id="path3292" />
    <path
       d="m 444.29,271.06 c -1.9336,-1.332 -2.5547,-3.9062 -1.4414,-5.9727 1.1133,-2.0664 3.6055,-2.9648 5.7812,-2.0781 1.3047,0.0664 2.4297,0.94141 2.8164,2.1914 0.38672,1.2461 -0.0469,2.6055 -1.082,3.3984 -1.3711,1.5 -2.6016,2 -6.0742,2.4609 z"
       id="path3294" />
    <path
       d="m 456.19,257.45 c 3.7266,1.2383 4.0586,1.6016 4.0156,4.3789 -0.0508,3.25 -0.875,4.0703 -3.9766,3.9336 h 0.004 c -1.1992,-0.004 -2.3477,-0.49609 -3.1758,-1.3594 -0.83203,-0.85938 -1.2812,-2.0234 -1.2422,-3.2227 0.27734,-1.0508 0.88672,-1.9844 1.7422,-2.6602 0.85547,-0.51172 1.7852,-0.89062 2.7539,-1.1133 z"
       id="path3296" />
    <path
       d="m 466.16,257.12 c 1.8867,0.29688 3.5664,1.3672 4.6328,2.9492 0.83984,1.0234 0.69922,2.5273 -0.31641,3.375 -0.18359,0.17188 -0.37109,0.34375 -0.55859,0.51172 -2.1797,1.9609 -4.5078,2.3164 -5.6172,0.86328 -0.875,-1.0664 -1.2539,-2.4531 -1.043,-3.8164 0.21484,-1.3633 0.99609,-2.5703 2.1523,-3.3164 0.30859,-0.20312 0.60938,-0.42578 0.91797,-0.63672 z"
       id="path3298" />
    <path
       d="m 432,269.48 c -0.75,1.6094 -2.3594,2.6484 -4.1367,2.668 -0.69141,0 -1.6953,-1 -2,-1.7656 -0.24609,-0.59766 -0.21484,-1.2734 0.0781,-1.8477 0.29688,-0.57812 0.82812,-0.99609 1.4531,-1.1484 1.3242,-0.82812 3.0234,-0.73047 4.2383,0.24219 0.41016,0.39453 0.28125,1.3516 0.36719,1.8516 z"
       id="path3300" />
    <path
       d="m 463.61,275.43 c -0.91797,3.5898 -1.9375,4.4258 -3.957,3.7578 -1.1953,-0.39453 -2.1055,-1.2266 -1.7344,-2.4492 0.32812,-0.88281 1.043,-1.5625 1.9414,-1.8477 1.2695,-0.008 2.5312,0.17578 3.75,0.53906 z"
       id="path3302" />
    <path
       d="m 438.77,263.38 c 0.44922,3.3633 -0.55859,4.7266 -3.0586,4.2109 -0.71094,-0.0195 -1.3359,-0.46094 -1.5898,-1.1211 -0.25391,-0.66406 -0.0898,-1.4102 0.42188,-1.9023 0.90625,-1.4062 2.7188,-1.918 4.2266,-1.1875 z"
       id="path3304" />
    <path
       d="m 463.37,270.51 c -1.7891,0.57813 -2.9141,1.3125 -3.9062,1.1641 -1.2383,-0.1875 -1.6797,-1.4453 -1.1953,-2.6953 0.12891,-0.56641 0.50781,-1.0469 1.0312,-1.3086 0.52344,-0.25781 1.1328,-0.26953 1.6641,-0.0312 0.81641,0.39453 1.293,1.4844 2.4062,2.8711 z"
       id="path3306" />
    <path
       d="m 422.97,266.5 c -0.11328,2.8633 -0.60547,3.7227 -2.2227,3.4492 v 0.004 c -0.88281,-0.21875 -1.6094,-0.83594 -1.9648,-1.668 -0.37109,-1.3906 1.0508,-1.9961 4.1875,-1.7852 z"
       id="path3308" />
    <path
       d="m 455.12,270.66 c 0.30078,1.2188 0.40234,2.4766 0.30078,3.7305 -0.1875,0.52344 -0.59766,0.94531 -1.1172,1.1484 -0.51953,0.20703 -1.1016,0.17969 -1.6016,-0.0742 -0.49609,-0.25391 -0.86328,-0.71094 -1.0039,-1.25 -0.14062,-0.54297 -0.0391,-1.1172 0.27344,-1.582 0.51953,-0.73828 1.6289,-1.0625 3.1484,-1.9727 z"
       id="path3310" />
    <path
       d="m 472.17,271.07 c -0.59766,2.125 -1.2969,3.5234 -3.4727,2.8047 -0.60547,-0.20703 -1.0742,-0.68359 -1.2617,-1.293 -0.19141,-0.60547 -0.082,-1.2695 0.29688,-1.7812 1.4414,-1.8633 2.793,-0.66406 4.4375,0.26953 z"
       id="path3312" />
    <path
       d="m 484.22,272.95 c -1.6328,-0.46094 -3.3516,-0.5 -2.9766,-2.4258 0.125,-0.64453 1.6484,-1.6641 2.1406,-1.4805 1.7891,0.67578 1.6836,2.1719 0.83594,3.9062 z"
       id="path3314" />
    <path
       d="m 446.95,273.19 c 0.21094,1.1367 0.28125,2.2969 0.20703,3.4531 -0.0977,0.50391 -0.45703,0.91406 -0.94531,1.0742 -0.48828,0.16016 -1.0234,0.0469 -1.3984,-0.30078 -0.54297,-0.36719 -1.1641,-1.6289 -0.96094,-1.8984 0.92969,-0.90234 1.9727,-1.6875 3.0977,-2.3281 z"
       id="path3316" />
    <path
       d="m 485.12,275.34 c 0.35938,1.1875 0.80078,1.8633 0.69141,2.4375 -0.21484,1.1211 -1.1289,1.8828 -2.2109,1.3008 -0.60547,-0.32422 -1.293,-1.6641 -1.0703,-2.0938 0.34766,-0.67578 1.4336,-0.96875 2.5898,-1.6445 z"
       id="path3318" />
    <path
       d="m 436.38,269.63 2.2227,1.8242 c -0.30859,0.35547 -0.58594,0.98438 -0.92578,1.0195 -1.25,0.125 -1.8516,-0.5 -1.2969,-2.8438 z"
       id="path3320" />
    <path
       d="m 572.27,289.24 c -2.8867,2.5742 -5.457,3.1875 -6.8906,1.8047 -1.2188,-1.5039 -1.3203,-3.6211 -0.25,-5.2344 1.7383,-1.7031 4.1211,-1.3555 6.457,0.95312 2.1797,-2.7344 3.2891,-3.25 5.2461,-2.4453 2.2734,0.61328 3.7734,2.7734 3.5586,5.1172 -0.57812,2.1094 -2.2969,3.7109 -4.4414,4.1445 -2.8594,0.23047 -2.8984,-2.2227 -3.6797,-4.3398 z"
       id="path3322" />
    <path
       d="m 539.11,203.75 c -1.0312,2.0586 -3.2695,3.2227 -5.5469,2.8789 -1.918,-1.4922 -2.6406,-4.0664 -1.7773,-6.3398 1.2773,-1.9609 3.8086,-2.668 5.9141,-1.6562 0.87891,0.48047 1.5273,1.293 1.793,2.2578 0.26562,0.96875 0.12891,2 -0.38281,2.8594 z"
       id="path3324" />
    <path
       d="m 575.54,279.82 c -0.61719,1.9883 -2.5859,3.2383 -4.6484,2.9531 -2.0352,-1.0703 -3.1523,-3.3281 -2.7617,-5.5977 1.0547,-2.0859 3.5391,-3.0078 5.6992,-2.1133 0.86328,0.39844 1.5312,1.1289 1.8516,2.0195 0.32031,0.89453 0.27344,1.8828 -0.14062,2.7383 z"
       id="path3326" />
    <path
       d="m 560.27,264.59 c 0.30078,0.39453 1.5898,1.375 1.4414,2.0352 -0.48047,1.3594 -1.2227,2.6133 -2.1914,3.6836 -0.16016,0.21484 -1,0.11328 -1.4023,-0.0859 h 0.004 c -0.55078,-0.3125 -1.0391,-0.71875 -1.4492,-1.1953 -0.99609,-1.0547 -2.5781,-1.8906 -1.832,-3.7461 0.48828,-1.2148 2.8633,-1.6094 5.4297,-0.69141 z"
       id="path3328" />
    <path
       d="m 551.76,264.88 c -1.2461,2.3828 -2.9023,3.1953 -4.4531,2.3828 v -0.004 c -1.1484,-0.66406 -1.5469,-2.1289 -0.89062,-3.2852 0.89844,-1.418 2.5391,-1.168 5.3438,0.90625 z"
       id="path3330" />
    <path
       d="m 544.86,269.89 c -1.707,0.30859 -2.9883,0.9375 -3.8242,0.5625 -0.60547,-0.26953 -0.91797,-1.8906 -0.82422,-2.8594 0.10937,-1.1562 2.2695,-2.1445 2.9219,-1.418 h -0.004 c 0.73828,1.1562 1.3203,2.4062 1.7305,3.7148 z"
       id="path3332" />
    <path
       d="m 587.87,289.03 c -0.41797,2.7969 -1.3828,4.0195 -2.7461,3.2891 -0.78906,-0.5 -1.2969,-1.3398 -1.375,-2.2734 0.0898,-1.5977 1.7422,-1.9375 4.1211,-1.0156 z"
       id="path3334" />
    <path
       d="m 565.49,277.91 c -1.1797,0.33594 -2.3906,0.54297 -3.6172,0.61719 -0.49219,-0.5625 -0.71484,-1.3086 -0.60547,-2.0508 0.25391,-0.57812 0.75391,-1.0117 1.3594,-1.1836 0.60938,-0.17188 1.2617,-0.0625 1.7773,0.30078 0.46094,0.29688 0.5625,1.1406 1.0859,2.3164 z"
       id="path3336" />
    <path
       d="m 553.69,270 c -0.0898,1.4727 0.14062,3.2266 -2.0977,2.9648 -0.61719,-0.0703 -1.6875,-1.5117 -1.5352,-2.0039 0.56641,-1.8125 1.9766,-1.8828 3.6328,-0.96094 z"
       id="path3338" />
    <path
       d="m 562.62,292.41 c -0.47266,3 -0.83594,3.1484 -3.7305,1.5 0.69531,-1.9727 2.082,-1.957 3.7305,-1.5 z"
       id="path3340" />
    <path
       d="m 298.85,359.64 c -0.95703,1.2148 -1.0898,3.4297 -3.4922,3.3047 -2.4531,-0.17188 -4.5078,-1.9297 -5.0586,-4.3281 -0.32812,-1.5 -1.4844,-3.3984 0.57812,-4.3867 2.0898,-1 4.2969,-2.4297 6.7891,-1.1719 v -0.004 c 1.9102,1.6328 2.4062,4.3867 1.1836,6.5859 z"
       id="path3342" />
    <path
       d="m 264.37,346.79 c -0.74219,-0.43359 -1.418,-0.97266 -2.0117,-1.5938 -0.90234,-1.0859 -2.582,-2.2734 -1.4414,-3.8477 0.92188,-1.3164 2.2539,-2.2891 3.7891,-2.7734 1.7773,-0.39062 3.6094,0.37891 4.5742,1.9219 0.86328,1.9648 0.81641,4.2109 -0.12891,6.1367 -0.86328,1.1836 -1.9492,1.3047 -4.7812,0.15625 z"
       id="path3344" />
    <path
       d="m 266.2,350.68 c 1.9492,1.0352 2.9297,3.2812 2.3633,5.4141 -0.36719,0.88672 -1.082,1.5781 -1.9805,1.9141 -0.89453,0.33594 -1.8906,0.28125 -2.7461,-0.14844 -1.9023,-0.55078 -3.0117,-2.5234 -2.4961,-4.4336 0.83594,-1.8906 2.8086,-3.0039 4.8594,-2.7461 z"
       id="path3346" />
    <path
       d="m 281.34,359.04 c -1.9453,-1.0234 -2.9492,-3.2305 -2.4453,-5.3672 0.79687,-1.6523 2.6875,-2.4688 4.4375,-1.918 1.918,1.0625 2.8672,3.3008 2.3008,5.4219 -0.28125,0.84766 -0.91016,1.5352 -1.7305,1.8906 -0.82031,0.35547 -1.75,0.34375 -2.5625,-0.0273 z"
       id="path3348" />
    <path
       d="m 248.61,361.62 c -2.1016,-0.76562 -3.4805,-2.9844 -2.8438,-4.5664 h -0.004 c 0.87109,-1.8867 3.0312,-2.8125 5,-2.1406 1.8398,1.1602 2.6641,3.418 1.9961,5.4922 -0.65234,1.5117 -2.1406,1.9453 -4.1484,1.2148 z"
       id="path3350" />
    <path
       d="m 275.8,348.1 c -2.3555,-0.85156 -3.0391,-2 -2.3477,-3.9258 0.57031,-1.8828 2.4258,-3.0664 4.375,-2.7969 2.0117,0.875 3.1758,3.0039 2.832,5.1719 -0.95703,1.7227 -3.0859,2.4023 -4.8594,1.5508 z"
       id="path3352" />
    <path
       d="m 288.17,344.04 c 1.5391,1.7617 2.1484,4.1484 1.6406,6.4258 -3.1445,0.98828 -5.8789,-0.10938 -6.4336,-2.5039 -0.44922,-1.9141 0.93359,-3.0977 4.793,-3.9219 z"
       id="path3354" />
    <path
       d="m 304.97,351.67 c -0.94141,1.5352 -2.8047,2.2422 -4.5312,1.7148 -1.6289,-0.82422 -2.4258,-2.6992 -1.8945,-4.4453 0.78516,-1.668 2.7461,-2.4219 4.4453,-1.7109 1.5664,0.88281 2.3711,2.6836 1.9805,4.4414 z"
       id="path3356" />
    <path
       d="m 328.91,370.23 c -1.082,1.5664 -3.043,2.2695 -4.875,1.7539 -1.1875,-0.98438 -1.6211,-2.6133 -1.0859,-4.0586 0.8125,-1.7812 2.8438,-2.6562 4.6992,-2.0273 1.3633,0.98437 1.8867,2.7695 1.2617,4.332 z"
       id="path3358" />
    <path
       d="m 312.45,366.23 c -0.21094,0.56641 -1.1094,1.1719 -2.6016,0.60156 -1.7695,-0.67969 -3,-2.3672 -2.6367,-3.6484 h -0.004 c 0.78906,-1.4961 2.5898,-2.1406 4.1484,-1.4922 1.5117,0.57031 2.0391,1.9648 1.0938,4.5391 z"
       id="path3360" />
    <path
       d="m 278.3,363.64 c -0.19141,0.59375 -0.625,1.0742 -1.1914,1.3281 -0.56641,0.25391 -1.2148,0.25781 -1.7852,0.008 -1.3789,-0.73437 -2.0352,-2.3516 -1.5586,-3.8438 0.51172,-1.5273 1.7266,-1.7031 3.0664,-1.3438 0.73047,0.28906 1.3008,0.87109 1.582,1.6055 0.27734,0.73047 0.23828,1.5469 -0.11328,2.2461 z"
       id="path3362" />
    <path
       d="m 283.8,364.42 c 1.7188,0.12109 3.2266,0.39062 3.2109,2.1641 -0.043,1.0625 -0.54687,2.0586 -1.3789,2.7227 -0.52734,0.33203 -2.0156,-0.20313 -2.6367,-0.80078 -1.5195,-1.4766 -0.0664,-2.6797 0.80469,-4.0859 z"
       id="path3364" />
    <path
       d="m 283.07,340.03 c -3.1602,-0.84766 -3.8828,-1.5664 -3.3867,-3.25 0.31641,-1.0742 0.99219,-1.8242 2.2109,-1.5625 1.6367,0.34766 2.1172,2.2305 1.1758,4.8125 z"
       id="path3366" />
    <path
       d="m 258.43,346.92 c 0.48438,1.5703 1.2383,2.7148 1.0273,3.6406 -0.28516,1.2539 -1.5898,1.4219 -2.7266,0.75781 -1.1055,-0.64453 -2.2539,-1.5742 -1.4766,-2.9062 0.40625,-0.69531 1.7266,-0.85156 3.1758,-1.4922 z"
       id="path3368" />
    <path
       d="m 250.35,347.19 c 0.53125,1.0039 0.90625,2.0781 1.1094,3.1953 0.0117,0.30469 -1.5938,0.89844 -2.4766,0.93359 -0.69531,-0.11719 -1.2773,-0.58984 -1.5352,-1.2422 -0.30078,-1.7852 1.1719,-2.1523 2.9023,-2.8867 z"
       id="path3370" />
    <path
       d="m 295.05,342.54 c 0.53516,1.2266 0.94922,2.5 1.2422,3.8086 -0.53516,0.53516 -1.2656,0.83984 -2.0234,0.84375 -0.57031,-0.0898 -1.0664,-0.44141 -1.3398,-0.95312 -0.27344,-0.51172 -0.28906,-1.1172 -0.0508,-1.6445 0.20703,-0.625 1.0547,-1.0391 2.1719,-2.0547 z"
       id="path3372" />
    <path
       d="m 304.12,359.43 c -0.34766,-1.1289 -0.90234,-1.957 -0.73828,-2.6094 0.26172,-1.0508 1.3242,-1.7539 2.293,-0.97656 h 0.004 c 0.62891,0.66797 0.94922,1.5664 0.87891,2.4844 -0.0234,0.35547 -1.332,0.62891 -2.4375,1.1016 z"
       id="path3374" />
    <path
       d="m 274.57,353.91 c -1.832,-0.0781 -2.9531,-0.55859 -2.6914,-2.1836 0.35156,-0.60547 0.99219,-0.98828 1.6953,-1.0039 1.7773,0.38672 1.3672,1.7109 0.99609,3.1875 z"
       id="path3376" />
    <path
       d="m 334.71,370.98 c -1.125,0.28516 -2.1094,0.78516 -2.3477,0.54297 -0.51172,-0.58984 -0.78906,-1.3438 -0.77344,-2.125 0.004,-0.25781 1.3789,-0.87109 1.6914,-0.66406 0.57812,0.38672 0.83984,1.2539 1.4297,2.2461 z"
       id="path3378" />
    <path
       d="m 318,370.98 c -0.85156,0.21094 -1.5703,0.61328 -1.8594,0.41016 -0.48047,-0.33984 -0.6875,-1.0664 -1.0078,-1.6328 0.56641,-0.27344 1.3164,-0.90625 1.6562,-0.73047 0.50391,0.25391 0.71484,1.0859 1.2109,1.9531 z"
       id="path3380" />
    <path
       d="m 456.65,310 c -4.4219,2.0625 -8.5352,3.7969 -12.469,5.8711 -3.8164,2.0117 -6.4453,5.8359 -10.688,7.2852 h 0.004 c 3.7969,-6.0664 9.6602,-10.559 16.508,-12.648 1.8438,-0.80078 3.8828,-2.3867 6.6445,-0.50781 z"
       id="path3382" />
    <path
       d="m 363.61,362.89 c 3.5742,-1.0508 6.6758,-1.793 9.6523,-2.8828 3.0781,-1.1289 6.0664,-2.5234 9.0273,-3.9453 2.793,-1.793 5.7148,-3.375 8.7461,-4.7305 -1.1758,3.543 -2.2773,4.3086 -11.156,8.2227 -8.9727,3.9531 -12.84,4.8555 -16.27,3.3359 z"
       id="path3384" />
    <path
       d="m 411.5,340.93 c 5.6016,-4.9922 10.621,-9.4805 15.676,-13.926 0.27344,-0.23828 0.86719,-0.10938 1.3242,-0.15234 0.0273,0.47656 0.14844,0.82422 0.0352,0.94141 -4.0586,4.1133 -8.0938,8.25 -12.242,12.273 l 0.004,-0.004 c -1.3359,1.1094 -3.1562,1.4414 -4.7969,0.86719 z"
       id="path3386" />
    <path
       d="m 406.71,344.57 c -2.7891,3.0586 -6.5586,5.0469 -10.656,5.6211 3.0078,-2.7617 6.6758,-4.6992 10.656,-5.6211 z"
       id="path3388" />
    <path
       d="m 466.41,306.42 -7.1367,2.125 c 0.30859,-1.1289 0.33203,-2.1445 0.65625,-2.2539 2.0859,-0.6875 4.1602,-2.2695 6.4375,-0.79688 z"
       id="path3390" />
    <path
       d="m 208.2,365.6 c -3.9062,1.8516 -8.1953,2.7383 -12.516,2.5859 3.6719,-2.4727 8.1641,-3.4023 12.516,-2.5859 z"
       id="path3392" />
    <path
       d="m 367.82,378.42 c 2.2109,-0.53516 3.9648,-0.97266 5.7266,-1.3828 5.1641,-1.2031 10.324,-2.4453 15.508,-3.5664 v 0.004 c 2.0977,-0.44141 4.2266,-0.73438 6.3633,-0.875 1.2266,0.13281 2.4336,0.41406 3.5938,0.83594 -1.3867,0.73047 -1.9531,1.2656 -2.5547,1.3125 -7.6602,0.86719 -15.223,2.457 -22.582,4.7461 -2.0547,0.86719 -4.4258,0.44531 -6.0547,-1.0742 z"
       id="path3394" />
    <path
       d="m 326.52,398.43 c -0.16016,0.67578 -0.125,1.3945 -0.39062,1.5312 -3.6406,1.875 -7.3242,3.668 -11.352,5.6602 0.60938,-2.3633 0.59375,-2.3984 5.0273,-4.5938 v -0.004 c 1.9961,-1.3906 4.3008,-2.2812 6.7148,-2.5938 z"
       id="path3396" />
  </g>
</svg>
