<?xml version="1.0" encoding="UTF-8" standalone="no"?>
<svg
   width="513.33411pt"
   height="368.96661pt"
   version="1.1"
   viewBox="0 0 513.33411 368.96661"
   id="svg830"
   sodipodi:docname="noun-narwhal-3386502.svg"
   inkscape:version="1.1.2 (b8e25be8, 2022-02-05)"
   xmlns:inkscape="http://www.inkscape.org/namespaces/inkscape"
   xmlns:sodipodi="http://sodipodi.sourceforge.net/DTD/sodipodi-0.dtd"
   xmlns="http://www.w3.org/2000/svg"
   xmlns:svg="http://www.w3.org/2000/svg">
  <defs
     id="defs834" />
  <sodipodi:namedview
     id="namedview832"
     pagecolor="#ffffff"
     bordercolor="#999999"
     borderopacity="1"
     inkscape:pageshadow="0"
     inkscape:pageopacity="0"
     inkscape:pagecheckerboard="0"
     inkscape:document-units="pt"
     showgrid="false"
     inkscape:zoom="0.69964286"
     inkscape:cx="192.24094"
     inkscape:cy="405.20674"
     inkscape:window-width="1312"
     inkscape:window-height="855"
     inkscape:window-x="0"
     inkscape:window-y="23"
     inkscape:window-maximized="0"
     inkscape:current-layer="svg830" />
  <g
     id="g828"
     transform="translate(-93.334035,-95.51588)">
    <path
       d="m 517.29,95.523 c -2.0078,0.11328 -3.5508,1.8281 -3.4492,3.8398 0.54688,11.008 2.2617,21.922 5.1172,32.566 0.44531,1.6562 1.0312,3.2695 1.7617,4.8242 3,6.3711 4.9961,13.172 5.918,20.156 1.293,7.0273 0.66797,14.27 -1.8047,20.973 -2.4727,6.7031 -6.7031,12.617 -12.25,17.125 -24.145,22.301 -53.945,37.555 -86.156,44.105 -34.09,4.4922 -66.344,18.051 -93.402,39.262 -19.711,13.461 -40.152,25.82 -61.227,37.023 -8.6602,5.1289 -16.848,11.008 -24.477,17.574 -4.3984,3.7773 -7.5586,8.7891 -9.0664,14.387 -1.5078,5.5977 -1.293,11.516 0.60938,16.992 l -143.43,92.215 h 0.0039 c -2.0273,1.1836 -2.707,3.7891 -1.5195,5.8125 1.1875,2.0273 3.7891,2.707 5.8164,1.5234 l 156.91,-81.793 c 24.152,9.1758 50.617,10.348 75.484,3.3359 3.6992,2.3438 7.7383,4.0938 11.977,5.1875 12.02,4.3477 24.922,5.668 37.57,3.8398 2.2031,-0.32031 4.1602,-1.5859 5.3516,-3.4648 1.1953,-1.8789 1.5117,-4.1836 0.86719,-6.3164 -1.2227,-4.0312 -3.0078,-7.8711 -5.3047,-11.402 30,-8.957 58.121,-23.281 83.004,-42.277 23.926,-18.543 43.426,-42.172 57.09,-69.18 5.1211,-16.746 10.129,-33.527 15.016,-50.344 0.41406,-14.172 6.6562,-27.539 17.254,-36.957 7.0938,-3.6797 14.801,-6.0352 22.738,-6.9492 10.035,-0.48438 19.672,-4.0664 27.586,-10.258 1.1367,-0.89844 1.6367,-2.3828 1.2734,-3.7891 -0.35938,-1.4023 -1.5117,-2.4609 -2.9414,-2.7031 -5.3438,-0.85938 -10.465,-2.7695 -15.062,-5.6211 -10.066,-5.3633 -21.488,-7.6445 -32.84,-6.5586 -1.4414,0.12891 -2.7617,-0.79688 -3.1328,-2.1953 -2.2031,-8.3867 -7.4492,-15.656 -14.715,-20.387 -6.4961,-5.6641 -12.32,-12.051 -17.371,-19.039 -0.73047,-1.0078 -1.9297,-1.5781 -3.1758,-1.5078 z m 1.3477,6.9922 h 0.004 c 4.8398,6.3086 10.309,12.113 16.316,17.324 6.4219,4.0859 11.062,10.441 13.004,17.801 0.94922,3.6211 4.3828,6.0234 8.1133,5.668 10.398,-1 20.863,1.0742 30.098,5.9648 4.4141,2.7148 9.2617,4.6523 14.328,5.7383 -6.8359,4.793 -14.898,7.5352 -23.242,7.9062 -8.7734,0.97656 -17.289,3.5977 -25.094,7.7227 -11.645,10.16 -18.59,24.668 -19.195,40.109 -4.793,16.473 -9.6992,32.914 -14.719,49.316 -13.34,26.23 -32.32,49.188 -55.578,67.215 -24.871,18.988 -53.035,33.223 -83.074,41.98 -3.7617,-4.5898 -8.3984,-8.3906 -13.645,-11.176 -1.1211,-0.50391 -2.4414,-0.0586 -3.0234,1.0273 -0.58203,1.082 -0.23047,2.4297 0.80859,3.0898 9.4375,5.0273 16.48,13.613 19.562,23.859 0.24219,0.8125 0.125,1.6953 -0.32812,2.4141 -0.44922,0.72266 -1.1875,1.2148 -2.0273,1.3555 h -0.11719 c -11.93,1.7109 -24.098,0.44531 -35.422,-3.6836 -9.4023,-2.3594 -17.508,-8.2969 -22.602,-16.547 -0.32813,-0.52734 -0.85156,-0.90234 -1.457,-1.043 -0.60156,-0.14062 -1.2383,-0.0391 -1.7656,0.28906 -0.52734,0.32812 -0.90234,0.85156 -1.0469,1.457 -0.14062,0.60547 -0.0352,1.2383 0.29297,1.7656 2.2656,3.6836 5.0859,6.9883 8.3633,9.8047 -23.215,5.7578 -47.645,4.1875 -69.93,-4.5 -7.9062,-3.082 -13.613,-10.082 -15.047,-18.441 -1.4297,-8.3633 1.625,-16.863 8.0508,-22.398 7.4023,-6.3672 15.348,-12.074 23.746,-17.051 21.227,-11.297 41.812,-23.766 61.66,-37.34 26.477,-20.781 58.062,-34.043 91.438,-38.395 33.059,-6.6992 63.648,-22.332 88.441,-45.207 6.1523,-5.0234 10.844,-11.602 13.594,-19.051 2.75,-7.4531 3.4531,-15.504 2.0391,-23.316 -0.98828,-7.4219 -3.1172,-14.645 -6.3086,-21.414 -0.62109,-1.3008 -1.125,-2.6562 -1.5078,-4.0469 -2.4805,-9.2266 -4.082,-18.668 -4.7773,-28.199 z m -277.88,266.15 h 0.004 c 2.4648,4.5234 6.0938,8.3008 10.512,10.945 l -145.12,75.621 z"
       id="path824" />
    <path
       d="m 277.45,352.3 c 0.0625,-1.0352 -0.30859,-2.0469 -1.0156,-2.8008 -0.71094,-0.75 -1.6992,-1.1797 -2.7344,-1.1797 -1.0352,0 -2.0234,0.42969 -2.7305,1.1797 -0.71094,0.75391 -1.0781,1.7656 -1.0156,2.8008 -0.0625,1.0312 0.30469,2.043 1.0156,2.7969 0.70703,0.75391 1.6953,1.1797 2.7305,1.1797 1.0352,0 2.0234,-0.42578 2.7344,-1.1797 0.70703,-0.75391 1.0781,-1.7656 1.0156,-2.7969 z"
       id="path826" />
  </g>
</svg>
