<?xml version="1.0" encoding="UTF-8" standalone="no"?>
<svg
   width="526.80505pt"
   height="415.03372pt"
   version="1.1"
   viewBox="0 0 526.80505 415.03372"
   id="svg3280"
   sodipodi:docname="noun-octopus-1443787.svg"
   inkscape:version="1.1.2 (b8e25be8, 2022-02-05)"
   xmlns:inkscape="http://www.inkscape.org/namespaces/inkscape"
   xmlns:sodipodi="http://sodipodi.sourceforge.net/DTD/sodipodi-0.dtd"
   xmlns="http://www.w3.org/2000/svg"
   xmlns:svg="http://www.w3.org/2000/svg">
  <sodipodi:namedview
     id="namedview3282"
     pagecolor="#ffffff"
     bordercolor="#999999"
     borderopacity="1"
     inkscape:pageshadow="0"
     inkscape:pageopacity="0"
     inkscape:pagecheckerboard="0"
     inkscape:document-units="pt"
     showgrid="false"
     inkscape:zoom="0.60321429"
     inkscape:cx="314.15038"
     inkscape:cy="430.19538"
     inkscape:window-width="1312"
     inkscape:window-height="855"
     inkscape:window-x="0"
     inkscape:window-y="23"
     inkscape:window-maximized="0"
     inkscape:current-layer="g3278" />
  <defs
     id="defs3086">
    <symbol
       id="w"
       overflow="visible">
      <path
         d="m 18.766,-1.125 c -0.96875,0.5 -1.9805,0.875 -3.0312,1.125 -1.043,0.25781 -2.1367,0.39062 -3.2812,0.39062 -3.3984,0 -6.0898,-0.94531 -8.0781,-2.8438 -1.9922,-1.9062 -2.9844,-4.4844 -2.9844,-7.7344 0,-3.2578 0.99219,-5.8359 2.9844,-7.7344 1.9883,-1.9062 4.6797,-2.8594 8.0781,-2.8594 1.1445,0 2.2383,0.13281 3.2812,0.39062 1.0508,0.25 2.0625,0.625 3.0312,1.125 v 4.2188 c -0.98047,-0.65625 -1.9453,-1.1406 -2.8906,-1.4531 -0.94922,-0.3125 -1.9492,-0.46875 -3,-0.46875 -1.875,0 -3.3516,0.60547 -4.4219,1.8125 -1.0742,1.1992 -1.6094,2.8555 -1.6094,4.9688 0,2.1055 0.53516,3.7617 1.6094,4.9688 1.0703,1.1992 2.5469,1.7969 4.4219,1.7969 1.0508,0 2.0508,-0.14844 3,-0.45312 0.94531,-0.3125 1.9102,-0.80078 2.8906,-1.4688 z"
         id="path3017" />
    </symbol>
    <symbol
       id="b"
       overflow="visible">
      <path
         d="m 13.734,-11.141 c -0.4375,-0.19531 -0.87109,-0.34375 -1.2969,-0.4375 -0.41797,-0.10156 -0.83984,-0.15625 -1.2656,-0.15625 -1.2617,0 -2.2305,0.40625 -2.9062,1.2188 -0.67969,0.80469 -1.0156,1.9531 -1.0156,3.4531 v 7.0625 H 2.3591 v -15.312 h 4.8906 v 2.5156 c 0.625,-1 1.3438,-1.7266 2.1562,-2.1875 0.82031,-0.46875 1.8008,-0.70312 2.9375,-0.70312 0.16406,0 0.34375,0.01172 0.53125,0.03125 0.19531,0.01172 0.47656,0.03906 0.84375,0.07813 z"
         id="path3020" />
    </symbol>
    <symbol
       id="a"
       overflow="visible">
      <path
         d="m 17.641,-7.7031 v 1.4062 H 6.188 c 0.125,1.1484 0.53906,2.0078 1.25,2.5781 0.70703,0.57422 1.7031,0.85938 2.9844,0.85938 1.0312,0 2.082,-0.14844 3.1562,-0.45312 1.082,-0.3125 2.1914,-0.77344 3.3281,-1.3906 v 3.7656 c -1.1562,0.4375 -2.3125,0.76562 -3.4688,0.98438 -1.1562,0.22656 -2.3125,0.34375 -3.4688,0.34375 -2.7734,0 -4.9297,-0.70312 -6.4688,-2.1094 -1.5312,-1.4062 -2.2969,-3.3789 -2.2969,-5.9219 0,-2.5 0.75391,-4.4609 2.2656,-5.8906 1.5078,-1.4375 3.582,-2.1562 6.2188,-2.1562 2.4062,0 4.332,0.73047 5.7812,2.1875 1.4453,1.4492 2.1719,3.3828 2.1719,5.7969 z m -5.0312,-1.625 c 0,-0.92578 -0.27344,-1.6719 -0.8125,-2.2344 -0.54297,-0.57031 -1.25,-0.85938 -2.125,-0.85938 -0.94922,0 -1.7188,0.26562 -2.3125,0.79688 -0.5937,0.53126 -0.96484,1.2969 -1.1094,2.2969 z"
         id="path3023" />
    </symbol>
    <symbol
       id="e"
       overflow="visible">
      <path
         d="m 9.2188,-6.8906 c -1.0234,0 -1.793,0.17188 -2.3125,0.51562 -0.51172,0.34375 -0.76562,0.85547 -0.76562,1.5312 0,0.625 0.20703,1.1172 0.625,1.4688 0.41406,0.34375 0.98828,0.51562 1.7188,0.51562 0.92578,0 1.7031,-0.32812 2.3281,-0.98438 0.63281,-0.66406 0.95312,-1.4922 0.95312,-2.4844 v -0.5625 z m 7.4688,-1.8438 V 0 h -4.9219 v -2.2656 c -0.65625,0.92969 -1.3984,1.6055 -2.2188,2.0312 -0.82422,0.41406 -1.8242,0.625 -3,0.625 -1.5859,0 -2.8711,-0.45703 -3.8594,-1.375 -0.99219,-0.92578 -1.4844,-2.1289 -1.4844,-3.6094 0,-1.7891 0.61328,-3.1016 1.8438,-3.9375 1.2383,-0.84375 3.1797,-1.2656 5.8281,-1.2656 h 2.8906 v -0.39062 c 0,-0.76953 -0.30859,-1.332 -0.92188,-1.6875 -0.61719,-0.36328 -1.5703,-0.54688 -2.8594,-0.54688 -1.0547,0 -2.0312,0.10547 -2.9375,0.3125 -0.89844,0.21094 -1.7305,0.52344 -2.5,0.9375 v -3.7344 c 1.0391,-0.25 2.0859,-0.44141 3.1406,-0.57812 1.0625,-0.13281 2.125,-0.20312 3.1875,-0.20312 2.7578,0 4.75,0.54688 5.9688,1.6406 1.2266,1.0859 1.8438,2.8555 1.8438,5.3125 z"
         id="path3026" />
    </symbol>
    <symbol
       id="c"
       overflow="visible">
      <path
         d="m 7.7031,-19.656 v 4.3438 H 12.75 v 3.5 H 7.7031 v 6.5 c 0,0.71094 0.14062,1.1875 0.42188,1.4375 0.28126,0.25 0.83594,0.375 1.6719,0.375 h 2.5156 v 3.5 h -4.1875 c -1.9375,0 -3.3125,-0.39844 -4.125,-1.2031 -0.80469,-0.8125 -1.2031,-2.1797 -1.2031,-4.1094 v -6.5 h -2.4219 v -3.5 h 2.4219 v -4.3438 z"
         id="path3029" />
    </symbol>
    <symbol
       id="k"
       overflow="visible">
      <path
         d="m 12.766,-13.078 v -8.2031 h 4.9219 V -10e-5 H 12.766 v -2.2188 c -0.66797,0.90625 -1.4062,1.5703 -2.2188,1.9844 -0.8126,0.4141 -1.7578,0.625 -2.8281,0.625 -1.8867,0 -3.4336,-0.75 -4.6406,-2.25 -1.2109,-1.5 -1.8125,-3.4258 -1.8125,-5.7812 0,-2.3633 0.60156,-4.2969 1.8125,-5.7969 1.207,-1.5 2.7539,-2.25 4.6406,-2.25 1.0625,0 2,0.21484 2.8125,0.64062 0.82031,0.42969 1.5664,1.0859 2.2344,1.9688 z m -3.2188,9.9219 c 1.0391,0 1.8359,-0.37891 2.3906,-1.1406 0.55078,-0.76953 0.82812,-1.8828 0.82812,-3.3438 0,-1.457 -0.27734,-2.5664 -0.82812,-3.3281 -0.55469,-0.76953 -1.3516,-1.1562 -2.3906,-1.1562 -1.043,0 -1.8398,0.38672 -2.3906,1.1562 -0.55469,0.76172 -0.82812,1.8711 -0.82812,3.3281 0,1.4609 0.27344,2.5742 0.82812,3.3438 0.55078,0.76172 1.3477,1.1406 2.3906,1.1406 z"
         id="path3032" />
    </symbol>
    <symbol
       id="j"
       overflow="visible">
      <path
         d="m 10.5,-3.1562 c 1.0508,0 1.8516,-0.37891 2.4062,-1.1406 0.55078,-0.76953 0.82812,-1.8828 0.82812,-3.3438 0,-1.457 -0.27734,-2.5664 -0.82812,-3.3281 -0.55469,-0.76953 -1.3555,-1.1562 -2.4062,-1.1562 -1.0547,0 -1.8594,0.38672 -2.4219,1.1562 -0.55469,0.77344 -0.82812,1.8828 -0.82812,3.3281 0,1.4492 0.27344,2.5586 0.82812,3.3281 0.5625,0.77344 1.3672,1.1562 2.4219,1.1562 z m -3.25,-9.9219 c 0.67578,-0.88281 1.4219,-1.5391 2.2344,-1.9688 0.82031,-0.42578 1.7656,-0.64062 2.8281,-0.64062 1.8945,0 3.4453,0.75 4.6562,2.25 1.207,1.5 1.8125,3.4336 1.8125,5.7969 0,2.3555 -0.60547,4.2812 -1.8125,5.7812 -1.2109,1.5 -2.7617,2.25 -4.6562,2.25 -1.0625,0 -2.0078,-0.21094 -2.8281,-0.625 C 8.6719,-0.6602 7.9258,-1.32032 7.25,-2.21882 V -2e-5 H 2.3594 v -21.281 H 7.25 Z"
         id="path3035" />
    </symbol>
    <symbol
       id="i"
       overflow="visible">
      <path
         d="m 0.34375,-15.312 h 4.8906 l 4.125,10.391 3.5,-10.391 h 4.8906 l -6.4375,16.766 c -0.64844,1.6953 -1.4023,2.8828 -2.2656,3.5625 -0.86719,0.6875 -2,1.0312 -3.4062,1.0312 H 2.79685 V 2.8289 h 1.5312 c 0.83203,0 1.4375,-0.13672 1.8125,-0.40625 C 6.52336,2.16093 6.82024,1.69218 7.03117,1.01645 L 7.17179,0.59457 Z"
         id="path3038" />
    </symbol>
    <symbol
       id="h"
       overflow="visible">
      <path
         d="M 14.953,-3.7188 H 6.7342 L 5.4217,0 H 0.1405 L 7.703,-20.406 h 6.2656 L 21.5311,0 H 16.2499 Z M 8.0468,-7.5 h 5.5781 l -2.7812,-8.125 z"
         id="path3041" />
    </symbol>
    <symbol
       id="v"
       overflow="visible">
      <path
         d="M 2.3594,-21.281 H 7.25 V 0 H 2.3594 Z"
         id="path3044" />
    </symbol>
    <symbol
       id="u"
       overflow="visible">
      <path
         d="m 6.2188,-7.8281 -5.5156,-7.4844 h 5.1719 l 3.1406,4.5312 3.1719,-4.5312 h 5.1719 L 11.8439,-7.8594 17.6408,0 H 12.4533 L 9.0158,-4.8438 5.6096,0 H 0.4221 Z"
         id="path3047" />
    </symbol>
    <symbol
       id="t"
       overflow="visible">
      <path
         d="m 2.5781,-20.406 h 6.6875 l 4.6562,10.922 4.6719,-10.922 h 6.6875 V 0 H 20.2968 V -14.938 L 15.5937,-3.922 H 12.2656 L 7.5625,-14.938 V 0 H 2.5781 Z"
         id="path3050" />
    </symbol>
    <symbol
       id="g"
       overflow="visible">
      <path
         d="m 2.1875,-5.9688 v -9.3438 h 4.9219 v 1.5312 c 0,0.83594 -0.00781,1.875 -0.015625,3.125 -0.011719,1.25 -0.015625,2.0859 -0.015625,2.5 0,1.2422 0.03125,2.1328 0.09375,2.6719 0.070313,0.54297 0.17969,0.93359 0.32812,1.1719 0.20703,0.32422 0.47266,0.57422 0.79688,0.75 0.32031,0.16797 0.69141,0.25 1.1094,0.25 1.0195,0 1.8203,-0.39062 2.4062,-1.1719 0.58203,-0.78125 0.875,-1.8672 0.875,-3.2656 v -7.5625 h 4.8906 V -6e-4 H 12.6875 V -2.2194 C 11.94531,-1.32096 11.1641,-0.6608 10.3437,-0.235 9.51948,0.17906 8.6093,0.39 7.6093,0.39 5.8476,0.39 4.5038,-0.14906 3.5781,-1.235 2.64841,-2.317 2.1875,-3.8952 2.1875,-5.9694 Z"
         id="path3053" />
    </symbol>
    <symbol
       id="f"
       overflow="visible">
      <path
         d="m 0.42188,-15.312 h 4.8906 l 3.8281,10.578 3.7969,-10.578 h 4.9062 L 11.81248,0 h -5.375 z"
         id="path3056" />
    </symbol>
    <symbol
       id="s"
       overflow="visible">
      <path
         d="m 12.422,-21.281 v 3.2188 H 9.7189 c -0.6875,0 -1.1719,0.125 -1.4531,0.375 -0.27344,0.25 -0.40625,0.6875 -0.40625,1.3125 v 1.0625 h 4.1875 v 3.5 H 7.85955 V -2e-4 h -4.8906 v -11.812 h -2.4375 v -3.5 h 2.4375 v -1.0625 c 0,-1.6641 0.46094,-2.8984 1.3906,-3.7031 0.92578,-0.80078 2.3672,-1.2031 4.3281,-1.2031 z"
         id="path3059" />
    </symbol>
    <symbol
       id="d"
       overflow="visible">
      <path
         d="m 9.6406,-12.188 c -1.0859,0 -1.9141,0.39062 -2.4844,1.1719 -0.57422,0.78125 -0.85938,1.9062 -0.85938,3.375 0,1.4688 0.28516,2.5938 0.85938,3.375 0.57031,0.77344 1.3984,1.1562 2.4844,1.1562 1.0625,0 1.875,-0.38281 2.4375,-1.1562 0.57031,-0.78125 0.85938,-1.9062 0.85938,-3.375 0,-1.4688 -0.28906,-2.5938 -0.85938,-3.375 -0.5625,-0.78125 -1.375,-1.1719 -2.4375,-1.1719 z m 0,-3.5 c 2.6328,0 4.6914,0.71484 6.1719,2.1406 1.4766,1.418 2.2188,3.3867 2.2188,5.9062 0,2.5117 -0.74219,4.4805 -2.2188,5.9062 C 14.332,-0.317 12.2734,0.39 9.6406,0.39 6.9922,0.39 4.9258,-0.31703 3.4375,-1.735 1.9453,-3.1608 1.2031,-5.1295 1.2031,-7.6412 c 0,-2.5195 0.74219,-4.4883 2.2344,-5.9062 1.4883,-1.4258 3.5547,-2.1406 6.2031,-2.1406 z"
         id="path3062" />
    </symbol>
    <symbol
       id="r"
       overflow="visible">
      <path
         d="m 16.547,-12.766 c 0.61328,-0.94531 1.3477,-1.6719 2.2031,-2.1719 0.85156,-0.5 1.7891,-0.75 2.8125,-0.75 1.7578,0 3.0977,0.54688 4.0156,1.6406 0.92578,1.0859 1.3906,2.6562 1.3906,4.7188 V -4e-4 h -4.9219 v -7.9844 -0.35938 c 0.0078,-0.13281 0.01563,-0.32031 0.01563,-0.5625 0,-1.082 -0.16406,-1.8633 -0.48438,-2.3438 -0.3125,-0.48828 -0.82422,-0.73438 -1.5312,-0.73438 -0.92969,0 -1.6484,0.38672 -2.1562,1.1562 -0.51172,0.76172 -0.77344,1.8672 -0.78125,3.3125 v 7.5156 h -4.9219 v -7.9844 c 0,-1.6953 -0.14844,-2.7852 -0.4375,-3.2656 -0.29297,-0.48828 -0.8125,-0.73438 -1.5625,-0.73438 -0.9375,0 -1.6641,0.38672 -2.1719,1.1562 -0.51172,0.76172 -0.76562,1.8594 -0.76562,3.2969 v 7.5312 h -4.9219 v -15.312 h 4.9219 v 2.2344 c 0.60156,-0.86328 1.2891,-1.5156 2.0625,-1.9531 0.78125,-0.4375 1.6406,-0.65625 2.5781,-0.65625 1.0625,0 2,0.25781 2.8125,0.76562 0.8125,0.51172 1.4258,1.2305 1.8438,2.1562 z"
         id="path3065" />
    </symbol>
    <symbol
       id="q"
       overflow="visible">
      <path
         d="M 17.75,-9.3281 V 0 h -4.9219 v -7.1094 c 0,-1.3438 -0.03125,-2.2656 -0.09375,-2.7656 -0.0625,-0.5 -0.16797,-0.86719 -0.3125,-1.1094 -0.1875,-0.3125 -0.44922,-0.55469 -0.78125,-0.73438 -0.32422,-0.17578 -0.69531,-0.26562 -1.1094,-0.26562 -1.0234,0 -1.8242,0.39844 -2.4062,1.1875 -0.58594,0.78125 -0.875,1.8711 -0.875,3.2656 V -1e-4 H 2.3594 v -21.281 H 7.25 v 8.2031 c 0.73828,-0.88281 1.5195,-1.5391 2.3438,-1.9688 0.83203,-0.42578 1.75,-0.64062 2.75,-0.64062 1.7695,0 3.1133,0.54688 4.0312,1.6406 0.91406,1.0859 1.375,2.6562 1.375,4.7188 z"
         id="path3068" />
    </symbol>
    <symbol
       id="p"
       overflow="visible">
      <path
         d="m 2.5781,-20.406 h 5.875 l 7.4219,14 v -14 h 4.9844 V 0 h -5.875 L 7.5625,-14 V 0 H 2.5781 Z"
         id="path3071" />
    </symbol>
    <symbol
       id="o"
       overflow="visible">
      <path
         d="M 17.75,-9.3281 V 0 h -4.9219 v -7.1406 c 0,-1.3203 -0.03125,-2.2344 -0.09375,-2.7344 -0.0625,-0.5 -0.16797,-0.86719 -0.3125,-1.1094 -0.1875,-0.3125 -0.44922,-0.55469 -0.78125,-0.73438 -0.32422,-0.17578 -0.69531,-0.26562 -1.1094,-0.26562 -1.0234,0 -1.8242,0.39844 -2.4062,1.1875 -0.58594,0.78125 -0.875,1.8711 -0.875,3.2656 V -1e-4 H 2.3594 v -15.312 H 7.25 v 2.2344 c 0.73828,-0.88281 1.5195,-1.5391 2.3438,-1.9688 0.83203,-0.42578 1.75,-0.64062 2.75,-0.64062 1.7695,0 3.1133,0.54688 4.0312,1.6406 0.91406,1.0859 1.375,2.6562 1.375,4.7188 z"
         id="path3074" />
    </symbol>
    <symbol
       id="n"
       overflow="visible">
      <path
         d="m 2.5781,-20.406 h 8.7344 c 2.5938,0 4.582,0.57812 5.9688,1.7344 1.3945,1.1484 2.0938,2.7891 2.0938,4.9219 0,2.1367 -0.69922,3.7812 -2.0938,4.9375 -1.3867,1.1562 -3.375,1.7344 -5.9688,1.7344 H 7.8281 V 3e-4 h -5.25 z m 5.25,3.8125 v 5.7031 H 10.75 c 1.0195,0 1.8047,-0.25 2.3594,-0.75 0.5625,-0.5 0.84375,-1.2031 0.84375,-2.1094 0,-0.91406 -0.28125,-1.6172 -0.84375,-2.1094 -0.55469,-0.48828 -1.3398,-0.73438 -2.3594,-0.73438 z"
         id="path3077" />
    </symbol>
    <symbol
       id="m"
       overflow="visible">
      <path
         d="M 2.3594,-15.312 H 7.25 v 15.031 c 0,2.0508 -0.49609,3.6172 -1.4844,4.7031 -0.98047,1.082 -2.4062,1.625 -4.2812,1.625 H -0.9375 V 2.8283 h 0.85938 c 0.92578,0 1.5625,-0.21094 1.9062,-0.625 0.35156,-0.41797 0.53125,-1.2461 0.53125,-2.4844 z m 0,-5.9688 H 7.25 v 4 H 2.3594 Z"
         id="path3080" />
    </symbol>
    <symbol
       id="l"
       overflow="visible">
      <path
         d="m 14.719,-14.828 v 3.9844 c -0.65625,-0.45703 -1.3242,-0.79688 -2,-1.0156 -0.66797,-0.21875 -1.3594,-0.32812 -2.0781,-0.32812 -1.3672,0 -2.4336,0.40234 -3.2031,1.2031 -0.76172,0.79297 -1.1406,1.9062 -1.1406,3.3438 0,1.4297 0.37891,2.543 1.1406,3.3438 0.76953,0.79297 1.8359,1.1875 3.2031,1.1875 0.75781,0 1.4844,-0.10938 2.1719,-0.32812 0.6875,-0.22656 1.3203,-0.56641 1.9062,-1.0156 v 4 c -0.76172,0.28125 -1.5391,0.48828 -2.3281,0.625 -0.78125,0.14453 -1.5742,0.21875 -2.375,0.21875 -2.7617,0 -4.9219,-0.70703 -6.4844,-2.125 -1.5547,-1.4141 -2.3281,-3.3828 -2.3281,-5.9062 0,-2.5312 0.77344,-4.5039 2.3281,-5.9219 1.5625,-1.4141 3.7227,-2.125 6.4844,-2.125 0.80078,0 1.5938,0.07422 2.375,0.21875 0.78125,0.13672 1.5547,0.35156 2.3281,0.64062 z"
         id="path3083" />
    </symbol>
  </defs>
  <g
     id="g3278"
     transform="translate(-89.404373,-74.481466)">
    <path
       d="m 210.56,464.24 c -2.8008,6.7188 -8.9609,3.9219 -13.441,5.0391 -1.1211,0.55859 -2.2383,-1.1211 -2.2383,-2.8008 0,-1.6797 0.55859,-3.9219 1.6797,-5.6016 0.55859,-0.55859 1.6797,-1.6797 0.55859,-2.2383 -1.1211,-0.55859 -2.2383,-0.55859 -3.3594,0.55859 -2.8008,5.0391 -7.2812,3.9219 -11.762,2.8008 -3.9219,-0.55859 -4.4805,-1.6797 -3.3594,-5.6016 2.2383,-5.0391 2.2383,-5.0391 -3.9219,-4.4805 -6.1602,0.55859 -6.1602,0.55859 -10.641,-3.3594 3.9219,-0.55859 2.8008,-5.0391 5.0391,-6.7188 0,0 -0.55859,-1.6797 -1.1211,-2.2383 -0.55859,-1.1211 -1.1211,0 -1.6797,0.55859 -1.6797,0.55859 -3.9219,2.8008 -6.1602,1.6797 -2.2383,-1.6797 -3.9219,-4.4805 -6.1602,-6.7188 -0.55859,-1.1211 0.55859,-1.6797 1.1211,-2.2383 1.6797,-1.1211 3.3594,-2.2383 3.9219,-5.6016 -5.0391,2.8008 -8.9609,-0.55859 -12.32,-2.8008 -5.6016,-3.3594 -5.6016,-9.5195 -2.2383,-14.559 1.1211,-1.6797 1.6797,-2.2383 0,-4.4805 -2.8008,-3.3594 -2.2383,-8.3984 -1.6797,-12.879 0,-3.3594 1.6797,-6.1602 5.0391,-7.2812 1.1211,-0.55859 1.6797,-1.1211 1.1211,-2.2383 -0.55859,-3.3594 -0.55859,-6.1602 -0.55859,-9.5195 -0.55859,-2.2383 0.55859,-5.0391 2.2383,-6.1602 2.8008,-1.6797 3.3594,-4.4805 3.3594,-6.7188 1.1211,-6.7188 1.1211,-6.7188 7.2812,-7.8398 2.2383,-0.55859 3.3594,-0.55859 2.2383,-3.3594 -0.55859,-2.2383 1.1211,-2.2383 2.8008,-2.8008 2.2383,-0.55859 5.0391,-0.55859 6.1602,-3.9219 0.55859,-2.2383 3.3594,-1.6797 5.0391,-1.6797 3.3594,0.55859 6.1602,1.1211 9.5195,-1.1211 1.1211,-0.55859 2.8008,-0.55859 3.9219,-0.55859 1.6797,0 2.2383,0 3.3594,-1.1211 1.1211,-1.1211 2.8008,-1.6797 4.4805,-1.1211 5.0391,1.6797 10.641,2.8008 13.441,7.2812 1.6797,2.2383 3.3594,4.4805 5.6016,6.1602 3.3594,1.6797 1.6797,4.4805 1.6797,7.2812 0,4.4805 0,9.5195 -2.8008,13.441 -5.6016,7.8398 -18.48,10.641 -25.762,5.0391 -2.8008,-2.2383 -5.0391,-5.6016 -5.0391,-9.5195 0,-1.1211 0.55859,-2.8008 -0.55859,-3.3594 -1.1211,-0.55859 -1.6797,1.1211 -2.2383,1.6797 -5.6016,3.9219 -5.6016,9.5195 -5.0391,15.68 1.1211,9.5195 4.4805,17.359 10.641,24.641 1.1211,1.1211 1.6797,1.6797 2.8008,2.2383 1.1211,0.55859 2.2383,1.1211 3.3594,1.6797 7.2812,6.1602 16.238,5.6016 24.641,4.4805 4.4805,-0.55859 9.5195,-1.1211 14,-1.1211 10.078,-0.55859 16.801,-6.7188 23.52,-13.441 2.2383,-2.2383 3.3594,-3.9219 1.1211,-7.2812 -1.6797,-2.2383 -1.6797,-5.0391 1.6797,-6.1602 2.8008,-1.1211 2.8008,-5.0391 6.7188,-6.1602 -3.3594,-1.1211 -5.6016,-1.6797 -5.6016,-5.0391 0,-2.2383 4.4805,-6.7188 7.2812,-7.2812 3.9219,0 5.6016,-1.1211 5.6016,-5.6016 0,-3.3594 2.8008,-2.8008 5.0391,-2.8008 1.1211,0 2.2383,1.1211 3.3594,1.6797 -0.55859,-4.4805 2.2383,-6.7188 4.4805,-8.9609 3.3594,-3.3594 3.9219,-8.9609 8.3984,-11.762 5.0391,-3.3594 6.7188,-9.5195 8.9609,-14.559 0.55859,-1.1211 1.1211,-2.2383 2.2383,-3.9219 5.6016,-9.5195 10.078,-20.16 11.762,-31.359 2.2383,-15.68 2.2383,-31.922 -2.2383,-47.602 -2.2383,-8.3984 -3.9219,-8.9609 -10.078,-3.3594 -3.9219,3.9219 -8.3984,6.7188 -12.879,10.078 -3.3594,2.8008 -8.3984,3.9219 -12.32,5.6016 -9.5195,3.9219 -19.039,6.7188 -29.68,7.8398 -4.4805,0.55859 -8.9609,0.55859 -12.879,0.55859 -8.3984,0 -16.801,1.6797 -24.641,1.6797 -7.2812,0 -14,-2.2383 -21.281,-2.8008 -6.7188,-0.55859 -12.879,-2.8008 -19.602,-3.3594 -2.8008,-0.55859 -6.1602,-2.2383 -8.3984,-4.4805 -1.1211,-1.1211 -2.2383,-2.2383 -3.9219,-1.1211 -0.55859,0.55859 -1.6797,0 -2.2383,-0.55859 -3.9258,-1.668 -9.5273,-3.3477 -14.004,-6.1484 -10.078,-6.1602 -17.922,-15.68 -27.441,-22.398 -0.55859,-0.55859 -1.6797,-1.6797 -1.6797,-2.8008 -1.1211,-5.0391 -5.0391,-7.8398 -7.8398,-11.762 -6.1602,-8.3984 -11.762,-17.359 -12.879,-28.559 -0.55859,-1.6797 -1.1211,-3.9219 -2.2383,-5.0391 -2.2383,-2.8008 -2.8008,-6.1602 -2.2383,-9.5195 1.1211,-5.0391 0,-10.078 0.55859,-14.559 1.6797,-15.121 8.3984,-28 20.719,-35.84 14.559,-9.5195 29.68,-18.48 45.922,-25.199 19.602,-7.8398 39.762,-12.32 59.922,-15.121 10.641,-1.6797 21.281,-1.1211 31.922,-0.55859 8.3984,0.55859 16.801,2.2383 24.641,5.0391 4.4805,1.6797 8.9609,1.6797 13.441,3.3594 7.2812,2.8008 14.559,6.7188 21.84,9.5195 10.641,4.4805 21.84,8.9609 33.602,7.2812 4.4805,-0.55859 8.3984,0.55859 12.32,1.6797 5.6016,1.6797 11.199,3.3594 16.801,5.0391 1.6797,0.55859 4.4805,1.1211 3.3594,4.4805 -0.55859,0.55859 0,0.55859 0.55859,0.55859 2.8008,0.55859 3.3594,3.3594 4.4805,5.6016 4.4805,5.6016 6.1602,12.32 8.3984,18.48 3.9219,8.3984 7.2812,17.359 14.559,23.52 5.6016,4.4805 9.5195,10.078 15.68,14 2.8008,1.6797 5.0391,4.4805 7.2812,7.2812 3.3594,4.4805 8.3984,8.3984 12.32,12.32 5.6016,5.6016 10.078,11.762 15.121,17.359 7.2812,7.8398 13.441,16.801 21.281,24.641 3.9219,3.9219 8.3984,6.1602 13.441,7.8398 3.3594,1.1211 6.1602,2.8008 8.9609,3.9219 6.1602,2.8008 12.879,1.6797 19.602,1.6797 8.3984,-0.55859 16.801,-0.55859 24.641,-3.9219 7.2812,-2.8008 15.121,-5.0391 20.16,-11.762 4.4805,-5.6016 3.9219,-10.641 0,-15.68 -5.0391,-5.6016 -10.078,-10.641 -16.801,-13.441 -6.7188,-2.2383 -12.879,-3.9219 -20.16,-1.1211 -2.2383,1.1211 -5.0391,-0.55859 -6.1602,-2.8008 -1.1211,-2.2383 -1.6797,-5.0391 1.6797,-6.7188 3.3594,-1.6797 5.0391,-3.9219 6.1602,-6.7188 1.1211,-2.2383 2.8008,-3.9219 5.6016,-2.8008 1.6797,0.55859 2.8008,0 3.3594,-2.2383 0.55859,-1.1211 0.55859,-2.2383 1.1211,-3.3594 1.1211,-2.2383 2.8008,-3.9219 5.0391,-2.8008 2.8008,1.1211 4.4805,0.55859 6.1602,-1.6797 0.55859,-0.55859 1.1211,-1.1211 1.6797,-0.55859 4.4805,1.6797 8.9609,-1.6797 13.441,1.1211 1.1211,0.55859 1.6797,0 2.8008,0 2.8008,-0.55859 5.0391,-0.55859 7.2812,1.6797 2.2383,2.2383 6.1602,0.55859 8.9609,2.2383 1.6797,0.55859 3.9219,1.1211 3.9219,2.8008 0.55859,3.3594 2.2383,3.9219 5.0391,4.4805 3.9219,1.1211 5.6016,3.9219 5.0391,7.8398 0,2.8008 0,4.4805 3.3594,4.4805 0.55859,0 1.6797,0.55859 2.2383,0.55859 7.2812,2.2383 7.2812,2.2383 5.6016,9.5195 0,0.55859 -0.55859,1.6797 0,1.6797 3.3594,0.55859 3.3594,3.9219 5.0391,5.6016 5.6016,5.0391 6.1602,13.441 1.6797,19.602 -1.1211,1.1211 -1.1211,1.6797 0.55859,2.8008 2.8008,2.2383 2.8008,5.0391 1.1211,7.8398 -1.1211,1.6797 -1.6797,3.3594 -1.6797,5.0391 0,2.8008 -0.55859,6.1602 -4.4805,6.7188 -1.6797,0 -1.6797,2.8008 -2.8008,3.9219 -3.9219,3.3594 -5.0391,6.1602 -1.6797,10.641 2.2383,2.8008 -1.1211,6.7188 -5.0391,6.1602 -1.6797,-0.55859 -1.6797,0.55859 -1.6797,1.6797 -0.55859,4.4805 -2.8008,8.3984 -6.1602,11.199 -1.6797,1.6797 -2.8008,3.9219 -3.9219,6.1602 -2.2383,3.3594 -3.3594,3.3594 -5.0391,0 -1.1211,-2.2383 -1.6797,-1.6797 -2.8008,-0.55859 -0.55859,0.55859 -1.1211,1.6797 -2.2383,2.8008 -4.4805,5.6016 -11.199,8.9609 -16.238,13.441 -4.4805,3.3594 -9.5195,1.6797 -14,5.0391 -1.1211,0.55859 -2.2383,1.1211 -3.3594,2.2383 -2.2383,1.6797 -4.4805,2.2383 -6.7188,0.55859 -1.1211,-1.1211 -1.6797,-0.55859 -2.8008,0.55859 -3.9219,3.9219 -6.7188,3.3594 -8.9609,-1.6797 -1.1211,-1.6797 -1.6797,-3.9219 -1.6797,-5.6016 0,-2.8008 -1.6797,-2.2383 -3.3594,-2.2383 -7.8398,0.55859 -14.559,5.0391 -22.398,5.6016 3.9219,3.3594 6.7188,1.6797 10.078,0.55859 5.0391,-1.6797 8.9609,0.55859 8.3984,6.1602 0,3.3594 2.2383,6.7188 5.0391,7.2812 5.6016,1.6797 6.7188,3.3594 3.3594,8.9609 -1.6797,2.8008 -2.2383,4.4805 0.55859,6.7188 2.2383,1.6797 1.6797,3.3594 0,5.6016 l -3.3594,3.3594 c -0.55859,0.55859 -1.1211,2.2383 0,2.2383 1.1211,0 2.2383,0 2.8008,1.1211 1.6797,4.4805 6.7188,8.9609 3.9219,13.441 -2.8008,4.4805 -3.9219,10.078 -8.3984,12.879 -2.2617,2.793 -2.2617,6.7148 -5.0625,8.9531 -2.8008,2.2383 -4.4805,4.4805 -8.3984,4.4805 -1.6797,0 -3.9219,1.6797 -5.6016,2.8008 -3.9219,2.2383 -7.2812,2.2383 -10.078,-1.1211 -0.55859,-0.55859 -0.55859,-1.6797 -1.6797,-0.55859 -3.3594,2.8008 -5.0391,0.55859 -6.1602,-1.6797 -1.6797,-2.2383 -2.8008,-3.3594 -5.0391,-1.1211 -1.1211,0.5625 -1.6836,0.5625 -2.2422,0.5625 -7.2812,3.9219 -9.5195,2.8008 -11.762,-5.0391 -0.55859,0 -1.6797,0.55859 -2.2383,0.55859 -5.0391,2.2383 -5.0391,2.2383 -6.7188,-2.8008 -0.55859,-1.6797 -1.1211,-2.8008 -2.8008,-1.6797 -1.1211,0.55859 -2.8008,0.55859 -3.9219,0.55859 -3.9219,-0.55859 -5.0391,-1.6797 -4.4805,-5.6016 0.55859,-2.8008 1.1211,-5.0391 2.8008,-8.3984 -3.3594,2.8008 -4.4805,6.1602 -5.0391,9.5195 -1.1211,5.6016 -4.4805,10.078 -6.1602,15.121 -0.55859,1.6797 -1.1211,3.3594 -1.1211,5.6016 0.55859,4.4805 0,8.9609 -1.1211,13.441 -0.55859,2.2383 -1.1211,4.4805 -3.9219,5.0391 -1.6797,0.55859 -1.6797,1.6797 -1.1211,3.3594 1.6797,6.1602 -0.55859,10.641 -6.1602,13.441 -1.1211,0.55859 -1.6797,2.2383 -2.2383,2.8008 -2.2383,3.9219 -3.3594,8.3984 -8.9609,7.8398 -2.2383,0 -1.1211,1.6797 -0.55859,2.8008 1.6797,2.8008 0,5.0391 -1.1211,7.2812 -2.8008,4.4805 -7.8398,5.6016 -11.199,8.9609 -0.55859,0.55859 -1.1211,0.55859 -1.1211,0.55859 -2.2383,5.6016 -7.2812,7.2812 -11.762,10.078 -3.3594,2.2383 -6.7188,3.9219 -10.641,3.9219 -1.1211,0 -1.6797,0 -2.2383,1.1211 -2.8008,3.9219 -6.1602,4.4805 -10.078,1.6797 -0.55859,-0.55859 -1.1211,-1.1211 -2.2383,-0.55859 -3.3594,2.8008 -7.8398,1.1211 -11.762,1.6797 -2.8008,0.55859 -5.6016,0 -6.7188,-2.8008 -0.55859,-1.1211 -1.6797,-1.1211 -2.8008,-1.6797 -3.9219,-1.1211 -8.3984,-1.1211 -12.32,-4.4805 -1.1211,-1.1211 -4.4805,-0.55859 -6.7188,-1.1211 -2.8008,-0.55859 -6.1602,-1.1211 -6.1602,-5.0391 0,-1.1211 -1.1211,-1.6797 -2.2383,-1.1211 -1.6797,0.55859 -3.9219,0 -5.6016,-0.55859 -3.3594,-0.55859 -5.0391,-2.2383 -3.9219,-5.6016 0.55859,-1.6797 0,-2.2383 -1.6797,-2.2383 -5.6016,-0.55859 -6.1602,-1.1211 -4.4805,-6.1602 0.55859,-1.6797 0,-2.2383 -1.6797,-1.6797 -2.8008,0.55859 -5.0391,-0.55859 -6.1602,-3.3594 -1.1211,-3.3594 -3.9219,-6.1602 -6.7188,-8.3984 -1.6797,-1.6797 -2.8008,-3.3594 -1.6797,-5.0391 0.55859,-1.6797 0,-2.8008 -1.6797,-3.3594 -2.8008,-1.1211 -3.9219,-3.3594 -3.9219,-6.1602 0,-1.6797 0,-2.2383 -1.6797,-3.3594 -4.4805,-2.8008 -4.4805,-5.0391 -1.1211,-8.9609 1.6797,-1.6797 1.1211,-3.3594 -1.1211,-3.3594 -3.3594,0 -6.1602,-1.6797 -7.8398,-4.4805 -1.1211,-1.6797 -2.2383,0 -2.8008,0 -3.3594,1.6797 -5.6016,4.4805 -9.5195,6.1602 -11.762,3.9219 -23.52,7.2812 -35.84,7.2812 -10.641,0 -20.16,-3.3594 -26.32,-13.441 -2.8008,-5.0391 -7.8398,-8.9609 -9.5195,-14.559 -2.2383,-7.2812 -3.9219,-15.121 -2.8008,-22.961 0.55859,-2.2383 2.8008,-4.4805 2.2383,-7.2812 -1.6797,0 -2.2383,1.6797 -3.3594,2.8008 -5.0391,7.2812 -7.2812,15.68 -7.2812,24.641 0,15.121 7.2812,26.879 19.039,35.281 7.8398,5.6016 16.238,10.641 26.32,11.762 3.3594,0.55859 7.2812,0.55859 10.641,-0.55859 7.8398,-1.6797 15.68,-1.6797 23.52,-3.3594 6.7188,-1.1211 12.879,-3.9219 18.48,-7.2812 0.55859,-0.55859 1.1211,-1.1211 1.6797,-1.1211 2.2383,0 4.4805,0 5.0391,1.6797 0.55859,2.2383 -1.6797,2.2383 -3.3594,2.8008 -2.8008,0.55859 -5.0391,1.6797 -7.2812,2.8008 -6.1602,2.8008 -12.32,3.9219 -19.039,5.6016 -9.5195,1.6797 -19.039,3.3594 -29.121,2.2383 -6.1602,-0.55859 -12.32,-2.8008 -17.922,-5.6016 -6.1602,-2.8008 -11.762,-6.1602 -17.359,-9.5195 -6.7188,-4.4805 -10.641,-11.199 -14,-18.48 -3.9219,-8.9609 -3.3594,-17.922 -2.8008,-26.879 0,-1.6797 0.55859,-2.8008 1.1211,-3.9219 4.4805,-7.2812 7.8398,-15.121 16.238,-19.039 0.55859,0 0.55859,-0.55859 1.1211,-0.55859 6.1602,1.6797 11.199,-3.9219 17.359,-3.3594 2.8008,0 8.3984,1.1211 10.078,3.9219 1.1211,2.2383 0.55859,8.3984 -1.6797,10.078 -2.2383,2.2383 -5.0391,4.4805 -8.9609,3.3594 -1.1211,-0.55859 -2.8008,0 -3.3594,1.1211 -0.5586,1.1211 1.1211,2.2383 1.6797,2.2383 5.0391,2.2383 8.3984,3.3594 12.879,-1.1211 1.1211,-1.1211 2.2383,-1.1211 3.3594,-1.1211 2.2383,0 3.3594,-1.1211 4.4805,-2.8008 0.55859,-1.1211 1.1211,-2.2383 -1.1211,-2.8008 -3.3594,-1.1211 -2.2383,-3.3594 -0.55859,-5.0391 1.1211,-1.1211 2.8008,-1.1211 2.8008,-2.8008 0.55859,-1.6797 1.1211,-3.3594 -0.55859,-5.0391 -1.6797,-1.6797 -2.8008,0.55859 -3.9219,1.1211 -1.1211,0.55859 -2.8008,1.6797 -3.9219,0.55859 -1.1211,-1.1211 -0.55859,-2.8008 0.55859,-3.9219 2.2383,-2.2383 1.1211,-3.9219 -0.55859,-5.6016 -1.1211,0.55859 -1.1211,1.1211 -1.6797,1.6797 -0.55859,1.1211 -1.6797,2.2383 -3.3594,1.1211 -1.6797,-0.55859 -1.6797,-2.2383 -1.1211,-3.3594 1.1211,-3.9219 -1.6797,-4.4805 -4.4805,-5.0391 0.55859,1.1211 0.55859,1.6797 0.55859,2.2383 0.55859,1.6797 1.1211,3.9219 -1.1211,5.0391 -1.6797,1.1211 -2.8008,-0.55859 -3.9219,-1.6797 -1.1211,-1.1211 -2.2383,-2.2383 -3.9219,-1.6797 -1.6797,0.55859 -0.55859,1.6797 -0.55859,2.8008 0,2.8008 -1.6797,2.8008 -3.3594,2.2383 -2.8008,-1.1211 -5.0391,-1.6797 -7.8398,-3.3594 -0.55859,-0.55859 -2.2383,-1.6797 -2.2383,0 0,5.0391 -3.9219,3.3594 -6.1602,3.9219 1.6797,5.0391 1.1211,5.0391 -3.9219,6.1602 -1.1211,0 -1.6797,0.55859 -2.8008,0.55859 -6.1602,0.55859 -7.2812,3.9219 -3.9219,8.9609 1.6797,2.8008 -0.55859,3.3594 -2.2383,3.9219 -1.6797,0.55859 -4.4805,-0.55859 -4.4805,2.8008 -0.55859,3.3594 -1.1211,6.7188 2.2383,8.9609 3.3594,2.8008 2.8008,3.9219 -1.1211,5.6016 -3.9219,1.1211 -6.1602,3.3594 -7.2812,7.2812 -0.55859,2.8008 1.1211,5.0391 1.6797,7.2812 0.55859,1.6797 2.2383,0 2.8008,0 1.1211,0 2.8008,-0.55859 3.3594,1.6797 0.55859,1.6797 -0.55859,2.8008 -1.6797,3.3594 -2.2383,1.1211 -3.9219,3.3594 -5.6016,5.0391 -1.6797,2.2383 -1.6797,5.0391 0.55859,7.2812 1.1211,1.6797 3.3594,2.8008 4.4805,3.9219 1.6797,1.1211 3.3594,0 4.4805,-1.1211 2.2383,-2.2383 3.9219,-1.6797 5.6016,0.55859 3.3594,4.4805 3.3594,4.4805 -1.1211,9.5195 -1.1211,1.6797 -1.6797,2.8008 0,4.4805 1.1211,1.6797 2.2383,1.1211 3.9219,0.55859 4.4805,-2.2383 7.2812,-1.1211 10.078,3.3594 1.1211,2.2383 -0.55859,2.8008 -1.6797,3.9219 -1.12111,1.1211 -2.8008,1.6797 -1.6797,3.3594 1.1211,1.6797 2.2383,0.55859 3.3594,0 3.9219,-1.1211 7.8398,0.55859 11.762,1.6797 2.2383,1.1211 0.55859,3.3594 -1.1211,5.0391 -1.1211,0.55859 -2.8008,1.1211 -2.2383,2.8008 0,0.55859 1.6797,1.1211 2.2383,1.6797 1.6797,0.55859 2.8008,0 3.9219,-1.6797 2.8008,-3.3594 8.9609,-4.4805 12.879,-2.2383 3.3594,2.2383 1.1211,3.9219 0,5.6016 -0.55859,1.1211 -2.8008,1.6797 -2.2383,3.3594 0,0.55859 1.1211,1.1211 1.6797,1.1211 1.6797,0 3.3594,-1.1211 3.9219,-2.8008 1.1211,-3.3594 3.3594,-3.9219 6.7188,-2.8008 3.3594,1.6797 3.9219,3.3594 2.8008,7.2812 -0.55859,1.1211 -0.55859,1.6797 -1.1211,2.2383 -0.55859,1.1211 -1.6797,2.2383 -0.55859,3.9219 1.1211,1.1211 2.8008,0.55859 3.9219,0.55859 6.7188,-1.6797 7.8398,-5.6016 7.8398,-12.32 0,-1.6797 -1.6797,-2.8008 0.55859,-4.4805 2.2383,-1.1211 4.4805,-1.1211 6.1602,0 1.6797,1.1211 2.8008,2.8008 2.2383,5.0391 -0.55859,2.2383 -1.1211,3.9219 -1.6797,6.1602 0,2.8008 0.55859,3.9219 3.3594,3.3594 h 1.6797 c 1.6797,-0.55859 3.9219,1.1211 5.0391,-1.1211 1.1211,-2.2383 0,-5.0391 -1.6797,-6.7188 -2.8008,-2.2383 -1.1211,-3.3594 1.1211,-4.4805 2.2383,-1.1211 4.4805,-1.6797 6.7188,-1.6797 2.8008,-0.55859 3.9219,1.1211 4.4805,3.9219 0,1.1211 -0.55859,2.2383 -0.55859,3.9219 0,1.1211 -1.6797,2.8008 0,3.9219 1.1211,1.1211 1.6797,0 2.8008,-0.55859 1.6797,-1.1211 2.8008,-2.2383 2.2383,-4.4805 -0.55859,-1.1211 -0.55859,-2.8008 -0.55859,-3.9219 -0.55859,-2.8008 0.55859,-4.4805 3.3594,-3.9219 3.9219,0.55859 5.6016,2.2383 5.6016,6.1602 0,1.6797 0.55859,1.6797 1.6797,1.1211 2.2383,-0.55859 3.3594,-1.1211 3.3594,-3.9219 0,-3.9219 5.6016,-8.3984 8.9609,-7.8398 1.1211,0 2.2383,0.55859 2.2383,1.6797 0.55859,1.1211 -0.55859,1.6797 -1.6797,1.6797 -1.1211,0.55859 -2.2383,0.55859 -2.8008,1.1211 -1.6797,1.1211 -3.3594,1.6797 -3.3594,4.4805 0,5.0391 -8.3984,9.5195 -12.32,7.2812 -1.6797,-1.1211 -1.6797,-0.55859 -2.2383,0.55859 -1.6797,1.6797 -3.3594,3.3594 -6.1602,4.4805 -3.9219,1.1211 -6.1602,-0.55859 -5.6016,-5.0391 0,-1.1211 0.55859,-2.2383 0.55859,-3.3594 0,-1.1211 1.6797,-2.8008 0,-3.3594 -1.6797,-0.55859 -3.3594,0 -4.4805,1.1211 -0.55859,0.55859 -0.55859,0.55859 -0.55859,1.1211 0.55859,0.55859 0.55859,0.55859 1.1211,1.1211 1.1211,2.8008 3.3594,5.0391 1.1211,7.8398 -1.6797,2.2383 -5.0391,2.2383 -7.8398,1.6797 -1.6797,-0.55859 -3.3594,0 -5.0391,0 -3.9219,-1.1211 -5.0391,-1.6797 -3.9219,-5.6016 0.55859,-2.2383 1.1211,-4.4805 1.1211,-7.2812 0,-0.55859 0,-1.1211 -0.55859,-1.6797 -1.1211,0 -1.1211,0.55859 -1.6797,1.1211 -1.1211,1.6797 -0.55859,3.3594 -0.55859,5.0391 -0.55859,7.8398 -9.5195,12.879 -16.801,9.5195 -2.8008,-1.6797 -3.3594,-3.3594 -1.6797,-6.7188 3.3828,-2.2617 3.3828,-2.2617 2.8203,-5.0625 z M 498.4,367.924 c 1.1211,0 2.2383,-0.55859 2.8008,-1.6797 2.2383,-3.3594 3.3594,-6.7188 2.8008,-11.199 -0.55859,-3.3594 -2.2383,-6.7188 -3.3594,-10.078 -1.6797,-4.4805 -2.2383,-4.4805 -5.6016,-1.6797 -2.2383,1.6797 -9.5195,1.1211 -10.078,-0.55859 0,-3.9219 -2.2383,-6.7188 -2.8008,-10.078 -1.1211,-7.2812 5.0391,-10.641 8.3984,-15.68 0.55859,-0.55859 1.1211,-1.6797 2.2383,-1.6797 6.7188,-2.8008 13.441,-6.1602 21.281,-7.2812 7.8398,-0.55859 14.559,-4.4805 21.84,-6.1602 8.9609,-1.6797 16.801,-6.1602 25.199,-8.9609 5.6016,-2.2383 10.078,-6.7188 14.559,-11.199 7.2812,-6.7188 14,-12.879 18.48,-21.84 2.8008,-5.0391 4.4805,-9.5195 7.2812,-14.559 4.4805,-7.8398 5.0391,-16.238 1.6797,-25.199 -5.0391,-12.32 -11.762,-24.078 -24.078,-30.801 -3.3594,-1.6797 -6.7188,-3.3594 -11.199,-2.8008 -5.0391,0.55859 -10.078,1.6797 -15.121,1.6797 -7.8398,0 -15.121,3.3594 -21.84,8.3984 0.55859,0.55859 1.1211,0.55859 1.6797,0.55859 10.641,0 20.16,2.2383 27.441,9.5195 1.1211,1.1211 1.6797,0 1.6797,-1.1211 0,-3.3594 2.2383,-5.6016 3.9219,-8.3984 0.55859,-1.1211 1.6797,-2.2383 3.3594,-2.8008 1.1211,-0.55859 1.6797,0.55859 2.2383,1.1211 0.55859,1.1211 1.6797,1.6797 1.1211,2.8008 -0.55859,1.1211 -1.6797,0 -2.2383,0 -1.6797,0 -3.3594,0 -4.4805,1.6797 -1.1211,2.8008 -3.9219,5.6016 -1.6797,9.5195 1.6797,2.8008 3.3594,4.4805 7.2812,3.3594 2.8008,-0.55859 5.0391,-2.2383 7.2812,-3.3594 -2.2383,2.8008 -5.0391,4.4805 -8.9609,5.0391 -1.6797,0 -2.2383,0.55859 -1.6797,2.8008 1.6797,7.2812 1.1211,14 -3.9219,19.602 -5.0391,5.6016 -12.32,8.3984 -19.602,10.641 -11.762,3.9219 -24.078,4.4805 -36.398,5.0391 -3.9219,0 -7.8398,0 -11.199,-1.6797 -1.1211,-0.55859 -1.6797,-0.55859 -2.8008,-1.1211 -6.1602,-1.6797 -11.762,-4.4805 -17.359,-7.8398 -5.0391,-2.8008 -8.3984,-7.2812 -12.32,-11.762 -4.4805,-5.0391 -9.5195,-9.5195 -13.441,-14.559 -3.9219,-5.0391 -7.8398,-10.078 -12.32,-15.121 -6.7188,-7.2812 -13.441,-14 -20.16,-20.719 -2.2383,-2.2383 -3.9219,-4.4805 -6.7188,-5.6016 -9.5195,-5.6016 -17.359,-12.879 -22.398,-23.52 -3.9219,-8.9609 -7.8398,-18.48 -12.879,-26.879 -4.4805,-9.5195 -12.32,-14.559 -22.398,-16.801 -6.7188,-1.6797 -13.441,-1.1211 -20.719,-2.2383 -7.8398,-1.1211 -15.68,-1.6797 -22.398,-5.6016 -6.1602,-3.3594 -12.32,-6.1602 -19.602,-8.3984 -10.078,-2.8008 -20.16,-6.7188 -30.238,-9.5195 -15.121,-3.9219 -30.801,-3.9219 -46.48,-1.6797 -9.5195,1.1211 -18.48,5.0391 -27.441,6.7188 -10.078,2.2383 -19.602,6.7188 -29.121,9.5195 -11.762,2.8008 -22.961,7.8398 -33.039,15.121 -6.7188,4.4805 -14,8.9609 -17.922,16.801 -0.55859,0.55859 -1.1211,1.6797 -1.6797,1.6797 -2.8008,0.55859 -3.9219,2.8008 -5.0391,5.0391 -4.4805,10.078 -5.0391,20.719 -2.8008,31.922 2.2383,12.879 9.5195,22.398 19.039,30.801 7.8398,6.7188 16.801,13.441 26.32,17.922 11.762,6.1602 22.961,11.199 35.84,15.121 8.3984,2.8008 17.359,4.4805 26.32,7.8398 6.7188,2.2383 14,3.3594 21.84,2.8008 7.8398,-0.55859 15.68,-2.2383 23.52,-1.1211 6.1602,0.55859 12.32,-0.55859 18.48,-1.6797 9.5195,-1.6797 19.039,-5.0391 27.441,-10.641 2.2383,-1.6797 5.0391,-2.8008 7.2812,-3.9219 2.8008,-1.1211 6.7188,-2.8008 6.1602,-7.2812 0,-1.6797 2.8008,-1.6797 3.9219,-2.8008 0.55859,-0.55859 1.6797,-0.55859 2.2383,0 1.1211,1.6797 0,2.8008 -0.55859,3.9219 -2.2383,4.4805 -6.7188,7.2812 -10.078,10.641 -8.3984,6.7188 -17.922,10.641 -28.559,12.879 -2.2383,0.55859 -5.0391,1.1211 -7.2812,2.2383 -5.6016,2.2383 -11.199,3.9219 -16.801,4.4805 -5.6016,0.55859 -11.762,0.55859 -17.359,0.55859 -12.32,0 -24.641,0.55859 -36.961,-3.3594 -4.4805,-1.1211 -9.5195,-2.8008 -14,-4.4805 -10.078,-3.3594 -19.602,-7.2812 -30.238,-9.5195 -1.1211,-0.55859 -2.2383,-1.1211 -3.3594,-1.6797 -3.9219,-3.3594 -8.3984,-6.1602 -12.879,-8.9609 -6.1602,-3.3594 -11.199,-8.9609 -19.039,-10.641 -1.1211,0 -1.6797,-1.1211 -2.8008,-2.2383 -4.4805,-4.4805 -10.078,-7.2812 -13.441,-12.879 1.6797,3.3594 0.55859,7.8398 4.4805,10.078 1.6797,1.1211 2.8008,2.2383 4.4805,3.9219 2.8008,3.3594 6.7188,6.1602 8.3984,9.5195 1.6797,3.3594 3.9219,6.1602 6.1602,7.8398 8.9609,5.6016 15.68,13.441 25.199,17.359 4.4805,1.6797 7.2812,5.6016 11.762,6.7188 9.5195,2.8008 18.48,5.6016 28.559,6.7188 15.121,2.2383 30.801,3.9219 46.48,2.8008 8.3984,-0.55859 16.801,-2.8008 24.078,-5.6016 10.078,-3.3594 20.719,-7.2812 30.238,-12.879 7.2812,-4.4805 13.441,-9.5195 18.48,-16.238 1.1211,-1.6797 2.8008,-2.8008 4.4805,-1.1211 1.1211,1.1211 1.6797,3.3594 0,5.0391 -1.1211,0.55859 -1.1211,1.1211 -0.55859,2.8008 3.3594,9.5195 5.6016,19.602 7.8398,29.68 1.1211,5.6016 -0.55859,11.199 0,16.238 0.55859,5.0391 0,10.641 -1.1211,15.121 -2.2383,8.3984 -5.6016,16.801 -8.3984,25.762 -3.9219,11.762 -10.641,21.281 -17.922,30.801 -1.6797,2.2383 -3.9219,3.9219 0.55859,5.0391 1.1211,0.55859 2.2383,1.6797 2.2383,2.8008 0.55859,3.3594 3.3594,6.1602 2.8008,9.5195 0,1.1211 0.55859,1.6797 1.6797,1.6797 2.8008,0.55859 3.9219,2.8008 5.6016,4.4805 1.6797,2.2383 2.2383,4.4805 0.55859,7.2812 -3.3594,4.4805 -6.1602,5.0391 -11.199,3.3594 -1.1211,-0.55859 -2.2383,-1.6797 -3.3594,0 -1.1211,2.2383 -2.2383,5.0391 -1.1211,7.8398 2.2383,4.4805 4.4805,8.9609 7.8398,12.879 1.6797,1.6797 3.3594,4.4805 6.1602,3.9219 3.9219,-0.55859 7.8398,-1.6797 11.199,-4.4805 7.8398,-5.6016 16.238,-10.078 25.762,-11.199 5.6016,-0.55859 11.199,1.6797 16.801,2.2383 0.55859,0 0.55859,0.55859 1.1211,1.1211 4.4805,5.6016 10.078,10.078 9.5195,18.48 0,6.7188 -1.6797,10.078 -7.8398,12.32 -1.6797,0.55859 -3.3594,1.6797 -5.6016,2.8008 -5.0391,2.2383 -10.078,4.4805 -15.68,2.2383 -9.5195,-3.3594 -19.039,-7.2812 -27.441,-12.32 -3.9219,-2.8008 -8.9609,-5.0391 -12.32,-8.3984 -5.6016,-5.6016 -10.078,-11.762 -13.441,-19.039 -2.8008,-5.0391 -3.9219,-11.199 1.6797,-15.121 2.8008,-1.6797 5.0391,-3.3594 8.9609,-4.4805 -1.1211,-0.55859 -1.6797,-1.1211 -2.2383,-1.1211 -6.1602,-2.2383 -11.762,0 -17.359,1.6797 -4.4805,1.1211 -7.8398,3.9219 -7.8398,8.3984 -0.55859,8.9609 1.1211,17.922 5.0391,25.762 6.7188,13.441 17.359,24.078 26.32,35.84 l 1.1211,1.1211 c 7.8398,4.4805 14.559,11.762 22.961,15.121 6.7188,2.8008 13.441,6.1602 20.16,7.2812 11.762,2.8008 24.078,-1.1211 34.16,-7.8398 5.6016,-3.9219 10.641,-8.9609 15.68,-14 2.2383,-2.2383 5.0391,-3.9219 6.7188,-6.1602 6.7188,-8.9609 14,-17.922 19.039,-28.559 4.4805,-9.5195 8.9609,-18.48 12.879,-28 1.1211,-3.3594 2.8008,-6.7188 4.4805,-9.5195 1.1211,-2.2383 2.8008,-3.9219 5.0391,-5.0391 2.2383,-1.1211 2.8008,1.6797 4.4805,1.6797 1.1211,0 2.2383,0.55859 3.3594,0.55859 5.0391,0.55859 10.078,2.2383 15.121,3.9219 7.2812,2.2383 14,0 20.16,-2.2383 3.9219,-1.6797 6.7188,-4.4805 6.7188,-9.5195 0,-1.1211 0.55859,-2.2383 2.2383,-2.2383 1.67971,0 1.1211,1.6797 1.1211,2.8008 -0.004,3.3438 -0.004,5.0234 -0.56641,6.1445 z m -109.76,105.84 c 2.2383,-3.3594 4.4805,-5.6016 6.7188,-7.8398 1.1211,-1.1211 0.55859,-1.6797 0,-2.8008 -0.55859,-1.1211 -1.6797,-2.8008 0,-3.9219 1.6797,-1.1211 2.8008,1.1211 3.9219,2.2383 1.1211,1.6797 2.2383,1.6797 3.3594,0 2.8008,-3.3594 3.3594,-9.5195 0.55859,-12.32 -1.1211,-1.1211 -1.6797,-0.55859 -2.2383,0 -1.1211,0.55859 -1.6797,1.6797 -2.8008,2.8008 -5.0391,6.1602 -11.199,11.199 -18.48,14.559 -6.1602,2.8008 -12.879,6.1602 -20.16,6.1602 -10.078,0 -19.039,-1.1211 -28,-6.1602 -7.2812,-3.9219 -15.121,-6.7188 -21.281,-12.32 -1.6797,-1.6797 -3.9219,-3.3594 -5.6016,-4.4805 -5.6016,-2.8008 -9.5195,-7.2812 -12.879,-12.32 -4.4805,-6.7188 -8.9609,-14 -15.121,-19.602 l -1.1211,-1.1211 c -1.6797,1.1211 -3.3594,2.2383 -3.9219,3.9219 0,0.55859 -1.1211,1.6797 0,2.2383 1.1211,1.1211 2.8008,0 3.9219,-0.55859 1.1211,-0.55859 2.2383,-1.1211 3.3594,0 1.1211,1.1211 1.1211,2.2383 0.55859,3.3594 -0.55859,1.1211 -1.1211,1.6797 -1.6797,2.8008 -0.55859,1.1211 -1.6797,2.8008 -0.55859,3.9219 1.1211,1.1211 2.8008,0 3.3594,-0.55859 1.6797,-1.1211 2.8008,-2.8008 4.4805,-1.1211 1.6797,1.6797 1.1211,4.4805 0,5.6016 -2.8008,2.8008 0,3.3594 1.6797,3.3594 5.0391,1.1211 5.6016,1.1211 3.3594,6.1602 -1.1211,2.2383 2.2383,3.9219 0.55859,6.1602 0,0 1.1211,0.55859 2.2383,0.55859 0.55859,0 1.1211,-0.55859 2.2383,-1.1211 2.8008,-1.6797 3.9219,-1.1211 4.4805,2.2383 0,1.6797 0,3.3594 -0.55859,5.0391 -0.55859,2.2383 0.55859,2.8008 2.2383,2.2383 1.6797,-0.55859 2.8008,-1.1211 3.9219,-2.2383 1.1211,-1.1211 2.2383,-1.6797 3.9219,-0.55859 1.6797,1.1211 0.55859,2.8008 0,3.9219 -0.55859,1.6797 -1.6797,3.3594 -2.8008,4.4805 -1.6797,2.2383 -0.55859,2.8008 1.1211,2.8008 2.2383,0 4.4805,0.55859 5.6016,-2.8008 0.55859,-1.6797 2.2383,-3.3594 4.4805,-2.2383 2.2383,1.1211 1.1211,2.8008 0.55859,4.4805 -0.55859,1.1211 -1.1211,2.2383 -1.1211,3.3594 0,0.55859 -0.55859,1.1211 0,1.6797 1.6797,2.8008 8.9609,2.2383 10.641,-0.55859 1.1211,-1.6797 1.1211,-5.0391 4.4805,-3.3594 2.2383,1.1211 0.55859,3.9219 0,5.6016 0,1.6797 -1.6797,3.3594 1.1211,3.3594 2.2383,0 5.6016,3.3594 7.2812,-1.1211 0.55859,-1.6797 1.6797,-3.3594 3.3594,-2.8008 1.6797,0.55859 1.6797,2.2383 1.1211,3.9219 -0.55859,2.2383 -0.55859,4.4805 1.1211,5.6016 2.8008,1.6797 6.1602,0 9.5195,-0.55859 2.2383,-0.55859 2.2383,-2.8008 2.2383,-4.4805 0,-1.1211 0,-2.2383 1.1211,-2.2383 1.1211,0 2.2383,0.55859 2.8008,1.6797 0.55859,0.55859 0.55859,1.6797 1.1211,2.2383 0.55859,1.6797 0.55859,4.4805 2.8008,4.4805 1.6797,0 2.8008,-2.2383 3.9219,-3.9219 0.55859,-0.55859 0.55859,-1.6797 0.55859,-2.2383 1.1211,-2.2383 2.2383,-5.0391 5.0391,-5.6016 1.1211,-0.55859 3.3594,-2.2383 4.4805,-0.55859 1.1211,1.6797 -0.55859,2.2383 -1.6797,3.3594 -0.55859,0.55859 -0.55859,1.1211 -1.1211,1.6797 -0.55859,0.55859 -0.55859,1.1211 0,1.6797 0.55859,0.5586 1.1211,0.55859 1.6797,0 2.2383,-2.2383 6.1602,-2.8008 5.0391,-7.2812 -0.55859,-1.6797 0,-3.3594 0.55859,-5.0391 0,-1.1211 0,-2.8008 1.6797,-2.2383 1.1211,0 2.2383,0.55859 2.2383,2.2383 -0.55469,2.2383 0.004,3.3594 0.56641,6.1602 z m -79.52,-61.602 c 3.3594,2.2383 6.1602,4.4805 8.9609,6.1602 7.2812,3.9219 14.559,8.9609 22.961,8.9609 7.8398,0.55859 16.801,3.3594 23.52,-5.6016 4.4805,-6.1602 4.4805,-14.559 -2.2383,-18.48 -3.3594,-2.2383 -7.8398,-3.3594 -11.762,-3.3594 -12.32,-1.1211 -22.961,3.9219 -33.039,10.641 -1.6797,1.1211 -3.3594,3.3594 -5.6016,1.1211 -0.5625,-1.1211 -1.6836,-1.1211 -2.8008,0.55859 z m 173.6,-28 c 2.8008,1.1211 3.9219,2.8008 6.1602,2.2383 4.4805,-0.55859 9.5195,0 14,-1.6797 8.3984,-2.8008 12.879,-6.1602 14,-15.68 0.55859,-5.6016 -0.55859,-10.641 -1.6797,-15.68 -2.2383,-10.641 -5.0391,-21.281 -14,-29.121 -3.3594,-3.3594 -6.7188,-2.2383 -9.5195,-1.6797 -2.2383,0.55859 -3.3594,4.4805 -3.9219,7.2812 0,1.1211 0,2.8008 1.6797,2.2383 6.1602,-1.6797 10.078,2.8008 14.559,5.6016 2.2383,1.6797 3.3594,3.9219 3.3594,6.1602 1.1211,10.078 1.1211,20.16 -7.8398,27.441 -3.9141,5.5977 -8.3945,11.199 -16.797,12.879 z m 83.441,-82.32 c 0,0 -0.55859,-1.1211 -0.55859,-1.6797 0,-3.9219 -2.2383,-3.3594 -4.4805,-2.2383 -3.3594,2.2383 -7.2812,2.8008 -11.199,4.4805 -6.7188,2.8008 -6.7188,2.8008 -3.9219,9.5195 0.55859,1.1211 0.55859,1.6797 1.6797,1.6797 4.4805,0.55859 7.2812,-2.8008 5.0391,-7.2812 -0.55859,-1.6797 -1.1211,-2.8008 0.55859,-3.3594 1.6797,-0.55859 2.2383,0.55859 2.8008,1.6797 0.55859,1.1211 1.1211,3.3594 2.8008,3.9219 1.6797,0.55859 7.2812,-4.4844 7.2812,-6.7227 z m -161.28,144.48 c 6.7188,2.2383 8.9609,1.6797 11.199,-2.8008 0.55859,-1.1211 0.55859,-2.8008 0.55859,-3.9219 -0.55859,-2.8008 0.55859,-3.3594 2.8008,-3.3594 1.1211,0 2.8008,0.55859 3.3594,-1.1211 1.6797,-3.3594 2.2383,-7.2812 0,-11.762 -5.5977,8.4062 -11.195,16.246 -17.918,22.965 z m -137.2,-36.398 c 4.4805,0 4.4805,-1.1211 4.4805,-5.0391 0,-5.0391 -3.9219,-8.9609 -3.9219,-14 0,-1.1211 0,-2.8008 -2.2383,-2.2383 -1.6797,0 -3.3594,0.55859 -4.4805,1.6797 -0.55859,1.6797 0,2.8008 1.1211,3.3594 1.1211,1.1211 2.8008,2.2383 3.9219,3.3594 4.4805,3.3594 4.4805,3.3594 0.55859,7.2812 -0.55859,0.55859 -1.1211,0.55859 -1.6797,1.1211 -0.55859,1.1211 -2.8008,1.6797 -1.6797,3.3594 1.1172,1.1172 2.7969,1.1172 3.918,1.1172 z m 200.48,-20.723 c 1.6797,2.2383 -0.55859,6.1602 3.3594,7.2812 1.1211,0.55859 7.2812,-3.9219 7.2812,-5.6016 0,-3.3594 -3.3594,-6.7188 -7.8398,-6.7188 -3.9219,0 -1.1211,3.918 -2.8008,5.0391 z m 117.04,-95.758 c 2.2383,-1.6797 2.8008,-4.4805 5.0391,-6.1602 1.1211,-0.55859 1.1211,-1.6797 0.55859,-2.8008 -1.1211,-1.6797 -1.6797,-5.6016 -3.3594,-5.6016 -2.2383,0 -3.3594,3.3594 -5.0391,5.0391 -1.1211,1.1211 -2.2383,2.8008 -0.55859,3.9219 0.55859,2.2383 1.1211,3.9219 3.3594,5.6016 z m 13.441,-31.363 c 4.4805,-1.1211 6.1602,-3.9219 6.1602,-7.2812 -0.55859,-3.9219 2.8008,-5.6016 4.4805,-7.2812 3.9219,-3.3594 4.4805,-6.1602 -0.55859,-8.9609 -1.1211,8.9648 -6.1641,15.684 -10.082,23.523 z m -423.36,-28.559 c 10.641,4.4805 20.719,9.5195 32.48,10.078 -10.641,-4.4766 -21.84,-6.7188 -32.48,-10.078 z m 425.6,41.441 c 0.55859,-3.3594 -1.1211,-5.6016 -2.8008,-7.8398 -0.55859,-1.1211 -1.6797,-0.55859 -2.2383,0 -1.6797,2.8008 -3.9219,5.0391 -5.6016,7.8398 -1.1211,2.2383 1.1211,3.3594 1.6797,5.0391 0,0.55859 1.1211,0.55859 1.1211,0.55859 1.6797,-1.1211 0.55859,-2.2383 0,-3.9219 -0.55859,-2.8008 0.55859,-3.9219 3.3594,-2.8008 1.6797,0.004 2.8008,0.5625 4.4805,1.125 z m -104.16,124.32 c 2.2383,0 5.6016,-0.55859 5.0391,-3.3594 0,-1.6797 0,-5.0391 -3.3594,-5.6016 -2.8008,0 -5.6016,0 -5.6016,3.9219 0.5625,2.7969 0.5625,5.5977 3.9219,5.0391 z m -198.8,-35.84 c -0.55859,-2.2383 0,-5.6016 -3.9219,-5.6016 -2.2383,0 -3.9219,1.6797 -3.9219,3.9219 0,3.3594 2.2383,4.4805 5.6016,5.0391 2.2422,0 2.2422,-1.6797 2.2422,-3.3594 z m 215.04,21.84 c -2.2383,0.55859 -3.9219,2.2383 -5.6016,2.8008 -3.9219,1.1211 -1.6797,2.8008 -1.1211,4.4805 1.1211,2.2383 2.8008,1.6797 4.4805,1.1211 3.3594,-1.6836 3.3594,-4.4844 2.2422,-8.4023 z m 19.598,-73.359 c -1.1211,-1.1211 1.1211,-3.9219 -1.6797,-3.3594 -1.1211,0 -3.9219,-0.55859 -3.9219,2.2383 0,2.8008 0,5.6016 1.6797,7.8398 1.1211,1.6797 1.6797,1.6797 2.8008,0 0.5625,-1.6797 1.1211,-4.4805 1.1211,-6.7188 z m -82.879,73.918 c 2.8008,0 3.3594,-2.8008 4.4805,-4.4805 0.55859,-1.1211 1.6797,-2.8008 -0.55859,-3.9219 -1.6797,-1.1211 -3.3594,-0.55859 -4.4805,1.1211 -1.1211,1.6797 -0.55859,3.3594 -1.6797,4.4805 -1.1211,2.8008 0.55859,2.8008 2.2383,2.8008 z m -303.52,-164.64 c 7.8398,7.2812 17.359,9.5195 26.879,11.762 -4.4805,-2.2383 -8.3984,-4.4805 -13.441,-5.6016 -4.4766,-1.6797 -8.3984,-3.918 -13.438,-6.1602 z m 393.12,84.562 c -1.1211,0.55859 -3.3594,0 -2.8008,2.2383 0.55859,2.8008 0.55859,5.6016 1.6797,7.8398 0.55859,1.1211 1.1211,1.6797 2.2383,1.6797 1.1211,0 1.6797,-1.1211 1.6797,-2.2383 -0.55859,-2.8008 -1.1211,-6.1602 -1.6797,-8.9609 0,-0.55859 -0.55859,0 -1.1172,-0.55859 z M 458.64,386.4 c 0,1.6797 0,2.8008 0.55859,3.3594 1.1211,0.55859 1.6797,-0.55859 2.2383,-0.55859 2.2383,-1.1211 2.8008,-3.9219 2.8008,-6.1602 0,-1.6797 -2.2383,-2.2383 -3.9219,-2.2383 -0.55859,0 -2.2383,0 -1.6797,0.55859 1.6836,1.6797 0.004,3.9219 0.004,5.0391 z m 84,-204.96 c -3.3594,-1.1211 -3.3594,1.1211 -3.9219,2.2383 -0.55859,1.1211 -0.55859,2.2383 1.1211,2.8008 2.2383,0.55859 7.8398,-2.8008 8.3984,-4.4805 0.55859,-1.1211 0,-1.6797 0,-2.2383 -0.55859,-0.55859 -1.1211,0 -1.6797,0.55859 -1.6797,0 -2.7969,1.1211 -3.918,1.1211 z m 11.758,2.2383 c 2.2383,0 5.0391,0 5.6016,-3.9219 0,-2.2383 -1.6797,-2.2383 -3.3594,-1.6797 -2.2383,0 -5.0391,0 -5.0391,3.3594 0,1.6836 0.55859,2.8008 2.7969,2.2422 z m -39.758,152.32 c 1.1211,1.6797 1.6797,2.8008 2.2383,4.4805 0.55859,1.1211 0.55859,2.8008 1.6797,2.8008 1.12111,0 1.6797,-1.6797 2.2383,-2.2383 0.55859,-1.6797 2.8008,-3.3594 1.6797,-5.0391 -1.1211,-1.6797 -3.3594,-0.55859 -5.6016,0 -0.55469,-0.004 -1.1133,-0.004 -2.2344,-0.004 z m 53.199,-40.879 c 4.4805,3.9219 4.4805,3.9219 7.2812,-0.55859 0.55859,-0.55859 0.55859,-1.1211 1.1211,-1.1211 1.6797,-0.55859 1.1211,-2.2383 0.55859,-3.3594 -1.1211,-1.1211 -1.6797,0.55859 -2.2383,0.55859 -2.2422,1.6797 -3.9219,3.3594 -6.7227,4.4805 z m -45.359,68.32 v 3.9219 c 0,1.1211 -0.55859,2.2383 -0.55859,3.9219 0,1.1211 0,2.2383 1.1211,2.2383 1.6797,0.55859 2.2383,0 2.8008,-1.6797 1.1172,-2.2422 -0.004,-6.1641 -3.3633,-8.4023 z m -405.44,-161.28 c -5.5977,-6.1602 -10.078,-11.762 -15.117,-17.922 1.6797,5.6016 9.5195,15.121 15.117,17.922 z m 157.36,170.8 c -2.8008,-1.6797 -5.0391,-1.1211 -7.2812,0.55859 -0.55859,0.55859 -1.1211,1.1211 -1.1211,1.6797 0,1.1211 1.1211,1.1211 2.2383,1.6797 2.8047,1.1211 3.3672,-2.8008 6.1641,-3.918 z m 235.76,-45.922 c 0.55859,-1.1211 1.6797,-2.8008 2.2383,-3.9219 0.55859,-1.1211 0,-2.8008 -0.55859,-2.2383 -1.6797,1.6797 -4.4805,-0.55859 -6.1602,2.2383 1.6797,1.1211 2.8008,2.8047 4.4805,3.9219 z m -20.719,64.961 c 0,-2.2383 -1.1211,-2.2383 -2.8008,-2.2383 -1.6797,0 -2.8008,0 -3.3594,2.2383 0,2.2383 1.6797,3.9219 2.8008,3.9219 1.6797,-0.5625 2.2383,-2.2422 3.3594,-3.9219 z m 77.84,-209.44 c 1.1211,-0.55859 3.3594,0.55859 3.3594,-1.1211 0,-1.67969 -1.6797,-2.2383 -3.3594,-2.2383 -1.6797,0 -3.3594,1.1211 -2.8008,2.2383 0,2.2422 2.2383,0.5625 2.8008,1.1211 z m -138.32,230.16 c -1.6797,1.1211 -2.2383,2.8008 -3.3594,4.4805 -0.55859,0.55859 -1.6797,1.6797 0,2.2383 1.1211,0.55859 2.2383,0.55859 2.8008,-1.1211 1.1172,-1.6758 0.55859,-3.3555 0.55859,-5.5977 z m 174.16,-202.72 c 0.55859,-1.6797 0.55859,-2.8008 1.1211,-3.3594 1.1211,-1.6797 -0.55859,-2.2383 -1.6797,-2.8008 -0.55859,-0.55859 -1.6797,-0.55859 -2.2383,0 -0.55859,1.1211 0.55859,1.6797 1.1211,2.8008 0.55469,0.55859 1.1133,1.6797 1.6758,3.3594 z m -87.359,174.72 c 2.8008,-0.55859 3.9219,-2.2383 5.6016,-3.3594 1.1211,-1.1211 0.55859,-2.2383 -0.55859,-2.8008 -1.1211,-1.1211 -1.1211,0.55859 -1.6797,1.1211 -1.125,1.1211 -2.2461,2.8008 -3.3633,5.0391 z m 90.719,-168 c 0,2.2383 1.1211,3.3594 1.6797,5.0391 0.55859,1.1211 1.6797,1.6797 2.8008,0.55859 0.55859,-0.55859 1.1211,-2.2383 0,-2.8008 -1.6797,-0.55469 -2.8008,-2.2344 -4.4805,-2.7969 z m -323.68,151.2 c -1.6797,-1.1211 -3.3594,-2.2383 -5.6016,-3.9219 0,2.2383 1.1211,3.9219 0,6.7188 2.2422,-1.1172 3.9219,-1.6797 5.6016,-2.7969 z m 325.92,-142.8 c 1.1211,2.8008 0.55859,5.6016 1.6797,7.8398 2.2422,-1.6797 1.6797,-5.0391 -1.6797,-7.8398 z m -33.039,-42 c 1.6797,2.2383 3.9219,2.8008 6.1602,2.8008 0.55859,0 0.55859,-0.55859 0.55859,-1.1211 -1.1211,-2.8008 -3.3594,-1.6797 -5.6016,-1.6797 -0.55859,-0.5625 -0.55859,0 -1.1172,0 z m -481.04,-24.082 c 0.55859,-3.9219 1.6797,-6.7188 0,-10.078 0,2.8008 -1.6797,6.1602 0,10.078 z m 394.8,178.08 c 2.8008,-1.6797 5.6016,1.1211 8.9609,0 -3.3633,-2.2422 -6.1641,-2.2422 -8.9609,0 z m -290.64,28 c 0,-1.1211 -0.55859,-1.6797 -1.1211,-1.1211 -1.1211,1.1211 -3.3594,-0.55859 -3.9219,1.6797 0,0.55859 0.55859,1.6797 1.6797,1.6797 1.6836,-0.55859 2.8008,-1.1211 3.3633,-2.2383 z m 100.8,12.879 c 1.1211,1.6797 1.1211,3.3594 3.3594,2.8008 1.1211,0 1.6797,-1.1211 1.1211,-2.2383 -1.1211,-1.1211 -2.8008,-0.5625 -4.4805,-0.5625 z"
       id="path3088" />
    <path
       d="m 190.96,425.6 c 0,-1.6797 0,-3.9219 1.1211,-5.0391 0.55859,-0.55859 0.55859,-1.6797 1.6797,-1.6797 1.1211,0 1.1211,1.1211 1.1211,1.6797 1.1211,2.8008 0,5.0391 -2.2383,6.7188 -2.2383,1.6797 -3.9219,0 -5.0391,-1.1211 -0.55859,-0.55859 -1.6797,-1.6797 -2.2383,-2.8008 -0.55859,-0.55859 -1.1211,-1.1211 -0.55859,-2.2383 0.55859,-0.55859 1.1211,-1.1211 1.6797,-1.1211 1.1211,0 1.1211,1.1211 1.1211,2.2383 -0.008,2.2422 1.1094,3.3633 3.3516,3.3633 z"
       id="path3090" />
    <path
       d="m 234.64,431.76 c -2.2383,0.55859 -5.0391,-1.6797 -7.8398,0.55859 -0.55859,0.55859 -2.2383,-0.55859 -2.8008,-1.6797 0,-1.6797 1.6797,-1.6797 2.2383,-1.6797 2.2383,0 3.9219,1.1211 6.1602,1.1211 2.8008,0 5.0391,0.55859 7.2812,-1.1211 0.55859,-0.55859 1.1211,-0.55859 1.1211,0 0.55859,0.55859 0,1.1211 -0.55859,1.6797 -1.6836,1.1211 -3.3633,1.1211 -5.6016,1.1211 z"
       id="path3092" />
    <path
       d="m 336.56,178.64 c -3.9219,0.55859 -7.8398,-0.55859 -11.762,-3.3594 -2.2383,-1.6797 -3.9219,-3.3594 -3.9219,-6.7188 0,-2.2383 -1.1211,-3.3594 -1.6797,-5.6016 -1.1211,-4.4805 0,-7.2812 3.3594,-10.078 7.8398,-5.6016 15.68,-7.8398 25.199,-3.9219 4.4805,1.6797 8.3984,10.078 8.3984,16.238 0,6.1602 -5.6016,10.078 -9.5195,11.762 -3.3516,2.2383 -6.7109,2.2383 -10.074,1.6797 z m -1.1172,-2.8008 h 4.4805 c 7.2812,-0.55859 12.32,-4.4805 11.762,-10.641 -0.55859,-7.2812 -1.6797,-13.441 -11.199,-13.441 -2.8008,0 -5.0391,0 -7.2812,0.55859 -4.4805,1.6797 -10.078,3.3594 -10.078,9.5195 0,4.4805 1.1211,8.9609 5.6016,11.762 2.2344,1.6836 5.0352,2.2422 6.7148,2.2422 z"
       id="path3094" />
    <path
       d="m 367.36,159.6 c 1.1211,3.9219 2.2383,7.2812 3.3594,10.641 0.55859,1.1211 0.55859,2.2383 -0.55859,2.2383 -1.1211,0.55859 -1.1211,-1.1211 -1.1211,-1.6797 -1.6797,-4.4805 -4.4805,-8.3984 -7.2812,-12.879 -3.9219,-6.1602 -10.078,-10.078 -14.559,-15.121 -1.6797,-1.6797 -4.4805,-2.2383 -6.7188,-2.8008 -3.9219,-1.1211 -7.8398,-3.3594 -10.641,-6.7188 -1.1211,-1.1211 -1.6797,-2.8008 0,-3.9219 2.2383,-1.1211 1.6797,1.1211 2.2383,2.2383 2.8008,3.3594 6.1602,5.6016 10.078,6.1602 4.4805,0.55859 7.8398,2.8008 10.078,6.1602 4.4805,5.0391 10.641,8.9609 15.68,13.441 1.6797,1.6797 3.9219,1.1211 5.6016,1.6797 1.1211,0 2.8008,0 3.9219,0.55859 1.1211,0.55859 3.3594,1.1211 2.2383,2.8008 -0.55859,1.6797 -2.2383,0 -3.3594,0 -2.2383,-1.1172 -5.5977,-1.6797 -8.957,-2.7969 z"
       id="path3096" />
    <path
       d="m 339.36,320.32 c 1.6797,-1.6797 3.9219,-2.8008 5.6016,-3.9219 2.8008,-1.6797 5.0391,-1.6797 7.2812,0.55859 2.2383,2.2383 3.3594,5.6016 1.6797,8.3984 -3.9219,6.7188 -10.078,10.641 -17.922,11.762 -2.8008,0.55859 -5.6016,-0.55859 -6.7188,-3.3594 -1.6797,-2.8008 0,-5.0391 1.6797,-6.7188 1.1211,-1.6797 2.8008,-3.3594 5.0391,-4.4805 1.6797,-0.55859 3.9219,-1.1211 5.0391,0.55859 0.55859,1.1211 1.1211,2.2383 0,3.3594 -0.55859,0.55859 -2.2383,0.55859 -2.8008,0 -1.6797,-2.2383 -3.9219,-1.1211 -5.0391,0.55859 -1.6797,1.6797 -3.3594,3.3594 -2.8008,6.1602 0.55859,2.2383 2.8008,2.8008 5.6016,2.8008 5.6016,-0.55859 10.078,-3.3594 14.559,-7.2812 1.6797,-1.6797 2.8008,-4.4805 1.1211,-7.8398 -1.6797,-2.8008 -4.4805,-3.3594 -7.2812,-2.2383 -1.6797,0.004 -2.7969,1.6836 -5.0391,1.6836 z"
       id="path3098" />
    <path
       d="m 456.96,288.4 c 0,5.0391 -2.2383,10.078 -6.7188,11.762 -2.8008,1.1211 -4.4805,0 -4.4805,-2.8008 0,-4.4805 0,-9.5195 3.3594,-13.441 1.1211,-1.1211 2.2383,-3.3594 3.9219,-2.2383 1.6797,0.55859 3.3594,2.2383 3.3594,4.4805 0.55859,0.55859 0.55859,1.1211 0.55859,2.2383 z m -1.6797,1.6797 c -2.8008,1.1211 -1.6797,5.0391 -5.6016,3.3594 -0.55859,-0.55859 -1.6797,-1.1211 -2.2383,0 -0.5586,1.1211 0,2.8008 0.55859,3.9219 0.55859,1.1211 1.6797,0.55859 2.2383,0 3.3633,-1.6797 3.9219,-3.918 5.043,-7.2812 z"
       id="path3100" />
    <path
       d="m 336,300.72 c 1.1211,2.8008 3.9219,4.4805 5.6016,6.1602 -3.9219,0 -8.3984,-3.9219 -8.9609,-7.8398 -0.55859,-3.3594 2.2383,-8.9609 5.6016,-10.078 3.9219,-1.6797 7.8398,-2.8008 11.199,0.55859 2.2383,2.2383 2.2383,4.4805 -0.55859,6.1602 -3.9219,2.8008 -7.8438,4.4805 -12.883,5.0391 z m 3.3594,-2.7969 c 1.6797,-0.55859 3.9219,-1.1211 6.1602,-1.6797 1.6797,-0.55859 3.3594,-1.1211 3.3594,-3.3594 0,-1.6797 -1.6797,-2.8008 -2.8008,-2.8008 -1.6797,-0.55859 -3.9219,-1.6797 -5.6016,0.55859 -1.1211,1.6797 -2.2383,2.8008 -3.3594,4.4805 -0.55859,0.55859 -1.6797,1.1211 -1.1211,2.2383 0.004,1.1211 1.125,1.1211 3.3633,0.5625 z"
       id="path3102" />
    <path
       d="m 341.6,263.76 c -7.2812,0.55859 -9.5195,-5.6016 -8.9609,-10.641 0,-1.6797 0.55859,-2.8008 2.2383,-1.1211 1.6797,1.6797 5.0391,2.8008 1.1211,5.6016 -1.1211,0.55859 -0.55859,1.6797 0.55859,2.2383 2.2383,1.6797 4.4805,2.2383 6.7188,1.6797 2.8008,-1.1211 5.6016,-2.8008 6.7188,-5.6016 0.55859,-1.1211 0,-1.6797 -1.1211,-2.2383 h -1.6797 c -1.6797,-0.55859 -2.8008,-2.2383 -3.9219,-3.9219 -0.55859,-0.55859 0,-1.6797 0.55859,-2.2383 1.6797,-1.1211 2.8008,0.55859 3.9219,1.1211 6.7188,3.3594 5.0391,8.3984 0.55859,10.641 -1.1133,2.7969 -3.3516,5.0391 -6.7109,4.4805 z"
       id="path3104" />
    <path
       d="m 400.96,295.68 c 0,1.6797 -0.55859,3.3594 -0.55859,5.0391 -0.55859,2.2383 -0.55859,4.4805 1.6797,6.1602 2.2383,1.1211 4.4805,1.6797 7.2812,0.55859 3.3594,-2.2383 5.0391,-5.0391 6.7188,-8.3984 1.6797,-5.0391 -2.8008,-9.5195 -7.8398,-8.3984 -1.1211,0 -2.2383,0.55859 -3.3594,0 4.4805,-3.3594 7.2812,-3.3594 10.641,-0.55859 3.3594,2.8008 3.9219,7.2812 1.6797,11.762 -1.1211,2.8008 -3.3594,4.4805 -5.6016,6.7188 -3.9219,3.9219 -9.5195,2.2383 -11.762,-0.55859 -3.3594,-3.3633 -2.2383,-8.9648 1.1211,-12.324 z"
       id="path3106" />
    <path
       d="m 273.84,102.48 c 4.4805,-0.55859 7.2812,2.2383 7.8398,7.8398 0,3.3594 -2.8008,6.1602 -5.6016,6.1602 -5.0391,0 -8.3984,-2.2383 -7.8398,-5.0391 0,-6.1602 1.6836,-8.9609 5.6016,-8.9609 z m 5.0391,7.8398 c 0,-2.2383 -0.55859,-4.4805 -3.3594,-3.9219 -1.6797,0 -3.3594,0.55859 -3.3594,2.8008 0.55859,2.2383 1.1211,5.0391 3.9219,5.0391 2.2383,-0.55859 2.7969,-2.2383 2.7969,-3.918 z"
       id="path3108" />
    <path
       d="m 381.36,331.52 c -2.2383,-2.8008 -3.9219,-1.6797 -6.1602,0 -1.1211,1.1211 -2.2383,1.6797 -3.9219,2.2383 -1.6797,1.1211 -3.9219,1.1211 -5.0391,-1.1211 -1.1211,-2.2383 0.55859,-3.3594 1.6797,-4.4805 2.2383,-1.6797 4.4805,-2.2383 7.2812,-2.2383 3.9219,0 7.2812,-3.9219 6.1602,-7.8398 0,-1.6797 -1.6797,-2.2383 -5.0391,-3.3594 2.8008,-2.2383 5.6016,-0.55859 6.1602,2.8008 0.55859,1.6797 0.55859,3.3594 -0.55859,5.0391 -0.5625,3.3633 -2.8008,5.6016 -0.5625,8.9609 z"
       id="path3110" />
    <path
       d="m 197.12,129.92 c 0,2.8008 -1.6797,4.4805 -3.9219,5.0391 -2.8008,1.1211 -5.0391,2.2383 -8.3984,0.55859 -3.9219,-1.6797 -2.8008,-3.9219 -0.55859,-6.1602 1.6797,-2.2383 4.4805,-3.9219 7.2812,-4.4805 3.3555,-0.55859 5.5977,1.6797 5.5977,5.043 z m -9.5195,-1.1211 c 1.1211,1.1211 2.8008,0.55859 3.3594,2.2383 0,0.55859 0.55859,1.6797 1.6797,1.1211 1.12111,-0.5586 1.6797,-1.1211 1.6797,-2.2383 0,-0.55859 -0.55859,-1.1211 -1.6797,-1.6797 -1.1211,-0.5625 -3.3594,-0.5625 -5.0391,0.55859 z"
       id="path3112" />
    <path
       d="m 237.44,212.24 c -1.6797,0 -3.3594,-1.1211 -4.4805,-2.2383 -1.1211,-1.1211 -1.6797,-2.8008 -0.55859,-4.4805 1.1211,-1.6797 2.8008,-1.1211 3.9219,0 0.55859,1.1211 5.0391,0 1.6797,3.3594 0,0 0.55859,1.1211 1.6797,0.55859 3.9219,-1.1211 7.8398,-2.8008 10.641,-6.1602 1.1211,-1.1211 1.1211,-2.8008 -0.55859,-3.3594 -2.2383,-1.1211 -4.4805,-2.2383 -6.7188,0 -0.55859,0.55859 -1.1211,2.2383 -2.2383,1.1211 -0.55859,0 -0.55859,-0.55859 -0.55859,-1.1211 0,-1.1211 1.1211,-1.6797 2.2383,-2.2383 2.2383,-1.1211 3.9219,-1.6797 6.1602,-1.1211 3.3594,0.55859 5.0391,3.3594 3.9219,6.1602 -1.6914,3.3594 -10.648,9.5195 -15.129,9.5195 z"
       id="path3114" />
    <path
       d="m 206.64,106.96 c 0,2.8008 -2.8008,4.4805 -4.4805,7.2812 -1.1211,1.6797 -1.6797,3.3594 -3.9219,0.55859 -0.55859,-0.55859 -1.1211,-0.55859 -1.6797,-0.55859 -1.1211,-0.55859 -2.8008,1.1211 -3.3594,-1.1211 0,-2.2383 -1.6797,-4.4805 0.55859,-6.1602 1.6797,-1.6797 3.9219,-3.3594 6.1602,-5.0391 3.3633,-1.6836 6.7227,0.55859 6.7227,5.0391 z m -2.2422,0.55859 c 0,-2.2383 -1.1211,-3.3594 -2.8008,-3.3594 -1.1211,0 -3.9219,0 -3.3594,2.2383 0,1.6797 0.55859,4.4805 2.8008,4.4805 1.6797,0 2.8008,-1.6797 3.3594,-3.3594 z"
       id="path3116" />
    <path
       d="m 425.04,339.36 c -3.3594,-1.1211 -5.0391,2.2383 -7.8398,1.1211 1.1211,-2.8008 3.3594,-3.9219 6.1602,-5.0391 1.6797,-0.55859 3.3594,0 3.9219,1.1211 1.1211,1.1211 1.1211,2.8008 0,4.4805 -2.8008,3.9219 -7.2812,6.7188 -11.762,8.9609 -2.8008,1.1211 -4.4805,0 -5.0391,-2.2383 -0.55859,-2.8008 -0.55859,-5.6016 1.6797,-7.2812 0.55859,-0.55859 1.1211,-0.55859 1.6797,0 0.5586,0.55859 0.55859,1.1211 0,2.2383 -1.1211,1.6797 -2.8008,3.3594 -0.55859,5.0391 1.6797,1.1211 3.9219,0 5.6016,-1.1211 2.2383,-2.2422 5.0391,-3.9219 6.1562,-7.2812 z"
       id="path3118" />
    <path
       d="m 378.56,206.08 c -2.8008,-6.1602 -0.55859,-9.5195 5.0391,-10.641 4.4805,-0.55859 8.9609,-1.6797 13.441,-1.1211 1.1211,0 1.6797,0 2.2383,1.1211 0.5586,1.1211 -0.55859,1.6797 -1.1211,2.2383 -2.8008,1.6797 -5.0391,3.3594 -8.3984,3.9219 -1.6797,0.55859 -2.2383,-0.55859 -2.2383,-1.6797 0,-1.1211 1.1211,-2.8008 -1.6797,-2.8008 -2.2383,0 -4.4805,0 -6.1602,2.2383 -0.55859,1.6836 -1.1211,4.4844 -1.1211,6.7227 z"
       id="path3120" />
    <path
       d="m 388.64,393.12 c -1.6797,3.3594 -0.55859,5.6016 1.6797,7.2812 -2.2383,-0.55859 -3.9219,-1.1211 -3.9219,-3.3594 -0.55859,-4.4805 5.0391,-10.641 9.5195,-10.641 2.2383,0 4.4805,1.1211 5.0391,3.9219 0.55859,2.8008 -1.6797,2.8008 -3.9219,2.8008 -1.1211,0 -2.2383,0.55859 -2.8008,1.1211 -2.2344,1.1133 -3.9141,1.6758 -5.5938,-1.125 z"
       id="path3122" />
    <path
       d="m 234.08,116.48 c 2.2383,-2.2383 4.4805,-5.0391 7.8398,-2.8008 3.3594,2.8008 1.1211,5.6016 0,8.3984 0,0.55859 -0.55859,1.1211 -0.55859,1.1211 -3.3594,5.6016 -3.3594,5.6016 -3.9219,10.641 -1.1211,-3.9219 -4.4805,-6.1602 -6.7188,-8.9609 -0.55859,-0.55859 -1.1211,-1.6797 0,-2.8008 1.1211,-1.1211 1.6797,-0.55859 2.8008,0 2.2383,1.6797 5.6016,1.6797 6.7188,-1.1211 0.55859,-1.1211 1.1211,-2.2383 1.6797,-3.9219 0.55859,-1.6797 -0.55859,-2.2383 -1.6797,-2.2383 -2.2383,1.6836 -3.918,0.5625 -6.1602,1.6836 z"
       id="path3124" />
    <path
       d="m 411.6,253.68 c -1.1211,0 -2.8008,-0.55859 -3.3594,-2.2383 -0.55859,-1.6797 1.6797,-2.2383 1.6797,-3.3594 1.6797,-3.9219 5.6016,-4.4805 8.9609,-5.6016 1.6797,-0.55859 3.3594,-0.55859 3.9219,1.1211 0.55859,1.1211 0.55859,2.8008 -0.55859,3.9219 -1.6875,3.3555 -6.168,6.1562 -10.645,6.1562 z m 2.2383,-6.1602 c 2.8008,0.55859 5.6016,2.8008 7.2812,-1.6797 -2.8008,-0.55859 -5.043,0 -7.2812,1.6797 z"
       id="path3126" />
    <path
       d="m 540.96,269.92 c -1.1211,0 -2.2383,-0.55859 -2.8008,-1.1211 -1.1211,-1.1211 0,-2.2383 0.55859,-2.8008 3.3594,-2.8008 7.2812,-6.1602 11.199,-8.9609 1.1211,-0.55859 2.2383,-0.55859 3.3594,0.55859 1.1211,0.55859 0.55859,1.6797 0.55859,2.8008 -0.55469,2.8008 -9.5156,9.5234 -12.875,9.5234 z m 0,-2.8008 c 3.3594,0.55859 5.6016,-1.1211 7.8398,-3.3594 -3.3594,0.55859 -5.6016,0.55859 -7.8398,3.3594 z"
       id="path3128" />
    <path
       d="m 371.28,239.12 c 3.3594,0 3.9219,1.6797 2.8008,3.9219 -1.1211,2.8008 -8.9609,7.2812 -12.32,6.7188 -1.1211,0 -2.8008,-0.55859 -2.8008,-2.2383 -0.55859,-1.1211 -0.55859,-2.8008 0.55859,-3.3594 4.4805,-1.6836 7.8398,-5.043 11.762,-5.043 z m -6.7227,7.2773 c 2.2383,0 4.4805,-0.55859 6.1602,-2.2383 0.55859,-0.55859 1.6797,-1.1211 1.1211,-2.2383 -0.55859,-1.1211 -1.1211,0 -2.2383,0 -3.3633,-0.5625 -2.2422,3.918 -5.043,4.4766 z"
       id="path3130" />
    <path
       d="m 481.04,285.04 c -1.1211,2.2383 -3.3594,4.4805 -1.6797,5.6016 1.6797,1.1211 3.9219,0 5.0391,-1.6797 1.6797,-1.6797 3.3594,-2.8008 4.4805,-4.4805 1.6797,-2.2383 2.2383,-5.0391 -0.55859,-7.2812 -1.6797,-1.6797 -2.8008,-2.8008 -4.4805,-3.9219 -1.6797,-1.1211 -2.8008,-1.6797 -4.4805,-0.55859 -0.55859,0.55859 -1.6797,1.6797 -2.2383,0 0,-1.1211 -0.55859,-2.8008 1.6797,-2.8008 5.0391,-0.55859 7.2812,3.3594 10.641,5.6016 2.2383,1.6797 3.3594,5.0391 2.2383,7.8398 -1.6797,4.4805 -5.0391,7.8398 -9.5195,9.5195 -1.1211,0.55859 -2.8008,1.1211 -4.4805,0 -1.1211,-1.1211 -1.1211,-2.8008 -0.55859,-4.4805 0,-2.7969 1.6797,-2.7969 3.918,-3.3594 z"
       id="path3132" />
    <path
       d="m 273.84,141.68 c 1.1211,1.6797 2.2383,3.3594 3.9219,4.4805 4.4805,4.4805 4.4805,7.8398 -0.55859,11.762 -0.55859,0.55859 -1.1211,1.1211 -1.6797,2.2383 0,0.55859 -1.1211,1.1211 -1.1211,1.1211 -1.1211,-2.8008 -3.9219,-1.1211 -5.6016,-2.8008 -1.1211,-1.1211 -1.6797,-2.2383 -0.55859,-3.3594 1.1211,-1.6797 2.8008,-1.6797 4.4805,-1.1211 1.6797,0.55859 2.8008,2.8008 4.4805,0.55859 1.6797,-2.2383 1.1211,-3.9219 0,-6.1602 -2.2422,-1.1172 -3.9219,-3.3594 -3.3633,-6.7188 z"
       id="path3134" />
    <path
       d="m 203.28,170.8 c 2.8008,0 5.0391,0 7.2812,2.2383 2.2383,2.2383 1.6797,3.9219 0,5.6016 -2.8008,2.2383 -6.1602,3.9219 -10.078,3.9219 -1.1211,0 -2.2383,0 -2.2383,-1.1211 -0.55859,-1.6797 1.1211,-1.1211 2.2383,-1.6797 1.6797,-0.55859 3.9219,-1.1211 5.6016,-1.6797 1.1211,-0.55859 3.3594,-0.55859 2.8008,-2.2383 -0.55859,-1.6797 -1.6797,-3.3594 -3.9219,-2.8008 -1.1211,0 -1.6797,0.55859 -2.8008,0.55859 -1.1211,0 -2.2383,0 -2.2383,-1.6797 0,-1.6797 1.1211,-1.1211 2.2383,-1.6797 -0.5625,0.55859 0.55469,0.55859 1.1172,0.55859 z"
       id="path3136" />
    <path
       d="m 383.6,281.68 c -6.7188,-2.2383 -8.3984,3.9219 -12.32,6.1602 1.1211,-5.0391 8.9609,-10.078 12.32,-10.641 2.2383,0 3.9219,1.1211 2.8008,3.3594 -2.2383,4.4805 -5.0391,8.3984 -10.078,10.078 -1.1211,0.55859 -2.2383,0 -2.2383,-1.1211 -0.55859,-1.6797 0.55859,-2.8008 1.6797,-3.3594 2.8008,-0.55859 5.6016,-1.6797 7.8398,-3.9219 -0.56641,0.56641 -0.56641,0.004 -0.004,-0.55469 z"
       id="path3138" />
    <path
       d="m 381.36,426.72 c 1.1211,0 2.2383,0.55859 2.8008,1.6797 0.55859,1.6797 0,3.3594 -0.55859,4.4805 -1.1211,1.6797 -2.8008,3.3594 -4.4805,4.4805 -0.55859,0.55859 -1.6797,1.6797 -2.8008,0.55859 -0.55859,-0.55859 -1.1211,-1.6797 -1.1211,-2.8008 0.55859,-1.6797 1.1211,-3.3594 0,-5.0391 -1.1211,-0.55859 2.2422,-3.3594 6.1602,-3.3594 z"
       id="path3140" />
    <path
       d="m 409.36,220.08 c -5.0391,2.8008 -8.9609,7.2812 -15.68,6.1602 -3.3594,-0.55859 -4.4805,-2.2383 -3.9219,-5.6016 0.55859,-2.8008 1.6797,-5.0391 4.4805,-5.6016 3.3594,-0.55859 5.0391,1.6797 5.0391,4.4805 0,3.9219 1.6797,3.3594 3.9219,2.2383 2.2422,-1.1133 3.9219,-2.2344 6.1602,-1.6758 z m -13.438,3.9219 c 1.6797,0 2.8008,-0.55859 2.2383,-2.2383 -0.55859,-1.6797 -0.55859,-4.4805 -3.3594,-3.9219 -1.6797,0 -2.8008,1.1211 -2.8008,2.8008 0,2.8008 1.6797,3.918 3.9219,3.3594 z"
       id="path3142" />
    <path
       d="m 374.08,372.4 c -1.6797,-2.2383 -3.9219,-3.3594 -6.1602,-5.0391 -5.0391,-2.8008 -5.0391,-3.9219 -1.6797,-8.3984 1.1211,-1.6797 3.9219,-3.3594 1.6797,-6.1602 -2.2383,-2.2383 -5.0391,-3.3594 -7.8398,-1.6797 -1.1211,0.55859 -1.6797,1.1211 -2.8008,0.55859 2.2383,-2.8008 7.2812,-3.9219 10.078,-2.2383 2.8008,1.6797 3.3594,4.4805 2.2383,8.3984 -0.55859,1.1211 -0.55859,2.8008 -1.6797,3.9219 -1.1211,1.6797 -0.55859,2.2383 0.55859,2.8008 3.3672,1.6758 3.9258,5.0391 5.6055,7.8359 z"
       id="path3144" />
    <path
       d="m 170.24,115.36 c 0,1.6797 -0.55859,3.3594 -1.6797,3.9219 -2.8008,2.8008 -4.4805,6.7188 -8.3984,7.8398 -1.6797,0.55859 -2.2383,1.1211 -3.3594,-0.55859 -1.1211,-1.6797 -2.2383,-3.3594 -0.55859,-5.0391 1.1211,-1.1211 2.8008,-1.6797 3.9219,-0.55859 1.1211,1.6797 2.8008,1.6797 3.9219,1.1211 1.6797,-1.6797 3.9219,-3.3594 4.4805,-6.1602 0,-0.55859 0,-1.1211 -1.1211,-1.6797 -0.55859,-0.55859 -2.8008,1.1211 -2.2383,-1.1211 0,-1.1211 1.1211,-1.6797 2.8008,-1.6797 1.6719,0.55469 2.2305,1.6758 2.2305,3.9141 z"
       id="path3146" />
    <path
       d="m 449.12,242.48 c -2.2383,1.1211 -4.4805,2.2383 -6.7188,2.2383 -1.1211,0 -2.2383,0 -2.8008,0.55859 -2.8008,3.3594 -3.9219,0.55859 -5.6016,-1.1211 -1.1211,-1.1211 -2.8008,-1.6797 -1.6797,-3.3594 1.1211,-1.6797 2.2383,-3.3594 4.4805,-3.3594 h 1.6797 c 1.1211,0.55859 2.8008,-1.6797 3.3594,0 0.5586,1.6797 -1.1211,2.2383 -2.2383,3.3594 -0.55859,0.55859 -1.1211,1.1211 -0.55859,2.2383 0.55859,1.1211 1.6797,1.1211 2.2383,0.55859 2.2383,-0.55469 5.0391,0.008 7.8398,-1.1133 z"
       id="path3148" />
    <path
       d="m 358.96,118.16 c -0.55859,1.1211 -0.55859,2.2383 -2.2383,1.6797 -3.9219,-1.1211 -8.3984,-2.2383 -11.762,1.1211 -0.55859,0.55859 -1.1211,0 -1.6797,-0.55859 -0.5586,-0.55859 -0.55859,-1.6797 0,-2.2383 1.1211,-1.6797 3.3594,-2.8008 3.9219,-5.0391 0,0 0.55859,-0.55859 0.55859,0 3.3594,1.1211 7.2812,2.2383 10.641,3.9219 -0.004,-0.008 -0.004,1.1133 0.55859,1.1133 z"
       id="path3150" />
    <path
       d="m 329.84,439.04 c 0.55859,1.6797 -0.55859,2.8008 -1.6797,3.9219 -1.1211,1.1211 -2.2383,2.2383 -2.2383,3.9219 0,1.6797 -2.2383,1.6797 -3.3594,1.6797 -1.1211,0 -1.1211,-1.1211 0,-2.2383 v -0.55859 c -1.1211,-1.1211 -2.2383,-2.2383 -1.6797,-3.9219 1.1211,-2.8008 3.9219,-3.3594 5.0391,-6.1602 0.55859,-0.55859 1.6797,-0.55859 2.2383,0 1.6797,1.1172 1.6797,2.2383 1.6797,3.3555 z"
       id="path3152" />
    <path
       d="m 241.36,154 c 0.55859,-3.9219 -2.2383,-3.9219 -4.4805,-3.9219 -2.8008,0 -5.0391,1.6797 -6.1602,4.4805 -1.6797,3.9219 -1.1211,7.2812 1.1211,10.641 1.1211,1.6797 2.2383,2.8008 3.3594,4.4805 -5.6016,-2.2383 -8.3984,-7.2812 -7.2812,-13.441 1.1211,-4.4805 6.1602,-8.9609 11.199,-8.3984 2.8047,0 3.9219,2.8008 2.2422,6.1602 z"
       id="path3154" />
    <path
       d="m 361.76,215.04 c -2.8008,3.9219 -6.1602,6.1602 -10.078,7.8398 -2.2383,1.1211 -3.9219,-1.1211 -5.0391,-2.8008 -1.6797,-1.6797 -1.1211,-7.8398 0.55859,-9.5195 0.55859,-0.55859 1.1211,-1.1211 2.2383,-1.1211 1.1211,0.55859 0.55859,1.1211 0.55859,2.2383 -0.55859,1.1211 -1.1211,2.8008 -1.1211,3.9219 -0.55859,1.6797 0,3.3594 1.6797,5.0391 1.1211,1.1211 2.8008,0 3.9219,-0.55859 2.2383,-2.2383 5.0391,-3.918 7.2812,-5.0391 z"
       id="path3156" />
    <path
       d="m 146.72,171.36 c 1.6797,-1.1211 3.3594,-1.6797 5.6016,-1.1211 2.8008,1.1211 3.9219,4.4805 1.1211,6.7188 -1.1211,0.55859 -1.6797,1.6797 -2.8008,2.2383 -1.6797,0.55859 -3.9219,2.2383 -5.6016,0.55859 -2.2383,-1.6797 -2.8008,-4.4805 -3.3594,-7.2812 0,-1.1211 0.55859,-1.1211 1.6797,-1.1211 0.5625,-0.55078 2.2422,-0.55078 3.3594,0.008 -1.6797,1.1211 -2.2383,3.3594 -1.6797,5.0391 0,1.1211 1.6797,2.2383 3.3594,1.6797 1.6797,-0.55859 3.9219,-1.6797 4.4805,-3.9219 0,0 0,-0.55859 -0.55859,-1.1211 -2.2422,-0.55469 -3.3594,-2.2344 -5.6016,-1.6758 z"
       id="path3158" />
    <path
       d="m 575.12,250.32 c 0.55859,-1.6797 1.6797,-1.6797 2.8008,-1.6797 0.55859,0 2.2383,-0.55859 1.6797,-1.6797 -1.1211,-2.8008 0.55859,-3.9219 2.2383,-5.6016 1.6797,-1.6797 2.8008,-2.8008 3.3594,-5.0391 0.55859,-1.1211 1.1211,-2.8008 2.8008,-1.6797 1.1211,1.1211 0.55859,2.2383 -0.55859,3.3594 -1.6797,1.6797 -2.8008,3.3594 -4.4805,4.4805 -1.1211,1.1211 -2.2383,2.8008 0.55859,3.3594 1.1211,0 1.6797,0.55859 1.6797,1.6797 0,1.1211 -0.55859,1.1211 -1.6797,1.6797 -1.1211,0.55859 -2.8008,0.55859 -3.9219,0.55859 -1.6758,0.004 -2.7969,1.1211 -4.4766,0.5625 z"
       id="path3160" />
    <path
       d="m 312.48,109.2 c 2.8008,0 3.3594,1.1211 2.2383,3.3594 -0.55859,1.1211 -1.6797,2.2383 -1.6797,3.9219 0,0.55859 -1.1211,1.1211 -1.6797,0.55859 -2.2383,-2.2383 -5.0391,1.1211 -6.7188,-1.1211 v -1.6797 c 1.1211,-0.55859 6.1602,-5.0391 7.8398,-5.0391 z"
       id="path3162" />
    <path
       d="m 375.76,128.8 c 0,1.6797 -7.2812,6.7188 -8.3984,6.1602 -2.8008,-1.1211 -2.2383,-3.3594 -1.6797,-5.0391 0.55859,-1.1211 0.55859,-2.8008 2.8008,-2.8008 1.6797,0 1.6797,1.1211 2.2383,2.2383 1.1211,2.2383 1.6797,0 2.2383,-0.55859 0.55859,-0.55859 1.6797,-1.1211 2.2383,-0.55859 0.5625,-0.004 0.5625,0.55859 0.5625,0.55859 z"
       id="path3164" />
    <path
       d="m 454.16,329.28 c 0,2.2383 -2.8008,5.6016 -5.0391,5.6016 h -1.1211 c -1.1211,-0.55859 -2.2383,-1.6797 -1.1211,-3.3594 1.1211,-2.2383 2.2383,-5.6016 5.6016,-5.6016 1.6797,0 1.6797,2.2383 1.6797,3.3594 z"
       id="path3166" />
    <path
       d="m 365.68,211.68 c 0,-5.0391 -1.1211,-6.1602 -5.0391,-5.6016 -4.4805,0.55859 -7.2812,2.8008 -8.3984,8.9609 -1.1211,0 -1.6797,-1.1211 -1.1211,-1.6797 0.55859,-4.4805 7.2812,-10.078 12.32,-9.5195 3.918,0.55859 5.0391,2.2383 2.2383,7.8398 z"
       id="path3168" />
    <path
       d="m 327.6,376.88 c -2.2383,2.2383 -5.0391,2.8008 -7.8398,3.3594 -3.9219,0.55859 -6.1602,-2.2383 -5.6016,-6.7188 0.55859,-2.8008 1.1211,-6.1602 3.3594,-8.3984 0.55859,2.8008 -1.1211,4.4805 -1.6797,6.7188 -1.1211,5.6016 1.1211,7.8398 6.7188,6.7188 1.6797,-0.55859 2.8008,-1.6797 5.043,-1.6797 z"
       id="path3170" />
    <path
       d="m 460.32,359.52 c -1.1211,1.6797 -6.1602,1.1211 -4.4805,4.4805 1.1211,3.3594 4.4805,0 7.2812,0.55859 -2.2383,2.2383 -4.4805,3.3594 -7.2812,2.2383 -2.2383,-1.1211 -2.8008,-2.8008 -2.2383,-5.0391 1.1172,-3.3594 1.6797,-3.3594 6.7188,-2.2383 z"
       id="path3172" />
    <path
       d="m 173.6,182 c -1.6797,3.9219 -5.0391,7.2812 -8.3984,10.078 -0.55859,0.55859 -2.2383,1.6797 -2.8008,0.55859 -1.1211,-1.1211 0.55859,-1.6797 1.1211,-2.8008 2.7969,-3.3555 7.2773,-4.4766 10.078,-7.8359 z"
       id="path3174" />
    <path
       d="m 465.92,362.88 c 3.3594,-5.0391 3.3594,-5.0391 -2.8008,-9.5195 3.3594,-1.1211 6.7188,0 7.8398,2.8008 1.1172,2.8008 0,5.0391 -5.0391,6.7188 z"
       id="path3176" />
    <path
       d="m 136.08,142.8 c -2.2383,5.6016 -1.1211,8.9609 2.2383,8.3984 0,1.1211 -0.55859,1.1211 -1.1211,1.6797 -1.1211,1.1211 -1.6797,2.8008 -3.3594,2.2383 -1.6797,-0.55859 -1.1211,-2.8008 -0.55859,-3.9219 0.55859,-1.1211 0,-1.6797 -0.55859,-2.2383 -1.1172,-2.7969 1.1211,-4.4766 3.3594,-6.1562 z"
       id="path3178" />
    <path
       d="m 166.32,179.76 c 3.3594,-3.9219 7.2812,-5.6016 11.762,-5.6016 1.1211,0 1.6797,0.55859 1.1211,1.1211 -0.55859,1.1211 -1.6797,2.8008 -2.2383,2.2383 -3.9219,-2.2383 -6.1602,0.55859 -8.9609,1.6797 0.55469,0.5625 -0.004,0.5625 -1.6836,0.5625 z"
       id="path3180" />
    <path
       d="m 239.68,155.12 c 0.55859,3.9219 -2.8008,5.6016 -1.6797,8.9609 0.55859,1.1211 -2.2383,1.1211 -3.3594,0.55859 -1.6797,0 -1.6797,-1.1211 -1.1211,-2.8008 1.6797,-2.2383 4.4805,-3.3594 6.1602,-6.7188 z"
       id="path3182" />
    <path
       d="m 518,277.76 c 0.55859,-5.0391 0.55859,-5.0391 -7.2812,-5.0391 1.1211,-1.6797 2.2383,-3.3594 4.4805,-2.8008 2.2383,0.55859 3.3594,1.1211 3.9219,3.3594 1.1172,1.6797 1.6797,3.918 -1.1211,4.4805 z"
       id="path3184" />
    <path
       d="m 562.24,280 c -2.8008,1.1211 -5.6016,1.6797 -7.2812,4.4805 -0.55859,0.55859 -1.1211,1.1211 -2.2383,0 -0.55859,-0.55859 -0.55859,-0.55859 -0.55859,-1.1211 1.1211,-2.8008 7.2812,-5.0391 10.078,-3.3594 z"
       id="path3186" />
    <path
       d="m 452.48,241.36 c 0.55859,-5.6016 -2.8008,-5.6016 -6.1602,-5.6016 2.2383,-2.8008 5.0391,-2.2383 7.2812,-0.55859 1.6797,1.6797 1.1172,3.3594 -1.1211,6.1602 z"
       id="path3188" />
    <path
       d="m 335.44,369.04 c 0.55859,-5.0391 -0.55859,-6.1602 -7.8398,-5.0391 3.9219,-2.8008 6.1602,-2.8008 8.9609,-0.55859 1.6758,1.6797 1.1172,3.3594 -1.1211,5.5977 z"
       id="path3190" />
    <path
       d="m 518,279.44 c -0.55859,2.8008 -1.6797,5.0391 -3.9219,6.7188 -1.1211,0.55859 -2.2383,1.1211 -2.8008,0 -0.55859,-1.1211 0.55859,-1.1211 1.6797,-1.6797 1.6836,-1.1211 3.3633,-3.3594 5.043,-5.0391 z"
       id="path3192" />
    <path
       d="m 405.44,210 c 2.2383,-1.1211 5.0391,-3.3594 7.8398,-1.6797 1.6797,0.55859 2.2383,2.2383 1.6797,5.0391 -2.8008,-5.0391 -6.1602,-4.4805 -9.5195,-3.3594 z"
       id="path3194" />
    <path
       d="m 479.92,324.24 c -2.8008,3.3594 -6.1602,2.2383 -8.3984,4.4805 0,0 -1.1211,-0.55859 -1.1211,-1.1211 0,-1.1211 0.55859,-1.1211 1.1211,-1.6797 2.2383,-1.1172 5.0352,-0.55859 8.3984,-1.6797 z"
       id="path3196" />
    <path
       d="m 361.2,450.8 c 0,1.1211 -1.1211,1.1211 -2.2383,1.1211 -1.6797,0 -2.8008,-0.55859 -2.8008,-2.2383 0,-1.1211 1.6797,-1.1211 2.2383,-1.1211 1.6797,-0.004 2.8008,0.55859 2.8008,2.2383 z"
       id="path3198" />
    <path
       d="m 334.88,156.8 c 2.8008,0.55859 5.6016,1.1211 8.3984,1.6797 2.2383,0.55859 2.8008,2.8008 2.8008,5.0391 0,2.2383 -1.1211,4.4805 -2.8008,6.1602 -4.4805,3.3594 -14,0.55859 -16.801,-5.0391 -1.1211,-2.2383 -0.55859,-4.4805 1.6797,-6.1602 2.8047,-1.1211 5.043,-1.6797 6.7227,-1.6797 z"
       id="path3200" />
  </g>
</svg>
