<?xml version="1.0" encoding="UTF-8" standalone="no"?>
<svg
   width="541.3703pt"
   height="502.84869pt"
   version="1.1"
   viewBox="0 0 541.3703 502.84869"
   id="svg3799"
   sodipodi:docname="noun-octopus-921048.svg"
   inkscape:version="1.1.2 (b8e25be8, 2022-02-05)"
   xmlns:inkscape="http://www.inkscape.org/namespaces/inkscape"
   xmlns:sodipodi="http://sodipodi.sourceforge.net/DTD/sodipodi-0.dtd"
   xmlns:xlink="http://www.w3.org/1999/xlink"
   xmlns="http://www.w3.org/2000/svg"
   xmlns:svg="http://www.w3.org/2000/svg">
  <sodipodi:namedview
     id="namedview3801"
     pagecolor="#ffffff"
     bordercolor="#999999"
     borderopacity="1"
     inkscape:pageshadow="0"
     inkscape:pageopacity="0"
     inkscape:pagecheckerboard="0"
     inkscape:document-units="pt"
     showgrid="false"
     inkscape:zoom="0.60321429"
     inkscape:cx="373.83067"
     inkscape:cy="390.40853"
     inkscape:window-width="1312"
     inkscape:window-height="855"
     inkscape:window-x="0"
     inkscape:window-y="23"
     inkscape:window-maximized="0"
     inkscape:current-layer="svg3799" />
  <defs
     id="defs3707">
    <symbol
       id="w"
       overflow="visible">
      <path
         d="M 0.03125,0 H 0 V -0.015625 -0.03125 C 0.0078125,-0.0390625 0.019531,-0.046875 0.03125,-0.046875 V -0.03125 H 0.015625 V -0.015625 0 H 0.03125 v -0.015625 z"
         id="path3638" />
    </symbol>
    <symbol
       id="b"
       overflow="visible">
      <path
         d="M 0.03125,-0.015625 H 0.015625 V 0 H 0 V -0.03125 H 0.015625 0.03125 Z"
         id="path3641" />
    </symbol>
    <symbol
       id="a"
       overflow="visible">
      <path
         d="M 0.03125,-0.015625 H 0.015625 V 0 C 0.0234375,0 0.03125,-0.0039062 0.03125,-0.015625 V 0 H 0.015625 0 V -0.015625 L 0.015625,-0.03125 c 0.0078125,0 0.015625,0.0078125 0.015625,0.015625 z m 0,0 H 0.015625 v -0.015625 0.015625 z"
         id="path3644" />
    </symbol>
    <symbol
       id="e"
       overflow="visible">
      <path
         d="M 0.015625,-0.015625 V 0 Z m 0.015625,0 V 0 H 0.015625 0 V -0.015625 H 0.015625 V -0.03125 L 0,-0.015625 V -0.03125 H 0.015625 0.03125 Z"
         id="path3647" />
    </symbol>
    <symbol
       id="c"
       overflow="visible">
      <path
         d="M 0.015625,-0.03125 H 0.03125 v 0.015625 H 0.015625 V 0 H 0.03125 0.015625 0 V -0.015625 -0.03125 Z"
         id="path3650" />
    </symbol>
    <symbol
       id="k"
       overflow="visible">
      <path
         d="M 0.03125,-0.03125 V -0.046875 0 H 0.015625 0 V -0.015625 L 0.015625,-0.03125 Z M 0.015625,0 0.03125,-0.015625 H 0.015625 v -0.015625 0.015625 z"
         id="path3653" />
    </symbol>
    <symbol
       id="j"
       overflow="visible">
      <path
         d="M 0.015625,0 H 0.03125 v -0.015625 c 0,-0.0078125 -0.0078125,-0.015625 -0.015625,-0.015625 v 0.015625 z m 0,-0.03125 H 0.03125 V -0.015625 0 H 0.015625 0 v -0.046875 h 0.015625 z"
         id="path3656" />
    </symbol>
    <symbol
       id="i"
       overflow="visible">
      <path
         d="m 0,-0.03125 h 0.015625 v 0.015625 L 0.03125,-0.03125 0.015625,0 V 0.015625 H 0 V 0 h 0.015625 z"
         id="path3659" />
    </symbol>
    <symbol
       id="h"
       overflow="visible">
      <path
         d="M 0.03125,0 H 0 L 0.015625,-0.046875 H 0.03125 L 0.046875,0 Z M 0.015625,-0.015625 H 0.03125 L 0.015625,-0.03125 Z"
         id="path3662" />
    </symbol>
    <symbol
       id="v"
       overflow="visible">
      <path
         d="M 0,-0.046875 H 0.015625 V 0 H 0 Z"
         id="path3665" />
    </symbol>
    <symbol
       id="u"
       overflow="visible">
      <path
         d="M 0.015625,-0.015625 0,-0.03125 h 0.015625 v 0.015625 L 0.03125,-0.03125 0.015625,-0.015625 0.03125,0 0.015625,-0.015625 V 0 H 0 Z"
         id="path3668" />
    </symbol>
    <symbol
       id="t"
       overflow="visible">
      <path
         d="m 0,-0.046875 h 0.015625 l 0.015625,0.03125 v -0.03125 H 0.046875 V 0 -0.03125 L 0.03125,0 0.015625,-0.03125 V 0 H 0 Z"
         id="path3671" />
    </symbol>
    <symbol
       id="g"
       overflow="visible">
      <path
         d="M 0,-0.015625 V -0.03125 H 0.015625 V -0.015625 0 L 0.03125,-0.015625 V -0.03125 0 H 0.015625 0 Z"
         id="path3674" />
    </symbol>
    <symbol
       id="f"
       overflow="visible">
      <path
         d="m 0,-0.03125 h 0.015625 v 0.015625 L 0.03125,-0.03125 0.015625,0 Z"
         id="path3677" />
    </symbol>
    <symbol
       id="s"
       overflow="visible">
      <path
         d="M 0.03125,-0.046875 V -0.03125 H 0.015625 0.03125 v 0.015625 H 0.015625 V 0 H 0 v -0.03125 l 0.015625,-0.015625 z"
         id="path3680" />
    </symbol>
    <symbol
       id="d"
       overflow="visible">
      <path
         d="M 0.015625,-0.03125 V -0.015625 0 L 0.03125,-0.015625 H 0.015625 Z m 0,0 c 0.0078125,0 0.015625,0.0078125 0.015625,0.015625 V 0 H 0.015625 0 v -0.015625 z"
         id="path3683" />
    </symbol>
    <symbol
       id="r"
       overflow="visible">
      <path
         d="M 0.03125,-0.03125 H 0.046875 V -0.015625 0 -0.015625 H 0.03125 V 0 -0.015625 H 0.015625 V 0 H 0 v -0.03125 h 0.015625 z"
         id="path3686" />
    </symbol>
    <symbol
       id="q"
       overflow="visible">
      <path
         d="M 0.03125,-0.015625 V 0 -0.015625 H 0.015625 V 0 H 0 V -0.046875 H 0.015625 V -0.03125 H 0.03125 Z"
         id="path3689" />
    </symbol>
    <symbol
       id="p"
       overflow="visible">
      <path
         d="m 0,-0.046875 h 0.015625 l 0.015625,0.03125 v -0.03125 H 0.046875 V 0 H 0.03125 L 0.015625,-0.03125 V 0 H 0 Z"
         id="path3692" />
    </symbol>
    <symbol
       id="o"
       overflow="visible">
      <path
         d="M 0.03125,-0.015625 V 0 -0.015625 H 0.015625 V 0 H 0 V -0.03125 H 0.015625 0.03125 Z"
         id="path3695" />
    </symbol>
    <symbol
       id="n"
       overflow="visible">
      <path
         d="m 0,-0.046875 h 0.015625 c 0.0078125,0 0.015625,0.0078125 0.015625,0.015625 v 0.015625 H 0.015625 V 0 H 0 Z m 0.015625,0.015625 v 0.015625 H 0.03125 V -0.03125 Z"
         id="path3698" />
    </symbol>
    <symbol
       id="m"
       overflow="visible">
      <path
         d="M 0,-0.03125 H 0.015625 V 0 C 0.015625,0.0078125 0.0078125,0.015625 0,0.015625 Z M 0,-0.046875 H 0.015625 V -0.03125 H 0 Z"
         id="path3701" />
    </symbol>
    <symbol
       id="l"
       overflow="visible">
      <path
         d="m 0.03125,-0.03125 v 0.015625 H 0.015625 V -0.03125 -0.015625 0 C 0.0234375,0 0.03125,-0.0039062 0.03125,-0.015625 V 0 H 0.015625 0 V -0.015625 L 0.015625,-0.03125 Z"
         id="path3704" />
    </symbol>
  </defs>
  <g
     id="g3797"
     transform="translate(-70,-57.385687)">
    <path
       d="m 279.39,469.3 c 2.293,-1.4648 -2.0742,-0.41797 2.8789,-1.3984 2.5234,-0.49609 1.7422,-0.19922 4.2227,-0.24219 -1.3789,5.8203 -5.0039,8.2695 -7.0977,1.6406 z m 10.859,-5.1914 c -0.96094,-5.3789 0.51953,-6.3594 3.1641,-8.3672 l 2.2695,5.7422 z m 5.8203,-13.934 8.125,2.4375 -2.6797,6.2188 c -4.2109,-2.8438 -3.7383,-4.0234 -5.4453,-8.6523 z m 8.9297,-10.527 c 1.3438,1.9609 2.5469,-3.1875 1.4219,4.1797 -0.46484,3.0312 -1.0469,2.2031 -2.6914,3.375 -5.4453,-3.1641 -2.7773,-5.8438 1.2695,-7.5508 z m -0.69531,-14.066 c -1.332,-6.207 0.78125,-6.5586 6.668,-5.543 -0.0312,5.1055 -1.3672,5.9531 -6.668,5.543 z m 11.199,-15.828 c 0.10938,1.7422 0.55078,1.918 0.0117,3.7578 -0.73828,2.5703 -0.77344,1.8086 -1.6406,2.9531 -4.4648,-4.8945 -4.9844,-5.0156 1.6328,-6.7148 z m 192.45,5.125 c -0.32031,-0.42969 -3.9922,0.91406 0,-7.8281 l 4.7383,0.92578 z m -200.2,-8.1914 c -1.3242,-5.7539 0.60547,-6.9219 6.0742,-6.8906 0.27734,5.8438 -0.51953,6.6367 -6.0742,6.8906 z m 183.22,-5.8633 c 0.50781,-2.8984 -0.69531,-2.2695 2.3242,-3.1641 z m -14.902,-8.8867 7.2422,-3.207 0.48438,5.2266 c -5.918,1.125 -5.0586,1.0469 -7.7266,-2.0156 z m -160.92,-5.082 c 0.39844,-4.7305 2.9648,-5.1055 7.4531,-5.9648 0.0898,4.8516 -2.9102,8.6523 -7.4531,5.9648 z m 149.67,-2.457 0.13281,-5.1602 6.0859,-1.7188 c 1.4453,5.7227 0.44141,7.5508 -6.2188,6.8789 z m -143.16,-11.684 10.902,3.2617 -3.3633,4.5195 c -9.7891,-4.543 -7.1875,-4.7852 -7.5391,-7.7812 z m 128.43,1.0586 c 0.45312,-4.3555 0.32031,-3.1523 4.1211,-6.4062 1.707,-1.457 0.83594,-1.1562 3.0078,-2.2617 6.3398,4.2773 5.0586,10.781 -7.1328,8.6641 z m -123.48,-4.6758 c -0.23047,-5.4805 1.4648,-7.0898 6.3711,-5.2461 1.2578,2.2617 1.1797,-2.8789 1.0469,2.7578 -0.12109,5.1602 -3.8594,4.5977 -7.418,2.4922 z m -150.07,-2.457 c -0.72656,-10.637 5.0469,-10.02 8.0352,-3.8789 -2.3711,3.5625 -2.3242,3.3516 -8.0352,3.8789 z m 266.25,-13.305 c 12.809,9.4453 0.10938,9.9648 -2.2695,7.1875 -1.7852,-2.082 1.2578,-4.5547 2.2695,-7.1875 z m -300.01,2.0938 5.6094,0.23047 c 1.5312,4.7617 1.8633,3.3281 -0.68359,7.1211 -3.9141,-0.51953 -5.7969,-2.9531 -4.9258,-7.3516 z m 79.766,0.47266 c 2.3906,2.9531 0.92578,1.2031 0,2.7773 -0.10938,-0.1875 -2.8125,0.0664 0,-2.7773 z m -63.121,0.83594 c 5.5234,-0.32031 5.832,0.48438 8.4219,3.4844 -0.65234,4.7734 -1.1445,4.5625 -4.918,6.3945 -1.0156,-0.79297 -2.5352,-1.125 -3.0312,-3.9453 -0.36328,-2.0742 1.0234,-2.2148 -0.47266,-5.9297 z m 36.234,-5.3359 c 4.8047,0.21094 4.6172,-0.0664 8.2109,2.4805 -0.5625,6.1719 -2.7891,9.2695 -9.2148,8.8516 0.39844,-5.2578 4.2109,-6.582 1.0039,-11.332 z m 145.86,1.5977 1.2461,-10.473 c 7.9688,1.0586 11.32,10.805 -1.2461,10.473 z m -104.6,0.14453 c -3.6914,5.1484 -14.043,0.78125 -7.6719,-5.2461 7.6172,-7.1992 10.605,1.1797 7.6719,5.2461 z m -25.562,6.668 c -0.83594,-3.9336 -1.3008,-2.082 0.50781,-6.3828 l 1.2109,-2.3828 c 1.2344,-5.0039 -2.7227,1.9062 0.0898,-3.207 4.2891,-7.8164 11.188,10.527 -1.8086,11.973 z m 216.12,-10.461 c -0.51953,-5.8086 -0.39844,-7.4297 4.375,-9.0273 5.0156,5.3008 4.1016,9.7891 -4.375,9.0273 z m -180.7,-0.72656 c -0.10938,-4.7188 -1.4453,-2.1484 1.8203,-5.3242 l 5.832,-3.3281 c 0.0234,5.4805 -2.1055,7.8477 -7.6523,8.6523 z m 31.582,-15.941 c 0.21094,0.21875 0.64062,0.23047 0.65234,0.65234 l -0.65234,3.207 c -0.0781,-0.16406 -3.7578,1.4336 0,-3.8594 z m -14.098,8.8516 c -3.582,-5.5664 2.6133,-15.93 7.793,-10.562 0.16406,0.17578 3.625,0.35156 -1.332,7.6289 -2.0742,3.0547 -2.6914,4.4219 -6.4609,2.9336 z m 152.49,-6.7148 c 0.27734,-4.0352 0.80469,-5.5664 2.668,-8.4453 3.625,1.8516 4.7188,2.1289 5.1133,7.3086 z m -132.61,-4.4961 c 0.32031,-1.5781 0.58594,-4.0352 0.98047,-4.9844 1.4336,-3.4492 0.0547,-1.9961 3.5156,-2.9336 2.8672,5.4219 1.2695,6.582 -4.4961,7.9141 z m 274.88,-4.3555 c 0.043,-1.1445 1.5664,-0.89453 1.2031,0.0898 -0.21094,0.55078 -1.3125,2.8555 -1.2031,-0.0898 z m -207.08,2.5586 c -2.1602,-5.6758 0.75,-6.6484 5.293,-5.4688 -0.78125,4.1992 -1.1133,4.9727 -5.293,5.4688 z m 189.01,-10.43 c 0.0977,0.043 5.3359,-0.96094 2.5352,6.3945 l -4.8828,0.38672 c 0.21094,-2.3242 -0.57422,-0.51953 0.39844,-3.3398 1.2773,-3.6914 0.85938,-1.9609 1.9531,-3.4375 z m 12.688,5.5117 c -3.9805,-6.3711 -0.14453,-6.5273 0,-6.7578 l 4.0117,0.0977 c -0.80469,6.582 -1.2227,4.1211 -4.0117,6.6602 z m -258.21,-0.47266 c 1.3242,-4.5742 3.043,-9.3906 9.5039,-8.3906 0.21094,5.5781 -4.0898,9.1484 -9.5039,8.3906 z m 109.51,-3.4727 3.4492,-7.0547 c 1.3008,-2.082 0.65234,-1.082 1.9062,-2.25 6.2617,5.1914 5.6562,10.871 -5.3594,9.3047 z m 160.53,-4.5195 c 7.3203,1.082 6.1719,8.2578 0.77344,10.727 -0.35156,-4.4102 0.73828,-8.0469 -0.77344,-10.727 z m -42.023,1.9531 c 3.1289,-5.8086 1.6992,-0.21875 6.8789,-3.5938 -0.47266,4.8281 -3.1523,6.8242 -6.8789,3.5938 z m 54.293,2.0742 c -3.6367,-6.8789 -1.8633,-9.3359 4.9492,-9.3477 0.84766,5.3672 -0.59375,8.1562 -4.9492,9.3477 z m 13.969,-14.285 c 4.2344,3.1875 3.6484,4.9375 -0.16406,6.9883 -1.5,-2.9414 -2.2266,-3.9023 0.16406,-6.9883 z m -79.281,5.7891 c 0.14453,-5.4688 1.0039,-4.9844 5.2031,-5.6758 l 1.6094,3.9805 -6.8125,1.6992 z m -197.94,0.81641 c -0.0312,-4.1211 0.1875,-3.9688 5.5781,-8.4102 0.17578,-0.14453 0.58594,-0.44141 0.72656,-0.55078 0.14453,-0.12109 0.48438,-0.38672 0.73828,-0.5625 0.1875,5.668 -0.77344,10.805 -7.043,9.5234 z m 44.105,-4.6953 -0.0117,-6.8242 6.6602,1.9062 c -1.5117,3.7383 -1.6406,4.9922 -6.6484,4.918 z m 143.04,-13.25 c 3.2539,2.2617 4,2.3828 3.2734,7.8594 -3,1.1016 -6.0312,2.7578 -6.6914,-0.92578 -0.59375,-3.2969 0.70703,-2.8203 1.0703,-3.4844 0.12109,-0.24219 0.38672,-0.55078 0.51953,-0.78125 0.13281,-0.21094 0.38672,-0.52734 0.51953,-0.72656 0.98047,-1.4883 0.79297,-1.2109 1.3125,-1.9414 z m -105.05,9.3906 c -0.59375,-5.3906 0.52734,-7.0977 5.1367,-8.6094 l 2.25,4.8711 c -2.832,3.207 -3.0195,3.6367 -7.3867,3.7383 z m 206.22,-8.4102 c 0.62891,0.47266 3.2188,-0.29688 0.30859,3.8711 z m -379.07,1.0156 c -0.043,-3.8242 2.1602,-1.4648 1.8203,-0.15625 -0.39844,1.5195 -1.7852,3.3398 -1.8203,0.15625 z m -34.703,-1.2695 c 2.5586,-3.9805 0.90234,-3.2305 3.9453,-1.2695 -1.0469,2.6133 0.375,3.3945 -3.9453,1.2695 z m 27.195,1.3125 c -1.8867,-5.6992 -0.25391,-6.8789 5.1133,-7.793 -0.23047,1.7188 -0.14453,3.793 -1.125,5.5 -2.6992,4.6836 0.0977,1.5312 -3.9922,2.293 z m 269.07,-8.9414 6.7695,2.5586 -0.84766,4.6523 c -4.9922,-0.043 -6.9883,-1.7734 -5.918,-7.2109 z m -247.63,6.2617 c -4.9922,5.6016 -8.5859,-5.832 -5.2578,-9.1719 1.8203,-1.8281 5.2266,-1.3125 6.4062,0.73828 1.1914,2.0742 -0.58594,7.8047 -1.1445,8.4336 z m -35.859,0.55078 c -3.0547,-10.34 0.25391,-7.8828 1.7422,-8.8086 2.4922,1.543 3.2617,-2.2031 2.457,4.1797 -0.33984,2.7344 -1.6992,3.8047 -4.1992,4.6289 z m 48.68,-3.9258 c -1.6992,-2.0273 -2.25,-1.4453 -1.5117,-4.332 1.0352,-4.0117 2.457,-4.5195 4.0469,-5.3594 5.2031,4.3438 0.80469,7.4727 -2.5352,9.6914 z m -95.652,-6.0312 c 3.375,4.4414 0.58594,2.625 0.50781,2.7461 z m 242.44,1.8867 -4.1211,0.41797 4.1133,-6.4922 c 2.457,3.9688 1.6094,3.1523 0.0117,6.0742 z m -215.94,-4.4648 c 11,-6.9102 11.41,10.254 -0.45312,12.039 -0.94922,-7.0117 -0.50781,-3.1211 2.8789,-7.5742 -0.1875,-0.29687 -0.51953,-1.1016 -0.59375,-0.88281 l -1.3789,-2.3164 c -0.12109,-0.23047 -0.24219,-0.90234 -0.45312,-1.2695 z m 292.7,-5.1914 c 10.363,1.2227 3.7266,10.562 -0.49609,6.1289 -1.9727,-2.0625 -0.33203,-4.6523 0.49609,-6.1289 z m -304.53,10.805 c -4.8398,-2.3594 -6.8438,-6.4492 -0.21094,-10.152 5.4688,3.1406 3.3398,6.6914 0.21094,10.152 z m 109.88,-11.785 c 4.6172,1.2461 2.3828,-0.38672 4.0898,3.5273 -9.2617,-0.84766 -2.0742,-0.70703 -4.0898,-3.5273 z m -14.773,-0.41797 c 7.5742,2.4023 6.3711,9.4141 -0.33984,12.293 -0.1875,-4.7305 -0.45312,-3.2188 2.1602,-6.3047 -1.8281,-5.0391 -4.2227,-0.85938 -1.8203,-5.9844 z m -125.39,0.91406 c 0.0234,-0.44141 1.8281,-1.6523 1.2578,0.30859 -0.33203,1.125 -1.3906,3.7031 -1.2578,-0.30859 z m 323.37,-8.0234 c 0.33203,0.66016 1.7188,-0.35156 0.75,6.5703 l -6.5938,-0.0234 c -0.0117,-3.4609 -1.0352,-2.6133 3.5039,-5.4883 l 2.3359,-1.0586 z m -14.121,5.4883 c -0.043,-2.2695 2.0391,-2.0078 1.6523,-0.30859 -0.5625,2.5039 -1.6406,0.90234 -1.6523,0.30859 z m -298.2,7.2969 c -1.7539,-3.8242 -0.26562,-7.9141 3.375,-9.2383 2.7461,3.9141 0.69531,7.5625 -3.375,9.2383 z m 292.98,-17.285 c 2.5781,2.9102 4.375,3.8047 0.0312,6.25 -1.4453,-3.1211 -1.5312,-3.375 -0.0312,-6.25 z m -308.21,9.3047 c -2.2266,-2.7578 -2.2617,-0.96094 -2.5234,-6.7695 3.6602,0.68359 4.1133,0.1875 6.1641,3.9023 l -3.6367,2.8672 z m 277.73,-4.2539 c -8.8867,1.0352 -9.6016,-4.8398 -5.0391,-7.8281 6.4141,-4.1992 6.2617,4.0664 5.0391,7.8281 z m 11.938,-7.707 6.1719,0.0664 c 5.3008,10.055 -6.7812,9.25 -6.1719,-0.0664 z m -306.15,-5.1133 c 5.4219,-9.6992 17.043,1.9531 2.7344,4.6953 -1.6758,-1.9844 -1.7305,-1.5664 -2.7344,-4.6953 z m -7.6172,-5.9414 c -2.1953,-1.2461 -4.7383,-1.8086 -1.9844,-5.9844 0.13281,-0.21094 0.33984,-0.55078 0.50781,-0.75 l 4.0469,-2.4805 c 3.2422,5.1602 1.875,6.3047 -2.5703,9.2148 z m -8.1914,-8.6094 c 0.49609,-4.1133 -0.81641,-2.2695 3.4727,-3.4062 -1.5664,2.6797 -0.70703,2.2812 -3.4727,3.4062 z m -0.1875,-10.812 c -2.7344,3.6914 -0.61719,2.1484 -6.0859,2.9414 0.33984,-5.0273 2.7656,-6.7812 6.0859,-2.9414 z m 319.79,-26.016 c 0.50781,-1.5 0.13281,-0.5625 0.87109,-1.7734 0.10938,-0.16406 0.29688,-0.53906 0.41797,-0.71484 l 3.2852,-3.0742 c -1.1445,3.4297 -2.0742,4.3867 -4.5742,5.5664 z m -8.1445,-13.141 c 0.79297,-4.4219 1.3555,-7.4414 7.0547,-6.1523 -0.64062,4.543 -2.0625,5.9844 -7.0547,6.1523 z m -14.34,-6.9336 c -2.6445,-0.96094 -2.1953,-0.60547 -2.7344,-2.5586 3.0742,0.33203 1.8633,-0.24219 2.7344,2.5586 z m 10.746,-2.3164 c 0.32031,-1.2031 0.36328,-2.457 1.2461,-3.3945 2.1055,-2.2266 7.2539,-1.6094 7.9609,-1.4102 5.1055,1.4648 -3.9141,1.0469 5.1914,1.0586 3.4375,0.0117 0.92578,-0.81641 3.5938,0.62891 l -17.992,3.1211 z m 11.113,-15.18 c 0.12109,0.26562 3.0078,-1.7734 -0.58594,3.4062 z m 11.188,8.9844 c -7.9805,-3.7695 -1.7969,-4.0664 -3.8477,-12.301 -1.1367,-4.5742 -4.75,-5.7422 -6.8789,-7.8594 l 3.3398,-5.6211 c 3.8359,4.9727 -1.918,3.0078 6.3945,8.0586 l 0.99219,17.727 z m -13.723,-24.273 c -4.0664,-5.2695 -0.12109,-4.9922 0,-5.2266 2.4141,4.4531 0.55078,4.1797 0,5.2266 z m -311.64,77.672 c 5.6328,0.33203 28.586,18.555 36.191,22.984 10.395,6.0508 34.414,10.285 47.996,11.992 14.266,1.7969 40.137,-0.98047 54.82,-3.4492 77.762,-13.062 45.449,-13.262 37.324,-54.844 -4.0586,-20.789 -5.2695,-31.848 3,-50.84 13.66,-31.43 13.57,-23.711 30.812,-21.332 12.535,1.7305 13.227,0.21875 21.586,-6.0195 9.9336,-7.4297 7.375,-8.125 13.945,-15.676 l 1.457,1.3125 c 7.0117,6.5586 13.922,16.965 24.086,18.211 l 18.012,-4.7617 c 5.457,-2.0156 7.0234,-6.3047 13.535,-7.5391 2.0078,2.6797 9.4688,15.863 10.605,18.562 -0.32031,0.17578 -0.78125,0.26562 -1.0469,0.33984 l -3.1523,0.84766 c -1.9414,0.49609 -1.332,-0.23047 -4.332,0.92578 l -0.48438,16.879 c 3.0664,0.60547 6.0977,1.4453 8.125,2.4141 -5.3242,5.3906 -3.0742,6.1289 -5.8086,12.832 -2.7109,1.125 -2.4141,-0.21094 -3.4727,-0.41797 -13.492,-2.6914 -23.172,13.164 -18.41,19.457 5.4336,5.0156 7.332,2.0391 13.207,0.0312 l 2.1836,7.6836 c 0.29687,-0.10937 0.61719,-0.46484 0.77344,-0.57422 l 10.188,-1.5195 c -8.168,7.9492 -0.88281,14.926 9.5703,10.793 -0.89453,5.9102 -3.4844,11.465 -5.875,16.008 -4.6641,8.8945 -7.375,7.6953 -5.5547,13.285 3.2539,1.543 7,0.0234 12.5,1.3438 20.305,4.8828 38.375,13.969 53.398,27.668 12.832,11.707 25.078,16.57 37.359,27.34 6.2188,5.4453 12.094,7.6055 22.699,8.9727 32.453,4.1875 11.242,2.1602 39.895,-1.8633 4.9062,-0.68359 8.1914,-2.5898 12.996,-3.2734 -2.2148,7.6055 1.2578,1.1914 -6.3047,4.8281 -4.6641,2.25 -1.8945,2.0625 -4.9609,3.7266 -3.207,1.7422 -3.4727,0.55078 -6.957,1.9062 -7.5508,2.9414 -1.1016,4.2344 -17.562,6.0391 -9.1367,1.0039 -3.8125,-1.1562 -12.742,3.0195 -5.832,-6.3594 -10.254,-4.7383 -14.363,-8.1445 -2.3242,-1.918 1.4648,-1.2461 -4.0586,-3.3398 -2.6992,-1.0352 -2.6992,-0.23047 -6.1836,-1.4219 -6.4258,-2.2148 -10.195,-2.4805 -13.668,-8.1562 -4.0781,-6.6484 -3.0859,-3.207 -9.4141,-5.8555 -4.1211,-1.707 -3.1953,-4.7617 -8.5859,-6.4492 -13.812,-4.3086 -1.5547,-3.9805 -17.129,-12.609 -4.0898,1.3555 -3.4609,1.0469 -5.7891,3.8359 -1.2344,-12.73 -5.4688,-15.688 -17.043,-9.2695 -9.2383,-9.9883 -5.9648,-6.8438 -15.246,-7.0977 -8.4453,-0.23047 -10.043,-6.1055 -16.59,2.7656 -3.4492,-3.6719 -6.5586,-7.1875 -13.891,-3.8711 -4.3867,1.9844 -4.9844,6.2734 -5.4883,10.098 -0.043,0.35156 -0.0977,0.83594 -0.14453,1.1133 -0.0312,0.27734 -0.13281,1.2461 -0.15625,1.082 -0.0234,-0.16406 -0.0547,0.72656 -0.16406,1.0703 -7.0898,3.4844 -15.137,6.3281 -9.0391,18.344 4.1445,8.168 1.0703,4.0664 1.9062,12.91 0.51953,5.5117 3.7148,5.7656 6.7891,8.8203 -0.41797,12.918 1.0898,11.773 11.234,15.211 -1.5547,10.43 0.98047,13.758 11.531,15.113 -0.0781,6.2734 0.79297,8.8086 2.1953,13.473 l 8.7422,1.168 c 1.5547,7.8945 4.2656,10.316 11.863,12.414 1.6094,11.926 1.1562,11.676 14.52,11.816 l 2.8867,9.8438 8.8867,1.2344 c 1.8281,8.9844 3.9805,7.0234 10.363,9.8555 l 3.6055,2.9102 c 3.1289,3.0664 3.8594,2.668 7.0664,5.5664 3.9922,3.6055 1.7969,2.625 7.0977,5.1797 -7.6289,-0.44141 -39.344,-15.512 -45.727,-19.789 -8.1797,-5.5 -11.121,-9.7227 -18,-14.961 -14.562,-11.102 -20.723,-19.609 -33.27,-31.43 -11.066,-10.438 -27.691,-46.664 -31.66,-49.66 -11.926,-9.0508 -16.879,-3.2305 -18.398,10.781 1.3438,1.1445 0.5625,0.58594 2.4258,1.6328 l 6.9336,3.0312 c 0.13281,-0.25391 0.57422,0.24219 0.88281,0.41797 l -1.2891,6.3594 c -7.1641,-2.6133 6.6016,2.8438 -2.4688,-1.5 -0.35156,-0.16406 -1.4453,-0.71484 -1.8398,-0.83594 -3.7031,-1.0898 -8.5195,0.40625 -9.7109,5.0586 -2.3164,9.0273 7.5078,13.086 8.0234,12.113 0.14453,-0.26562 0.62891,0.17578 0.94922,0.36328 l -2.4922,7.0781 c -3.418,-2.9883 -6.0312,-11.113 -12.875,-3.5273 -3.4844,3.8477 -3.582,12.668 -3.4844,18.367 l 7.5195,2.1719 c -1.3984,4.6758 -1.9609,4.9258 -5.1719,7.5938 -5.3789,-16.008 -18.676,-11.066 -21.055,9.3906 -7.0664,4.1992 -13.492,10.637 -3.1523,16.172 6.3281,3.3945 3.5391,-1.8281 4.918,3.625 -5.5117,3.6367 0.90234,-0.38672 -7.3984,-1.3438 -3.1289,-0.35156 -6.1641,0.69531 -7.8164,2.3164 -5.3594,5.2695 -1.0469,11.73 0.96875,16.039 -4.0898,2.2148 -7.375,6.7461 -7.5938,12.984 1.7422,5.1719 9.1484,4.0664 12.754,5.5117 -3.418,9.2617 -0.42969,-2.1719 -10.57,-0.0664 -5.2344,1.082 -5.6992,5.0703 -7.0312,9.9219 -2.5703,9.4453 -1.5195,4.332 -5.668,10.727 -3.6367,5.6211 -0.51953,8.5859 -6.6484,9.6992 -1.0234,-2.3828 3.3945,-17.141 4.3867,-22.047 1.9609,-9.7461 1.4219,-16.129 2.0156,-26.039 2.1055,-35.109 3.9805,-39.078 19.621,-66.527 3.2852,-5.7773 6.8789,-11.211 10.527,-17.395 2.6328,-4.4766 8.457,-15.07 11.234,-17.926 4.8945,-5.0039 3,0.0117 6.0859,-7.8945 1.6875,-4.3438 3.5703,-6.6133 0.48438,-10.395 -3.8906,-4.0469 -8.1133,-0.24219 -10.121,4.7734 -9.293,-1.0352 -13.66,-1.2344 -15.863,8.0469 l -2.1602,5.7656 c -3.2305,-1.7539 -6.6602,-2.6992 -10.691,-1.168 -4.2344,1.5977 -3.0312,3.2617 -5.4023,8.125 l -9.9336,-1.2578 -3.9922,9.8867 c -13.262,-4.3438 -13.734,-2.8555 -19.105,7.2305 -4.4883,0.96094 -8.3555,-0.17578 -11.344,1.5312 -3.0312,1.7305 -1.7852,3.0195 -5.0703,6.207 -10.812,-2.1836 -9.5586,-5.1602 -17.758,2.2383 -9.0273,-5.7969 -12.215,-2.1602 -17.758,3.9258 -14.727,-3.043 -13.25,-2.6914 -16.492,9.0938 -4.6289,-0.92578 -4.4219,-3.1289 -9.1484,-3.582 -6.7578,-0.66016 -4.168,2.6016 -9.082,1.332 -3.8242,-0.98047 -2.8438,-3.2852 -9.6562,-3.2422 l -3.8047,-1.7422 c 36.82,-4.918 45.207,-3.1211 81.254,-24.395 14.641,-8.6406 21.023,-13.25 32.234,-23.578 9.8125,-9.0273 19.293,-12.984 17.57,-22.301 -2.5352,-13.68 -8.9062,-11.277 -15.641,-4.5547 -7.4062,-5.832 -7.9609,-9.7656 -15.223,0.39844 -9.293,-2.3242 -10.539,3.6719 -16.039,3.5703 -4.4297,-0.0781 -3.9336,-2.1367 -10.152,-0.23047 -4.918,1.5117 -4.2422,2.6562 -5.3906,3.7578 l -1.3984,1.4336 c -6.1836,-2.0078 -7.9805,-3.6602 -12.676,0.87109 l -1.3906,-1.2578 c -0.17578,-0.15625 -0.49609,-0.44141 -0.69531,-0.60547 -4.1875,-3.4062 4.2344,2.5352 -1.3984,-1.125 -5.3672,-3.5039 -9.6914,-0.90234 -13.008,0.80469 -6.4258,-6.5352 -7.4727,-10.504 -18.906,-5.6328 -4.9062,-8.8516 -10.074,-4.4297 -16.613,-1.9297 -2.7461,-5.1055 -4.1445,-16.227 -15.223,-6.0508 -4.9727,-5.543 -3.0977,-7.0547 -13.625,-9.9102 2.0742,-11.816 -1.5,-12.16 -12.875,-12.688 4.2344,-18.188 -14.055,-4.1797 -11.145,-18.676 z m 210.5,-158.65 c 9.457,-4.0234 14.762,0.38672 21.297,5.0391 9.9766,7.0977 6.0859,5.8867 9.7656,18.078 5.0273,16.633 -7.3086,28.652 -18.477,34.305 -11.719,5.918 -32.676,-6.7812 -33.711,-21.805 -1.3555,-19.488 8.0234,-30.062 21.121,-35.617 z m 61.004,-6.4492 c 15.301,-5.918 31.273,10.352 33.797,21.836 3.6055,16.383 -7.0312,35.938 -19.754,36.156 -7.0547,0.12109 -17.637,2.25 -23.59,-3.1641 -6.7344,-6.1289 -9.0742,-3.4727 -11.188,-17.957 -3.1875,-21.738 5.1914,-30.855 20.734,-36.875 z m -23.203,14.297 c -15.367,-4.6406 -27.293,-24.992 -50.07,-7.043 -8.875,6.9883 -15.332,27.02 -13.219,39.43 1.3906,8.1562 3.2969,7.1328 6.3945,13.074 -2.1953,2.3711 -2.4258,2.1055 -4.168,5.0156 -6.2383,10.418 -5.2344,4.1133 -8.543,11.738 -1.2344,2.8555 -1.7188,4.6758 -2.9414,7.1875 -10.684,21.969 -9.1602,39.617 -2.3242,66.055 4.1875,16.16 11.234,19.918 11.441,29.223 -10.527,9.0508 -37.184,11.961 -54.113,14.574 -24.395,3.7578 -70.816,1.0039 -90.516,-8.2578 -11.707,-5.5 -46.73,-33.148 -50.797,-33.445 -5.082,-0.38672 -7.8164,3.4961 -8.2461,8.4336 -0.375,4.2227 1.4648,8.6641 3.8242,11.707 9.9102,12.789 7.1641,12.918 23.953,28.066 7.9375,7.1562 10.316,10.262 18.465,15.773 8.0156,5.4219 12.609,8.7188 21.277,13.051 11.121,5.543 43.18,10.605 58.746,10.152 17.121,-0.51953 55.988,-10.848 59.98,-10.871 -5.1602,13.844 -45.164,37.148 -62.691,44.512 -26.059,10.934 -54.5,8.5312 -67.574,12.555 -6.8125,2.0938 -13.328,6.3594 -11.73,15.145 9.3477,8.2578 37.184,9.8203 52.449,7.707 35.715,-4.9492 44.359,-10.582 72.25,-19.191 14.406,-4.4414 50.82,-29.41 60.52,-32.441 l -18.906,33.48 c -8.5781,13.438 -9.9648,20.723 -13.977,37.977 -4.9375,21.156 0.64062,38.297 -9.3711,68.047 -2.5586,7.5938 -7.2852,11.398 -5.9766,20.34 -3.3281,1.0586 -5.1914,0.77344 -6.3828,4.375 17.383,-2.2812 13.141,1.1367 26.91,-7.6172 25.926,-16.492 23.238,-47.039 31.891,-74.629 6.5039,-20.723 26.016,-30.59 38.207,-68.301 2.4375,-7.5195 4.9375,-22.191 9.1055,-27.867 2.7891,3.3086 17.691,33.359 26.191,42.453 2.8984,3.1094 5.2461,4.4531 8.7539,7.75 7.9023,7.4727 8.3125,12.621 26.469,25.508 7.0977,5.0469 11.242,9.8125 18.797,15.488 4.3438,3.2617 37.68,19.359 46.816,21.672 10.805,2.7461 13.062,4.2422 22.688,4.332 5.0469,0.043 4.7617,0.44141 6.0078,-0.96094 6.625,-8.7852 -4.9375,-18.156 -9.6914,-21.133 -3.625,-2.2695 -6.8242,-3.2188 -11.047,-5.3906 -11.52,-5.8984 -21.66,-14.617 -30.523,-21.52 -3.8711,-3.0195 -4.8516,-3.375 -8.4766,-8.0156 -4.1016,-5.2461 -12.996,-11.629 -18.488,-15.754 -3.6836,-2.7773 -5.2266,-6.3164 -7.9141,-9.8672 -15.996,-21.098 -1.6094,-13.922 -14.641,-19.656 -5.8438,-2.5703 -3.9141,-3.1875 -7,-9.4141 -2.9102,-5.875 -13.789,-26.977 -14.398,-32.684 -0.23047,-2.1484 -0.0664,0.0117 -0.043,-1.9844 l 0.23047,-1.8945 c 25.145,-4.8516 66.066,7.2305 77.145,19.281 9.8789,10.738 3.582,3.1758 11.168,9.1172 7.6523,5.9844 13.594,13.062 22.953,17.605 21.836,10.582 23.613,11.918 46.586,11.344 10.34,-0.25391 8.7969,0.29688 16.172,-3.5625 13.008,-6.7891 24.746,-13.25 31.141,-28.484 11.488,-27.383 -16.336,-7.9141 -21.508,-6.3164 -1.2773,0.40625 -28.309,5.9297 -28.363,5.9297 -3.6719,-0.10938 -24.254,-4.1445 -27.383,-5.6445 -8.168,-3.9023 -12.59,-9.0156 -20.48,-13.746 -15.906,-9.5234 -23.922,-18.641 -38.781,-28.473 -25.531,-16.91 -39.09,-15.344 -47.82,-20.668 0.62891,-4.1797 13.844,-24.129 13.039,-60.883 -0.32031,-14.109 -1.5312,-19.668 -8.0898,-29.059 -28.352,-40.578 -7.8828,-28.043 -11.398,-54.555 -0.66016,-5.0469 -1.5312,-10.262 -3.7461,-14.023 -13.734,-23.445 -48.184,-17.484 -58.227,5.2461 z"
       fill-rule="evenodd"
       id="path3709" />
    <path
       d="m 305.54,163.84 c 2.457,-2.9414 1.5859,-2.4453 5.5664,-2.6562 2.3477,6.668 0.96094,11.242 -5.668,12.172 0.99219,-6.6914 1.9062,-1.6758 4.3086,-7.1992 l -4.2109,-2.3164 z m -8.1562,-10.031 c 3.0742,4.8047 2.2031,5.8984 -3.3633,5.7109 0.30859,-5.0938 0.375,-3.8711 3.3633,-5.7109 z m 6.7344,23.625 c 4.168,1.5117 9.6133,-3.0312 10.914,-5.0586 2.2266,-3.4727 2.3047,-9.4922 -0.61719,-13.164 -3.4297,-4.3008 -6.4727,-2.3711 -10.66,-0.92578 -1.4453,-5.832 -1.7734,-7.4297 -4.8711,-10.957 -6.6797,0.42969 -7.9922,3.6055 -12.281,7.9258 l 1.5,7.6172 c 5.1602,2.1953 7.6172,1.6523 13.008,0.61719 -0.33984,5.2695 -1.3789,12.348 3.0078,13.945 z"
       fill-rule="evenodd"
       id="path3711" />
    <path
       d="m 297.54,200.31 0.0977,-5.7109 4.5078,-0.0977 c -0.32031,6.3828 -0.76172,4.2656 -4.6094,5.8086 z m -9.1836,-18.676 c 0.33984,-6.0312 0.21094,-7.2305 6.1641,-6.293 0.52734,5.3789 -0.76172,6.0625 -6.1641,6.293 z m 7.4062,2.2812 c 1.8516,-5.1602 3.2734,-2.4805 2.7578,-10.141 -2.7578,-2.0391 -6.1719,-4.168 -11.059,-4.6094 -2.1719,2.4258 -4.0664,5.4688 -3.6914,10.715 0.15625,2.1484 3.6914,11.73 4.8281,9.6016 0.13281,-0.23047 0.55078,0.49609 0.80469,0.77344 -0.98047,4.8164 -1.8945,6.6797 0.375,11.168 0.71484,-0.76172 0.57422,-0.33203 1.5664,-2.1836 0.16406,-0.32031 0.61719,-1.3984 0.75,-1.7305 0.42969,-1.0586 0.78125,-2.6445 1.082,-3.4727 0.81641,24.031 18.738,2.9414 10.812,-5.2695 l -8.2227,-4.8516 z"
       fill-rule="evenodd"
       id="path3713" />
    <path
       d="m 311.69,107.43 c 11.477,4.4961 24.859,-5.2461 16.391,-16.348 -8.6328,-11.309 -20.438,1.1445 -16.391,16.348 z"
       fill-rule="evenodd"
       id="path3715" />
    <path
       d="m 382.92,83.734 c -4.1445,1.9961 -7.8281,5.7891 -6.4805,12.148 1.2227,5.7891 5.4805,8.8945 11.102,5.875 10.902,-5.875 6.0078,-23.137 -4.6172,-18.023 z"
       fill-rule="evenodd"
       id="path3717" />
    <path
       d="m 401.83,162.36 c 0.0312,-0.45312 2.3359,-2.1602 1.4219,0.16406 -0.25391,0.66016 -1.707,3.7383 -1.4219,-0.16406 z m 2.1055,-11.598 c -13.129,1.3242 -9.9414,11.883 -6.3945,18.926 4.1992,-1.1016 10.461,-2.1289 13.547,-3.8789 1.0469,-7.1445 -2.7891,-12.094 -7.1562,-15.047 z"
       fill-rule="evenodd"
       id="path3719" />
    <use
       x="70"
       y="560.16406"
       xlink:href="#w"
       id="use3721"
       width="100%"
       height="100%" />
    <use
       x="70.039062"
       y="560.16406"
       xlink:href="#b"
       id="use3723"
       width="100%"
       height="100%" />
    <use
       x="70.066406"
       y="560.16406"
       xlink:href="#a"
       id="use3725"
       width="100%"
       height="100%" />
    <use
       x="70.105469"
       y="560.16406"
       xlink:href="#e"
       id="use3727"
       width="100%"
       height="100%" />
    <use
       x="70.140625"
       y="560.16406"
       xlink:href="#c"
       id="use3729"
       width="100%"
       height="100%" />
    <use
       x="70.167969"
       y="560.16406"
       xlink:href="#a"
       id="use3731"
       width="100%"
       height="100%" />
    <use
       x="70.207031"
       y="560.16406"
       xlink:href="#k"
       id="use3733"
       width="100%"
       height="100%" />
    <use
       x="70.265625"
       y="560.16406"
       xlink:href="#j"
       id="use3735"
       width="100%"
       height="100%" />
    <use
       x="70.304688"
       y="560.16406"
       xlink:href="#i"
       id="use3737"
       width="100%"
       height="100%" />
    <use
       x="70.359375"
       y="560.16406"
       xlink:href="#h"
       id="use3739"
       width="100%"
       height="100%" />
    <use
       x="70.402344"
       y="560.16406"
       xlink:href="#v"
       id="use3741"
       width="100%"
       height="100%" />
    <use
       x="70.421875"
       y="560.16406"
       xlink:href="#a"
       id="use3743"
       width="100%"
       height="100%" />
    <use
       x="70.457031"
       y="560.16406"
       xlink:href="#u"
       id="use3745"
       width="100%"
       height="100%" />
    <use
       x="70.511719"
       y="560.16406"
       xlink:href="#t"
       id="use3747"
       width="100%"
       height="100%" />
    <use
       x="70.566406"
       y="560.16406"
       xlink:href="#g"
       id="use3749"
       width="100%"
       height="100%" />
    <use
       x="70.605469"
       y="560.16406"
       xlink:href="#b"
       id="use3751"
       width="100%"
       height="100%" />
    <use
       x="70.632812"
       y="560.16406"
       xlink:href="#e"
       id="use3753"
       width="100%"
       height="100%" />
    <use
       x="70.671875"
       y="560.16406"
       xlink:href="#f"
       id="use3755"
       width="100%"
       height="100%" />
    <use
       x="70.707031"
       y="560.16406"
       xlink:href="#a"
       id="use3757"
       width="100%"
       height="100%" />
    <use
       x="70.746094"
       y="560.16406"
       xlink:href="#f"
       id="use3759"
       width="100%"
       height="100%" />
    <use
       x="70"
       y="560.21875"
       xlink:href="#s"
       id="use3761"
       width="100%"
       height="100%" />
    <use
       x="70.023438"
       y="560.21875"
       xlink:href="#b"
       id="use3763"
       width="100%"
       height="100%" />
    <use
       x="70.050781"
       y="560.21875"
       xlink:href="#d"
       id="use3765"
       width="100%"
       height="100%" />
    <use
       x="70.089844"
       y="560.21875"
       xlink:href="#r"
       id="use3767"
       width="100%"
       height="100%" />
    <use
       x="70.164062"
       y="560.21875"
       xlink:href="#c"
       id="use3769"
       width="100%"
       height="100%" />
    <use
       x="70.191406"
       y="560.21875"
       xlink:href="#q"
       id="use3771"
       width="100%"
       height="100%" />
    <use
       x="70.230469"
       y="560.21875"
       xlink:href="#a"
       id="use3773"
       width="100%"
       height="100%" />
    <use
       x="70.289062"
       y="560.21875"
       xlink:href="#p"
       id="use3775"
       width="100%"
       height="100%" />
    <use
       x="70.332031"
       y="560.21875"
       xlink:href="#d"
       id="use3777"
       width="100%"
       height="100%" />
    <use
       x="70.371094"
       y="560.21875"
       xlink:href="#g"
       id="use3779"
       width="100%"
       height="100%" />
    <use
       x="70.410156"
       y="560.21875"
       xlink:href="#o"
       id="use3781"
       width="100%"
       height="100%" />
    <use
       x="70.46875"
       y="560.21875"
       xlink:href="#n"
       id="use3783"
       width="100%"
       height="100%" />
    <use
       x="70.511719"
       y="560.21875"
       xlink:href="#b"
       id="use3785"
       width="100%"
       height="100%" />
    <use
       x="70.535156"
       y="560.21875"
       xlink:href="#d"
       id="use3787"
       width="100%"
       height="100%" />
    <use
       x="70.574219"
       y="560.21875"
       xlink:href="#m"
       id="use3789"
       width="100%"
       height="100%" />
    <use
       x="70.59375"
       y="560.21875"
       xlink:href="#a"
       id="use3791"
       width="100%"
       height="100%" />
    <use
       x="70.632812"
       y="560.21875"
       xlink:href="#l"
       id="use3793"
       width="100%"
       height="100%" />
    <use
       x="70.664062"
       y="560.21875"
       xlink:href="#c"
       id="use3795"
       width="100%"
       height="100%" />
  </g>
</svg>
