<?xml version="1.0" encoding="UTF-8" standalone="no"?>
<svg
   width="533.89575pt"
   height="416.43439pt"
   version="1.1"
   viewBox="0 0 533.89575 416.43439"
   id="svg2810"
   sodipodi:docname="noun-whale-2326657.svg"
   inkscape:version="1.1.2 (b8e25be8, 2022-02-05)"
   xmlns:inkscape="http://www.inkscape.org/namespaces/inkscape"
   xmlns:sodipodi="http://sodipodi.sourceforge.net/DTD/sodipodi-0.dtd"
   xmlns="http://www.w3.org/2000/svg"
   xmlns:svg="http://www.w3.org/2000/svg">
  <sodipodi:namedview
     id="namedview2812"
     pagecolor="#ffffff"
     bordercolor="#999999"
     borderopacity="1"
     inkscape:pageshadow="0"
     inkscape:pageopacity="0"
     inkscape:pagecheckerboard="0"
     inkscape:document-units="pt"
     showgrid="false"
     inkscape:zoom="0.70178571"
     inkscape:cx="318.47328"
     inkscape:cy="556.43766"
     inkscape:window-width="1440"
     inkscape:window-height="855"
     inkscape:window-x="0"
     inkscape:window-y="23"
     inkscape:window-maximized="0"
     inkscape:current-layer="g2808" />
  <defs
     id="defs2498">
    <symbol
       id="u"
       overflow="visible">
      <path
         d="m 18.766,-1.125 c -0.96875,0.5 -1.9805,0.875 -3.0312,1.125 -1.043,0.25781 -2.1367,0.39062 -3.2812,0.39062 -3.3984,0 -6.0898,-0.94531 -8.0781,-2.8438 -1.9922,-1.9062 -2.9844,-4.4844 -2.9844,-7.7344 0,-3.2578 0.99219,-5.8359 2.9844,-7.7344 1.9883,-1.9062 4.6797,-2.8594 8.0781,-2.8594 1.1445,0 2.2383,0.13281 3.2812,0.39062 1.0508,0.25 2.0625,0.625 3.0312,1.125 v 4.2188 c -0.98047,-0.65625 -1.9453,-1.1406 -2.8906,-1.4531 -0.94922,-0.3125 -1.9492,-0.46875 -3,-0.46875 -1.875,0 -3.3516,0.60547 -4.4219,1.8125 -1.0742,1.1992 -1.6094,2.8555 -1.6094,4.9688 0,2.1055 0.53516,3.7617 1.6094,4.9688 1.0703,1.1992 2.5469,1.7969 4.4219,1.7969 1.0508,0 2.0508,-0.14844 3,-0.45312 0.94531,-0.3125 1.9102,-0.80078 2.8906,-1.4688 z"
         id="path2435" />
    </symbol>
    <symbol
       id="c"
       overflow="visible">
      <path
         d="m 13.734,-11.141 c -0.4375,-0.19531 -0.87109,-0.34375 -1.2969,-0.4375 -0.41797,-0.10156 -0.83984,-0.15625 -1.2656,-0.15625 -1.2617,0 -2.2305,0.40625 -2.9062,1.2188 -0.67969,0.80469 -1.0156,1.9531 -1.0156,3.4531 v 7.0625 H 2.3591 v -15.312 h 4.8906 v 2.5156 c 0.625,-1 1.3438,-1.7266 2.1562,-2.1875 0.82031,-0.46875 1.8008,-0.70312 2.9375,-0.70312 0.16406,0 0.34375,0.01172 0.53125,0.03125 0.19531,0.01172 0.47656,0.03906 0.84375,0.07813 z"
         id="path2438" />
    </symbol>
    <symbol
       id="b"
       overflow="visible">
      <path
         d="m 17.641,-7.7031 v 1.4062 H 6.188 c 0.125,1.1484 0.53906,2.0078 1.25,2.5781 0.70703,0.57422 1.7031,0.85938 2.9844,0.85938 1.0312,0 2.082,-0.14844 3.1562,-0.45312 1.082,-0.3125 2.1914,-0.77344 3.3281,-1.3906 v 3.7656 c -1.1562,0.4375 -2.3125,0.76562 -3.4688,0.98438 -1.1562,0.22656 -2.3125,0.34375 -3.4688,0.34375 -2.7734,0 -4.9297,-0.70312 -6.4688,-2.1094 -1.5312,-1.4062 -2.2969,-3.3789 -2.2969,-5.9219 0,-2.5 0.75391,-4.4609 2.2656,-5.8906 1.5078,-1.4375 3.582,-2.1562 6.2188,-2.1562 2.4062,0 4.332,0.73047 5.7812,2.1875 1.4453,1.4492 2.1719,3.3828 2.1719,5.7969 z m -5.0312,-1.625 c 0,-0.92578 -0.27344,-1.6719 -0.8125,-2.2344 -0.54297,-0.57031 -1.25,-0.85938 -2.125,-0.85938 -0.94922,0 -1.7188,0.26562 -2.3125,0.79688 -0.5937,0.53126 -0.96484,1.2969 -1.1094,2.2969 z"
         id="path2441" />
    </symbol>
    <symbol
       id="a"
       overflow="visible">
      <path
         d="m 9.2188,-6.8906 c -1.0234,0 -1.793,0.17188 -2.3125,0.51562 -0.51172,0.34375 -0.76562,0.85547 -0.76562,1.5312 0,0.625 0.20703,1.1172 0.625,1.4688 0.41406,0.34375 0.98828,0.51562 1.7188,0.51562 0.92578,0 1.7031,-0.32812 2.3281,-0.98438 0.63281,-0.66406 0.95312,-1.4922 0.95312,-2.4844 v -0.5625 z m 7.4688,-1.8438 V 0 h -4.9219 v -2.2656 c -0.65625,0.92969 -1.3984,1.6055 -2.2188,2.0312 -0.82422,0.41406 -1.8242,0.625 -3,0.625 -1.5859,0 -2.8711,-0.45703 -3.8594,-1.375 -0.99219,-0.92578 -1.4844,-2.1289 -1.4844,-3.6094 0,-1.7891 0.61328,-3.1016 1.8438,-3.9375 1.2383,-0.84375 3.1797,-1.2656 5.8281,-1.2656 h 2.8906 v -0.39062 c 0,-0.76953 -0.30859,-1.332 -0.92188,-1.6875 -0.61719,-0.36328 -1.5703,-0.54688 -2.8594,-0.54688 -1.0547,0 -2.0312,0.10547 -2.9375,0.3125 -0.89844,0.21094 -1.7305,0.52344 -2.5,0.9375 v -3.7344 c 1.0391,-0.25 2.0859,-0.44141 3.1406,-0.57812 1.0625,-0.13281 2.125,-0.20312 3.1875,-0.20312 2.7578,0 4.75,0.54688 5.9688,1.6406 1.2266,1.0859 1.8438,2.8555 1.8438,5.3125 z"
         id="path2444" />
    </symbol>
    <symbol
       id="d"
       overflow="visible">
      <path
         d="m 7.7031,-19.656 v 4.3438 H 12.75 v 3.5 H 7.7031 v 6.5 c 0,0.71094 0.14062,1.1875 0.42188,1.4375 0.28126,0.25 0.83594,0.375 1.6719,0.375 h 2.5156 v 3.5 h -4.1875 c -1.9375,0 -3.3125,-0.39844 -4.125,-1.2031 -0.80469,-0.8125 -1.2031,-2.1797 -1.2031,-4.1094 v -6.5 h -2.4219 v -3.5 h 2.4219 v -4.3438 z"
         id="path2447" />
    </symbol>
    <symbol
       id="l"
       overflow="visible">
      <path
         d="m 12.766,-13.078 v -8.2031 h 4.9219 V -10e-5 H 12.766 v -2.2188 c -0.66797,0.90625 -1.4062,1.5703 -2.2188,1.9844 -0.8126,0.4141 -1.7578,0.625 -2.8281,0.625 -1.8867,0 -3.4336,-0.75 -4.6406,-2.25 -1.2109,-1.5 -1.8125,-3.4258 -1.8125,-5.7812 0,-2.3633 0.60156,-4.2969 1.8125,-5.7969 1.207,-1.5 2.7539,-2.25 4.6406,-2.25 1.0625,0 2,0.21484 2.8125,0.64062 0.82031,0.42969 1.5664,1.0859 2.2344,1.9688 z m -3.2188,9.9219 c 1.0391,0 1.8359,-0.37891 2.3906,-1.1406 0.55078,-0.76953 0.82812,-1.8828 0.82812,-3.3438 0,-1.457 -0.27734,-2.5664 -0.82812,-3.3281 -0.55469,-0.76953 -1.3516,-1.1562 -2.3906,-1.1562 -1.043,0 -1.8398,0.38672 -2.3906,1.1562 -0.55469,0.76172 -0.82812,1.8711 -0.82812,3.3281 0,1.4609 0.27344,2.5742 0.82812,3.3438 0.55078,0.76172 1.3477,1.1406 2.3906,1.1406 z"
         id="path2450" />
    </symbol>
    <symbol
       id="k"
       overflow="visible">
      <path
         d="m 10.5,-3.1562 c 1.0508,0 1.8516,-0.37891 2.4062,-1.1406 0.55078,-0.76953 0.82812,-1.8828 0.82812,-3.3438 0,-1.457 -0.27734,-2.5664 -0.82812,-3.3281 -0.55469,-0.76953 -1.3555,-1.1562 -2.4062,-1.1562 -1.0547,0 -1.8594,0.38672 -2.4219,1.1562 -0.55469,0.77344 -0.82812,1.8828 -0.82812,3.3281 0,1.4492 0.27344,2.5586 0.82812,3.3281 0.5625,0.77344 1.3672,1.1562 2.4219,1.1562 z m -3.25,-9.9219 c 0.67578,-0.88281 1.4219,-1.5391 2.2344,-1.9688 0.82031,-0.42578 1.7656,-0.64062 2.8281,-0.64062 1.8945,0 3.4453,0.75 4.6562,2.25 1.207,1.5 1.8125,3.4336 1.8125,5.7969 0,2.3555 -0.60547,4.2812 -1.8125,5.7812 -1.2109,1.5 -2.7617,2.25 -4.6562,2.25 -1.0625,0 -2.0078,-0.21094 -2.8281,-0.625 C 8.6719,-0.6602 7.9258,-1.32032 7.25,-2.21882 V -2e-5 H 2.3594 v -21.281 H 7.25 Z"
         id="path2453" />
    </symbol>
    <symbol
       id="f"
       overflow="visible">
      <path
         d="m 0.34375,-15.312 h 4.8906 l 4.125,10.391 3.5,-10.391 h 4.8906 l -6.4375,16.766 c -0.64844,1.6953 -1.4023,2.8828 -2.2656,3.5625 -0.86719,0.6875 -2,1.0312 -3.4062,1.0312 H 2.79685 V 2.8289 h 1.5312 c 0.83203,0 1.4375,-0.13672 1.8125,-0.40625 C 6.52336,2.16093 6.82024,1.69218 7.03117,1.01645 L 7.17179,0.59457 Z"
         id="path2456" />
    </symbol>
    <symbol
       id="j"
       overflow="visible">
      <path
         d="m 2.5781,-20.406 h 6.6875 l 4.6562,10.922 4.6719,-10.922 h 6.6875 V 0 H 20.2968 V -14.938 L 15.5937,-3.922 H 12.2656 L 7.5625,-14.938 V 0 H 2.5781 Z"
         id="path2459" />
    </symbol>
    <symbol
       id="t"
       overflow="visible">
      <path
         d="M 2.3594,-15.312 H 7.25 V 0 H 2.3594 Z m 0,-5.9688 H 7.25 v 4 H 2.3594 Z"
         id="path2462" />
    </symbol>
    <symbol
       id="s"
       overflow="visible">
      <path
         d="m 1.5781,-20.406 h 17.156 v 3.1719 l -10.953,13.25 h 11.266 V 3e-4 H 1.2661 v -3.1875 l 10.938,-13.25 H 1.5791 Z"
         id="path2465" />
    </symbol>
    <symbol
       id="i"
       overflow="visible">
      <path
         d="m 16.547,-12.766 c 0.61328,-0.94531 1.3477,-1.6719 2.2031,-2.1719 0.85156,-0.5 1.7891,-0.75 2.8125,-0.75 1.7578,0 3.0977,0.54688 4.0156,1.6406 0.92578,1.0859 1.3906,2.6562 1.3906,4.7188 V -4e-4 h -4.9219 v -7.9844 -0.35938 c 0.0078,-0.13281 0.01563,-0.32031 0.01563,-0.5625 0,-1.082 -0.16406,-1.8633 -0.48438,-2.3438 -0.3125,-0.48828 -0.82422,-0.73438 -1.5312,-0.73438 -0.92969,0 -1.6484,0.38672 -2.1562,1.1562 -0.51172,0.76172 -0.77344,1.8672 -0.78125,3.3125 v 7.5156 h -4.9219 v -7.9844 c 0,-1.6953 -0.14844,-2.7852 -0.4375,-3.2656 -0.29297,-0.48828 -0.8125,-0.73438 -1.5625,-0.73438 -0.9375,0 -1.6641,0.38672 -2.1719,1.1562 -0.51172,0.76172 -0.76562,1.8594 -0.76562,3.2969 v 7.5312 h -4.9219 v -15.312 h 4.9219 v 2.2344 c 0.60156,-0.86328 1.2891,-1.5156 2.0625,-1.9531 0.78125,-0.4375 1.6406,-0.65625 2.5781,-0.65625 1.0625,0 2,0.25781 2.8125,0.76562 0.8125,0.51172 1.4258,1.2305 1.8438,2.1562 z"
         id="path2468" />
    </symbol>
    <symbol
       id="h"
       overflow="visible">
      <path
         d="m 14.719,-14.828 v 3.9844 c -0.65625,-0.45703 -1.3242,-0.79688 -2,-1.0156 -0.66797,-0.21875 -1.3594,-0.32812 -2.0781,-0.32812 -1.3672,0 -2.4336,0.40234 -3.2031,1.2031 -0.76172,0.79297 -1.1406,1.9062 -1.1406,3.3438 0,1.4297 0.37891,2.543 1.1406,3.3438 0.76953,0.79297 1.8359,1.1875 3.2031,1.1875 0.75781,0 1.4844,-0.10938 2.1719,-0.32812 0.6875,-0.22656 1.3203,-0.56641 1.9062,-1.0156 v 4 c -0.76172,0.28125 -1.5391,0.48828 -2.3281,0.625 -0.78125,0.14453 -1.5742,0.21875 -2.375,0.21875 -2.7617,0 -4.9219,-0.70703 -6.4844,-2.125 -1.5547,-1.4141 -2.3281,-3.3828 -2.3281,-5.9062 0,-2.5312 0.77344,-4.5039 2.3281,-5.9219 1.5625,-1.4141 3.7227,-2.125 6.4844,-2.125 0.80078,0 1.5938,0.07422 2.375,0.21875 0.78125,0.13672 1.5547,0.35156 2.3281,0.64062 z"
         id="path2471" />
    </symbol>
    <symbol
       id="g"
       overflow="visible">
      <path
         d="M 17.75,-9.3281 V 0 h -4.9219 v -7.1094 c 0,-1.3438 -0.03125,-2.2656 -0.09375,-2.7656 -0.0625,-0.5 -0.16797,-0.86719 -0.3125,-1.1094 -0.1875,-0.3125 -0.44922,-0.55469 -0.78125,-0.73438 -0.32422,-0.17578 -0.69531,-0.26562 -1.1094,-0.26562 -1.0234,0 -1.8242,0.39844 -2.4062,1.1875 -0.58594,0.78125 -0.875,1.8711 -0.875,3.2656 V -1e-4 H 2.3594 v -21.281 H 7.25 v 8.2031 c 0.73828,-0.88281 1.5195,-1.5391 2.3438,-1.9688 0.83203,-0.42578 1.75,-0.64062 2.75,-0.64062 1.7695,0 3.1133,0.54688 4.0312,1.6406 0.91406,1.0859 1.375,2.6562 1.375,4.7188 z"
         id="path2474" />
    </symbol>
    <symbol
       id="r"
       overflow="visible">
      <path
         d="m 12.422,-21.281 v 3.2188 H 9.7189 c -0.6875,0 -1.1719,0.125 -1.4531,0.375 -0.27344,0.25 -0.40625,0.6875 -0.40625,1.3125 v 1.0625 h 4.1875 v 3.5 H 7.85955 V -2e-4 h -4.8906 v -11.812 h -2.4375 v -3.5 h 2.4375 v -1.0625 c 0,-1.6641 0.46094,-2.8984 1.3906,-3.7031 0.92578,-0.80078 2.3672,-1.2031 4.3281,-1.2031 z"
         id="path2477" />
    </symbol>
    <symbol
       id="e"
       overflow="visible">
      <path
         d="m 9.6406,-12.188 c -1.0859,0 -1.9141,0.39062 -2.4844,1.1719 -0.57422,0.78125 -0.85938,1.9062 -0.85938,3.375 0,1.4688 0.28516,2.5938 0.85938,3.375 0.57031,0.77344 1.3984,1.1562 2.4844,1.1562 1.0625,0 1.875,-0.38281 2.4375,-1.1562 0.57031,-0.78125 0.85938,-1.9062 0.85938,-3.375 0,-1.4688 -0.28906,-2.5938 -0.85938,-3.375 -0.5625,-0.78125 -1.375,-1.1719 -2.4375,-1.1719 z m 0,-3.5 c 2.6328,0 4.6914,0.71484 6.1719,2.1406 1.4766,1.418 2.2188,3.3867 2.2188,5.9062 0,2.5117 -0.74219,4.4805 -2.2188,5.9062 C 14.332,-0.317 12.2734,0.39 9.6406,0.39 6.9922,0.39 4.9258,-0.31703 3.4375,-1.735 1.9453,-3.1608 1.2031,-5.1295 1.2031,-7.6412 c 0,-2.5195 0.74219,-4.4883 2.2344,-5.9062 1.4883,-1.4258 3.5547,-2.1406 6.2031,-2.1406 z"
         id="path2480" />
    </symbol>
    <symbol
       id="q"
       overflow="visible">
      <path
         d="m 2.5781,-20.406 h 5.875 l 7.4219,14 v -14 h 4.9844 V 0 h -5.875 L 7.5625,-14 V 0 H 2.5781 Z"
         id="path2483" />
    </symbol>
    <symbol
       id="p"
       overflow="visible">
      <path
         d="m 2.1875,-5.9688 v -9.3438 h 4.9219 v 1.5312 c 0,0.83594 -0.00781,1.875 -0.015625,3.125 -0.011719,1.25 -0.015625,2.0859 -0.015625,2.5 0,1.2422 0.03125,2.1328 0.09375,2.6719 0.070313,0.54297 0.17969,0.93359 0.32812,1.1719 0.20703,0.32422 0.47266,0.57422 0.79688,0.75 0.32031,0.16797 0.69141,0.25 1.1094,0.25 1.0195,0 1.8203,-0.39062 2.4062,-1.1719 0.58203,-0.78125 0.875,-1.8672 0.875,-3.2656 v -7.5625 h 4.8906 V -6e-4 H 12.6875 V -2.2194 C 11.94531,-1.32096 11.1641,-0.6608 10.3437,-0.235 9.51948,0.17906 8.6093,0.39 7.6093,0.39 5.8476,0.39 4.5038,-0.14906 3.5781,-1.235 2.64841,-2.317 2.1875,-3.8952 2.1875,-5.9694 Z"
         id="path2486" />
    </symbol>
    <symbol
       id="o"
       overflow="visible">
      <path
         d="M 17.75,-9.3281 V 0 h -4.9219 v -7.1406 c 0,-1.3203 -0.03125,-2.2344 -0.09375,-2.7344 -0.0625,-0.5 -0.16797,-0.86719 -0.3125,-1.1094 -0.1875,-0.3125 -0.44922,-0.55469 -0.78125,-0.73438 -0.32422,-0.17578 -0.69531,-0.26562 -1.1094,-0.26562 -1.0234,0 -1.8242,0.39844 -2.4062,1.1875 -0.58594,0.78125 -0.875,1.8711 -0.875,3.2656 V -1e-4 H 2.3594 v -15.312 H 7.25 v 2.2344 c 0.73828,-0.88281 1.5195,-1.5391 2.3438,-1.9688 0.83203,-0.42578 1.75,-0.64062 2.75,-0.64062 1.7695,0 3.1133,0.54688 4.0312,1.6406 0.91406,1.0859 1.375,2.6562 1.375,4.7188 z"
         id="path2489" />
    </symbol>
    <symbol
       id="n"
       overflow="visible">
      <path
         d="m 2.5781,-20.406 h 8.7344 c 2.5938,0 4.582,0.57812 5.9688,1.7344 1.3945,1.1484 2.0938,2.7891 2.0938,4.9219 0,2.1367 -0.69922,3.7812 -2.0938,4.9375 -1.3867,1.1562 -3.375,1.7344 -5.9688,1.7344 H 7.8281 V 3e-4 h -5.25 z m 5.25,3.8125 v 5.7031 H 10.75 c 1.0195,0 1.8047,-0.25 2.3594,-0.75 0.5625,-0.5 0.84375,-1.2031 0.84375,-2.1094 0,-0.91406 -0.28125,-1.6172 -0.84375,-2.1094 -0.55469,-0.48828 -1.3398,-0.73438 -2.3594,-0.73438 z"
         id="path2492" />
    </symbol>
    <symbol
       id="m"
       overflow="visible">
      <path
         d="M 2.3594,-15.312 H 7.25 v 15.031 c 0,2.0508 -0.49609,3.6172 -1.4844,4.7031 -0.98047,1.082 -2.4062,1.625 -4.2812,1.625 H -0.9375 V 2.8283 h 0.85938 c 0.92578,0 1.5625,-0.21094 1.9062,-0.625 0.35156,-0.41797 0.53125,-1.2461 0.53125,-2.4844 z m 0,-5.9688 H 7.25 v 4 H 2.3594 Z"
         id="path2495" />
    </symbol>
  </defs>
  <g
     id="g2808"
     transform="translate(-83.052046,-71.734039)">
    <path
       d="m 420.04,453.55 c 4.2539,3.3398 7.6562,6.3516 11.391,8.8789 9.6055,6.5 10.75,14.352 -0.99219,21.023 l -0.004,-0.004 c -6.4688,3.875 -14.066,5.4336 -21.535,4.418 -15.93,-2.1875 -31.484,-6.5273 -46.242,-12.902 -9.7734,-3.3438 -18.688,-8.8086 -26.102,-16 -1.1992,-1.5625 -3.332,-2.0664 -5.1016,-1.207 -14.445,4.5859 -29.648,6.3203 -44.758,5.1133 -14.926,-0.57422 -29.859,-1.0352 -44.793,-1.3828 -13.957,-0.59766 -27.863,-2.1094 -41.621,-4.5273 -16.129,-3.0703 -32,-7.3516 -47.48,-12.812 -2.2852,-0.97266 -4.5195,-2.0625 -6.6914,-3.2617 -17.559,-7.3086 -32.801,-19.242 -44.109,-34.531 -7.191396,-9.457 -12.292996,-20.336 -14.964996,-31.91 -2.3242,-9.4727 -3.6562,-19.156 -3.9844,-28.902 -0.02344,-9.7188 1.0781,-19.449 1.9062,-29.156 l 0.0039,-0.004 c 1.7969,-16.961 6.1719,-33.547 12.973,-49.188 3.535196,-7.418 7.648396,-14.547 12.296996,-21.32 3.4844,-5.7188 7.1914,-11.305 10.852,-16.914 l -0.004,-0.004 c 7.4531,-11.387 16.699,-21.496 27.379,-29.93 6.4414,-5.125 12.5,-10.738 19.02,-15.754 19.5,-15.039 42.492,-24.895 66.828,-28.645 1.4922,-0.23828 2.9648,-0.60938 5.2031,-1.0781 0.56641,-6.207 1.1953,-12.426 1.6641,-18.652 0.14062,-1.8867 -0.24219,-3.8047 -0.22656,-5.707 h 0.004 c -0.35547,-7.7305 -3.5234,-15.066 -8.9102,-20.621 -0.50391,-0.56641 -1.1562,-0.97266 -1.8867,-1.1758 -4.8086,-1.0156 -9.8242,-0.19922 -14.059,2.2969 -4.2305,2.4922 -7.3789,6.4844 -8.8203,11.184 -1.7383,6.5938 3.2539,16.191 11.508,15.699 4.0547,-0.24219 8.9961,-6.6719 7.6406,-10.328 h 0.004 c -0.46875,-1.25 -1.5391,-2.1797 -2.8398,-2.4688 -1.3047,-0.28906 -2.668,0.10156 -3.6172,1.0391 -1.0625,1.0586 -2.0781,2.1602 -3.1836,3.168 -0.20312,0.1875 -0.72266,0.0273 -1.0938,0.0273 -0.76953,-4.9922 1.2383,-8.1758 5.4141,-8.625 2.1875,-0.25781 4.3828,0.375 6.1016,1.75 1.7188,1.3789 2.8125,3.3867 3.0391,5.5742 -0.25781,5.2617 -2.9844,10.09 -7.3594,13.023 -4.5508,1.7031 -9.6562,0.97656 -13.551,-1.9336 -4.1758,-3.5391 -6.5273,-8.7773 -6.3984,-14.25 0.12891,-5.4727 2.7266,-10.594 7.0625,-13.934 3.3438,-3.5156 8.1172,-5.3047 12.949,-4.8477 0.9375,0.23828 1.9219,0.21484 2.8477,-0.0742 5.1719,-2.207 8.2109,0.76563 11.25,4.25 6.4727,8.2305 9.2148,18.793 7.5586,29.133 -0.33203,4.7422 -0.60938,9.48439 -0.94141,14.727 l 6.2383,-0.5625 c 0.69141,-3.6328 1.4883,-6.9648 1.9414,-10.344 v 0.004 c 1.4258,-11.465 5.6445,-22.402 12.285,-31.855 6.207,-9.6367 15.973,-16.425999 27.164,-18.897999 4.207,-0.53516 8.4727,0.34766 12.121,2.5156 3.6445,2.1719 6.4609,5.4961 7.9961,9.449199 1.6562,3.5977 2.0742,7.6406 1.1875,11.504 -0.88672,3.8594 -3.0273,7.3164 -6.0898,9.8281 -2.043,1.9727 -4.8359,2.9766 -7.668,2.7578 -2.832,-0.21484 -5.4336,-1.6367 -7.1523,-3.8984 -4.4102,-4.1797 -4.7227,-11.102 -0.70703,-15.66 3.8828,-3.0156 9.4336,-2.5312 12.738,1.1094 2.1602,3.3086 0.89453,6.1172 -4.0039,8.875 -1.6953,-2.418 -1.6953,-2.418 0.0859,-6.1797 -1.5234,-1.7891 -3.2617,-2.7969 -5.3672,-0.96484 v 0.004 c -1.9375,1.3828 -2.7852,3.8438 -2.1055,6.125 0.83594,2.8555 2.2031,4.1914 7.2305,6.7344 v 0.004 c 3.2656,-1.3672 5.9375,-3.8477 7.543,-7.0039 1.6016,-3.1562 2.0273,-6.7773 1.207,-10.219 -0.82422,-3.4453 -2.8438,-6.480497 -5.6992,-8.570297 -4.2656,-3.5234 -10.23,-4.1328 -15.117,-1.543 -9.6484,4.371097 -17.605,11.769997 -22.668,21.073997 -4.6875,9.418 -8.1328,19.402 -10.242,29.711 -0.1875,0.9375 -0.27734,1.8906 -0.26953,2.8477 0.0586,0.77344 0.17188,1.543 0.33984,2.3008 1.4141,0 2.8828,0.0937 4.3359,-0.0156 17.754,-1.0664 35.566,-0.46875 53.207,1.7773 7.5547,1.0977 14.922,3.2188 21.906,6.3047 12.359,5.1484 24.059,11.75 34.859,19.66 6.4062,4.8398 12.414,10.188 17.965,15.984 7.5664,7.6055 14.137,16.133 19.559,25.387 1.5625,2.6211 2.875,5.3906 4.4102,8.0273 5.1875,8.9102 10.059,18.035 15.73,26.629 7.6602,11.945 12.664,25.395 14.676,39.441 2.6836,16.613 5.0039,33.285 6.957,50.012 0.85547,8.375 1.2148,16.793 1.0781,25.211 0.10156,10.363 2.375,20.594 6.6641,30.031 1.8555,4.4609 4.875,8.3398 8.7461,11.234 3.8672,2.8945 8.4414,4.6953 13.246,5.2148 7.2773,1.8125 14.934,1.3789 21.961,-1.2383 6.9375,-3.1914 13.617,-6.9102 19.984,-11.121 2.4609,-1.3359 4.5273,-3.293 5.9922,-5.6797 1.4648,-2.3867 2.2773,-5.1172 2.3516,-7.918 0.12109,-1.918 0.63281,-3.793 1.5039,-5.5078 2.332,-4.6602 0.62109,-10.332 -3.9062,-12.922 -4.0195,-2.9102 -7.7461,-6.2148 -11.117,-9.8555 -5.043,-5.7031 -9.6992,-11.777 -14.172,-17.945 -3.1328,-4.3164 -5.707,-9.0391 -8.4883,-13.605 v -0.004 c -1.4961,-2.2227 -2.8242,-4.5586 -3.9727,-6.9844 -3.9062,-9.3477 -7.8633,-18.684 -11.355,-28.188 -4.207,-10.957 -5.625,-22.793 -4.125,-34.438 0.98438,-7.1836 2.1836,-14.34 3.2109,-21.52 1.3672,-9.9336 5.8945,-19.164 12.91,-26.324 3.3672,-3.3984 6.3711,-7.1367 8.957,-11.16 2.1602,-2.9727 5.5742,-4.7812 9.2461,-4.9023 3.6719,-0.11719 7.1953,1.4688 9.543,4.2969 4.5938,5.5977 9.2031,11.199 13.445,17.059 7.957,10.988 15.586,22.211 23.48,33.246 7.7852,11.41 12.898,24.434 14.957,38.094 0.30469,1.6875 0.66016,3.3672 1.2305,6.2656 3.3594,-4.0625 6.1445,-7.4648 8.9688,-10.84 5.6367,-6.7383 11.262,-13.488 16.965,-20.172 1.8594,-2.1797 4,-4.1211 5.9297,-6.25 h -0.004 c 2.375,-2.918 6.2539,-4.1523 9.8789,-3.1445 1.1992,4.2773 2.6914,8.7734 3.707,13.375 2.7148,11.594 2.4727,23.684 -0.69531,35.164 -3.8398,15.242 -10.344,29.688 -19.215,42.668 -5.7148,7.4297 -11.906,14.473 -18.543,21.09 -4.457,4.7305 -9.957,8.5469 -14.004,13.566 -3.3906,4.8359 -6.3555,9.957 -8.8711,15.297 -3.5977,7.3906 -7.5898,14.578 -11.961,21.535 -9.168,12.715 -22.527,21.781 -37.727,25.602 -11.098,3.0195 -22.547,4.5781 -34.047,4.6328 -8.0312,0.0508 -16.043,0.73828 -23.965,2.0625 -6.3867,1.1055 -12.945,1.2109 -19.426,1.7812 -1.8711,0.16406 -3.7422,0.38672 -6.582,0.6875 z M 130.11,417.835 c 15.293,-10.504 31.223,-20.051 47.695,-28.59 14.109,-7.7344 29.254,-13.41 44.973,-16.848 12.715,-3.0664 26,-2.8398 38.602,0.66016 10.699,3.8008 20.242,10.285 27.711,18.84 5.4961,6.3633 10.562,13.09 15.164,20.129 2.082,2.7344 3.9297,5.6328 5.5312,8.6719 3.9688,8.9062 9.6836,16.922 16.809,23.574 4.4727,3.875 9.375,7.3203 13.48,11.543 v 0.004 c 5.0508,5.2539 11.168,9.3711 17.938,12.07 4.0781,1.6367 7.9648,3.75 12.027,5.4336 9.1094,3.4414 18.477,6.1602 28.016,8.1211 2.2148,-0.9375 2.0234,-4.1914 5.0586,-3.0898 l 0.004,4.5781 c 4.4609,0.51172 8.6992,2.0586 11.895,-1.5703 1.6133,0.92969 2.9883,2.3984 3.9766,2.1758 v -0.004 c 5.5273,-0.83594 10.602,-3.5312 14.391,-7.6445 2.1523,-2.6055 2.3516,-4.6953 -0.40625,-6.8672 -5.1992,-4.0938 -10.719,-7.7773 -16.102,-11.633 l 0.10156,0.082 c -7.4023,-7.0586 -14.82,-14.125 -22.25,-21.203 -1.1562,0.85547 -1.4023,4.4375 -4.5938,1.5742 l 2.3594,-2.9414 -0.004,-0.004 c -2.2227,-5.2266 -4.0703,-10.605 -5.5312,-16.098 -1.4922,-7.7148 3.3984,-11.848 10.859,-9.7266 3.5352,0.79688 6.9336,2.1094 10.086,3.8945 11.695,7.5938 23.293,15.367 34.637,23.473 h 0.004 c 10.898,8.8477 25.5,11.66 38.906,7.4961 -0.58984,-1.8047 -0.27734,-3.7852 0.84375,-5.3203 1.1172,-1.5312 2.9102,-2.4336 4.8086,-2.418 1.0938,-0.16406 3.0117,-0.25781 3.2383,0.23047 0.81641,2.0938 1.4609,4.25 1.9258,6.4492 2.9961,-0.42969 5.9492,-1.1094 8.8281,-2.0391 1.4414,-0.57812 2.082,-3.3516 3.4922,-3.7773 1.3906,-0.41797 3.2695,1.1289 4.9883,1.3164 v 0.004 c 1.1523,-0.0664 2.2617,-0.48047 3.1797,-1.1875 5.1836,-3.2305 10.547,-6.2383 15.402,-9.9102 v 0.004 c 5.332,-3.8008 9.7344,-8.7617 12.879,-14.504 4.7148,-9.1758 9.1367,-18.508 13.992,-27.605 1.6992,-2.9648 3.8164,-5.668 6.293,-8.0195 6.0898,-6.082 12.41,-11.934 18.648,-17.867 11.844,-12.074 20.93,-26.57 26.633,-42.496 3.1875,-9.418 5.7344,-19.039 7.625,-28.801 0.26953,-1.1133 0.30859,-2.2734 0.10938,-3.4023 -1.1875,-6.7578 -2.3867,-13.516 -3.7734,-20.238 -0.65234,-2.0352 -1.4883,-4.0078 -2.4922,-5.8945 -2.6133,2.5547 -4.793,4.3828 -6.6133,6.5156 -7.4414,8.7266 -14.762,17.559 -22.156,26.324 -4.6992,5.0742 -8.0664,11.23 -9.8125,17.922 -0.37891,1.6758 -0.97266,3.293 -1.7656,4.8164 -1.7344,3.3477 -1.8555,3.3242 -6.3438,1.707 h 0.004 c 0.3125,-1.6758 0.74609,-3.3242 1.3008,-4.9375 3.1445,-9.3398 3.0273,-19.473 -0.33984,-28.738 -3.8984,-15.098 -12.914,-27.492 -21.605,-40.027 -5.9766,-8.6211 -11.781,-17.383 -18.184,-25.68 h -0.004 c -3.6328,-4.6602 -7.8203,-8.8555 -12.473,-12.496 -3.6992,-2.9141 -6.8867,-1.8008 -9.9141,1.9336 -3.4922,4.2969 -6.8164,8.75 -10.559,12.816 h -0.004 c -3.3828,3.6523 -5.9336,8 -7.4688,12.738 -4.043,12.176 -6.1328,24.918 -6.1836,37.746 -0.29687,10.723 2.0742,21.352 6.8906,30.934 1.3555,-2.4062 2.5977,-5.1289 5.5859,-3.9297 0.91406,0.36719 1.6016,2.4531 1.5938,3.7461 -0.0273,3.5977 -2.8438,3.8125 -6.5625,3.4023 3.918,8.5938 7.25,16.473 11.098,24.094 1.8672,3.6992 4.9961,6.7461 7.043,10.375 l 0.004,0.004 c 6.5078,11.727 15.363,21.984 26.016,30.133 2.8477,2.1719 5.1289,4.3672 9.332,2.5156 -0.41406,2.082 -1.7578,3.6562 -1.7188,5.1953 -0.34375,5.1211 -1.1523,10.199 -2.418,15.172 -0.52734,4.0352 -2.1602,7.8477 -4.7188,11.016 0.50781,0.64453 1.2031,1.1562 1.3633,1.8047 0.29688,1.207 0.82812,2.9492 0.26172,3.6133 h -0.004 c -1.0039,0.80859 -2.3555,1.0312 -3.5664,0.58984 -2.4727,-1.6367 -3.8711,0.0234 -5.5781,1.1562 h 0.004 c -7.9727,5.6641 -16.961,9.7461 -26.477,12.023 -4.0664,0.31641 -7.7617,2.4688 -10.047,5.8477 0.0195,-6.2188 -3.832,-5.0391 -6.5742,-5.9336 -4.625,-1.0039 -9.0977,-2.6133 -13.309,-4.7812 -6.2695,-3.4258 -10.984,-9.125 -13.172,-15.926 -2.2461,-8.875 -4.582,-17.727 -6.9453,-26.84 -4.668,-1.6289 -6.1641,-5.0391 -2.5234,-7.2148 2.8477,-1.6523 4.3125,-4.9414 3.6328,-8.1641 -0.25,-5.3125 -0.63281,-10.621 -0.96094,-15.988 -1.9141,0.64063 -3.9141,0.99609 -5.9336,1.0469 -1.1328,-0.16016 -2.3984,-1.6836 -2.8906,-2.8867 -0.19141,-0.46875 1.4258,-2.1406 2.4922,-2.5508 1.6094,-0.42188 3.2656,-0.64844 4.9297,-0.67578 0,-1.6992 0.043,-3.0352 -0.008,-4.3672 h 0.004 c -0.67969,-11.059 -2.1836,-22.047 -4.5,-32.879 -0.84766,-6.2305 -2.2656,-12.367 -4.2383,-18.332 -3.0586,-8.6406 -7.0117,-16.938 -11.797,-24.754 -5.5586,-8.4219 -10.496,-17.25 -15.844,-25.82 -4.6406,-7.4375 -9.3281,-14.852 -14.289,-22.07 -1.8086,-2.6328 -4.6758,-4.5117 -6.7031,-7.0195 v -0.004 c -6.1797,-7.3164 -13.363,-13.727 -21.336,-19.035 -6.582,-4.5469 -13.418,-8.7109 -20.48,-12.469 -5.5312,-2.8945 -11.246,-5.418 -17.105,-7.5586 -4.8867,-2.1445 -10.016,-3.668 -15.277,-4.5391 -11.953,-1.3125 -23.992,-1.9883 -36.012,-2.457 -6.9766,-0.26953 -13.988,0.36719 -21.082,0.59766 v -0.004 c -1.043,5.1094 -0.75781,10.402 0.82812,15.367 0.71094,1.4062 0.79688,3.043 0.23438,4.5117 -0.5625,1.4687 -1.7148,2.6328 -3.1797,3.2031 -2.9453,1.3438 -6.0625,2.2695 -9.2617,2.7461 -3.1836,0.41406 -6.1562,-1.6562 -6.875,-4.7852 -1.332,-3.3672 0.20703,-7.1914 3.5039,-8.6953 3.0781,-1.3359 6.332,-2.2539 9.6484,-3.4062 v -7.918 c -5.7578,0.004 -5.8516,-0.0195 -7.125,5.1875 -0.50391,2.0508 -1.1211,3.5312 -3.9375,3.3594 l -0.004,-6.8398 c -2.5078,0.0625 -5.0117,0.32422 -7.4805,0.78125 -7.9336,2.1094 -15.902,4.1641 -23.652,6.832 -5.9297,2.1328 -11.703,4.6641 -17.281,7.582 -12.367,6.8945 -23.902,15.184 -34.383,24.703 -6.9883,5.3359 -13.551,11.207 -19.625,17.562 -8.543,10.066 -16.137,20.898 -22.695,32.359 -4.0352,6.043 -7.6055,12.387 -10.676,18.973 -4.253897,10.625 -7.492197,21.668 -10.894997,32.613 h -0.0039 c -1.2188,2.7734 -0.9375,5.9766 0.74609,8.4922 1.0664,-0.22266 2.1016,-0.57812 3.0781,-1.0547 4.988307,-3.2773 8.976607,-7.8672 11.531007,-13.262 0.48438,-1.2461 1.0508,-2.4609 1.6875,-3.6367 0.31641,-0.48047 1.5352,-0.9375 1.8867,-0.70703 0.71094,0.42188 1.1953,1.1367 1.332,1.9492 0.13672,0.81641 -0.0937,1.6484 -0.625,2.2773 -2.7812,5.4648 -6.4141,10.449 -10.758,14.773 -2.554707,3.2891 -6.699207,4.918 -10.809007,4.2539 -5.1953,25.543 -2.668,52.051 7.2539,76.148 1.043,-0.84766 2.1562,-1.6055 3.3281,-2.2656 1.257807,-0.55078 3.015607,-1.4805 3.886707,-1.0117 v 0.004 c 1.125,0.94141 1.8281,2.2891 1.957,3.75 0.50781,3.4375 -1.707,5.5234 -4.918,6.9453 5.8516,9.7656 13.336,18.453 22.125,25.691 l 7.2969,-4.9609 z m 39.855,27.84 c 1.6055,-1.8242 3.3867,-3.4883 5.3203,-4.9688 19.914,-12.961 42.211,-21.828 65.59,-26.086 12.262,-2.1367 24.758,-2.6172 37.152,-1.4336 6.4961,0.75391 13.027,1.1836 20.051,1.8008 -6.2891,-9.8906 -6.293,-9.8711 -16.117,-13.105 h 0.004 c -1.1875,-0.64062 -2.2969,-1.4102 -3.3164,-2.293 l 7.8945,-0.375 c -1.6758,-4.1992 -5.3867,-7.2422 -9.832,-8.0703 -8.6758,-2.4141 -17.707,-3.2734 -26.684,-2.5469 -16.305,0.26562 -32.438,3.3438 -47.695,9.1016 -20.441,7.5391 -39.832,17.676 -57.691,30.16 -1.9141,1.3633 -3.8281,2.7227 -6.6094,4.6992 l 14.742,7.125 c 3.1445,-6.6719 11.148,-12.367 16.641,-11.48 -3.1094,5.6523 -10.609,6.4453 -12.906,12.496 z m 29.648,4.8945 c 1.9961,1.4023 3.125,2.8086 4.4414,3.0156 8.4922,1.3359 17.012,2.5391 25.559,3.4766 v 0.004 c 2.0547,0.0273 4.0898,-0.42188 5.9375,-1.3203 6.3672,-2.5625 12.508,-5.7852 19.008,-7.9102 16.605,-5.3086 34.078,-7.3633 51.465,-6.0508 2.0078,0.004 4.0156,-0.12891 6.0117,-0.39844 l 0.34375,-1.3555 c -1.2891,-1.1016 -2.7422,-1.9961 -4.3047,-2.6523 -4.2578,-1.0234 -8.6211,-1.5977 -12.93,-2.418 -0.90234,-0.24219 -1.7812,-0.55859 -2.6328,-0.94531 l 0.17578,-1.2266 h 14.988 c -3.0586,-2.8945 -3.043,-3.0117 -5.1914,-3.3008 -20.277,-2.7188 -40.457,-5.4609 -61.02,-1.4961 v -0.004 c -17.582,2.5391 -34.699,7.6328 -50.812,15.117 -2.7266,1.6953 -5.3242,3.5938 -7.7695,5.6758 9.375,3.4297 9.375,3.4297 16.73,1.7891 z m 72.668,-65.289 c -5.9492,-4.6484 -12.82,-7.9727 -20.152,-9.7578 -13.91,-1.8398 -28.055,-0.44531 -41.332,4.082 -23.941,8.6523 -46.746,20.168 -67.922,34.293 -5.4219,3.4688 -10.539,7.418 -15.891,11.215 6.0078,5.5664 7.1562,5.6641 13.059,1.5391 2.5078,-1.75 4.9297,-3.6562 7.5781,-5.1641 18.402,-10.477 36.387,-21.734 56.926,-27.949 v 0.004 c 17.812,-5.8789 36.441,-8.9062 55.199,-8.9688 3.7773,0.0703 7.5508,0.41406 12.535,0.70703 z m 28.273,33.957 c -7.0664,-0.91016 -13.887,-1.6641 -20.664,-2.6797 v -0.004 c -18.824,-2.4727 -37.965,-0.62891 -55.969,5.3945 -12.164,3.9805 -23.969,8.9961 -35.281,14.988 -4.7422,2.3984 -9.1953,5.3711 -13.746,8.1367 -0.35156,0.21484 -0.43359,0.87109 -0.74609,1.5547 l 3.8633,1.2969 c 3.5,-2.5898 7.1484,-4.9727 10.926,-7.1367 16,-7.8125 33.07,-13.203 50.656,-15.996 15.164,-2.1523 30.539,-2.4219 45.773,-0.80078 5.6367,0.44922 11.273,0.88672 17.398,1.3672 z m 17.43,27.664 v -0.004 c -1.8398,-0.87109 -3.7695,-1.5352 -5.7539,-1.9883 -3.8008,-0.32812 -7.6445,-0.15625 -11.457,-0.39062 -17.98,-0.875 -35.945,2.0898 -52.691,8.6992 -2.5469,0.67188 -4.8086,2.1367 -6.4688,4.1758 9.7227,-0.0937 19.504,4.6055 28.898,-1.2031 0.34375,-0.16406 0.71875,-0.26953 1.1016,-0.30469 11.258,-2.9414 22.742,-4.9453 34.332,-5.9883 4.2188,0.20312 8.4062,-0.83984 12.039,-3 z m 130.85,-1.0273 c -8.5234,-5.8125 -16.156,-10.652 -23.379,-16.035 -6.9141,-4.3242 -14.547,-7.3828 -22.535,-9.0352 -2.3359,-0.48828 -4.7148,-0.76563 -7.1016,-0.83203 0.42188,4.5352 3.9102,8.1875 8.418,8.8203 12.598,3.1016 24.699,7.9453 35.957,14.387 1.3984,1.0547 2.6953,2.2344 3.875,3.5273 z m -11.867,0.76562 c -3.6992,-6.0391 -24.867,-12.324 -36.895,-15.121 4.7695,9.7539 23.656,17.5 36.898,15.117 z m -113.25,9.0859 c -3.2227,-3.4453 -3.2227,-3.543 -6.8125,-3.4492 h -0.004 c -13.801,0.41016 -27.484,2.6367 -40.703,6.625 13.238,0.97266 26.543,0.64062 39.715,-0.99609 2.6484,-0.55469 5.2539,-1.2812 7.8047,-2.1797 z m 72.957,-39.355 9.082,1.6797 c -5.2266,-4.7188 -5.4297,-4.75 -9.082,-1.6797 z m -147.57,-242.62 0.20703,-1.8359 -4.3242,-0.25781 -0.16016,1.2227 z"
       id="path2500" />
    <path
       d="m 251.91,113.23 c -1.4727,-1.3555 -1.9805,-1.6016 -1.9805,-1.8516 -0.0547,-12.184 1.1406,-24.016 9.2109,-34.031 2.4062,-3.8633 6.8047,-6.0156 11.328,-5.5508 -5.6055,3.0898 -9.9883,8 -12.43,13.918 -3.668,6.7461 -5.4766,14.344 -5.2383,22.02 -0.12109,1.8555 -0.41797,3.6953 -0.89063,5.4961 z"
       id="path2502" />
    <path
       d="m 268.92,82.902 c -1.5938,2.8008 -2.3945,5.9883 -2.3125,9.2109 6.7773,-1.1602 9.457,-6.125 8.2852,-15.34 4.9844,3.8789 5.9609,7.3672 2.6797,11.934 -1.8164,2.4609 -4.0625,4.5781 -6.6289,6.25 -1.668,1.2305 -3.9062,1.3477 -5.6953,0.30078 -1.7852,-1.043 -2.7852,-3.0508 -2.5352,-5.1055 0.29687,-2.4102 1.1016,-4.7305 2.3633,-6.8047 0.35547,-0.69141 1.0312,-1.1641 1.8047,-1.2539 0.77344,-0.08594 1.5391,0.21484 2.0391,0.80859 z"
       id="path2504" />
    <path
       d="m 237.83,103.06 c -1.6758,-1.1445 -3.2422,-2.4414 -4.6836,-3.875 -2.5234,-3.332 -7.0469,-4.418 -10.809,-2.5938 -1.7109,0.61328 -3.5391,0.84375 -5.3516,0.66406 2.2031,-3.6133 6.332,-5.5898 10.527,-5.0312 5.2773,1.0156 9.6172,4.7656 11.391,9.8398 z"
       id="path2506" />
    <path
       d="m 304.42,84.078 c -6.3008,-2.8281 -6.3008,-2.8281 -14.957,-1.4688 0.0234,-1.2539 0.55078,-2.4453 1.4609,-3.3047 0.91016,-0.86328 2.125,-1.3242 3.3789,-1.2812 4.3281,-0.38672 8.4141,2.0547 10.117,6.0547 z"
       id="path2508" />
    <path
       d="m 246.09,87.863 c -0.81641,-4.6406 0.64453,-9.3906 3.9297,-12.77 0.76953,4.6367 -0.68359,9.3672 -3.9297,12.77 z"
       id="path2510" />
    <path
       d="m 171.09,268.18 c 1.5195,0.15234 3.0469,0.26562 4.5586,0.46875 2.7812,0.375 5.7617,0.16406 6.6719,4.0156 v -0.004 c 1.2461,3.6953 0.16406,7.7812 -2.75,10.375 -2.4219,1.8359 -5.125,3.2734 -8,4.2578 -4.9141,1.4922 -9.9453,2.5664 -15.043,3.2188 -4.2383,1.0039 -8.5391,-1.4219 -9.8711,-5.5703 -1.0156,-2.1406 -0.57422,-4.6914 1.1016,-6.3672 2.3555,-2.4375 5.0859,-4.4844 8.0859,-6.0625 4.625,-2.7227 9.875,-4.2148 15.246,-4.332 z m 6.6406,5.4102 v -0.004 c -8.7695,-1.9492 -17.957,0.0469 -25.125,5.4648 -1.2383,1.0664 -1.8633,2.6797 -1.6641,4.3047 0.87109,1.3867 2.3594,2.2656 3.9922,2.3594 6.8789,0.14453 13.688,-1.3516 19.871,-4.3672 3.7227,-1.8828 3.7383,-2.3906 2.9258,-7.7617 z"
       id="path2512" />
    <path
       d="m 131.29,259.42 c 0.28516,-5.9492 3.2539,-11.441 8.0703,-14.941 4.9102,-3.4141 9.3672,-1.3945 10.465,4.582 h 0.004 c 0.65234,4.4453 -0.97656,8.918 -4.3359,11.902 -1.4961,1.4727 -3.2031,2.7148 -5.0586,3.6914 -1.8242,1.4141 -4.3203,1.5859 -6.3242,0.44141 -2.0039,-1.1484 -3.1172,-3.3867 -2.8203,-5.6758 z m 13.398,-11.797 c -3.0859,1.0859 -4.668,2.5312 -4.5352,5.5508 4.1875,-1.5117 4.1875,-1.5117 4.5352,-5.5508 z"
       id="path2514" />
    <path
       d="m 445.22,403.92 c 0.23828,3.7812 -2.4961,7.0938 -6.25,7.582 -1.3516,0.0391 -2.6602,-0.45703 -3.6367,-1.3867 -0.98047,-0.92969 -1.5469,-2.2109 -1.5781,-3.5625 -0.14453,-1.832 0.44922,-3.6484 1.6484,-5.043 1.1992,-1.3945 2.9062,-2.25 4.7422,-2.3789 1.3477,-0.20312 2.7109,0.22656 3.7031,1.1602 0.98828,0.9375 1.4961,2.2734 1.3711,3.6289 z"
       id="path2516" />
    <path
       d="m 523.41,355.96 c 1.4688,-3.2383 5.25,-4.7148 8.5273,-3.3398 1.9258,0.42578 3.2734,2.1641 3.2109,4.1367 0.22266,2.5195 -1.5195,3.7812 -3.3242,4.7812 -0.78125,0.5625 -1.7578,0.78906 -2.707,0.63281 -0.94922,-0.16016 -1.8008,-0.69141 -2.3555,-1.4766 -1.125,-1.4883 -2.1602,-3.043 -3.3516,-4.7344 z"
       id="path2518" />
    <path
       d="m 426.2,291.64 c 1.7539,0.25781 4.1836,-0.0234 4.2578,3.0312 v -0.004 c -0.12891,1.7227 -0.95703,3.3125 -2.2891,4.4102 -1.3359,1.0938 -3.0586,1.5938 -4.7695,1.3828 -2.2578,-0.16406 -4.0977,-1.1367 -4.2695,-3.6641 -0.20703,-3.0898 2.7891,-5.2773 7.0703,-5.1562 z"
       id="path2520" />
    <path
       d="m 434.4,324.41 c -0.0117,3.5078 -1.6758,5.6523 -4.3477,5.6133 -2.6992,-0.0391 -5.4297,-2.1523 -5.3984,-4.1836 0.58203,-3.0977 3.1523,-5.4297 6.293,-5.7031 2.2773,-0.0195 3.4648,1.4492 3.4531,4.2734 z"
       id="path2522" />
    <path
       d="m 125.58,408.01 c 0.043,2.9531 -1.7305,5.2031 -4.0586,5.1484 -2.6836,-0.35938 -4.8125,-2.4297 -5.25,-5.0977 -0.008,-1.332 0.52344,-2.6094 1.4688,-3.5469 0.94922,-0.93359 2.2305,-1.4492 3.5625,-1.4297 2.6602,0.0781 4.2305,1.8906 4.2773,4.9258 z"
       id="path2524" />
    <path
       d="m 414.3,364.45 c 2.5391,-3.6641 4.8242,-5.0859 7.3281,-3.8398 h -0.004 c 1.3672,0.875 2.2969,2.293 2.5547,3.8984 0.11328,1.0742 -0.20703,2.1484 -0.88672,2.9844 -0.68359,0.83984 -1.668,1.3672 -2.7461,1.4766 -3.4141,0.56641 -5.1562,-1.6797 -6.2461,-4.5195 z"
       id="path2526" />
    <path
       d="m 423.38,398.62 c -2.7812,-0.0508 -4.9102,-1.7344 -4.7734,-3.7734 v 0.004 c 0.70313,-2.5859 2.625,-4.6641 5.1484,-5.5625 2.1133,-0.15625 4.1484,2.5117 4.0469,5.3047 0.0898,1.168 -0.36328,2.3086 -1.2305,3.0938 -0.86328,0.78516 -2.0391,1.1328 -3.1914,0.93359 z"
       id="path2528" />
    <path
       d="m 385.32,463.19 c -0.0742,3.1055 -1.3594,4.2461 -4.6367,4.1523 -2.293,-0.0664 -4.1562,-0.80078 -4.375,-3.3906 -0.20703,-2.4648 2.8164,-4.9336 5.8633,-4.9766 2.3828,-0.0352 3.2227,1.0898 3.1484,4.2148 z"
       id="path2530" />
    <path
       d="m 522.94,413.85 c 0.43359,5.8906 -2.2656,8.8398 -6.3828,7.3789 h 0.004 c -1.1602,-0.25 -2.0742,-1.1406 -2.3555,-2.293 -0.27734,-1.1523 0.125,-2.3633 1.043,-3.1172 1.6094,-1.6953 3.5156,-2.2148 7.6914,-1.9688 z"
       id="path2532" />
    <path
       d="m 353.74,452 c -2.5586,-4.7539 -2.3828,-7.1133 0.43359,-8.4336 0.99609,-0.53125 2.168,-0.62891 3.2383,-0.26953 1.0742,0.35938 1.9453,1.1445 2.418,2.1719 0.94922,3.2344 -0.67969,5.0547 -6.0898,6.5312 z"
       id="path2534" />
    <path
       d="m 418.9,279.94 c 0.21484,-2.5547 2.1914,-4.6055 4.7383,-4.9219 1.0508,-0.24609 2.1523,0.008 2.9883,0.69141 0.83594,0.67969 1.3047,1.7109 1.2773,2.7852 0.30859,2.5977 -1.1953,4.2148 -4.0742,4.3867 -2.5547,0.15625 -4.7812,-1.1719 -4.9297,-2.9414 z"
       id="path2536" />
    <path
       d="m 524.39,328.09 c 0.11719,3.8008 -1.7383,5.8711 -4.3555,5.9062 v 0.004 c -2.1641,0.23828 -4.1289,-1.2734 -4.4492,-3.4258 0.53516,-2.6836 2.9102,-4.6016 5.6484,-4.5586 1.3164,0.23047 2.4414,1.5781 3.1562,2.0742 z"
       id="path2538" />
    <path
       d="m 403.63,455.49 c -1.6172,0.32812 -3.2656,0.49609 -4.918,0.50391 -1.1953,-0.11719 -3.1836,-0.75 -3.2969,-1.4141 l -0.004,0.004 c -0.0351,-1.4219 0.37891,-2.8125 1.1836,-3.9844 0.61719,-0.73047 1.4258,-1.2734 2.3359,-1.5586 3.1055,-1.3867 4.5391,-0.51562 4.8906,2.9844 v -0.004 c 0.0156,1.1602 -0.0469,2.3203 -0.19141,3.4688 z"
       id="path2540" />
    <path
       d="m 454.67,429.12 c 0.008,1.3047 -0.51172,2.5586 -1.4453,3.4688 -0.93359,0.91016 -2.1992,1.4062 -3.5039,1.3672 -2.2734,-0.28125 -4.3398,-2.2188 -4.1758,-3.9141 0.66797,-2.4336 2.9531,-4.0625 5.4727,-3.9062 1.918,0.28906 3.8398,0.75781 3.6523,2.9844 z"
       id="path2542" />
    <path
       d="m 142.86,392.95 c 0.0586,3.1992 -1.0117,4.4141 -3.5859,4.4414 -2.6758,0.0312 -4.375,-1.3906 -4.2344,-3.5469 l 0.004,0.004 c 0.34766,-2.3516 2.2617,-4.1602 4.6289,-4.3711 2.5508,-0.0312 3.1211,1.7383 3.1875,3.4727 z"
       id="path2544" />
    <path
       d="m 542.3,376.64 c 2.1562,-0.23438 3.1523,0.88672 3.3281,2.8984 0.20703,2.3828 -1.4766,5.082 -3.0938,4.5 v 0.004 c -2.0273,-0.72656 -3.7852,-2.0508 -5.0469,-3.7969 -0.875,-1.3203 2.0625,-3.4648 4.8125,-3.6055 z"
       id="path2546" />
    <path
       d="m 397.96,309.3 c 0.1875,-2.293 1.4023,-3.5586 3.7188,-3.207 v -0.004 c 0.96875,0.0156 1.8867,0.43359 2.5312,1.1562 0.64453,0.72656 0.95312,1.6875 0.85547,2.6484 -0.0117,2.3555 -1.7734,4.332 -4.1094,4.6172 -2.0859,-0.0586 -3.2852,-2.1484 -2.9961,-5.2109 z"
       id="path2548" />
    <path
       d="m 433.66,361.46 c -2.1992,-0.25781 -2.3633,-2.0234 -2.3594,-3.793 0.008,-2.4375 2.168,-4.9961 4.1445,-4.4688 1.3047,0.55859 2.2852,1.6758 2.668,3.0391 0.0391,2.6133 -1.8672,4.8477 -4.4531,5.2227 z"
       id="path2550" />
    <path
       d="m 509.72,295.99 c 0.77344,0.88281 1.3516,1.918 1.7109,3.0352 0.0547,2.1836 -1.6289,4.0195 -3.8086,4.1523 -0.86719,0.10937 -1.7383,-0.14844 -2.4023,-0.71484 -0.664,-0.5664 -1.0547,-1.3867 -1.0781,-2.2617 -0.26562,-1.7656 2.5508,-4.1875 5.5781,-4.2109 z"
       id="path2552" />
    <path
       d="m 409.12,461.86 c 1.2109,6.2891 0.0547,8.3477 -3.5352,7.6641 -1.0859,-0.19141 -2.0391,-0.83984 -2.6094,-1.7852 -0.22656,-1.0781 0.0937,-2.1953 0.85547,-2.9922 1.6719,-1.125 3.4414,-2.0898 5.2891,-2.8867 z"
       id="path2554" />
    <path
       d="m 495.05,310.86 c 2.0703,1.9141 4.1914,2.9805 4.6797,4.5508 0.63281,2.0352 -1.3789,3.2422 -3.3789,3.6133 -1.0352,0.0781 -2.0508,-0.3125 -2.7695,-1.0625 -0.71875,-0.75391 -1.0625,-1.7852 -0.9375,-2.8164 0.14062,-1.2148 1.2539,-2.3164 2.4062,-4.2852 z"
       id="path2556" />
    <path
       d="m 426.75,343.51 c 0.0781,3.6562 -1.2266,5.4219 -3.2852,5.3789 v 0.004 c -0.85547,0.0703 -1.7031,-0.23828 -2.3164,-0.84375 -0.60938,-0.60156 -0.92969,-1.4453 -0.87109,-2.3047 -0.082,-1.0391 0.29297,-2.0625 1.0234,-2.8125 0.72656,-0.74609 1.7422,-1.1406 2.7852,-1.0859 1.1289,0.16797 2.1133,1.3008 2.6641,1.6641 z"
       id="path2558" />
    <path
       d="m 433.67,416.74 c 1.3555,1.918 2.543,2.9297 2.8164,4.1445 0.12109,0.96484 -0.20703,1.9297 -0.88672,2.6211 -0.67969,0.69531 -1.6406,1.0391 -2.6055,0.93359 -1.8359,-0.18359 -3.7383,-1.1016 -3.2422,-3.0977 0.36719,-1.4688 2.125,-2.5938 3.918,-4.6016 z"
       id="path2560" />
    <path
       d="m 416.49,315.4 c -0.73047,-0.85547 -1.2773,-1.8555 -1.5977,-2.9336 -0.1875,-0.85156 0.0312,-1.7383 0.58594,-2.4102 0.55859,-0.66797 1.3906,-1.043 2.2617,-1.0156 1.3281,0.32812 2.4141,1.2773 2.9219,2.5508 0.54688,1.8047 -1.3984,3.7695 -4.1719,3.8086 z"
       id="path2562" />
    <path
       d="m 408.92,298.79 c -1.3125,-1.4609 -2.5586,-2.2148 -2.7227,-3.1602 -0.42187,-2.4102 1.4375,-3.3438 3.4062,-3.6172 1.9219,-0.26953 3.7344,0.75391 3.2344,2.7344 -0.34375,1.3789 -2.2188,2.375 -3.918,4.043 z"
       id="path2564" />
    <path
       d="m 126.46,398.8 c -0.50781,-0.82422 -1.8125,-1.9766 -1.7734,-3.0781 0.0156,-0.98047 0.48828,-1.8984 1.2734,-2.4844 0.78516,-0.58203 1.8008,-0.76953 2.7422,-0.50391 1.1055,0.41016 1.9297,1.3477 2.1914,2.5 0.15234,2.2109 -1.2891,3.4141 -4.4336,3.5664 z"
       id="path2566" />
    <path
       d="m 440.58,391.74 -5.7773,-1 c 0.24609,-1.2812 0.11328,-2.5859 0.70312,-3.2539 1.3164,-1.4883 3.3984,-2.4688 4.9375,-0.89844 0.77344,0.78125 0.13672,2.9336 0.13672,5.1523 z"
       id="path2568" />
    <path
       d="m 365.51,469.34 c -1.1133,-2.043 -2.043,-3.0352 -2.1484,-4.1055 -0.16406,-1.6758 0.86328,-3.1641 2.668,-2.8828 0.99609,0.15625 2.6758,1.7305 2.5352,2.2656 h 0.004 c -0.78906,1.7109 -1.8164,3.3008 -3.0586,4.7227 z"
       id="path2570" />
    <path
       d="m 417.82,263.43 c -0.21484,1.3711 -0.59766,2.7109 -1.1484,3.9844 -0.27734,0.72266 -0.91016,1.2461 -1.6719,1.3828 -0.76172,0.14062 -1.5391,-0.12891 -2.0508,-0.71094 -0.625,-0.44531 -1,-1.1641 -1.0117,-1.9375 -0.008,-0.76953 0.35156,-1.4961 0.96875,-1.957 1.1523,-0.76562 2.3945,-1.3789 3.6992,-1.8359 z"
       id="path2572" />
    <path
       d="m 486.34,263.72 c -1.3281,0.92578 -2.7734,1.668 -4.3008,2.207 -0.54688,0.10937 -1.8438,-1.2539 -2.0273,-2.1133 -0.34766,-1.6328 2.2109,-3.7461 3.7773,-3.1289 0.83203,0.32812 1.3203,1.5117 2.5508,3.0352 z"
       id="path2574" />
    <path
       d="m 450.21,413.22 c -0.0195,0.82812 -0.10547,1.6562 -0.26562,2.4688 -0.5,1.6641 -1.0859,3.4844 -3.3203,3.125 -0.69141,-0.10938 -1.8672,-1.4297 -1.7344,-1.75 h -0.004 c 0.59766,-1.4961 1.4492,-2.8711 2.5273,-4.0664 0.36328,-0.39062 1.6719,0.10547 2.7969,0.22266 z"
       id="path2576" />
    <path
       d="m 460.16,441.27 c 0.0547,-3.9297 1.9141,-4.9141 4.4102,-4.6602 0.58984,0.0586 1.6367,1.8008 1.4336,2.4414 -0.95312,3.0195 -3.4375,1.832 -5.8438,2.2188 z"
       id="path2578" />
    <path
       d="m 412.12,344 c -0.89062,4.3203 -3.3789,2.918 -5.6406,2.6758 0.55859,-4.7383 0.72656,-4.8125 5.6406,-2.6758 z"
       id="path2580" />
    <path
       d="m 524.46,339.11 c -0.15234,3.1094 -0.97266,4.9922 -3.6406,4.5742 -0.69141,-0.10938 -1.7812,-2.2461 -1.5078,-3.0547 0.83594,-2.4727 2.8008,-2.543 5.1484,-1.5195 z"
       id="path2582" />
    <path
       d="m 111.53,397.66 c 1.3867,2.7578 0.67578,4.4102 -1.7656,5.0039 -0.76562,0.1875 -2.5547,-0.70703 -2.6094,-1.2383 -0.27344,-2.6953 1.8438,-3.1758 4.375,-3.7656 z"
       id="path2584" />
    <path
       d="m 162.66,379.69 c -1.2461,1.0273 -2.6406,1.8516 -4.1406,2.4531 -0.58203,0.10938 -1.8945,-1.1758 -2.0898,-2.0117 -0.23828,-0.74219 -0.0859,-1.5547 0.40625,-2.1602 0.48828,-0.60547 1.25,-0.92578 2.0273,-0.84766 0.98828,0.0469 1.9258,1.2422 3.7969,2.5664 z"
       id="path2586" />
    <path
       d="m 394.59,328.76 c 0.0352,-2.6562 1.0703,-4.332 3.6992,-3.8906 0.65234,0.10938 1.6797,2.2188 1.3906,2.9688 -1.0664,2.7617 -3.0859,1.9102 -5.0898,0.92188 z"
       id="path2588" />
    <path
       d="m 435.27,309.88 c -1.3164,1.0742 -2.2383,2.4062 -3.0977,2.3672 -0.93359,-0.043 -1.8047,-1.3672 -2.707,-2.1289 h -0.004 c 0.95312,-0.96094 2.0273,-1.793 3.1953,-2.4727 0.36328,-0.16406 1.3906,1.1562 2.6133,2.2344 z"
       id="path2590" />
    <path
       d="m 421.9,379.53 c -1.1016,1.0039 -2.3477,1.8438 -3.6914,2.4883 -0.50781,0.15234 -2.0586,-1.1211 -2.0781,-1.7773 -0.0508,-0.85547 0.29688,-1.6914 0.94141,-2.2578 0.64844,-0.56641 1.5195,-0.80078 2.3633,-0.63281 0.64453,0.043 1.2266,1.0391 2.4648,2.1797 z"
       id="path2592" />
    <path
       d="m 108.5,379.31 c 1.1641,1.8711 2.082,3.6641 -0.29688,4.832 -0.73438,0.36328 -3.043,-0.57422 -3.168,-1.2031 -0.46484,-2.3555 1.2031,-3.2539 3.4648,-3.6289 z"
       id="path2594" />
    <path
       d="m 351.35,455.89 c 2.4922,1.4336 3.2266,2.7617 1.6719,4.4336 -1.5703,1.6914 -2.9297,0.9375 -4.3398,-0.88672 z"
       id="path2596" />
    <path
       d="m 131.25,381.86 c -0.19531,-2.8242 0.76172,-4.2891 3.1562,-3.9648 0.88672,0.5 1.4492,1.4258 1.4883,2.4414 -0.53906,2.6992 -2.5078,2.1367 -4.6445,1.5234 z"
       id="path2598" />
    <path
       d="m 534.3,409.8 c 2.0234,2.9883 2.1211,4.5742 0.26172,5.5039 -0.66797,0.33203 -1.9062,-0.48438 -2.8867,-0.77734 z"
       id="path2600" />
    <path
       d="m 422.75,408.68 c 3.4805,2.8789 3.4805,2.8789 0.67969,5.6445 -1.6133,-1.7695 -3.75,-3.2539 -0.67969,-5.6445 z"
       id="path2602" />
    <path
       d="m 516.23,320.33 c 0.67578,2.1016 0.60938,3.8594 -1.9219,4.3398 -0.61328,0.11719 -2.0391,-0.83984 -2.0508,-1.3242 -0.0586,-2.4609 1.6484,-3.0508 3.9727,-3.0156 z"
       id="path2604" />
    <path
       d="m 150.09,401.77 c -1.3516,-1.6875 -2.4648,-2.5 -2.5898,-3.4414 -0.0781,-0.60156 1.2344,-1.8281 2.0625,-1.9727 0.6875,-0.12109 2.2188,0.91406 2.2383,1.4727 0.0352,0.98438 -0.80078,2.0039 -1.7109,3.9414 z"
       id="path2606" />
    <path
       d="m 475.61,437.96 c -0.98828,-1.5664 -1.9727,-2.6797 -1.793,-2.9219 h 0.004 c 0.87109,-1 1.8438,-1.9102 2.8984,-2.7148 0.45703,0.52344 1.4023,1.2422 1.2852,1.5352 -0.69531,1.4258 -1.4961,2.7969 -2.3945,4.1016 z"
       id="path2608" />
    <path
       d="m 436.04,380.4 c -1.1484,-1.2383 -2.5195,-2.1992 -2.3672,-2.6562 l 0.004,-0.004 c 0.4375,-1.0781 1.25,-1.9648 2.2891,-2.4922 0.34375,-0.17578 2.1055,1.1836 2.0352,1.6836 -0.44922,1.2578 -1.1133,2.4336 -1.9609,3.4688 z"
       id="path2610" />
    <path
       d="m 414.84,327.05 c 0.30078,2.2695 0.0391,4.0156 -2.4844,4.2422 -0.57031,0.0508 -1.832,-1.1445 -1.7773,-1.6562 0.25391,-2.3281 1.7695,-3.0703 4.2617,-2.5859 z"
       id="path2612" />
    <path
       d="m 494.27,427.71 c 0.32812,2.9219 -0.51172,4.6914 -3.6445,4.9648 -0.67188,-3.7578 -0.67188,-3.7578 3.6445,-4.9648 z"
       id="path2614" />
    <path
       d="m 115.36,381.73 c -0.28125,-2.2773 0.14062,-3.9023 2.4492,-3.8711 0.53516,0.008 1.5078,1.3008 1.4961,1.9922 -0.043,2.418 -1.5938,2.6758 -3.9453,1.8789 z"
       id="path2616" />
    <path
       d="m 388.68,472.31 c 0.46484,2.8164 -0.91797,3.7539 -3.082,3.6289 -0.45703,-0.0273 -1.3438,-1.4297 -1.1797,-1.9023 0.75781,-2.1484 2.3906,-2.3555 4.2617,-1.7266 z"
       id="path2618" />
    <path
       d="m 382.66,452.97 3.6406,-4.8633 c 1.0703,4.6914 1.0703,4.6914 -3.6406,4.8633 z"
       id="path2620" />
    <path
       d="m 410.96,276.05 c 1.2734,2.2734 0.9375,3.8281 -1.0078,4.8281 h -0.004 c -0.68359,0.17188 -1.4102,-0.0234 -1.918,-0.51562 -0.98828,-2.2773 0.51953,-3.2539 2.9297,-4.3125 z"
       id="path2622" />
    <path
       d="m 402.49,398.3 5.1406,-3.4844 c 0.49219,4.8789 0.49219,4.8789 -5.1406,3.4844 z"
       id="path2624" />
    <path
       d="m 113.21,391.44 c 1.543,1.8398 1.8086,3.3008 -0.1875,4.375 -0.68359,0.21484 -1.4258,0.0586 -1.9648,-0.40625 -1.1953,-1.9922 0.043,-3.0234 2.1523,-3.9688 z"
       id="path2626" />
    <path
       d="m 171.92,379.54 3.8086,-4.4609 c 1.7695,4.5156 1.7656,4.5195 -3.8086,4.4609 z"
       id="path2628" />
    <path
       d="m 100.63,362.79 c -0.98828,0.83594 -2.0938,1.5234 -3.2852,2.0391 -0.51953,0.12891 -1.3164,-0.875 -1.9883,-1.3633 0.875,-0.98047 1.8281,-1.8867 2.8516,-2.707 0.16797,-0.11719 1.207,0.99609 2.4219,2.0312 z"
       id="path2630" />
    <path
       d="m 395.23,349.03 c 0.91406,1.7773 1.2773,3.418 -1.0078,4.125 -0.63672,0.19922 -2.1875,-0.46094 -2.2656,-0.91016 -0.43359,-2.4492 1.0781,-3.207 3.2734,-3.2148 z"
       id="path2632" />
    <path
       d="m 503.03,327.2 c -0.875,0.98438 -1.8477,1.8789 -2.9062,2.6602 -0.21484,0.12891 -1.1719,-0.99609 -1.7891,-1.5469 v 0.004 c 0.76562,-0.89062 1.6016,-1.7188 2.5039,-2.4727 0.1875,-0.14062 1.0469,0.62891 2.1914,1.3555 z"
       id="path2634" />
    <path
       d="m 412.31,478.56 c -1.1836,0.83984 -1.9141,1.6953 -2.7617,1.832 -0.49609,0.082 -1.1758,-0.98438 -1.7773,-1.5312 l 0.004,0.004 c 0.61719,-0.81641 1.3594,-1.5273 2.2031,-2.1016 0.3125,-0.15625 1.2305,0.91797 2.332,1.7969 z"
       id="path2636" />
    <path
       d="m 464.65,423.62 c 0.61719,2.1875 0.35156,3.7656 -1.9141,3.8242 -0.69531,0.0195 -2.125,-1.4219 -2.0195,-1.9609 0.43359,-2.2148 2.2227,-1.9492 3.9336,-1.8633 z"
       id="path2638" />
    <path
       d="m 95.727,378.19 3.1875,-1.9805 c 0.33203,0.92187 1.1562,2.0195 0.90625,2.7344 -0.73047,2.0742 -2.2188,1.1641 -3.4961,0.67578 z"
       id="path2640" />
    <path
       d="m 143.11,404.51 c -0.0937,-2.0508 0.72266,-3.3242 2.9141,-2.9023 0.4375,0.0859 1.0703,1.6953 0.83203,2.3047 -0.75,1.9258 -2.2031,1.6211 -3.7461,0.59766 z"
       id="path2642" />
    <path
       d="m 401.47,368.16 3.0117,-4.793 c 1.793,4.8945 1.7188,5.0039 -3.0117,4.793 z"
       id="path2644" />
    <path
       d="m 425.64,471.17 c 0.66016,0.62109 1.2656,1.2969 1.8086,2.0273 -0.79688,1.0625 -1.707,2.043 -2.7109,2.918 -0.082,0.0703 -1.5078,-1.0586 -1.4375,-1.2031 0.70703,-1.293 1.4883,-2.543 2.3398,-3.7422 z"
       id="path2646" />
    <path
       d="m 483.38,250.55 c -1.0742,0.89844 -2.2031,1.7227 -3.3867,2.4766 -0.13281,0.0742 -1.3398,-1.2266 -1.2461,-1.375 0.55859,-0.92188 1.293,-1.7266 2.1602,-2.3672 0.25391,-0.17578 1.1367,0.55469 2.4727,1.2656 z"
       id="path2648" />
    <path
       d="m 92.75,348.98 c 1.5977,3.3047 0.55078,4.4219 -2.5195,4.3867 -1.2734,-2.4336 -0.07031,-3.4883 2.5195,-4.3867 z"
       id="path2650" />
    <path
       d="m 152.96,391.09 c -2.5938,0.17578 -3.5898,-0.80078 -3.1562,-2.9219 0.10547,-0.52734 1.1523,-1.3359 1.6016,-1.2422 2.668,0.57031 1.3984,2.4531 1.5547,4.1641 z"
       id="path2652" />
    <path
       d="m 345.5,450.57 c -1.0391,0.72266 -1.7734,1.6289 -2.3984,1.5586 -0.67578,-0.0781 -1.25,-1.0664 -1.8672,-1.6602 l 2.3281,-2.1172 z"
       id="path2654" />
    <path
       d="m 130.27,417.69 c -0.74219,0.0859 -1.6289,0.46484 -2.1953,0.1875 v 0.004 c -0.89062,-0.38281 -1.6016,-1.0938 -1.9844,-1.9844 -0.125,-0.5 1.0703,-1.9102 1.5977,-1.8711 0.93359,0.23047 1.7422,0.8125 2.2539,1.6289 0.35938,0.51172 0.12891,1.4414 0.16406,2.1836 z"
       id="path2656" />
    <path
       d="m 416.87,457.39 c -1.2773,1.4219 -1.2812,5.2344 -4.832,2.5156 0.48438,-3.1758 2.5586,-3.0938 4.9258,-2.4453 z"
       id="path2658" />
    <path
       d="m 519.4,351.38 c 0.62109,2.0547 0.26172,3.3398 -1.7773,3.4688 -0.57031,0.0352 -1.7031,-0.67969 -1.6992,-1.0312 0.0508,-2.3164 1.625,-2.4844 3.4766,-2.4375 z"
       id="path2660" />
    <path
       d="m 541.18,350.35 c 1.2031,1.5703 1.332,3.0312 -0.625,4.0273 -0.69141,0.10547 -1.3867,-0.15625 -1.8359,-0.69141 -0.73047,-2.0508 0.10938,-3.2227 2.4609,-3.3359 z"
       id="path2662" />
    <path
       d="m 510.41,314.75 c 0.22656,2.6133 -0.25781,3.957 -2.4727,3.8281 -0.41797,-0.0234 -1.1406,-0.65625 -1.1367,-1.0039 0.004,-2.0586 1.3789,-2.5742 3.6094,-2.8242 z"
       id="path2664" />
    <path
       d="m 505.85,431.59 c -0.45312,-2.2227 0.46094,-3.3633 2.4922,-3.3125 0.44922,0.0117 1.332,1.2969 1.2188,1.832 -0.46484,2.1953 -1.9805,2.1836 -3.7109,1.4805 z"
       id="path2666" />
    <path
       d="m 482.5,272.3 c 0.29297,0.86328 0.94141,1.7969 0.78516,2.5703 -0.24609,0.96094 -0.86328,1.7852 -1.7109,2.2969 -0.33203,0.1875 -2.0039,-0.94922 -1.9609,-1.3633 0.30078,-0.94531 0.78516,-1.8242 1.4258,-2.5781 z"
       id="path2668" />
    <path
       d="m 399.11,270.2 c -0.85156,-0.99219 -1.7344,-1.8398 -1.6484,-1.9531 0.62109,-0.79297 1.3516,-1.4883 2.1758,-2.0664 0.10156,-0.0742 1.1523,0.75781 1.0938,0.92188 -0.47266,1.0664 -1.0117,2.1016 -1.6211,3.0977 z"
       id="path2670" />
    <path
       d="m 388.31,442.26 c 1.8125,1.2266 2.0352,2.6016 0.32422,3.9453 -0.62891,0.24219 -1.3359,0.14062 -1.8672,-0.27344 -1.3242,-1.8984 -0.23828,-2.9492 1.543,-3.6719 z"
       id="path2672" />
    <path
       d="m 171.15,388.28 -4.168,2.9805 -1.4141,-2.0117 v 0.004 c 0.75391,-0.66797 1.5938,-1.2227 2.5039,-1.6484 0.625,-0.19922 1.4688,0.28906 3.0781,0.67578 z"
       id="path2674" />
    <path
       d="m 132.45,404.23 c 1.5117,1.8047 1.9375,3.1172 0.16406,4.1797 h -0.004 c -0.53125,0.14453 -1.1016,0.0117 -1.5117,-0.35938 -1.4648,-1.7031 -0.29297,-2.6367 1.3516,-3.8203 z"
       id="path2676" />
    <path
       d="m 537.06,391.04 c 0.87109,2.1016 0.11719,3.2188 -1.8906,3.5469 v -0.004 c -0.52344,-0.0508 -0.98438,-0.37109 -1.2109,-0.84766 -0.21875,-2.1641 1.0703,-2.75 3.1016,-2.6953 z"
       id="path2678" />
    <path
       d="m 393.88,468.62 c 1.4023,1.9648 1.0234,3.3086 -0.96875,4.0664 -0.54297,0.0195 -1.0586,-0.23828 -1.3633,-0.69141 -0.95703,-2.3555 0.83203,-2.7109 2.332,-3.375 z"
       id="path2680" />
    <path
       d="m 511.25,342.03 3.2031,-3.6094 c 1.5352,3.5742 0.55078,4.5977 -1.8633,4.6758 z"
       id="path2682" />
    <path
       d="m 190.11,378.04 -1.25,3.7695 c -0.76172,-0.37891 -2.0312,-0.60156 -2.1992,-1.1602 -0.625,-2.0742 0.96094,-2.3359 3.4492,-2.6094 z"
       id="path2684" />
    <path
       d="m 482.01,290.38 c -0.58594,-3.0234 0.43359,-4.1992 3.1445,-4.582 0.45312,2.5547 -0.0586,4.0938 -3.1445,4.582 z"
       id="path2686" />
    <path
       d="m 533.99,338.43 c -0.008,2 -0.48047,3.2891 -2.4609,3.1172 -0.50781,-0.19141 -0.88281,-0.62891 -0.98438,-1.1641 0.082,-1.9102 1.1914,-2.5312 3.4453,-1.9531 z"
       id="path2688" />
    <path
       d="m 492.41,285.93 c 0.74219,1.0625 1.543,1.7656 1.4141,2.1133 l -0.004,0.004 c -0.42188,0.74609 -0.96875,1.4141 -1.6172,1.9805 -0.46094,-0.48828 -1.3438,-1.0312 -1.2891,-1.4492 0.10156,-0.75391 0.76172,-1.4336 1.4961,-2.6484 z"
       id="path2690" />
    <path
       d="m 544.52,368.6 c -0.18359,-2.1055 0.79297,-3.0625 2.5586,-3.0625 0.33594,0 1.082,1.207 0.94141,1.625 -0.14453,0.74609 -0.65625,1.3711 -1.3633,1.6602 -0.70312,0.28906 -1.5078,0.20703 -2.1367,-0.22266 z"
       id="path2692" />
    <path
       d="m 508.6,420.73 c -1.0938,0.71484 -2.2422,1.332 -3.4414,1.8516 -0.23047,0.0781 -0.82422,-0.91406 -1.25,-1.4102 h 0.004 c 0.83203,-0.78906 1.7266,-1.5117 2.6641,-2.1641 0.16016,-0.0977 0.91406,0.75781 2.0234,1.7227 z"
       id="path2694" />
    <path
       d="m 328.57,431.13 c 1.5273,1.8711 0.92578,3.0391 -0.58203,3.875 -0.51172,0.12109 -1.0508,-0.0312 -1.4219,-0.40625 -0.88281,-1.7734 0.0312,-2.7695 2.0039,-3.4688 z"
       id="path2696" />
    <path
       d="m 347.59,436.69 -2.7227,1.8359 c -0.33984,-0.5625 -1.0977,-1.3906 -0.94141,-1.6406 v -0.004 c 0.58984,-0.74609 1.2734,-1.4141 2.0352,-1.9883 z"
       id="path2698" />
    <path
       d="m 337.48,439.04 c 0.73047,1.0312 1.5195,1.668 1.4219,2.1133 -0.15625,0.73047 -0.89063,1.3398 -1.3789,2 -0.49219,-0.48047 -1.4062,-0.98438 -1.3828,-1.4336 0.043,-0.74609 0.6875,-1.4609 1.3398,-2.6797 z"
       id="path2700" />
    <path
       d="m 368.39,455.24 c 0.30859,-1.8008 0.97656,-3.1289 3.2344,-2.8008 -0.64453,3.0742 -0.64453,3.0742 -3.2344,2.8008 z"
       id="path2702" />
    <path
       d="m 392.54,463.51 3.4922,-4.207 c 0.95312,3.625 0.95312,3.625 -3.4922,4.207 z"
       id="path2704" />
    <path
       d="m 418.19,470.43 c -0.65625,0.82031 -1.375,1.5898 -2.1484,2.3008 -0.11328,0.0937 -0.98828,-0.74219 -1.5117,-1.1445 l 2.2109,-2.4062 z"
       id="path2706" />
    <path
       d="m 488.8,275.15 1.918,-3.375 c 0.6875,0.21094 1.2422,0.23437 1.3086,0.42969 0.91797,2.582 -0.21875,3.2461 -3.2266,2.9453 z"
       id="path2708" />
    <path
       d="m 410.35,247.01 c 1.2969,1.5742 0.9375,2.8047 -0.69531,3.6562 v -0.004 c -0.51562,0.0352 -1.0156,-0.19922 -1.3203,-0.62109 -0.74609,-1.8867 0.18359,-2.7617 2.0156,-3.0312 z"
       id="path2710" />
    <path
       d="m 507.96,334.2 c 0.78906,1.7344 0.36328,2.8711 -1.5273,3.1758 -0.375,0.0586 -1.207,-0.48438 -1.2227,-0.78125 -0.0898,-1.8242 0.91797,-2.5625 2.75,-2.3945 z"
       id="path2712" />
    <path
       d="m 517.76,305.43 c 1.3398,2.2422 1.5508,3.5469 -0.375,4.2227 -0.42187,0.14844 -1.1602,-0.60938 -1.7539,-0.94922 z"
       id="path2714" />
    <path
       d="m 531.4,308.14 c 0.78125,0.96094 1.6367,1.6133 1.5273,1.9609 -0.37891,0.72656 -0.88281,1.3828 -1.4961,1.9297 -0.48438,-0.4375 -1.3945,-0.91797 -1.3555,-1.3047 0.29688,-0.92969 0.74219,-1.8047 1.3242,-2.5859 z"
       id="path2716" />
    <path
       d="m 522.75,321.01 c -0.76562,-3.2109 0.0625,-4.0469 3.2852,-4.1523 z"
       id="path2718" />
    <path
       d="m 495.64,303.21 c -1.0977,-2.957 -0.0352,-3.5234 3.0117,-3.3164 z"
       id="path2720" />
    <path
       d="m 228.38,402.83 c 6.1172,-4.8711 30.332,-7.0781 40.426,-3.5664 -0.80859,2.7383 -3.0703,2.6289 -4.9883,2.2734 -10.066,-0.98828 -20.223,-0.27344 -30.051,2.1133 -1.7266,0.25391 -3.4688,0.39062 -5.2031,0.58203 z"
       id="path2722" />
    <path
       d="m 177.62,423.76 c 1.4453,-2.9258 3.6406,-5.4141 6.3633,-7.2188 2.7188,-1.8047 5.8672,-2.8594 9.125,-3.0547 0,0.91406 0.32031,2.3281 -0.0469,2.5352 h -0.004 c -4.832,3.1641 -10.012,5.7617 -15.438,7.7383 z"
       id="path2724" />
    <path
       d="m 201.52,411.63 c 1.0625,-3.7031 5.5469,-5.8398 13.289,-6.1211 -0.20313,0.91406 -0.11328,2.0117 -0.60938,2.4688 -3.7578,2.4766 -8.1797,3.75 -12.68,3.6523 z"
       id="path2726" />
    <path
       d="m 230.33,441.36 c 3.8945,-2.7812 8.4297,-4.5273 13.18,-5.0781 6.5781,-1.1055 13.145,-2.418 19.77,-3.0664 h 0.004 c 5.2656,-0.42969 10.57,-0.12891 15.758,0.89844 -0.80469,0.72266 -1.6602,1.3867 -2.5586,1.9922 -0.54297,0.19531 -1.1289,0.23047 -1.6914,0.10156 -9.7227,-0.53516 -19.469,0.35547 -28.934,2.6406 -3.3516,0.68359 -6.6641,1.5547 -9.918,2.6016 -1.7266,0.51172 -3.3633,1.7812 -5.6094,-0.0898 z"
       id="path2728" />
    <path
       d="m 220.05,443.81 c -2.5234,3.7734 -7.0625,5.6602 -11.516,4.7852 3.4922,-2.5273 6.5977,-5.9453 11.516,-4.7852 z"
       id="path2730" />
  </g>
</svg>
